<svg width="1920" height="676" viewBox="0 0 1920 676" fill="none" xmlns="http://www.w3.org/2000/svg">
<g clip-path="url(#clip0_2990_2254)">
<rect width="1920" height="676" fill="black" fill-opacity="0.2"/>
<rect width="1920" height="676" fill="#151762"/>
<path d="M1191.22 320.175C1210.12 320.853 1417.36 362.545 1427.79 368.281L1435.09 369.807C1475.92 371.983 1520.51 382.141 1560.8 390.272C1568.31 395.365 1572.08 399.208 1574.28 409.14C1576.4 418.74 1576.32 438.795 1571.99 447.47C1579.62 461.909 1582.68 549.172 1578.6 565.737C1578.01 568.11 1577.04 569.679 1575.63 571.544L1574.93 572.25L1569.13 569.036C1569.4 567.27 1569.54 566.959 1569.32 564.91C1567.86 551.489 1552.52 502.167 1543.51 495.866C1543.03 506.646 1522.9 544.312 1515.63 551.976C1514.6 553.057 1513.52 553.989 1512.32 554.823C1512.09 561.795 1511.25 566.316 1506.24 571.381C1505.06 572.575 1503.73 573.635 1502.43 574.666C1504.34 585.488 1480.85 632.909 1474.41 643.032C1472.87 645.441 1470.74 647.243 1468.52 648.811C1468.19 654.843 1465.9 659.598 1461.81 663.582C1459.34 665.991 1456.22 667.912 1453.32 669.593C1453.33 683.601 1429.58 725.124 1419.62 735.452C1418.3 736.822 1416.65 737.839 1415.03 738.715C1413.67 747.164 1410.87 752.575 1404.39 757.619C1403.88 758.015 1403.36 758.375 1402.84 758.749C1402.43 772.927 1376.75 808.707 1367.13 818.554C1365.34 820.383 1363.19 821.818 1361.09 823.146L1360.16 823.739C1359.69 830.768 1355.34 836.37 1350.61 840.855C1348.16 843.193 1345.48 845.094 1342.66 846.831C1341.74 856.213 1302 907.18 1293.25 915.904C1291.96 917.19 1290.55 917.868 1288.98 918.638C1287.52 927.115 1284.33 934.801 1277.81 939.943C1276.97 940.593 1276.1 941.187 1275.23 941.773C1276.73 954.065 1264.37 972.77 1260.07 984.666C1251.92 1007.24 1253.63 1053.52 1245.34 1070.57C1247.01 1073.33 1248.51 1075.57 1249.45 1078.75C1252.2 1085.73 1271.13 1146.78 1270.8 1150.41C1277.6 1155.26 1286.59 1163.7 1288.73 1172.6L1288.14 1175.6C1287.63 1175.94 1287.14 1176.29 1286.63 1176.61C1281.79 1179.54 1197.87 1175.76 1189.6 1173.21C1193.52 1162.1 1193.46 1154.28 1189.13 1143.35C1189.82 1141.86 1189.89 1141.78 1190.53 1140.02C1196.17 1124.38 1195.03 1075.28 1189.29 1060.36C1189.56 1059.78 1189.84 1059.2 1190.09 1058.61C1195.75 1044.77 1194.57 940.664 1189.58 925.688C1189.9 924.869 1190.21 924.049 1190.49 923.208C1193.29 914.597 1191.89 909.292 1188.73 901.38C1189.52 899.826 1190.2 898.251 1190.75 896.57C1195.59 881.982 1194.56 836.97 1188.82 823.414C1188.98 823.103 1189.15 822.807 1189.31 822.489C1193.9 813.213 1192.28 803.889 1189.9 794.253C1195.19 777.603 1194.7 738.341 1189.91 721.783C1193.1 712.041 1192.42 703.967 1189.81 694.275C1190.07 693.498 1190.35 692.721 1190.59 691.937C1195.03 677.745 1194.67 637.409 1188.87 624.27C1189.65 622.546 1190.39 620.816 1190.97 619C1193.65 610.679 1191.82 604.533 1188.82 596.925C1189 596.565 1189.2 596.211 1189.37 595.844C1195.87 581.772 1194.06 539.105 1189.72 524.341C1193.02 514.932 1192.19 508.574 1189.79 499.186C1195.69 483.574 1194.9 432.897 1189.48 417.68C1192.67 408.483 1192.12 403.439 1188.75 394.68C1197 377.832 1191.9 339.912 1191.22 320.175Z" fill="#FF6602"/>
<path d="M1146.72 337.425C1162.76 336.684 1177.62 329.047 1191.22 320.175C1191.9 339.912 1197 377.832 1188.75 394.68C1192.12 403.439 1192.66 408.483 1189.48 417.68C1194.9 432.897 1195.69 483.574 1189.79 499.186C1192.19 508.574 1193.02 514.932 1189.71 524.341C1194.06 539.105 1195.86 581.772 1189.37 595.844C1189.2 596.211 1189 596.565 1188.81 596.925C1191.82 604.533 1193.65 610.679 1190.97 619C1190.39 620.816 1189.64 622.546 1188.87 624.27C1194.67 637.409 1195.03 677.745 1190.59 691.937C1190.35 692.721 1190.07 693.498 1189.8 694.275C1192.42 703.967 1193.1 712.041 1189.91 721.783C1194.7 738.341 1195.19 777.603 1189.9 794.253C1192.28 803.889 1193.9 813.213 1189.31 822.489C1189.15 822.807 1188.98 823.103 1188.81 823.414C1194.55 836.97 1195.59 881.982 1190.75 896.57C1190.19 898.251 1189.52 899.826 1188.73 901.38C1191.89 909.292 1193.28 914.597 1190.49 923.208C1190.21 924.049 1189.89 924.869 1189.58 925.688C1194.57 940.664 1195.75 1044.77 1190.09 1058.61C1189.84 1059.2 1189.56 1059.78 1189.29 1060.36C1195.03 1075.28 1196.16 1124.38 1190.53 1140.02C1189.89 1141.78 1189.82 1141.86 1189.13 1143.35C1193.46 1154.28 1193.51 1162.1 1189.59 1173.21C1185.09 1177.08 981.122 1171.07 959.891 1170.76C960.88 1168.75 961.864 1166.59 962.304 1164.33C965.867 1146.26 961.008 1024.18 960.867 995.453L960 563C960.006 538.806 960 447 960 427.5C982.106 420.337 1142.2 345.803 1146.72 337.425Z" fill="#DF7C9A"/>
<path d="M1969.16 -2.96288C1969.34 -54.2009 1974.71 -102.652 1936.48 -142.413C1935.22 -143.728 1933.94 -145.01 1932.62 -146.259C1931.3 -147.509 1929.96 -148.725 1928.58 -149.907C1927.2 -151.089 1925.8 -152.235 1924.37 -153.345C1922.94 -154.456 1921.48 -155.53 1920 -156.567C1918.52 -157.603 1917.01 -158.602 1915.48 -159.562C1913.95 -160.524 1912.39 -161.445 1910.82 -162.327C1909.24 -163.208 1907.64 -164.05 1906.03 -164.851C1904.41 -165.652 1902.77 -166.412 1901.12 -167.13C1899.47 -167.848 1897.8 -168.524 1896.11 -169.158C1894.42 -169.792 1892.72 -170.383 1891.01 -170.931C1889.29 -171.479 1887.57 -171.983 1885.83 -172.443C1884.09 -172.904 1882.34 -173.32 1880.58 -173.692C1878.82 -174.063 1877.05 -174.39 1875.28 -174.673C1873.5 -174.955 1871.72 -175.192 1869.94 -175.385C1868.15 -175.577 1866.36 -175.723 1864.56 -175.824C1862.77 -175.926 1860.97 -175.982 1859.18 -175.993C1857.36 -176.014 1855.54 -175.988 1853.72 -175.916C1851.9 -175.842 1850.08 -175.723 1848.27 -175.557C1846.46 -175.392 1844.65 -175.18 1842.85 -174.922C1841.04 -174.664 1839.25 -174.36 1837.46 -174.01C1835.67 -173.66 1833.89 -173.265 1832.13 -172.825C1830.36 -172.384 1828.6 -171.898 1826.86 -171.368C1825.11 -170.836 1823.38 -170.26 1821.66 -169.642C1819.95 -169.023 1818.25 -168.36 1816.56 -167.654C1814.88 -166.948 1813.21 -166.199 1811.57 -165.408C1809.92 -164.617 1808.29 -163.785 1806.68 -162.91C1805.08 -162.036 1803.49 -161.12 1801.93 -160.164C1800.37 -159.209 1798.83 -158.215 1797.32 -157.181C1795.8 -156.146 1794.31 -155.073 1792.85 -153.963C1791.39 -152.853 1789.96 -151.707 1788.56 -150.523C1787.15 -149.34 1785.78 -148.121 1784.43 -146.867C1783.08 -145.613 1781.77 -144.325 1780.49 -143.004C1741.98 -103.49 1749.74 -52.5258 1749.89 -1.61217C1741.16 -1.16941 1732.44 -0.624606 1723.7 -0.734787L1297.06 -0.993923C1296.22 0.546563 1295.42 2.17478 1294.9 3.85809C1293.79 7.48997 1292.77 547.336 1292.77 547.336C1292.77 547.336 1290.91 921.807 1294.32 933.961C1294.32 933.961 1293.97 1106.72 1300.31 1158.29C1302.11 1160.59 1303.3 1162.03 1306.02 1163.29C1324.84 1163.45 1343.66 1163.2 1362.47 1162.56C1394.92 1164.32 1427.9 1162.98 1460.39 1162.83L1551.81 1162.89L1649.98 1162.58L1718.44 1162.66L1730.17 1162.85L1751.35 1162.75C1784.05 1163.24 1816.83 1162.78 1849.53 1162.79L1867.39 1162.8L1933.8 1162.72L1933.92 591.412L1968.8 591.432L1982.28 591.335L1982.29 449.255C1982.27 426.757 1985.49 397.684 1980.35 376.027L1982.33 365.671C1986.78 361.771 1989.75 362.638 1995.49 362.375C1999.42 322.786 1995.09 280.009 1994.82 240.032C1994.23 158.961 1994.57 77.894 1995.82 -3.16897L1969.16 -2.96288Z" fill="#303289"/>
<path d="M1650.02 67.4388L1549.94 66.7637L1550.52 1163.46L1649.85 1163.14L1650.02 67.4388Z" fill="#FF6601"/>
<path d="M1459.6 66.937L1362.92 66.7637C1360.37 70.8501 1359.85 74.1536 1359.69 78.8763C1356.76 166.68 1359.45 255.683 1359.45 343.611L1359.43 862.074V1075.29C1359.45 1095.87 1356.24 1139.75 1360.45 1157.23C1360.93 1159.22 1361.74 1160.82 1362.76 1162.56C1395.14 1164.32 1428.07 1162.98 1460.5 1162.83L1459.6 66.937Z" fill="#FF6601"/>
<path d="M1295.46 338.276L1191.12 321.24L1192.18 1149.62H1303.98L1295.46 338.276Z" fill="#FF6601"/>
<path d="M1092.49 435.998L1097.79 437.467C1098.25 438.52 1098.97 440.039 1099.29 441.226C1103.22 455.968 1102.82 507.769 1096.71 521.721C1090.4 527.965 1038.77 545.838 1027.1 550.726C1019.15 535.552 1032.7 487.192 1022.5 465.046C1045.59 459.627 1070.6 445.902 1092.49 435.998Z" fill="#0021FE"/>
<path d="M1093.03 618.061L1097.91 619.452C1098.36 620.512 1099.09 622.08 1099.39 623.288C1103.27 638.412 1102.63 689.931 1096.61 704.292C1084.82 715.1 1044.21 727.257 1028.2 732.979C1022.74 729.737 1029.73 662.706 1022.3 649.15C1044.96 643.845 1071.34 627.731 1093.03 618.061Z" fill="#0021FE"/>
<path d="M1191.12 322.305L1295.46 337.211L1191.12 238.189V322.305Z" fill="white"/>
<path d="M1191.12 322.305V238.189L959 429.845L1191.12 322.305Z" fill="#A6AEE3"/>
<path fill-rule="evenodd" clip-rule="evenodd" d="M525.66 520.375C513.579 485.62 556.194 456.386 570.997 422.699C581.171 399.545 583.226 374.055 598.733 354.076C616.252 331.506 638.056 313.348 664.42 302.337C697.836 288.382 734.979 269.77 768.642 283.117C802.879 296.691 822.517 334.116 833.353 369.315C843.193 401.276 830.305 433.794 825.203 466.844C819.975 500.718 822.512 536.395 803.195 564.708C781.21 596.931 750.787 633.213 711.779 633.09C672.596 632.966 653.674 584.427 620.158 564.129C589.722 545.697 537.343 553.986 525.66 520.375Z" fill="#E84845"/>
<path fill-rule="evenodd" clip-rule="evenodd" d="M506.048 21.9455C484.573 -39.8352 560.325 -91.8004 586.638 -151.681C604.723 -192.84 608.376 -238.15 635.942 -273.664C667.083 -313.784 705.84 -346.062 752.705 -365.634C812.104 -390.441 878.129 -423.525 937.968 -399.8C998.827 -375.671 1033.73 -309.145 1053 -246.575C1070.49 -189.762 1047.58 -131.959 1038.51 -73.2104C1029.22 -12.9976 1033.73 50.4214 999.388 100.749C960.308 158.029 906.229 222.523 836.888 222.304C767.237 222.084 733.603 135.802 674.026 99.7217C619.923 66.9565 526.815 81.6901 506.048 21.9455Z" fill="#0021FE"/>
<path fill-rule="evenodd" clip-rule="evenodd" d="M1816.89 -34.3243C1858.14 -26.7305 1882.48 13.1235 1913.75 41.0789C1941.14 65.5644 1978.18 83.3774 1988.1 118.743C1997.9 153.687 1981.08 189.989 1964.59 222.322C1950.17 250.588 1918.59 263.554 1900.84 289.851C1867.77 338.827 1874.71 428.78 1816.89 441.054C1764 452.28 1748.29 360.406 1702.3 331.996C1649.76 299.537 1545.27 326.943 1533.93 266.251C1521.88 201.761 1630.34 181.142 1663.53 124.541C1685.56 86.9775 1659.86 31.2464 1690.1 -0.0862046C1721.26 -32.366 1772.75 -42.4474 1816.89 -34.3243Z" fill="#367D57"/>
<path d="M648.383 -24.3214L960.002 -40.0391V929.67H648.383V-24.3214Z" fill="#0021FE"/>
<path d="M692.084 481.376L774.832 481.394C774.661 530.594 774.881 579.791 775.492 628.985L690.754 628.661C690.858 579.563 691.301 530.468 692.084 481.376Z" fill="#E84845"/>
<path d="M734.917 282.093L778.226 281.831L776.625 434.202L736.482 434.907L691.163 433.968C691.824 383.388 691.688 332.808 690.754 282.228L734.917 282.093Z" fill="#E84845"/>
<path d="M689.383 82.6016L777.846 82.2852C776.562 132.728 778.011 183.515 778.222 233.994L690.144 233.353L689.383 82.6016Z" fill="#E84845"/>
<path d="M826.055 481.403L917.627 481.376C915.453 531.439 915.888 581.61 915.824 631.718C886.17 631.177 856.461 631.475 826.806 631.375C828.79 581.637 826.58 531.195 826.055 481.403Z" fill="#E84845"/>
<path d="M824.691 82.2852L916.264 82.5472C914.034 133.259 915.357 184.577 915.13 235.361C885.404 234.52 855.478 235.189 825.725 235.153L824.691 82.2852Z" fill="#E84845"/>
<path d="M826.055 280.926C855.889 282.32 886.363 280.754 916.26 280.464C913.828 332.231 915.188 384.442 915.332 436.273C885.66 435.121 855.979 434.87 826.289 435.522L826.055 280.926Z" fill="#E84845"/>
<path d="M149.52 -52.3389L652.484 -24.3205V929.671H149.52V-52.3389Z" fill="#0021FE"/>
<path d="M142 -141.604V932.604H278.139V17.1529H344.499V932.604H450.537V17.1529H509.371V932.604H639.353V-141.604H142Z" fill="#E07C9B"/>
<path fill-rule="evenodd" clip-rule="evenodd" d="M1188.28 -266.045C1245.68 -274.697 1294.01 -222.768 1336.77 -183.508C1375.37 -148.068 1400.89 -103.262 1419.08 -54.1223C1438.02 -2.97976 1454.15 50.263 1443.09 103.664C1431.19 161.086 1409.33 227.528 1355.78 251.415C1302.44 275.206 1246.66 215.395 1188.28 217.31C1126.31 219.343 1070.72 284.24 1012.6 262.674C953.626 240.794 928.965 171.148 906.015 112.584C881.78 50.7444 842.667 -23.8203 878.379 -79.8215C915.3 -137.72 1010.24 -107.792 1069.1 -143.162C1119.24 -173.289 1130.44 -257.326 1188.28 -266.045Z" fill="#ECA760"/>
<path fill-rule="evenodd" clip-rule="evenodd" d="M1761.67 195.463C1826.59 203.413 1839.85 294.313 1882.01 344.322C1910.98 378.695 1950.05 401.942 1969.78 442.338C1992.07 487.972 2003.96 536.988 2000.88 587.682C1996.97 651.934 1997.57 725.781 1949.9 769.041C1901.42 813.037 1826.32 815.055 1761.67 804.771C1702.96 795.434 1661.17 749.395 1612.43 715.365C1562.47 680.487 1503.56 656.586 1473.51 603.584C1439.32 543.26 1405.26 466.293 1436.01 404.146C1466.91 341.72 1559.18 349.553 1617.82 311.973C1671.08 277.847 1698.88 187.776 1761.67 195.463Z" fill="#E07C9B"/>
<path fill-rule="evenodd" clip-rule="evenodd" d="M835.984 565.289C902.889 570.24 916.557 626.858 960.002 658.007C989.863 679.416 1030.12 693.896 1050.45 719.057C1073.43 747.481 1085.68 778.01 1082.5 809.586C1078.48 849.606 1079.09 895.602 1029.97 922.547C980.009 949.951 902.614 951.207 835.984 944.802C775.483 938.986 732.415 910.311 682.186 889.115C630.705 867.39 569.989 852.503 539.027 819.49C503.787 781.917 468.685 733.978 500.38 695.269C532.216 656.386 627.31 661.265 687.745 637.858C742.627 616.602 771.283 560.5 835.984 565.289Z" fill="#EBA661"/>
<path d="M265.305 394C274.975 400.953 320.677 485.789 329.109 500.56C342.809 524.56 357.637 547.742 369.941 572.521C384.863 602.568 398.923 633.535 410.125 665.16C411.451 668.761 412.81 672.352 414 676H378.842H336.328C326.707 666.702 316.55 653.28 308.192 642.632L272.363 595.702C261.267 581.055 249.946 566.581 238.403 552.28C232.174 544.815 226.079 537.242 220.118 529.56L215 522.84C219.863 507.596 226.545 492.52 232.327 477.571C243.021 449.596 254.014 421.739 265.305 394Z" fill="#16175C"/>
<path d="M378 676C385.42 670.713 400.954 667.326 410.032 665C411.39 668.654 412.782 672.298 414 676H378Z" fill="#071FF5"/>
<path d="M225 517.34C228.555 511.234 234.818 494.963 241.271 493.133C242.368 492.822 242.896 493.106 243.942 493.465C246.21 495.623 246.76 498.675 246.976 501.82C247.298 506.492 244.241 539.512 243.049 542C236.9 533.898 230.884 525.678 225 517.34Z" fill="#071FF5"/>
<path d="M275 589.09C286.855 577.796 326.775 541.834 340.997 543.029C342.849 543.186 344.688 543.905 345.923 545.471C348.272 548.446 348.16 553.621 347.807 557.281C346.059 575.411 320.537 622.072 310.698 640L275 589.09Z" fill="#071FF5"/>
<path d="M1786 54.0898C1774.15 42.7963 1734.22 6.83354 1720 8.02911C1718.15 8.18628 1716.31 8.90473 1715.08 10.4708C1712.73 13.4457 1712.84 18.6209 1713.19 22.2806C1714.94 40.4108 1740.46 87.072 1750.3 105L1786 54.0898Z" fill="#071FF5"/>
<path d="M94.1654 132C113.453 152.936 128.202 178.462 145.631 201.17C161.52 221.874 178.414 241.627 194.338 262.32C199.583 269.137 205.22 275.914 210 283.127L193.916 470.167C193.679 470.605 193.412 470.731 193.03 471C190.342 468.609 186.015 461.055 183.586 457.622C177.239 448.686 170.788 439.843 164.234 431.091C151.859 414.414 139.177 397.997 126.924 381.216C119.694 371.312 112.94 360.978 105.593 351.179C98.2945 341.443 90.3747 332.285 83.0839 322.541C71.4459 306.988 60.9163 290.654 50.2234 274.317C44.128 265.004 37.6833 255.963 32 246.33C40.9056 230.426 48.9832 213.858 57.6375 197.771C69.656 175.74 81.832 153.817 94.1654 132Z" fill="#16175C"/>
<path d="M32.8421 246C38.53 255.656 44.9798 264.719 51.0801 274.054C61.7815 290.43 72.3194 306.803 83.9667 322.393C91.2633 332.16 99.1894 341.341 106.494 351.1C113.846 360.923 120.605 371.281 127.842 381.209C140.105 398.03 152.797 414.486 165.182 431.203C171.741 439.975 178.196 448.84 184.548 457.797C186.98 461.239 191.31 468.811 194 471.207C194.383 470.938 194.65 470.811 194.887 470.372C192.515 506.549 191.371 536.16 199.559 571.709L213.086 531.108C215.424 524.105 217.519 516.855 220.218 510.027L225.229 517.309C231.065 525.634 237.032 533.841 243.13 541.93C254.431 557.428 265.514 573.112 276.378 588.984L311.455 639.84C319.637 651.379 329.582 665.924 339 676H150.42H0V667.186V509.447V473.594V304.216L0.95022 304.18L1.17381 303.307C12.7105 284.939 22.5878 265.262 32.8421 246Z" fill="#367D57"/>
<path d="M0 473L0.936422 473.116L1.2872 474.172C5.89674 480.699 40.0142 526.839 40 530C27.5709 524.158 15.5137 517.044 3.07987 511.073L1.32927 510.429L0 509.16V473Z" fill="#16175C"/>
<path d="M0 510L1.30856 511.254L3.03188 511.891C15.272 517.791 27.1414 524.822 39.3768 530.595C43.3083 533.277 52.4696 548.019 56.028 552.803L115.579 632.924C126.582 647.588 138.334 661.984 150 676H0V667.215V510Z" fill="#D2809B"/>
<path d="M-68.3817 -90.4471C28.5533 -98.4794 127.894 -110.081 225.048 -112C236.297 -107.508 247.933 -103.379 258.584 -97.6072L410.913 -22.5606C437.45 -9.43982 464.352 5.91988 491.816 16.8599C491.583 303.94 488.324 591.426 492.144 878.455C461.517 880.927 431.472 886.015 400.969 889.054C372.134 891.925 343.096 892.528 314.299 895.938C286.164 899.267 258.213 904.85 229.933 906.791C157.151 911.545 82.5397 924.433 10.2978 935.329C-15.6857 939.247 -45.2051 947.563 -71.1375 947.999L-71.3489 789.99L-71.4145 678.082L-71.4219 638.712L-71.3489 518.139L-71.4073 479.155L-71.3052 357.724L-71.3489 319.205L-71.3125 196.08L-71.101 116.156C-69.7596 47.3975 -70.4668 -21.492 -70.3575 -90.2653L-68.3817 -90.4471Z" fill="#EBA661"/>
<path d="M-68.3711 -90.4471C28.5639 -98.4794 127.905 -110.081 225.059 -112C231.11 -37.2661 227.267 39.3361 228.274 114.383C129.757 113.299 30.926 116.243 -67.5182 113.881C-66.9592 71.0949 -66.8329 28.3063 -67.1391 -14.4847C-67.1974 -39.585 -65.9579 -65.4703 -68.3711 -90.4471Z" fill="#FE6501"/>
<path d="M-71.101 116.157C28.8522 118.127 128.922 114.515 228.839 117.146L229.933 906.792C157.151 911.546 82.5397 924.434 10.2978 935.33C-15.6857 939.248 -45.2051 947.564 -71.1375 948L-71.3489 789.991L-71.4145 678.083L-71.4219 638.713L-71.3489 518.14L-71.4073 479.156L-71.3052 357.725L-71.3489 319.206L-71.3125 196.082L-71.101 116.157Z" fill="#FDBECD"/>
<path d="M5.26799 516.998L71.0214 517.013C70.8854 556.717 71.0603 596.418 71.5463 636.117L4.21094 635.856C4.29356 596.234 4.64586 556.615 5.26799 516.998Z" fill="#DF7C9A"/>
<path d="M39.1651 356.793L73.8753 356.582L72.5922 479.198L40.419 479.765L4.09759 479.009C4.62737 438.306 4.51803 397.604 3.76953 356.902L39.1651 356.793Z" fill="#DF7C9A"/>
<path d="M3.00781 196.612L73.3688 196.357C72.3481 236.919 73.5 277.757 73.6677 318.348L3.61298 317.832L3.00781 196.612Z" fill="#DF7C9A"/>
<path d="M112.164 517.035L185.871 517.013C184.122 557.342 184.472 597.758 184.421 638.124C160.551 637.688 136.638 637.927 112.769 637.847C114.366 597.78 112.587 557.146 112.164 517.035Z" fill="#DF7C9A"/>
<path d="M111.598 196.205L185.239 196.416C183.446 237.196 184.51 278.462 184.328 319.3C160.422 318.624 136.356 319.162 112.429 319.133L111.598 196.205Z" fill="#DF7C9A"/>
<path d="M112.02 356.386C136.166 357.506 160.83 356.248 185.027 356.016C183.059 397.581 184.159 439.502 184.276 481.117C160.261 480.192 136.239 479.991 112.209 480.514L112.02 356.386Z" fill="#DF7C9A"/>
<path d="M199.499 571L423.426 0H299.426C295.093 6.33333 281.326 33.6 260.926 92C235.426 165 200.502 407 193.502 471.5C187.902 523.1 194.832 560.167 199.499 571Z" fill="#FF6602"/>
<path d="M-68.0739 530L150.426 -48H59.5C55.1667 -41.6667 41.4 -14.4 21 44C-4.5 117 -68.0739 368.5 -75.0739 433C-80.6739 484.6 -72.7406 519.167 -68.0739 530Z" fill="#E84845"/>
<path d="M1903.45 279.559L1934 246.699V672H1925.54V640.548C1913.32 634.915 1884.46 622.616 1866.79 618.485C1844.69 613.322 1818.37 642.896 1799.1 640.548C1779.83 638.201 1799.1 594.075 1809.91 576.237C1818.56 561.966 1890.6 553.078 1925.54 550.418V511.456H1880.42C1857.39 511.456 1839.05 541.03 1799.1 567.318C1759.15 593.606 1729.53 578.584 1717.31 567.318C1705.09 556.052 1704.15 508.17 1717.31 481.413C1730.47 454.655 1750.21 425.551 1799.1 411.938C1838.21 401.047 1899.69 428.367 1925.54 443.389C1924.29 439.79 1920.28 428.461 1914.26 411.938C1906.74 391.283 1875.72 375.792 1849.86 370.628C1824.01 365.464 1777.54 414.793 1750.21 411.938C1717.31 408.5 1707.07 399.808 1692.5 381.5C1677.93 363.192 1683.89 298.915 1717.31 279.559C1750.21 260.5 1814.14 269.858 1849.86 279.559C1845.01 271.423 1830.21 250.83 1809.91 233.555C1784.53 211.962 1750.21 151.875 1750.21 116.668C1750.21 81.4614 1769.48 52.3567 1809.91 42.4988C1850.33 32.6408 1871.96 73.0115 1894.99 116.668C1913.41 151.594 1908.31 239.815 1903.45 279.559Z" fill="#C7ECC4"/>
<path d="M229 0H300C291.531 19.9584 278.517 40.8153 272.078 61.5329L263.07 90.6986C261.663 95.3342 260.634 100.668 258.575 105C254.549 98.5766 252.69 87.6331 250.562 80.1581C242.987 53.5403 236.611 26.5866 229 0Z" fill="#071FF5"/>
<path d="M221.614 1H229.067C235.767 23.8545 248.277 56.0245 254.945 78.9058C256.818 85.3314 258.454 94.7387 261.998 100.26C260.38 108.986 256.957 117.641 254.638 126.231L240.19 195C237.737 192.476 231.585 187.796 230.05 184.613C225.875 166.665 222.755 148.75 221.613 130.346C219.149 90.6692 217.738 40.5337 221.614 1Z" fill="#DAA671"/>
<path d="M142 -23H149.085C152.827 18.7004 158.022 60.1619 162.109 101.814C162.336 107.556 162.525 113.296 163.045 119.021C163.392 129.77 165.922 151.241 160.983 160.421C159.376 163.408 156.548 165.855 153.214 166.684C150.029 167.477 146.769 166.714 143.978 165.108C125.385 154.415 110.919 96.7834 105 75.5C116.5 47 127.869 6.04175 142 -23Z" fill="#071FF5"/>
<path d="M1280.17 -85H1366.12C1366.55 -83.8143 1366.84 -83.1325 1366.77 -81.8517C1366.41 -75.1614 1362.4 -66.1371 1360.67 -59.466C1357.37 -46.5231 1354.54 -33.475 1352.2 -20.3218C1346.93 8.653 1344.05 38.04 1339.1 67.074C1334.72 92.728 1328.07 118.278 1322.73 143.773C1318.96 161.731 1316.51 181.427 1310.53 198.701C1305.41 213.498 1297.28 228.214 1290.3 242.25C1285.9 251.096 1281.64 262.241 1274.09 268.773C1274.51 267.952 1274.88 267.132 1275.27 266.303C1277.81 260.911 1276.46 138.804 1275.77 124.94C1273.81 85.04 1267.91 45.908 1269.17 5.7662C1269.57 -6.9568 1270.86 -19.9289 1272.45 -32.5572C1273.57 -41.5093 1281.6 -79.1928 1280.17 -85Z" fill="#367D57"/>
<path d="M1214.61 -21.1871L1268.54 -3.6527C1268.57 -2.82103 1268.61 -2.33403 1268.31 -1.5447C1266.72 2.57975 1262.36 7.42401 1259.91 11.2569C1255.2 18.7034 1250.77 26.3145 1246.61 34.0902C1237.4 51.1955 1229.59 69.047 1220.57 86.2547C1212.58 101.458 1203.2 116.133 1194.65 131.04C1188.62 141.539 1183.06 153.398 1175.79 163.016C1169.55 171.256 1161.45 178.831 1154.21 186.214C1149.64 190.867 1144.7 196.991 1138.63 199.549C1139.06 199.12 1139.46 198.681 1139.87 198.24C1142.56 195.375 1166.63 118.483 1169.02 109.643C1175.93 84.2079 1180.21 58.4507 1189.19 33.5206C1192.04 25.6191 1195.5 17.7428 1199.07 10.1435C1201.6 4.75496 1214.33 -17.2516 1214.61 -21.1871Z" fill="#367D57"/>
<path d="M1193.57 -36.956L1226.04 9.53105C1225.57 10.2117 1225.31 10.6261 1224.59 11.0722C1220.83 13.4056 1214.44 14.6468 1210.17 16.2319C1201.92 19.3343 1193.8 22.7378 1185.8 26.4424C1168.14 34.5408 1151.16 44.0877 1133.58 52.3816C1118.05 59.7066 1101.72 65.7645 1085.91 72.5102C1074.78 77.257 1063.2 83.3744 1051.6 86.6674C1041.66 89.4896 1030.63 90.6532 1020.4 92.1818C1013.95 93.1447 1006.31 95.052 999.927 93.4368C1000.53 93.3537 1001.11 93.244 1001.71 93.1416C1005.58 92.4779 1071.12 45.6068 1078.36 39.9948C1099.2 23.8576 1118.13 5.87961 1140.32 -8.6074C1147.35 -13.1987 1154.85 -17.4028 1162.28 -21.3147C1167.55 -24.0917 1190.97 -33.9882 1193.57 -36.956Z" fill="#367D57"/>
<path d="M432.983 -69.5334L365.519 -52.9426C365.411 -51.929 365.315 -51.3378 365.617 -50.346C367.191 -45.1642 372.08 -38.855 374.726 -33.9527C379.82 -24.4319 384.555 -14.7353 388.93 -4.86291C398.66 16.8625 406.593 39.3728 416.082 61.2064C424.472 80.4971 434.624 99.2679 443.736 118.248C450.162 131.616 455.887 146.603 463.915 159.007C470.79 169.633 480.012 179.615 488.2 189.284C493.361 195.378 498.856 203.304 506.043 206.974C505.555 206.41 505.106 205.838 504.64 205.263C501.606 201.521 479.095 105.417 476.961 94.4016C470.797 62.7053 467.875 30.8513 459.137 -0.413255C456.367 -10.3225 452.851 -20.2554 449.165 -29.8606C446.558 -36.671 432.981 -64.6992 432.983 -69.5334Z" fill="#303289"/>
<path d="M496.761 -32.1013L457.815 -7.92841C457.954 -7.27024 458.014 -6.87973 458.406 -6.31908C460.451 -3.38882 464.806 -0.427542 467.466 2.1087C472.604 7.0434 477.553 12.1617 482.313 17.4635C492.85 29.1104 502.42 41.6162 512.828 53.3798C522.028 63.7723 532.227 73.4792 541.817 83.5296C548.576 90.6064 555.225 98.8419 562.793 104.987C569.275 110.252 577.097 114.634 584.208 119.031C588.689 121.801 593.754 125.653 599.012 126.49C598.591 126.236 598.193 125.968 597.783 125.702C595.115 123.973 561.385 68.2649 557.799 61.7888C547.465 43.1582 539.133 23.7674 527.272 5.9328C523.513 0.280282 519.28 -5.2348 515.008 -10.5097C511.983 -14.2511 497.746 -29.0678 496.761 -32.1013Z" fill="#303289"/>
<path d="M510.235 -48.5405L493.716 -5.78309C494.223 -5.3413 494.507 -5.06603 495.157 -4.85469C498.555 -3.74793 503.815 -4.00834 507.466 -3.58681C514.54 -2.7442 521.574 -1.64092 528.567 -0.277012C543.994 2.67016 559.166 6.88551 574.561 10.0032C588.165 12.7549 602.153 14.3573 615.863 16.6009C625.521 18.1769 635.79 20.7435 645.532 21.0887C653.877 21.3855 662.761 20.1695 671.085 19.3948C676.331 18.9061 682.694 18.9289 687.394 16.4285C686.905 16.4796 686.426 16.506 685.939 16.5407C682.768 16.768 622.284 -7.37203 615.519 -10.3799C596.047 -19.0235 577.714 -29.4796 557.503 -36.5678C551.096 -38.8141 544.395 -40.6656 537.807 -42.3017C533.139 -43.4651 512.849 -46.713 510.235 -48.5405Z" fill="#303289"/>
<path d="M889.358 712.07L836.407 699.048C836.322 698.252 836.246 697.788 836.483 697.01C837.719 692.943 841.556 687.991 843.633 684.143C847.631 676.67 851.347 669.059 854.782 661.311C862.418 644.259 868.645 626.591 876.093 609.454C882.678 594.313 890.646 579.58 897.798 564.682C902.842 554.19 907.335 542.427 913.636 532.691C919.032 524.351 926.27 516.517 932.697 508.927C936.748 504.144 941.061 497.923 946.702 495.043C946.319 495.485 945.967 495.934 945.601 496.386C943.219 499.323 925.551 574.754 923.875 583.399C919.038 608.277 916.744 633.279 909.886 657.818C907.712 665.596 904.952 673.392 902.059 680.931C900.013 686.276 889.357 708.275 889.358 712.07Z" fill="#303289"/>
<path d="M939.416 682.689L908.849 663.716C908.957 663.2 909.005 662.893 909.312 662.453C910.917 660.153 914.335 657.829 916.423 655.838C920.456 651.965 924.341 647.948 928.076 643.787C936.347 634.645 943.858 624.83 952.028 615.596C959.248 607.44 967.253 599.821 974.78 591.932C980.085 586.378 985.304 579.914 991.244 575.09C996.332 570.958 1002.47 567.519 1008.05 564.068C1011.57 561.893 1015.55 558.87 1019.67 558.214C1019.34 558.413 1019.03 558.623 1018.71 558.832C1016.61 560.188 990.139 603.913 987.324 608.996C979.214 623.619 972.674 638.839 963.365 652.837C960.414 657.274 957.091 661.602 953.738 665.743C951.364 668.679 940.19 680.309 939.416 682.689Z" fill="#303289"/>
<path d="M949.994 695.592L937.028 662.032C937.426 661.685 937.649 661.469 938.159 661.303C940.826 660.435 944.955 660.639 947.82 660.308C953.373 659.647 958.893 658.781 964.382 657.71C976.491 655.397 988.399 652.089 1000.48 649.642C1011.16 647.482 1022.14 646.224 1032.9 644.463C1040.48 643.226 1048.54 641.212 1056.19 640.941C1062.74 640.708 1069.71 641.662 1076.24 642.27C1080.36 642.654 1085.35 642.636 1089.04 644.599C1088.66 644.558 1088.28 644.538 1087.9 644.51C1085.41 644.332 1037.94 663.279 1032.63 665.64C1017.35 672.424 1002.96 680.631 987.094 686.195C982.065 687.958 976.806 689.411 971.635 690.695C967.971 691.608 952.046 694.157 949.994 695.592Z" fill="#303289"/>
<path d="M866.318 783.648L959.015 785.507C959.505 784.238 959.832 783.508 959.784 782.126C959.541 774.902 955.411 765.083 953.69 757.851C950.403 743.82 947.641 729.687 945.401 715.45C940.344 684.087 937.874 652.33 933.163 620.91C928.994 593.147 922.375 565.448 917.167 537.836C913.49 518.386 911.273 497.091 905.197 478.332C899.996 462.262 891.546 446.215 884.321 430.926C879.767 421.291 875.414 409.179 867.412 401.97C867.848 402.865 868.229 403.757 868.632 404.66C871.254 410.53 867.157 542.194 866.113 557.131C863.136 600.121 855.927 642.198 856.417 685.518C856.574 699.249 857.684 713.267 859.126 726.921C860.14 736.6 867.986 777.416 866.318 783.648Z" fill="#367D57"/>
<path d="M796.986 713.408L855.529 695.663C855.577 694.767 855.634 694.243 855.322 693.385C853.696 688.902 849.101 683.583 846.546 679.397C841.621 671.264 837.004 662.959 832.695 654.483C823.124 635.836 815.095 616.414 805.729 597.66C797.45 581.091 787.646 565.061 778.745 548.798C772.47 537.345 766.735 524.435 759.095 513.904C752.553 504.882 743.977 496.537 736.325 488.418C731.502 483.301 726.3 476.589 719.809 473.699C720.264 474.171 720.685 474.654 721.122 475.138C723.965 478.286 748.255 561.735 750.647 571.321C757.55 598.902 761.61 626.774 770.755 653.856C773.654 662.439 777.211 671.008 780.901 679.281C783.512 685.148 796.762 709.157 796.986 713.408Z" fill="#367D57"/>
<path d="M773.95 729.959L809.984 680.525C809.482 679.78 809.212 679.328 808.446 678.831C804.447 676.233 797.575 674.756 793.013 672.954C784.183 669.43 775.495 665.584 766.949 661.415C748.074 652.299 729.965 641.635 711.191 632.31C694.6 624.074 677.117 617.187 660.215 609.57C648.306 604.21 635.951 597.362 623.508 593.559C612.851 590.301 600.979 588.807 589.98 586.937C583.048 585.759 574.852 583.537 567.93 585.141C568.578 585.244 569.205 585.375 569.845 585.498C574.011 586.297 643.675 638.266 651.359 644.475C673.486 662.33 693.519 682.129 717.135 698.233C724.62 703.337 732.622 708.033 740.552 712.413C746.17 715.522 771.21 726.702 773.95 729.959Z" fill="#367D57"/>
<path d="M1424 -23H1694.28L1694.41 -21.225C1688.78 -9.703 1677.55 1.5281 1669.89 11.9784C1642.45 49.3743 1614.56 96.714 1572.59 119.173C1549.12 131.73 1514.82 135.876 1489.57 127.886C1432.9 109.949 1425.24 56.7876 1425.6 5.2319C1425.65 -1.5595 1427.65 -16.6239 1424.32 -22.4926C1424.22 -22.6667 1424.1 -22.8309 1424 -23Z" fill="#E84845"/>
<path d="M1928 -23H1762.08L1762 -21.9119C1765.46 -14.8489 1772.35 -7.96426 1777.05 -1.55822C1793.9 21.3655 1811.02 50.3847 1836.78 64.1521C1851.19 71.8496 1872.25 74.3911 1887.75 69.4932C1922.54 58.4978 1927.24 25.9098 1927.02 -5.69383C1926.99 -9.85696 1925.76 -19.0914 1927.8 -22.689C1927.86 -22.7957 1927.94 -22.8963 1928 -23Z" fill="#E84845"/>
<path d="M1658.18 -134.72L1712.11 -117.186C1712.14 -116.354 1712.18 -115.867 1711.88 -115.078C1710.29 -110.953 1705.93 -106.109 1703.48 -102.276C1698.77 -94.8298 1694.34 -87.2187 1690.18 -79.443C1680.97 -62.3377 1673.16 -44.4862 1664.14 -27.2785C1656.15 -12.0753 1646.77 2.5995 1638.22 17.5071C1632.19 28.0058 1626.63 39.8643 1619.36 49.483C1613.12 57.723 1605.02 65.2981 1597.78 72.6811C1593.21 77.3339 1588.27 83.4578 1582.2 86.0161C1582.63 85.5867 1583.03 85.1476 1583.44 84.707C1586.13 81.842 1610.2 4.94986 1612.59 -3.88995C1619.5 -29.3253 1623.78 -55.0825 1632.76 -80.0126C1635.61 -87.9141 1639.07 -95.7904 1642.64 -103.39C1645.17 -108.778 1657.9 -130.785 1658.18 -134.72Z" fill="#367D57"/>
<path d="M290.032 326.494C311.349 272.499 336.17 220.328 358.956 167C383.278 204.083 404.668 242.919 425.571 281.999C455.418 338.217 483.966 395.087 511.213 452.61C521.443 474.087 530.638 496.102 541.151 517.429C554.501 544.52 571.155 569.452 585.679 595.849C599.938 621.757 611.8 649.343 623 676.704H474.269H430.707H378.031C366.111 665.156 353.526 648.488 343.171 635.264L298.777 576.983C285.029 558.794 271.003 540.819 256.7 523.058C248.982 513.788 241.43 504.383 234.045 494.843L227.703 486.497C233.729 467.567 242.007 448.843 249.171 430.278C262.422 395.537 276.042 360.942 290.032 326.494Z" fill="#367D57"/>
<path d="M290.032 326.494C302.013 335.128 358.64 440.485 369.087 458.829C386.061 488.634 404.434 517.423 419.679 548.196C438.168 585.51 455.589 623.968 469.468 663.242C471.111 667.714 472.795 672.174 474.269 676.704H430.707H378.031C366.111 665.157 353.526 648.489 343.171 635.265L298.777 576.983C285.029 558.794 271.003 540.819 256.7 523.058C248.982 513.788 241.43 504.383 234.045 494.843L227.703 486.498C233.729 467.567 242.007 448.844 249.171 430.279C262.422 395.538 276.042 360.943 290.032 326.494Z" fill="#16175C"/>
<path d="M430.707 676.704C439.685 670.233 458.483 666.089 469.468 663.242C471.111 667.714 472.795 672.174 474.269 676.704H430.707Z" fill="#071FF5"/>
<path d="M234.047 494.842C238.509 487.857 246.371 469.24 254.47 467.147C255.847 466.791 256.511 467.115 257.823 467.527C260.67 469.995 261.36 473.488 261.632 477.086C262.035 482.431 258.199 520.211 256.702 523.058C248.984 513.788 241.433 504.382 234.047 494.842Z" fill="#071FF5"/>
<path d="M298.777 576.983C313.52 564.054 363.165 522.884 380.851 524.253C383.154 524.433 385.442 525.255 386.977 527.048C389.899 530.454 389.759 536.378 389.32 540.568C387.147 561.323 355.407 614.74 343.171 635.264L298.777 576.983Z" fill="#071FF5"/>
<path d="M-9.43556 183.92C-2.23714 194.986 5.92565 205.372 13.646 216.07C27.1895 234.837 40.5261 253.601 55.2668 271.467C64.5012 282.66 74.5324 293.181 83.7771 304.366C93.0815 315.622 101.636 327.493 110.795 338.87C126.314 358.148 142.377 377.006 158.051 396.164C166.352 406.217 174.522 416.376 182.561 426.641C185.638 430.585 191.119 439.263 194.523 442.009C195.008 441.7 195.346 441.555 195.645 441.052C192.643 482.511 191.195 516.446 201.558 557.185L218.678 510.656C221.637 502.63 224.288 494.322 227.704 486.497L234.046 494.842C241.432 504.382 248.983 513.787 256.701 523.058C271.004 540.818 285.03 558.793 298.779 576.982L343.172 635.264C353.527 648.488 366.113 665.156 378.032 676.703H139.369H-51V666.602V485.832V444.745V250.636L-49.7974 250.595L-49.5144 249.595C-34.9138 228.545 -22.4132 205.995 -9.43556 183.92Z" fill="#367D57"/>
<path d="M-51 485.832L-49.3393 487.274L-47.1522 488.006C-31.6179 494.791 -16.5542 502.874 -1.02596 509.512C3.96362 512.597 15.5905 529.548 20.1065 535.048L95.6846 627.174C109.648 644.035 124.563 660.587 139.369 676.703H-51V666.602V485.832Z" fill="#D2809B"/>
<path d="M1515.97 681.58C1516.02 681.4 1516.1 681.22 1516.13 681.03C1514.55 677.23 1511.55 672.45 1509.38 669.47C1504.55 662.81 1500.24 655.5 1494.83 649.31C1484.2 637.17 1471.43 626.91 1460.71 614.78C1452.24 605.2 1444.54 594.92 1437.14 584.5C1418.84 558.71 1403.54 531.69 1389.16 503.56C1382.66 490.87 1375.16 470.87 1367 460C1385.2 465.61 1403.09 476.77 1420.1 485.45C1448.2 499.997 1476.54 514.05 1505.13 527.61L1659.46 598.66L1711.69 622.15C1720.58 626.16 1730.39 629.82 1738.79 634.74C1750.96 639.9 1826.83 676.05 1830.94 680.85L1831.05 681.58H1515.97Z" fill="#071FF5"/>
<path d="M24.2302 474.593L3 451.783V747H8.87796V725.168C17.37 721.258 37.4244 712.721 49.7052 709.854C65.0563 706.269 83.3469 726.798 96.7383 725.168C110.13 723.539 96.7383 692.909 89.2272 680.527C83.2184 670.622 33.1574 664.452 8.87796 662.606V635.561H40.2333C56.2364 635.561 68.9757 656.089 96.7383 674.336C124.501 692.584 145.078 682.157 153.571 674.336C162.064 666.516 162.715 633.28 153.571 614.706C144.427 596.133 130.708 575.931 96.7383 566.481C69.5627 558.922 26.8416 577.886 8.87796 588.313C9.74893 585.815 12.5361 577.951 16.7168 566.481C21.9427 552.144 43.4995 541.391 61.4647 537.807C79.4299 534.222 111.716 568.463 130.708 566.481C153.571 564.095 160.683 558.061 170.809 545.353C180.934 532.645 176.791 488.028 153.571 474.593C130.707 461.363 86.2877 467.859 61.4647 474.593C64.8397 468.945 75.1173 454.651 89.2272 442.66C106.865 427.671 130.708 385.962 130.708 361.524C130.708 337.086 117.316 316.883 89.2272 310.04C61.138 303.198 46.1136 331.22 30.1093 361.524C17.3059 385.767 20.8551 447.004 24.2302 474.593Z" fill="#FF6601"/>
<path d="M970.66 234.434L960.521 223.46L959.999 365.009L962.817 365.019L962.856 354.552C966.934 352.692 976.565 348.634 982.458 347.281C989.825 345.589 998.559 355.465 1004.98 354.707C1011.41 353.95 1005.04 339.24 1001.46 333.29C998.597 328.529 974.605 325.483 962.966 324.555L963.014 311.587L978.048 311.643C985.721 311.671 991.793 321.536 1005.07 330.334C1018.35 339.133 1028.24 334.17 1032.32 330.435C1036.41 326.7 1036.78 310.766 1032.43 301.844C1028.08 292.923 1021.53 283.212 1005.26 278.621C992.247 274.948 971.729 283.965 963.098 288.933C963.52 287.737 964.87 283.971 966.895 278.479C969.426 271.614 979.781 266.497 988.401 264.81C997.021 263.123 1012.44 279.598 1021.55 278.681C1032.52 277.577 1035.94 274.697 1040.82 268.622C1045.69 262.546 1043.79 241.146 1032.68 234.663C1021.74 228.279 1000.43 231.315 988.513 234.5C990.141 231.798 995.094 224.963 1001.88 219.238C1010.36 212.083 1021.87 192.127 1021.91 180.409C1021.96 168.692 1015.57 158.982 1002.12 155.651C988.66 152.32 981.406 165.73 973.679 180.231C967.497 191.833 969.091 221.201 970.66 234.434Z" fill="#367D57"/>
</g>
<path d="M805.605 261H754.526C753.085 261 752.049 260.414 751.418 259.243C750.517 257.982 750.517 256.766 751.418 255.595L777.228 210.326C777.859 209.155 778.895 208.569 780.336 208.569C781.597 208.569 782.678 209.155 783.579 210.326L808.849 255.595C809.479 256.676 809.434 257.892 808.713 259.243C808.173 260.414 807.137 261 805.605 261ZM760.742 253.703H799.389L780.336 219.515L760.742 253.703ZM780.336 215.731C779.345 215.731 778.489 215.371 777.769 214.65C777.048 213.93 776.688 213.074 776.688 212.083V173.706H754.661C753.67 173.706 752.815 173.345 752.094 172.625C751.463 171.904 751.148 171.048 751.148 170.057C751.148 169.066 751.463 168.21 752.094 167.49C752.815 166.769 753.67 166.409 754.661 166.409H780.336C781.327 166.409 782.183 166.769 782.904 167.49C783.624 168.21 783.985 169.066 783.985 170.057V212.083C783.985 213.074 783.624 213.93 782.904 214.65C782.183 215.371 781.327 215.731 780.336 215.731ZM805.876 173.706H780.336C779.345 173.706 778.489 173.345 777.769 172.625C777.048 171.904 776.688 171.048 776.688 170.057C776.688 169.066 777.048 168.21 777.769 167.49C778.489 166.769 779.345 166.409 780.336 166.409H805.876C806.867 166.409 807.723 166.769 808.443 167.49C809.164 168.21 809.524 169.066 809.524 170.057C809.524 171.048 809.164 171.904 808.443 172.625C807.723 173.345 806.867 173.706 805.876 173.706ZM826.843 166.409C827.834 166.409 828.69 166.769 829.411 167.49C830.131 168.21 830.492 169.066 830.492 170.057V225.731L874.409 251V170.057C874.409 169.066 874.769 168.21 875.49 167.49C876.211 166.769 877.067 166.409 878.058 166.409C879.049 166.409 879.904 166.769 880.625 167.49C881.346 168.21 881.706 169.066 881.706 170.057V257.351C881.706 258.793 881.121 259.829 879.949 260.459C878.778 261.36 877.562 261.36 876.301 260.459L825.086 231.001C823.825 230.28 823.195 229.244 823.195 227.893V170.057C823.195 169.066 823.555 168.21 824.276 167.49C824.996 166.769 825.852 166.409 826.843 166.409ZM900.098 227.488C899.467 227.488 898.836 227.353 898.206 227.082C897.665 226.812 897.26 226.362 896.99 225.731C896.449 224.83 896.314 223.929 896.584 223.028C896.854 222.037 897.44 221.317 898.341 220.866L943.474 194.921L899.287 173.165C898.296 172.715 897.62 172.039 897.26 171.138C896.99 170.237 897.08 169.337 897.53 168.436C897.981 167.535 898.656 166.949 899.557 166.679C900.548 166.319 901.494 166.364 902.395 166.814L952.798 191.408C954.24 192.038 954.961 193.074 954.961 194.516C954.961 195.957 954.33 197.038 953.069 197.759L901.854 227.082C901.584 227.262 901.269 227.398 900.908 227.488C900.638 227.488 900.368 227.488 900.098 227.488ZM900.098 261C899.467 261 898.836 260.865 898.206 260.595C897.665 260.234 897.26 259.739 896.99 259.108C896.449 258.297 896.314 257.397 896.584 256.406C896.854 255.415 897.44 254.694 898.341 254.243L943.474 228.434L899.287 206.678C898.296 206.227 897.62 205.551 897.26 204.651C896.99 203.75 897.08 202.849 897.53 201.948C897.981 200.957 898.656 200.326 899.557 200.056C900.548 199.786 901.494 199.876 902.395 200.326L952.798 224.92C953.429 225.1 953.925 225.506 954.285 226.136C954.735 226.677 954.961 227.262 954.961 227.893C954.961 228.614 954.78 229.289 954.42 229.92C954.15 230.461 953.699 230.866 953.069 231.136L901.854 260.459C901.404 260.82 900.818 261 900.098 261ZM1009.85 261C1008.14 261 1006.97 260.144 1006.34 258.433L984.312 183.03L962.421 258.433C962.061 259.423 961.43 260.144 960.529 260.595C959.719 261.045 958.818 261.135 957.827 260.865C956.836 260.595 956.115 260.054 955.665 259.243C955.214 258.342 955.124 257.397 955.394 256.406L980.934 168.976C981.114 168.255 981.52 167.67 982.15 167.219C982.871 166.679 983.592 166.409 984.312 166.409C985.123 166.409 985.844 166.679 986.474 167.219C987.195 167.67 987.646 168.255 987.826 168.976L1013.37 256.406C1013.64 257.397 1013.55 258.342 1013.1 259.243C1012.64 260.054 1011.92 260.595 1010.93 260.865C1010.66 260.955 1010.3 261 1009.85 261ZM997.825 226.271H969.718C968.727 226.271 967.871 225.911 967.151 225.19C966.43 224.47 966.07 223.614 966.07 222.623C966.07 221.632 966.43 220.776 967.151 220.055C967.871 219.335 968.727 218.974 969.718 218.974H997.825C998.816 218.974 999.672 219.335 1000.39 220.055C1001.11 220.776 1001.47 221.632 1001.47 222.623C1001.47 223.614 1001.11 224.47 1000.39 225.19C999.672 225.911 998.816 226.271 997.825 226.271ZM983.907 260.73C982.916 260.73 982.06 260.369 981.339 259.649C980.709 258.928 980.394 258.072 980.394 257.081V223.028C980.394 222.037 980.709 221.227 981.339 220.596C982.06 219.875 982.916 219.515 983.907 219.515C984.898 219.515 985.754 219.875 986.474 220.596C987.195 221.227 987.555 222.037 987.555 223.028V257.081C987.555 258.072 987.195 258.928 986.474 259.649C985.754 260.369 984.898 260.73 983.907 260.73ZM1067.78 261C1067.33 261 1066.83 260.865 1066.29 260.595L1020.89 236.136C1019.81 235.505 1019.27 234.559 1019.27 233.298V180.733C1019.27 179.832 1019.58 179.066 1020.21 178.435C1020.84 177.805 1021.61 177.489 1022.51 177.489C1023.41 177.489 1024.18 177.805 1024.81 178.435C1025.44 179.066 1025.75 179.832 1025.75 180.733V231.406L1064.54 252.352V180.733C1064.54 179.832 1064.85 179.066 1065.48 178.435C1066.11 177.805 1066.88 177.489 1067.78 177.489C1068.68 177.489 1069.45 177.805 1070.08 178.435C1070.71 179.066 1071.02 179.832 1071.02 180.733V257.757C1071.02 258.297 1070.89 258.838 1070.62 259.378C1070.35 259.919 1069.94 260.324 1069.4 260.595C1068.86 260.865 1068.32 261 1067.78 261ZM1044.81 192.083C1043.91 192.083 1043.14 191.768 1042.51 191.138C1041.97 190.507 1041.7 189.741 1041.7 188.84V169.652C1041.7 168.751 1041.97 167.985 1042.51 167.355C1043.14 166.724 1043.91 166.409 1044.81 166.409C1045.71 166.409 1046.47 166.724 1047.1 167.355C1047.73 167.985 1048.05 168.751 1048.05 169.652V188.84C1048.05 189.741 1047.73 190.507 1047.1 191.138C1046.47 191.768 1045.71 192.083 1044.81 192.083ZM1098.68 261C1097.69 261 1096.84 260.64 1096.11 259.919C1095.39 259.198 1095.03 258.342 1095.03 257.351V170.327C1095.03 169.337 1095.39 168.481 1096.11 167.76C1096.84 167.039 1097.69 166.679 1098.68 166.679C1099.67 166.679 1100.53 167.039 1101.25 167.76C1101.97 168.481 1102.33 169.337 1102.33 170.327V257.351C1102.33 258.342 1101.97 259.198 1101.25 259.919C1100.53 260.64 1099.67 261 1098.68 261ZM1149.63 261C1148.64 261 1147.78 260.64 1147.06 259.919C1146.34 259.198 1145.98 258.342 1145.98 257.351V170.327C1145.98 169.337 1146.34 168.481 1147.06 167.76C1147.78 167.039 1148.64 166.679 1149.63 166.679C1150.62 166.679 1151.47 167.039 1152.19 167.76C1152.91 168.481 1153.27 169.337 1153.27 170.327V257.351C1153.27 258.342 1152.91 259.198 1152.19 259.919C1151.47 260.64 1150.62 261 1149.63 261ZM1158 173.706H1090.3C1089.31 173.706 1088.46 173.345 1087.74 172.625C1087.02 171.904 1086.66 171.048 1086.66 170.057C1086.66 169.066 1087.02 168.21 1087.74 167.49C1088.46 166.769 1089.31 166.409 1090.3 166.409H1158C1159 166.409 1159.85 166.769 1160.57 167.49C1161.29 168.21 1161.65 169.066 1161.65 170.057C1161.65 171.048 1161.29 171.904 1160.57 172.625C1159.85 173.345 1159 173.706 1158 173.706ZM1148.14 219.38H1100.17C1099.18 219.38 1098.32 219.019 1097.6 218.299C1096.97 217.578 1096.66 216.722 1096.66 215.731C1096.66 214.74 1096.97 213.885 1097.6 213.164C1098.32 212.443 1099.18 212.083 1100.17 212.083H1148.14C1149.13 212.083 1149.94 212.443 1150.57 213.164C1151.29 213.885 1151.65 214.74 1151.65 215.731C1151.65 216.722 1151.29 217.578 1150.57 218.299C1149.94 219.019 1149.13 219.38 1148.14 219.38ZM540.879 410C539.888 410 539.032 409.64 538.311 408.919C537.59 408.198 537.23 407.342 537.23 406.351V319.057C537.23 318.066 537.59 317.21 538.311 316.49C539.032 315.769 539.888 315.409 540.879 315.409C541.87 315.409 542.725 315.769 543.446 316.49C544.167 317.21 544.527 318.066 544.527 319.057V406.351C544.527 407.342 544.167 408.198 543.446 408.919C542.725 409.64 541.87 410 540.879 410ZM591.823 375.947H541.014C540.293 375.947 539.617 375.767 538.987 375.407C538.446 375.046 538.041 374.506 537.771 373.785C537.14 372.434 537.365 371.127 538.446 369.866L589.39 316.49C590.111 315.769 590.967 315.409 591.958 315.409C592.949 315.409 593.805 315.769 594.525 316.49C595.246 317.21 595.606 318.066 595.606 319.057C595.697 319.958 595.381 320.769 594.661 321.49L549.662 368.785H591.823C592.814 368.785 593.67 369.146 594.39 369.866C595.111 370.587 595.471 371.443 595.471 372.434C595.471 373.425 595.111 374.281 594.39 375.001C593.67 375.632 592.814 375.947 591.823 375.947ZM635.799 410C634.268 410 633.232 409.369 632.691 408.108L607.017 363.38C606.296 362.209 606.296 361.038 607.017 359.867L632.691 317.571C633.322 316.4 634.358 315.814 635.799 315.814C637.151 315.814 638.187 316.4 638.907 317.571L664.177 359.867C664.807 361.128 664.807 362.299 664.177 363.38L638.907 408.108C638.187 409.369 637.151 410 635.799 410ZM614.314 361.758L635.799 399.054L656.88 361.758L635.799 326.489L614.314 361.758ZM660.663 406.622C659.222 406.622 658.186 406.036 657.555 404.865L606.206 320.949C605.665 320.048 605.485 319.102 605.665 318.111C605.935 317.12 606.521 316.4 607.422 315.949C608.233 315.409 609.134 315.274 610.125 315.544C611.115 315.724 611.881 316.265 612.422 317.165L663.771 401.217C664.222 402.027 664.312 402.928 664.042 403.919C663.861 404.91 663.321 405.676 662.42 406.216C662.24 406.397 661.97 406.532 661.609 406.622C661.249 406.622 660.934 406.622 660.663 406.622ZM682.871 410C681.88 410 681.024 409.64 680.304 408.919C679.583 408.198 679.223 407.342 679.223 406.351V319.057C679.223 317.436 679.988 316.31 681.52 315.679C682.961 315.048 684.267 315.319 685.439 316.49L735.167 366.488C735.887 367.209 736.248 368.065 736.248 369.055C736.248 370.046 735.887 370.902 735.167 371.623C734.446 372.344 733.545 372.704 732.464 372.704C731.473 372.704 730.617 372.344 729.897 371.623L686.52 327.841V406.351C686.52 407.342 686.159 408.198 685.439 408.919C684.718 409.64 683.862 410 682.871 410ZM733.815 410C732.824 410 731.969 409.64 731.248 408.919C730.527 408.198 730.167 407.342 730.167 406.351V327.841L686.655 371.623C685.934 372.344 685.078 372.704 684.087 372.704C683.096 372.704 682.241 372.344 681.52 371.623C680.799 370.902 680.439 370.046 680.439 369.055C680.439 368.065 680.799 367.209 681.52 366.488L731.248 316.49C731.698 315.949 732.284 315.634 733.005 315.544C733.725 315.364 734.446 315.409 735.167 315.679C736.698 316.31 737.464 317.436 737.464 319.057V406.351C737.464 407.342 737.103 408.198 736.383 408.919C735.662 409.64 734.806 410 733.815 410ZM760.861 410C759.871 410 759.015 409.64 758.294 408.919C757.573 408.198 757.213 407.342 757.213 406.351V319.057C757.213 317.436 757.979 316.31 759.51 315.679C760.952 315.048 762.258 315.319 763.429 316.49L813.157 366.488C813.878 367.209 814.238 368.065 814.238 369.055C814.238 370.046 813.878 370.902 813.157 371.623C812.436 372.344 811.535 372.704 810.454 372.704C809.463 372.704 808.608 372.344 807.887 371.623L764.51 327.841V406.351C764.51 407.342 764.15 408.198 763.429 408.919C762.708 409.64 761.852 410 760.861 410ZM811.806 410C810.815 410 809.959 409.64 809.238 408.919C808.517 408.198 808.157 407.342 808.157 406.351V327.841L764.645 371.623C763.924 372.344 763.069 372.704 762.078 372.704C761.087 372.704 760.231 372.344 759.51 371.623C758.789 370.902 758.429 370.046 758.429 369.055C758.429 368.065 758.789 367.209 759.51 366.488L809.238 316.49C809.689 315.949 810.274 315.634 810.995 315.544C811.716 315.364 812.436 315.409 813.157 315.679C814.688 316.31 815.454 317.436 815.454 319.057V406.351C815.454 407.342 815.094 408.198 814.373 408.919C813.652 409.64 812.797 410 811.806 410ZM838.852 410C837.861 410 837.005 409.64 836.284 408.919C835.564 408.198 835.203 407.342 835.203 406.351V319.057C835.203 318.066 835.564 317.21 836.284 316.49C837.005 315.769 837.861 315.409 838.852 315.409C839.843 315.409 840.699 315.769 841.419 316.49C842.14 317.21 842.5 318.066 842.5 319.057V406.351C842.5 407.342 842.14 408.198 841.419 408.919C840.699 409.64 839.843 410 838.852 410ZM838.987 351.489C837.455 351.489 836.419 350.858 835.879 349.597C835.338 348.696 835.203 347.795 835.474 346.894C835.744 345.903 836.329 345.137 837.23 344.597L888.58 315.814C889.481 315.364 890.427 315.274 891.418 315.544C892.408 315.814 893.129 316.4 893.58 317.301C894.03 318.201 894.12 319.147 893.85 320.138C893.67 321.039 893.129 321.76 892.228 322.3L840.744 350.948C840.023 351.308 839.437 351.489 838.987 351.489ZM838.987 379.19C837.546 379.19 836.51 378.56 835.879 377.298C835.338 376.398 835.203 375.452 835.474 374.461C835.744 373.47 836.329 372.749 837.23 372.299L888.58 343.516C889.481 343.065 890.427 342.975 891.418 343.246C892.408 343.426 893.129 343.966 893.58 344.867C894.03 345.858 894.12 346.849 893.85 347.84C893.67 348.741 893.129 349.417 892.228 349.867L840.744 378.65C840.023 379.01 839.437 379.19 838.987 379.19ZM838.852 409.73C837.41 409.73 836.374 409.144 835.744 407.973C835.203 407.072 835.068 406.126 835.338 405.135C835.609 404.144 836.194 403.424 837.095 402.973L888.58 374.19C889.481 373.74 890.382 373.65 891.282 373.92C892.273 374.1 893.039 374.641 893.58 375.542C894.03 376.443 894.12 377.389 893.85 378.379C893.58 379.37 892.994 380.091 892.093 380.542L840.608 409.324C840.068 409.595 839.482 409.73 838.852 409.73ZM912.487 410C911.496 410 910.641 409.64 909.92 408.919C909.199 408.198 908.839 407.342 908.839 406.351V319.057C908.839 318.066 909.199 317.21 909.92 316.49C910.641 315.769 911.496 315.409 912.487 315.409C913.478 315.409 914.334 315.769 915.055 316.49C915.775 317.21 916.136 318.066 916.136 319.057V406.351C916.136 407.342 915.775 408.198 915.055 408.919C914.334 409.64 913.478 410 912.487 410ZM913.433 372.974C911.992 372.974 910.911 372.344 910.19 371.082C909.74 370.091 909.65 369.146 909.92 368.245C910.19 367.254 910.776 366.533 911.677 366.083L954.107 343.516L911.541 327.841C910.55 327.48 909.83 326.895 909.379 326.084C909.019 325.183 909.019 324.237 909.379 323.246C909.74 322.255 910.37 321.535 911.271 321.084C912.172 320.634 913.073 320.634 913.974 321.084L964.242 339.462C965.684 339.912 966.494 340.948 966.675 342.57C966.675 344.282 966.044 345.408 964.783 345.948L915.19 372.569C914.559 372.839 913.974 372.974 913.433 372.974ZM1022.76 410C1021.77 410 1020.91 409.64 1020.19 408.919C1019.47 408.198 1019.11 407.342 1019.11 406.351V325.138L973.164 350.002C971.993 350.723 970.777 350.723 969.515 350.002C968.344 349.281 967.759 348.245 967.759 346.894V319.057C967.759 318.066 968.119 317.21 968.84 316.49C969.561 315.769 970.416 315.409 971.407 315.409C972.398 315.409 973.254 315.769 973.975 316.49C974.695 317.21 975.056 318.066 975.056 319.057V340.813L1021 315.949C1022.17 315.229 1023.39 315.229 1024.65 315.949C1025.82 316.67 1026.41 317.751 1026.41 319.192V406.351C1026.41 407.342 1026.05 408.198 1025.32 408.919C1024.6 409.64 1023.75 410 1022.76 410ZM1049.47 410C1048.47 410 1047.62 409.64 1046.9 408.919C1046.18 408.198 1045.82 407.342 1045.82 406.351V319.057C1045.82 318.066 1046.18 317.21 1046.9 316.49C1047.62 315.769 1048.47 315.409 1049.47 315.409C1050.46 315.409 1051.31 315.769 1052.03 316.49C1052.75 317.21 1053.11 318.066 1053.11 319.057V406.351C1053.11 407.342 1052.75 408.198 1052.03 408.919C1051.31 409.64 1050.46 410 1049.47 410ZM1049.6 351.489C1048.07 351.489 1047.03 350.858 1046.49 349.597C1045.95 348.696 1045.82 347.795 1046.09 346.894C1046.36 345.903 1046.94 345.137 1047.84 344.597L1099.19 315.814C1100.09 315.364 1101.04 315.274 1102.03 315.544C1103.02 315.814 1103.74 316.4 1104.19 317.301C1104.64 318.201 1104.73 319.147 1104.46 320.138C1104.28 321.039 1103.74 321.76 1102.84 322.3L1051.36 350.948C1050.64 351.308 1050.05 351.489 1049.6 351.489ZM1049.6 379.19C1048.16 379.19 1047.12 378.56 1046.49 377.298C1045.95 376.398 1045.82 375.452 1046.09 374.461C1046.36 373.47 1046.94 372.749 1047.84 372.299L1099.19 343.516C1100.09 343.065 1101.04 342.975 1102.03 343.246C1103.02 343.426 1103.74 343.966 1104.19 344.867C1104.64 345.858 1104.73 346.849 1104.46 347.84C1104.28 348.741 1103.74 349.417 1102.84 349.867L1051.36 378.65C1050.64 379.01 1050.05 379.19 1049.6 379.19ZM1049.47 409.73C1048.02 409.73 1046.99 409.144 1046.36 407.973C1045.82 407.072 1045.68 406.126 1045.95 405.135C1046.22 404.144 1046.81 403.424 1047.71 402.973L1099.19 374.19C1100.09 373.74 1100.99 373.65 1101.9 373.92C1102.89 374.1 1103.65 374.641 1104.19 375.542C1104.64 376.443 1104.73 377.389 1104.46 378.379C1104.19 379.37 1103.61 380.091 1102.71 380.542L1051.22 409.324C1050.68 409.595 1050.1 409.73 1049.47 409.73ZM1167.56 410C1166.66 410 1165.85 409.685 1165.13 409.054L1113.64 364.596C1112.92 363.875 1112.52 363.02 1112.43 362.029C1112.43 360.948 1112.74 360.092 1113.37 359.461L1150.8 316.625C1151.52 315.814 1152.42 315.409 1153.51 315.409H1167.56C1168.55 315.409 1169.41 315.769 1170.13 316.49C1170.85 317.21 1171.21 318.066 1171.21 319.057C1171.21 320.048 1170.85 320.904 1170.13 321.625C1169.41 322.345 1168.55 322.706 1167.56 322.706H1155.13L1121.21 361.488L1169.99 403.649C1170.71 404.279 1171.12 405.09 1171.21 406.081C1171.3 407.072 1170.98 407.973 1170.26 408.784C1169.63 409.595 1168.73 410 1167.56 410ZM1184.86 410C1183.87 410 1183.01 409.64 1182.29 408.919C1181.57 408.198 1181.21 407.342 1181.21 406.351V319.057C1181.21 318.066 1181.57 317.21 1182.29 316.49C1183.01 315.769 1183.87 315.409 1184.86 315.409C1185.85 315.409 1186.71 315.769 1187.43 316.49C1188.15 317.21 1188.51 318.066 1188.51 319.057V406.351C1188.51 407.342 1188.15 408.198 1187.43 408.919C1186.71 409.64 1185.85 410 1184.86 410ZM1235.8 375.947H1184.99C1184.27 375.947 1183.6 375.767 1182.97 375.407C1182.43 375.046 1182.02 374.506 1181.75 373.785C1181.12 372.434 1181.35 371.127 1182.43 369.866L1233.37 316.49C1234.09 315.769 1234.95 315.409 1235.94 315.409C1236.93 315.409 1237.79 315.769 1238.51 316.49C1239.23 317.21 1239.59 318.066 1239.59 319.057C1239.68 319.958 1239.36 320.769 1238.64 321.49L1193.64 368.785H1235.8C1236.79 368.785 1237.65 369.146 1238.37 369.866C1239.09 370.587 1239.45 371.443 1239.45 372.434C1239.45 373.425 1239.09 374.281 1238.37 375.001C1237.65 375.632 1236.79 375.947 1235.8 375.947ZM1255.59 315.409C1256.58 315.409 1257.44 315.769 1258.16 316.49C1258.88 317.21 1259.24 318.066 1259.24 319.057V374.731L1303.16 400V319.057C1303.16 318.066 1303.52 317.21 1304.24 316.49C1304.96 315.769 1305.82 315.409 1306.81 315.409C1307.8 315.409 1308.65 315.769 1309.37 316.49C1310.09 317.21 1310.45 318.066 1310.45 319.057V406.351C1310.45 407.793 1309.87 408.829 1308.7 409.459C1307.53 410.36 1306.31 410.36 1305.05 409.459L1253.84 380.001C1252.57 379.28 1251.94 378.244 1251.94 376.893V319.057C1251.94 318.066 1252.3 317.21 1253.02 316.49C1253.75 315.769 1254.6 315.409 1255.59 315.409ZM1328.17 410C1327.18 410 1326.32 409.64 1325.6 408.919C1324.88 408.198 1324.52 407.387 1324.52 406.487C1324.52 405.496 1324.88 404.64 1325.6 403.919L1366.14 361.218L1325.74 321.625C1325.02 320.904 1324.66 320.048 1324.66 319.057C1324.66 318.066 1325.02 317.21 1325.74 316.49C1326.46 315.769 1327.31 315.409 1328.31 315.409C1329.39 315.409 1330.29 315.769 1331.01 316.49L1373.84 358.515C1374.57 359.236 1374.93 360.092 1374.93 361.083C1374.93 362.074 1374.57 362.93 1373.84 363.65L1330.74 408.919C1330.02 409.64 1329.16 410 1328.17 410ZM1379.66 410C1378.84 410 1377.99 409.64 1377.09 408.919L1334.12 363.65C1333.4 362.93 1333.04 362.074 1333.04 361.083C1333.04 360.092 1333.4 359.236 1334.12 358.515L1376.95 316.49C1377.67 315.769 1378.53 315.409 1379.52 315.409C1380.51 315.409 1381.37 315.769 1382.09 316.49C1382.81 317.21 1383.17 318.066 1383.17 319.057C1383.17 320.048 1382.81 320.904 1382.09 321.625L1341.82 361.218L1382.36 403.919C1383.08 404.64 1383.39 405.496 1383.3 406.487C1383.3 407.387 1382.94 408.198 1382.22 408.919C1381.59 409.64 1380.74 410 1379.66 410ZM729.229 559C727.698 559 726.662 558.369 726.121 557.108L700.447 512.38C699.726 511.209 699.726 510.038 700.447 508.867L726.121 466.571C726.752 465.4 727.788 464.814 729.229 464.814C730.581 464.814 731.617 465.4 732.337 466.571L757.607 508.867C758.237 510.128 758.237 511.299 757.607 512.38L732.337 557.108C731.617 558.369 730.581 559 729.229 559ZM707.744 510.758L729.229 548.054L750.31 510.758L729.229 475.489L707.744 510.758ZM754.093 555.622C752.652 555.622 751.616 555.036 750.985 553.865L699.636 469.949C699.095 469.048 698.915 468.102 699.095 467.111C699.366 466.12 699.951 465.4 700.852 464.949C701.663 464.409 702.564 464.274 703.555 464.544C704.546 464.724 705.311 465.265 705.852 466.165L757.201 550.217C757.652 551.027 757.742 551.928 757.472 552.919C757.291 553.91 756.751 554.676 755.85 555.216C755.67 555.397 755.4 555.532 755.039 555.622C754.679 555.622 754.364 555.622 754.093 555.622ZM827.38 559H776.301C775.31 559 774.454 558.64 773.734 557.919C773.013 557.198 772.653 556.342 772.653 555.351V468.057C772.653 467.066 773.013 466.21 773.734 465.49C774.454 464.769 775.31 464.409 776.301 464.409H827.38C828.371 464.409 829.227 464.769 829.948 465.49C830.669 466.21 831.029 467.066 831.029 468.057C831.029 469.048 830.669 469.904 829.948 470.625C829.227 471.345 828.371 471.706 827.38 471.706H779.95V491.57L830.218 553.054C831.209 554.135 831.389 555.442 830.759 556.973C830.038 558.324 828.912 559 827.38 559ZM779.95 551.703H819.678L779.95 503.056V551.703ZM889.393 559H850.205C849.214 559 848.358 558.64 847.637 557.919C846.917 557.198 846.556 556.342 846.556 555.351V471.706H837.638C836.647 471.706 835.791 471.345 835.07 470.625C834.35 469.904 833.989 469.048 833.989 468.057C833.989 467.066 834.35 466.21 835.07 465.49C835.791 464.769 836.647 464.409 837.638 464.409H850.205C851.196 464.409 852.052 464.769 852.772 465.49C853.493 466.21 853.853 467.066 853.853 468.057V504.542L892.23 553.054C892.681 553.595 892.906 554.225 892.906 554.946C892.996 555.667 892.951 556.342 892.771 556.973C892.05 558.324 890.924 559 889.393 559ZM853.853 551.838H881.961L853.853 516.299V551.838ZM890.317 559C889.327 559 888.471 558.64 887.75 557.919C887.029 557.198 886.669 556.342 886.669 555.351V468.057C886.669 467.066 887.029 466.21 887.75 465.49C888.471 464.769 889.327 464.409 890.317 464.409C891.308 464.409 892.164 464.769 892.885 465.49C893.606 466.21 893.966 467.066 893.966 468.057V555.351C893.966 556.342 893.606 557.198 892.885 557.919C892.164 558.64 891.308 559 890.317 559ZM890.453 500.489C888.921 500.489 887.885 499.858 887.345 498.597C886.804 497.696 886.669 496.795 886.939 495.894C887.209 494.903 887.795 494.137 888.696 493.597L940.045 464.814C940.946 464.364 941.892 464.274 942.883 464.544C943.874 464.814 944.595 465.4 945.045 466.301C945.496 467.201 945.586 468.147 945.316 469.138C945.135 470.039 944.595 470.76 943.694 471.3L892.209 499.948C891.489 500.308 890.903 500.489 890.453 500.489ZM890.453 528.19C889.011 528.19 887.975 527.56 887.345 526.298C886.804 525.398 886.669 524.452 886.939 523.461C887.209 522.47 887.795 521.749 888.696 521.299L940.045 492.516C940.946 492.065 941.892 491.975 942.883 492.246C943.874 492.426 944.595 492.966 945.045 493.867C945.496 494.858 945.586 495.849 945.316 496.84C945.135 497.741 944.595 498.417 943.694 498.867L892.209 527.65C891.489 528.01 890.903 528.19 890.453 528.19ZM890.317 558.73C888.876 558.73 887.84 558.144 887.209 556.973C886.669 556.072 886.534 555.126 886.804 554.135C887.074 553.144 887.66 552.424 888.561 551.973L940.045 523.19C940.946 522.74 941.847 522.65 942.748 522.92C943.739 523.1 944.505 523.641 945.045 524.542C945.496 525.443 945.586 526.389 945.316 527.379C945.045 528.37 944.46 529.091 943.559 529.542L892.074 558.324C891.534 558.595 890.948 558.73 890.317 558.73ZM963.953 559C962.962 559 962.106 558.64 961.386 557.919C960.665 557.198 960.304 556.342 960.304 555.351V468.057C960.304 467.066 960.665 466.21 961.386 465.49C962.106 464.769 962.962 464.409 963.953 464.409C964.944 464.409 965.8 464.769 966.52 465.49C967.241 466.21 967.602 467.066 967.602 468.057V555.351C967.602 556.342 967.241 557.198 966.52 557.919C965.8 558.64 964.944 559 963.953 559ZM1014.9 524.947H964.088C963.367 524.947 962.692 524.767 962.061 524.407C961.521 524.046 961.115 523.506 960.845 522.785C960.214 521.434 960.44 520.127 961.521 518.866L1012.46 465.49C1013.19 464.769 1014.04 464.409 1015.03 464.409C1016.02 464.409 1016.88 464.769 1017.6 465.49C1018.32 466.21 1018.68 467.066 1018.68 468.057C1018.77 468.958 1018.46 469.769 1017.73 470.49L972.736 517.785H1014.9C1015.89 517.785 1016.74 518.146 1017.46 518.866C1018.19 519.587 1018.55 520.443 1018.55 521.434C1018.55 522.425 1018.19 523.281 1017.46 524.001C1016.74 524.632 1015.89 524.947 1014.9 524.947ZM1052.66 559C1051.67 559 1050.81 558.64 1050.09 557.919C1049.37 557.198 1049.01 556.342 1049.01 555.351V474.949L1029.14 488.192C1028.33 488.822 1027.43 489.047 1026.44 488.867C1025.45 488.687 1024.69 488.147 1024.15 487.246C1023.51 486.435 1023.29 485.534 1023.47 484.543C1023.74 483.552 1024.28 482.786 1025.09 482.246L1050.63 465.084C1051.89 464.183 1053.11 464.093 1054.28 464.814C1055.63 465.445 1056.31 466.526 1056.31 468.057V555.351C1056.31 556.342 1055.95 557.198 1055.23 557.919C1054.5 558.64 1053.65 559 1052.66 559ZM1078.2 487.651C1077.93 487.651 1077.61 487.606 1077.25 487.516C1076.89 487.426 1076.58 487.291 1076.31 487.111L1050.63 471.165C1049.82 470.625 1049.28 469.859 1049.01 468.868C1048.83 467.877 1049.01 466.931 1049.55 466.03C1050.09 465.219 1050.86 464.724 1051.85 464.544C1052.84 464.274 1053.78 464.409 1054.68 464.949L1080.22 480.895C1081.04 481.435 1081.53 482.201 1081.71 483.192C1081.98 484.183 1081.85 485.084 1081.31 485.894C1080.67 487.066 1079.64 487.651 1078.2 487.651ZM1121.69 559C1120.16 559 1119.12 558.369 1118.58 557.108L1092.91 512.38C1092.18 511.209 1092.18 510.038 1092.91 508.867L1118.58 466.571C1119.21 465.4 1120.25 464.814 1121.69 464.814C1123.04 464.814 1124.08 465.4 1124.8 466.571L1150.07 508.867C1150.7 510.128 1150.7 511.299 1150.07 512.38L1124.8 557.108C1124.08 558.369 1123.04 559 1121.69 559ZM1100.2 510.758L1121.69 548.054L1142.77 510.758L1121.69 475.489L1100.2 510.758ZM1146.55 555.622C1145.11 555.622 1144.07 555.036 1143.44 553.865L1092.09 469.949C1091.55 469.048 1091.37 468.102 1091.55 467.111C1091.82 466.12 1092.41 465.4 1093.31 464.949C1094.12 464.409 1095.02 464.274 1096.01 464.544C1097 464.724 1097.77 465.265 1098.31 466.165L1149.66 550.217C1150.11 551.027 1150.2 551.928 1149.93 552.919C1149.75 553.91 1149.21 554.676 1148.31 555.216C1148.13 555.397 1147.86 555.532 1147.5 555.622C1147.14 555.622 1146.82 555.622 1146.55 555.622ZM1219.3 559H1168.35C1167.36 559 1166.51 558.64 1165.79 557.919C1165.07 557.198 1164.71 556.342 1164.71 555.351C1164.8 549.856 1164.84 544.046 1164.84 537.92C1164.93 531.704 1165.02 525.533 1165.11 519.407C1165.2 513.191 1165.25 507.2 1165.25 501.434C1165.34 495.669 1165.38 490.489 1165.38 485.894C1165.47 481.3 1165.52 477.471 1165.52 474.408C1165.52 471.255 1165.47 469.318 1165.38 468.598V468.192C1165.38 467.021 1165.7 466.12 1166.33 465.49C1167.5 464.319 1168.85 464.048 1170.38 464.679C1170.83 464.769 1171.24 465.039 1171.6 465.49L1221.73 508.867C1223.08 509.767 1223.44 511.074 1222.81 512.785C1222.18 514.317 1221.01 515.083 1219.3 515.083H1178.35L1221.73 552.649C1223.08 553.73 1223.44 555.036 1222.81 556.568C1222.18 558.189 1221.01 559 1219.3 559ZM1172 551.703H1209.57L1172.41 519.677C1172.32 526.434 1172.23 532.74 1172.14 538.595C1172.05 544.361 1172 548.73 1172 551.703ZM1172.54 507.921H1209.57L1172.68 476.03V481.841C1172.68 485.084 1172.63 488.912 1172.54 493.327C1172.54 497.651 1172.54 502.515 1172.54 507.921Z" fill="white"/>
<defs>
<clipPath id="clip0_2990_2254">
<rect width="1920" height="676" fill="white"/>
</clipPath>
</defs>
</svg>
