<svg width="72" height="154" viewBox="0 0 72 154" fill="none" xmlns="http://www.w3.org/2000/svg">
<path d="M32.6562 146.594C32.6562 145.74 32.9922 145.083 33.6641 144.625C34.3359 144.161 35.1901 143.93 36.2266 143.93H37.9922V143.391C37.9922 142.943 37.875 142.578 37.6406 142.297C37.4115 142.016 37.0078 141.875 36.4297 141.875C35.8568 141.875 35.4479 141.992 35.2031 142.227C34.9583 142.461 34.8359 142.737 34.8359 143.055V143.125H33.125V143.047C33.125 142.37 33.4297 141.792 34.0391 141.312C34.6536 140.833 35.4714 140.594 36.4922 140.594C37.513 140.594 38.3073 140.826 38.875 141.289C39.4427 141.753 39.7266 142.456 39.7266 143.398V147.141C39.7266 147.474 39.7526 147.792 39.8047 148.094C39.862 148.391 39.9375 148.651 40.0312 148.875V149H38.3438C38.276 148.875 38.2135 148.711 38.1562 148.508C38.1042 148.299 38.0677 148.096 38.0469 147.898C37.8698 148.227 37.5625 148.518 37.125 148.773C36.6875 149.029 36.1328 149.156 35.4609 149.156C34.6745 149.156 34.0104 148.94 33.4688 148.508C32.9271 148.07 32.6562 147.432 32.6562 146.594ZM34.3906 146.477C34.3906 146.909 34.5156 147.25 34.7656 147.5C35.0156 147.745 35.4036 147.867 35.9297 147.867C36.4766 147.867 36.9557 147.685 37.3672 147.32C37.7839 146.956 37.9922 146.555 37.9922 146.117V145.078H36.4453C35.763 145.078 35.25 145.203 34.9062 145.453C34.5625 145.698 34.3906 146.039 34.3906 146.477Z" fill="#5F5F5F"/>
<path d="M1 129L4.75 131.165V126.835L1 129ZM71 129L67.25 126.835V131.165L71 129ZM4.375 129V129.375L67.625 129.375V129V128.625L4.375 128.625V129Z" fill="#5F5F5F"/>
<rect width="136" height="1" transform="matrix(0 -1 -1 0 72 136)" fill="#5F5F5F"/>
<rect width="136" height="1" transform="matrix(0 -1 -1 0 1 136)" fill="#5F5F5F"/>
</svg>
