<svg width="32" height="154" viewBox="0 0 32 154" fill="none" xmlns="http://www.w3.org/2000/svg">
<path d="M13.0938 149V137.039H14.8281V141.859C15.099 141.5 15.4505 141.211 15.8828 140.992C16.3151 140.773 16.8073 140.664 17.3594 140.664C18.125 140.664 18.7526 140.901 19.2422 141.375C19.737 141.849 19.9844 142.635 19.9844 143.734V149H18.2578V143.773C18.2578 143.159 18.1198 142.721 17.8438 142.461C17.5677 142.195 17.1823 142.062 16.6875 142.062C16.2604 142.062 15.8854 142.18 15.5625 142.414C15.2448 142.643 15 142.951 14.8281 143.336V149H13.0938Z" fill="#5F5F5F"/>
<path d="M1 129L4.75 131.165V126.835L1 129ZM31 129L27.25 126.835V131.165L31 129ZM4.375 129V129.375H27.625V129V128.625H4.375V129Z" fill="#5F5F5F"/>
<rect width="136" height="1" transform="matrix(0 -1 -1 0 1 136)" fill="#5F5F5F"/>
<rect width="63" height="1" transform="matrix(0 -1 -1 0 32 136)" fill="#5F5F5F"/>
</svg>
