<svg width="69" height="153" viewBox="0 0 69 153" fill="none" xmlns="http://www.w3.org/2000/svg">
<path d="M30.9922 18.25L31.9141 17.0547C32.1276 17.2891 32.4453 17.5052 32.8672 17.7031C33.2891 17.901 33.7604 18 34.2812 18C34.9375 18 35.4583 17.8073 35.8438 17.4219C36.2344 17.0365 36.4297 16.4766 36.4297 15.7422V15.0703C36.2057 15.3984 35.8932 15.6615 35.4922 15.8594C35.0964 16.0521 34.6198 16.1484 34.0625 16.1484C33.026 16.1484 32.1927 15.7656 31.5625 15C30.9375 14.2344 30.625 13.2474 30.625 12.0391V11.7891C30.625 10.5755 30.9375 9.58594 31.5625 8.82031C32.1875 8.04948 33.0234 7.66406 34.0703 7.66406C34.6172 7.66406 35.1016 7.77865 35.5234 8.00781C35.9505 8.23698 36.263 8.51562 36.4609 8.84375H36.5L36.5547 7.82031H38.1562V15.7109C38.1562 16.9036 37.8021 17.8177 37.0938 18.4531C36.3854 19.0885 35.4714 19.4062 34.3516 19.4062C33.6641 19.4062 33.0286 19.2969 32.4453 19.0781C31.8672 18.8594 31.3828 18.5833 30.9922 18.25ZM32.3906 12.0703C32.3906 12.8516 32.5599 13.5 32.8984 14.0156C33.237 14.5312 33.7656 14.7891 34.4844 14.7891C34.9635 14.7891 35.3698 14.6562 35.7031 14.3906C36.0417 14.125 36.2839 13.8203 36.4297 13.4766V10.3594C36.2786 10 36.0339 9.6901 35.6953 9.42969C35.362 9.16406 34.9557 9.03125 34.4766 9.03125C33.763 9.03125 33.237 9.28906 32.8984 9.80469C32.5599 10.3203 32.3906 10.9688 32.3906 11.75V12.0703Z" fill="#5F5F5F"/>
<path d="M1 23L4.75 25.1651V20.8349L1 23ZM68 23L64.25 20.8349V25.1651L68 23ZM4.375 23V23.375L64.625 23.375V23V22.625L4.375 22.625V23Z" fill="#5F5F5F"/>
<rect width="140" height="1" transform="matrix(0 -1 -1 0 69 153)" fill="#5F5F5F"/>
<rect width="140" height="1" transform="matrix(0 -1 -1 0 1 153)" fill="#5F5F5F"/>
</svg>
