<svg width="33" height="171" viewBox="0 0 33 171" fill="none" xmlns="http://www.w3.org/2000/svg">
<path d="M12.625 162.031V161.781C12.625 160.531 12.974 159.521 13.6719 158.75C14.3698 157.974 15.3203 157.586 16.5234 157.586C17.6432 157.586 18.4948 157.88 19.0781 158.469C19.6667 159.057 19.9688 159.732 19.9844 160.492V160.57H18.3047V160.508C18.3047 160.081 18.1615 159.714 17.875 159.406C17.5885 159.099 17.1354 158.945 16.5156 158.945C15.7969 158.945 15.263 159.211 14.9141 159.742C14.5651 160.268 14.3906 160.935 14.3906 161.742V162.078C14.3906 162.885 14.5625 163.555 14.9062 164.086C15.2552 164.612 15.7917 164.875 16.5156 164.875C17.151 164.875 17.6068 164.719 17.8828 164.406C18.1641 164.089 18.3047 163.721 18.3047 163.305V163.25H19.9844V163.312C19.9844 164.073 19.6875 164.75 19.0938 165.344C18.5052 165.938 17.6484 166.234 16.5234 166.234C15.3255 166.234 14.375 165.849 13.6719 165.078C12.974 164.302 12.625 163.286 12.625 162.031Z" fill="#5F5F5F"/>
<path d="M1 146L4.75 148.165V143.835L1 146ZM32 146L28.25 143.835V148.165L32 146ZM4.375 146V146.375H28.625V146V145.625H4.375V146Z" fill="#5F5F5F"/>
<rect width="63" height="1" transform="matrix(0 -1 -1 0 33 153)" fill="#5F5F5F"/>
<rect width="153" height="1" transform="matrix(0 -1 -1 0 1 153)" fill="#5F5F5F"/>
</svg>
