<svg width="70" height="32" viewBox="0 0 70 32" fill="none" xmlns="http://www.w3.org/2000/svg">
<path d="M36.1484 16V7.82031H37.8828V16H36.1484ZM35.9688 5.39062C35.9688 5.11458 36.0573 4.88281 36.2344 4.69531C36.4167 4.5026 36.6771 4.40625 37.0156 4.40625C37.3542 4.40625 37.6146 4.5026 37.7969 4.69531C37.9792 4.88281 38.0703 5.11458 38.0703 5.39062C38.0703 5.67188 37.9792 5.90885 37.7969 6.10156C37.6146 6.28906 37.3542 6.38281 37.0156 6.38281C36.6771 6.38281 36.4167 6.28906 36.2344 6.10156C36.0573 5.90885 35.9688 5.67188 35.9688 5.39062Z" fill="#5F5F5F"/>
<path d="M1 25L4.75 27.1651V22.8349L1 25ZM69 25L65.25 22.8349V27.1651L69 25ZM4.375 25V25.375H65.625V25V24.625H4.375V25Z" fill="#5F5F5F"/>
<rect width="19" height="1" transform="matrix(0 -1 -1 0 1 32)" fill="#5F5F5F"/>
<rect width="19" height="1" transform="matrix(0 -1 -1 0 70 32)" fill="#5F5F5F"/>
</svg>
