<svg width="17" height="123" viewBox="0 0 17 123" fill="none" xmlns="http://www.w3.org/2000/svg">
<path d="M8.625 62.0312V61.7812C8.625 60.5417 8.97656 59.5339 9.67969 58.7578C10.3828 57.9766 11.3047 57.5859 12.4453 57.5859C13.5859 57.5859 14.4688 57.9505 15.0938 58.6797C15.7188 59.4036 16.0312 60.3932 16.0312 61.6484V62.3125H9.72656V61.0703H14.3047V60.8906C14.3099 60.349 14.1536 59.888 13.8359 59.5078C13.5234 59.1224 13.0703 58.9297 12.4766 58.9297C11.7734 58.9297 11.2448 59.1953 10.8906 59.7266C10.5417 60.2578 10.3672 60.9297 10.3672 61.7422V62.0703C10.3672 62.8828 10.5547 63.5547 10.9297 64.0859C11.3047 64.6172 11.875 64.8828 12.6406 64.8828C13.1354 64.8828 13.5599 64.7708 13.9141 64.5469C14.2682 64.3229 14.5547 64.0599 14.7734 63.7578L15.9453 64.5938C15.6849 65.0208 15.2708 65.401 14.7031 65.7344C14.1406 66.0677 13.4583 66.2344 12.6562 66.2344C11.3698 66.2344 10.375 65.8464 9.67188 65.0703C8.97396 64.2891 8.625 63.276 8.625 62.0312Z" fill="#5F5F5F"/>
<path d="M3 123L5.88675 118H0.113249L3 123ZM3 0L0.113249 5H5.88675L3 0ZM3 118.5H3.5L3.5 4.5H3H2.5L2.5 118.5H3Z" fill="#5F5F5F"/>
</svg>
