<svg width="67" height="150" viewBox="0 0 67 150" fill="none" xmlns="http://www.w3.org/2000/svg">
<path d="M28.0938 16V4.03906H29.8281V8.75C30.0729 8.41667 30.3932 8.15365 30.7891 7.96094C31.1901 7.76302 31.6641 7.66406 32.2109 7.66406C33.2526 7.66406 34.0833 8.04948 34.7031 8.82031C35.3229 9.59115 35.6328 10.5781 35.6328 11.7812V12.0312C35.6328 13.2344 35.3229 14.224 34.7031 15C34.0833 15.7708 33.2526 16.1562 32.2109 16.1562C31.6589 16.1562 31.1667 16.0443 30.7344 15.8203C30.3073 15.5911 29.9948 15.3125 29.7969 14.9844H29.75L29.6953 16H28.0938ZM29.8281 13.4688C29.974 13.8125 30.2135 14.1198 30.5469 14.3906C30.8854 14.6562 31.3021 14.7891 31.7969 14.7891C32.5052 14.7891 33.026 14.5312 33.3594 14.0156C33.6979 13.4948 33.8672 12.8464 33.8672 12.0703V11.75C33.8672 10.9688 33.7005 10.3203 33.3672 9.80469C33.0339 9.28906 32.5078 9.03125 31.7891 9.03125C31.2995 9.03125 30.8854 9.16667 30.5469 9.4375C30.2135 9.70312 29.974 10.0078 29.8281 10.3516V13.4688Z" fill="#5F5F5F"/>
<path d="M0 23L3.75 25.1651V20.8349L0 23ZM66 23L62.25 20.8349V25.1651L66 23ZM3.375 23V23.375H62.625V23V22.625H3.375V23Z" fill="#5F5F5F"/>
<rect width="137" height="1" transform="matrix(0 -1 -1 0 67 150)" fill="#5F5F5F"/>
</svg>
