<svg width="52" height="32" viewBox="0 0 52 32" fill="none" xmlns="http://www.w3.org/2000/svg">
<path d="M24.2812 19.2031L24.2734 17.8672C24.3724 17.8984 24.5182 17.9323 24.7109 17.9688C24.8984 18.0052 25.0703 18.0234 25.2266 18.0234C25.5339 18.0234 25.7682 17.9297 25.9297 17.7422C26.0911 17.5599 26.1719 17.2526 26.1719 16.8203V7.82031H27.9062V16.6328C27.9062 17.5807 27.7057 18.2786 27.3047 18.7266C26.9036 19.1797 26.3255 19.4062 25.5703 19.4062C25.3672 19.4062 25.1328 19.3828 24.8672 19.3359C24.6016 19.2943 24.4062 19.25 24.2812 19.2031ZM25.9844 5.39062C25.9844 5.11458 26.0755 4.88281 26.2578 4.69531C26.4401 4.5026 26.7005 4.40625 27.0391 4.40625C27.3776 4.40625 27.6354 4.5026 27.8125 4.69531C27.9948 4.88281 28.0859 5.11458 28.0859 5.39062C28.0859 5.67188 27.9948 5.90885 27.8125 6.10156C27.6354 6.28906 27.3776 6.38281 27.0391 6.38281C26.7005 6.38281 26.4401 6.28906 26.2578 6.10156C26.0755 5.90885 25.9844 5.67188 25.9844 5.39062Z" fill="#5F5F5F"/>
<path d="M1 25L4.75 27.1651V22.8349L1 25ZM51 25L47.25 22.8349V27.1651L51 25ZM4.375 25V25.375H47.625V25V24.625H4.375V25Z" fill="#5F5F5F"/>
<rect x="-0.25" y="-0.25" width="18.5" height="0.5" transform="matrix(0 -1 -1 0 0.5 31.5)" fill="#5F5F5F" stroke="#5F5F5F" stroke-width="0.5"/>
<rect x="-0.25" y="-0.25" width="18.5" height="0.5" transform="matrix(0 -1 -1 0 51.5 31.5)" fill="#5F5F5F" stroke="#5F5F5F" stroke-width="0.5"/>
</svg>
