<svg width="73" height="154" viewBox="0 0 73 154" fill="none" xmlns="http://www.w3.org/2000/svg">
<path d="M32.625 145.039V144.789C32.625 143.586 32.9401 142.599 33.5703 141.828C34.2057 141.052 35.0443 140.664 36.0859 140.664C36.638 140.664 37.1094 140.763 37.5 140.961C37.8958 141.159 38.2083 141.419 38.4375 141.742V137.039H40.1641V149H38.5625L38.5078 147.969H38.4609C38.263 148.302 37.9557 148.583 37.5391 148.812C37.1224 149.042 36.638 149.156 36.0859 149.156C35.0234 149.156 34.1797 148.771 33.5547 148C32.9349 147.224 32.625 146.237 32.625 145.039ZM34.3906 145.07C34.3906 145.852 34.5599 146.5 34.8984 147.016C35.237 147.531 35.763 147.789 36.4766 147.789C36.9557 147.789 37.362 147.659 37.6953 147.398C38.0339 147.133 38.2786 146.831 38.4297 146.492V143.328C38.2839 142.984 38.0443 142.682 37.7109 142.422C37.3776 142.161 36.9661 142.031 36.4766 142.031C35.7682 142.031 35.2422 142.289 34.8984 142.805C34.5599 143.32 34.3906 143.969 34.3906 144.75V145.07Z" fill="#5F5F5F"/>
<path d="M1 129L4.75 131.165V126.835L1 129ZM72 129L68.25 126.835V131.165L72 129ZM4.375 129V129.375L68.625 129.375V129V128.625L4.375 128.625V129Z" fill="#5F5F5F"/>
<rect width="136" height="1" transform="matrix(0 -1 -1 0 73 136)" fill="#5F5F5F"/>
<rect width="136" height="1" transform="matrix(0 -1 -1 0 1 136)" fill="#5F5F5F"/>
</svg>
