<svg width="69" height="154" viewBox="0 0 69 154" fill="none" xmlns="http://www.w3.org/2000/svg">
<path d="M35.4375 149V139.805C35.4375 138.846 35.7005 138.12 36.2266 137.625C36.7526 137.13 37.4531 136.883 38.3281 136.883C38.5052 136.883 38.6797 136.893 38.8516 136.914C39.0286 136.935 39.1953 136.966 39.3516 137.008L39.2734 138.352C39.1641 138.331 39.0469 138.312 38.9219 138.297C38.7969 138.276 38.6693 138.266 38.5391 138.266C38.1016 138.266 37.763 138.396 37.5234 138.656C37.2839 138.917 37.1641 139.307 37.1641 139.828V141.359V141.523V149H35.4375ZM34.1797 142.117V140.82H36.0859H36.4141H38.8359V142.117H34.1797Z" fill="#5F5F5F"/>
<path d="M1 129L4.75 131.165V126.835L1 129ZM68 129L64.25 126.835V131.165L68 129ZM4.375 129V129.375H64.625V129V128.625H4.375V129Z" fill="#5F5F5F"/>
<rect width="136" height="1" transform="matrix(0 -1 -1 0 1 136)" fill="#5F5F5F"/>
<rect width="136" height="1" transform="matrix(0 -1 -1 0 69 136)" fill="#5F5F5F"/>
</svg>
