<svg width="71" height="55" viewBox="0 0 71 55" fill="none" xmlns="http://www.w3.org/2000/svg">
<mask id="path-1-outside-1_1_1699" maskUnits="userSpaceOnUse" x="0" y="0" width="71" height="55" fill="black">
<rect fill="white" width="71" height="55"/>
<path d="M30.5013 19.5312V36.4062C30.5013 40.2396 30.2929 43.0312 29.8763 44.7812C29.4596 46.5312 28.595 48.1667 27.2825 49.6875C25.97 51.2083 24.3867 52.3021 22.5325 52.9688C20.6783 53.6354 18.6054 53.9688 16.3138 53.9688C13.2929 53.9688 10.7825 53.625 8.7825 52.9375C6.7825 52.2292 5.18875 51.1354 4.00125 49.6562C2.81375 48.1771 1.97 46.625 1.47 45C0.970001 43.3542 0.720001 40.75 0.720001 37.1875V19.5312C0.720001 14.8854 1.11583 11.4062 1.9075 9.09375C2.72 6.78125 4.31375 4.92708 6.68875 3.53125C9.08458 2.13542 11.9804 1.4375 15.3763 1.4375C18.1471 1.4375 20.6263 1.92708 22.8138 2.90625C25.0013 3.86458 26.6367 5.04167 27.72 6.4375C28.8033 7.83333 29.5325 9.40625 29.9075 11.1562C30.3033 12.9062 30.5013 15.6979 30.5013 19.5312ZM17.8763 15.2812C17.8763 12.5938 17.7408 10.9167 17.47 10.25C17.22 9.5625 16.6158 9.21875 15.6575 9.21875C14.72 9.21875 14.095 9.58333 13.7825 10.3125C13.4908 11.0208 13.345 12.6771 13.345 15.2812V39.9688C13.345 42.9062 13.4804 44.6771 13.7513 45.2812C14.0429 45.8854 14.6575 46.1875 15.595 46.1875C16.5325 46.1875 17.1471 45.8333 17.4388 45.125C17.7304 44.4167 17.8763 42.8229 17.8763 40.3438V15.2812ZM55.7812 2.40625V53H43.1562V25.875C43.1562 21.9583 43.0625 19.6042 42.875 18.8125C42.6875 18.0208 42.1667 17.4271 41.3125 17.0312C40.4792 16.6146 38.6042 16.4062 35.6875 16.4062H34.4375V10.5C40.5417 9.1875 45.1771 6.48958 48.3438 2.40625H55.7812ZM70.3738 42.6875V53H60.8425V42.6875H70.3738Z"/>
</mask>
<path d="M27.2825 49.6875L26.8283 49.2955L27.2825 49.6875ZM8.7825 52.9375L8.58218 53.5031L8.58745 53.5049L8.7825 52.9375ZM1.47 45L0.895905 45.1744L0.896534 45.1765L1.47 45ZM1.9075 9.09375L1.34141 8.89485L1.33984 8.89942L1.9075 9.09375ZM6.68875 3.53125L6.38671 3.01282L6.38474 3.01397L6.68875 3.53125ZM22.8138 2.90625L22.5686 3.45391L22.573 3.45582L22.8138 2.90625ZM29.9075 11.1562L29.3208 11.282L29.3223 11.2886L29.9075 11.1562ZM17.47 10.25L16.9061 10.455L16.9099 10.4655L16.9141 10.4758L17.47 10.25ZM13.7825 10.3125L13.231 10.0761L13.2277 10.084L13.7825 10.3125ZM13.7513 45.2812L13.2037 45.5267L13.2072 45.5344L13.2109 45.5421L13.7513 45.2812ZM30.5013 19.5312H29.9013V36.4062H30.5013H31.1012V19.5312H30.5013ZM30.5013 36.4062H29.9013C29.9013 40.2331 29.6919 42.965 29.2926 44.6423L29.8763 44.7812L30.4599 44.9202C30.8939 43.0975 31.1012 40.2461 31.1012 36.4062H30.5013ZM29.8763 44.7812L29.2926 44.6423C28.9007 46.2883 28.0854 47.8388 26.8283 49.2955L27.2825 49.6875L27.7367 50.0795C29.1046 48.4945 30.0185 46.7742 30.4599 44.9202L29.8763 44.7812ZM27.2825 49.6875L26.8283 49.2955C25.5819 50.7397 24.0845 51.7731 22.3295 52.4041L22.5325 52.9688L22.7355 53.5334C24.6888 52.831 26.3581 51.6769 27.7367 50.0795L27.2825 49.6875ZM22.5325 52.9688L22.3295 52.4041C20.5501 53.0439 18.5473 53.3688 16.3138 53.3688V53.9688V54.5687C18.6635 54.5687 20.8066 54.2269 22.7355 53.5334L22.5325 52.9688ZM16.3138 53.9688V53.3688C13.3333 53.3688 10.8942 53.0289 8.97755 52.3701L8.7825 52.9375L8.58745 53.5049C10.6708 54.2211 13.2525 54.5687 16.3138 54.5687V53.9688ZM8.7825 52.9375L8.98281 52.3719C7.0751 51.6963 5.57877 50.6628 4.46913 49.2806L4.00125 49.6562L3.53337 50.0319C4.79873 51.608 6.4899 52.7621 8.58219 53.5031L8.7825 52.9375ZM4.00125 49.6562L4.46913 49.2806C3.32362 47.8538 2.51874 46.3682 2.04347 44.8235L1.47 45L0.896534 45.1765C1.42127 46.8818 2.30389 48.5004 3.53337 50.0319L4.00125 49.6562ZM1.47 45L2.04409 44.8256C1.57131 43.2694 1.32 40.74 1.32 37.1875H0.720001H0.120001C0.120001 40.76 0.368688 43.439 0.895909 45.1744L1.47 45ZM0.720001 37.1875H1.32V19.5312H0.720001H0.120001V37.1875H0.720001ZM0.720001 19.5312H1.32C1.32 14.9032 1.71636 11.5046 2.47516 9.28808L1.9075 9.09375L1.33984 8.89942C0.51531 11.3079 0.120001 14.8676 0.120001 19.5312H0.720001ZM1.9075 9.09375L2.47358 9.29264C3.23323 7.13055 4.72386 5.38201 6.99277 4.04853L6.68875 3.53125L6.38474 3.01397C3.90364 4.47216 2.20677 6.43195 1.34143 8.89486L1.9075 9.09375ZM6.68875 3.53125L6.99079 4.04968C9.27639 2.71807 12.0628 2.0375 15.3763 2.0375V1.4375V0.8375C11.898 0.8375 8.89277 1.55276 6.38671 3.01282L6.68875 3.53125ZM15.3763 1.4375V2.0375C18.0757 2.0375 20.4694 2.51422 22.5686 3.45389L22.8138 2.90625L23.0589 2.35861C20.7831 1.33994 18.2185 0.8375 15.3763 0.8375V1.4375ZM22.8138 2.90625L22.573 3.45582C24.6997 4.38751 26.2418 5.51153 27.246 6.80537L27.72 6.4375L28.194 6.06963C27.0315 4.5718 25.3028 3.34165 23.0545 2.35668L22.8138 2.90625ZM27.72 6.4375L27.246 6.80537C28.2733 8.12903 28.9645 9.61895 29.3208 11.282L29.9075 11.1562L30.4942 11.0305C30.1005 9.19355 29.3333 7.53763 28.194 6.06963L27.72 6.4375ZM29.9075 11.1562L29.3223 11.2886C29.7024 12.9692 29.9013 15.704 29.9013 19.5312H30.5013H31.1012C31.1012 15.6918 30.9043 12.8433 30.4927 11.0239L29.9075 11.1562ZM17.8763 15.2812H18.4763C18.4763 13.9297 18.4423 12.8207 18.3727 11.9595C18.3049 11.1196 18.1993 10.4511 18.0259 10.0242L17.47 10.25L16.9141 10.4758C17.0115 10.7156 17.109 11.2189 17.1766 12.0561C17.2425 12.872 17.2763 13.9453 17.2763 15.2812H17.8763ZM17.47 10.25L18.0339 10.045C17.863 9.57497 17.5588 9.20128 17.1261 8.95506C16.7057 8.71589 16.2031 8.61875 15.6575 8.61875V9.21875V9.81875C16.0702 9.81875 16.3489 9.89349 16.5327 9.99806C16.7041 10.0956 16.827 10.2375 16.9061 10.455L17.47 10.25ZM15.6575 9.21875V8.61875C15.1132 8.61875 14.6109 8.72451 14.1833 8.97392C13.7489 9.22733 13.4328 9.60534 13.231 10.0761L13.7825 10.3125L14.334 10.5489C14.4447 10.2905 14.5974 10.1216 14.7879 10.0105C14.9854 9.89529 15.2643 9.81875 15.6575 9.81875V9.21875ZM13.7825 10.3125L13.2277 10.084C13.0446 10.5286 12.9302 11.1984 12.8567 12.0333C12.7816 12.8858 12.745 13.9702 12.745 15.2812H13.345H13.945C13.945 13.9881 13.9813 12.9423 14.0521 12.1386C14.1244 11.3172 14.2287 10.8047 14.3373 10.541L13.7825 10.3125ZM13.345 15.2812H12.745V39.9688H13.345H13.945V15.2812H13.345ZM13.345 39.9688H12.745C12.745 41.4443 12.7789 42.6385 12.8483 43.5457C12.9153 44.4212 13.0197 45.1161 13.2037 45.5267L13.7513 45.2812L14.2988 45.0358C14.212 44.8423 14.1133 44.3496 14.0448 43.4543C13.9788 42.5906 13.945 41.4307 13.945 39.9688H13.345ZM13.7513 45.2812L13.2109 45.5421C13.6417 46.4344 14.5331 46.7875 15.595 46.7875V46.1875V45.5875C14.7819 45.5875 14.4442 45.3364 14.2916 45.0204L13.7513 45.2812ZM15.595 46.1875V46.7875C16.1361 46.7875 16.6355 46.6856 17.0586 46.4417C17.4903 46.193 17.8015 45.8199 17.9936 45.3535L17.4388 45.125L16.8839 44.8965C16.7843 45.1385 16.6424 45.2966 16.4595 45.402C16.268 45.5123 15.9914 45.5875 15.595 45.5875V46.1875ZM17.4388 45.125L17.9936 45.3535C18.1757 44.9111 18.2906 44.2594 18.3644 43.4531C18.4396 42.6311 18.4763 41.5929 18.4763 40.3438H17.8763H17.2763C17.2763 41.5738 17.24 42.5721 17.1694 43.3438C17.0973 44.1312 16.9935 44.6306 16.8839 44.8965L17.4388 45.125ZM17.8763 40.3438H18.4763V15.2812H17.8763H17.2763V40.3438H17.8763ZM55.7812 2.40625H56.3812V1.80625H55.7812V2.40625ZM55.7812 53V53.6H56.3812V53H55.7812ZM43.1562 53H42.5563V53.6H43.1562V53ZM41.3125 17.0312L41.0442 17.5679L41.0521 17.5719L41.0602 17.5756L41.3125 17.0312ZM34.4375 16.4062H33.8375V17.0063H34.4375V16.4062ZM34.4375 10.5L34.3114 9.91341L33.8375 10.0153V10.5H34.4375ZM48.3438 2.40625V1.80625H48.0498L47.8696 2.03856L48.3438 2.40625ZM55.7812 2.40625H55.1813V53H55.7812H56.3812V2.40625H55.7812ZM55.7812 53V52.4H43.1562V53V53.6H55.7812V53ZM43.1562 53H43.7562V25.875H43.1562H42.5563V53H43.1562ZM43.1562 25.875H43.7562C43.7562 23.9132 43.7328 22.3365 43.6855 21.148C43.6389 19.9793 43.5681 19.1354 43.4588 18.6742L42.875 18.8125L42.2912 18.9508C42.3694 19.2813 42.4392 20.0103 42.4864 21.1958C42.5328 22.3614 42.5563 23.9202 42.5563 25.875H43.1562ZM42.875 18.8125L43.4588 18.6742C43.222 17.674 42.5563 16.9464 41.5648 16.4869L41.3125 17.0312L41.0602 17.5756C41.777 17.9078 42.153 18.3677 42.2912 18.9508L42.875 18.8125ZM41.3125 17.0312L41.5808 16.4946C41.0644 16.2364 40.2984 16.0718 39.3475 15.9662C38.3796 15.8586 37.1574 15.8062 35.6875 15.8062V16.4062V17.0063C37.1342 17.0063 38.3079 17.058 39.215 17.1588C40.1391 17.2615 40.7272 17.4094 41.0442 17.5679L41.3125 17.0312ZM35.6875 16.4062V15.8062H34.4375V16.4062V17.0063H35.6875V16.4062ZM34.4375 16.4062H35.0375V10.5H34.4375H33.8375V16.4062H34.4375ZM34.4375 10.5L34.5636 11.0866C40.776 9.75083 45.5475 6.99099 48.8179 2.77394L48.3438 2.40625L47.8696 2.03856C44.8066 5.98817 40.3073 8.62417 34.3114 9.91341L34.4375 10.5ZM48.3438 2.40625V3.00625H55.7812V2.40625V1.80625H48.3438V2.40625ZM70.3737 42.6875H70.9738V42.0875H70.3737V42.6875ZM70.3737 53V53.6H70.9738V53H70.3737ZM60.8425 53H60.2425V53.6H60.8425V53ZM60.8425 42.6875V42.0875H60.2425V42.6875H60.8425ZM70.3737 42.6875H69.7738V53H70.3737H70.9738V42.6875H70.3737ZM70.3737 53V52.4H60.8425V53V53.6H70.3737V53ZM60.8425 53H61.4425V42.6875H60.8425H60.2425V53H60.8425ZM60.8425 42.6875V43.2875H70.3737V42.6875V42.0875H60.8425V42.6875Z" fill="#FCFCFC" mask="url(#path-1-outside-1_1_1699)"/>
</svg>
