<svg width="216" height="198" viewBox="0 0 216 198" fill="none" xmlns="http://www.w3.org/2000/svg">
<path d="M214.196 89.5589L108.902 189.962C108.426 190.416 107.679 190.416 107.204 189.962L1.83828 89.5301C1.36732 89.0812 1.32724 88.3432 1.74682 87.8459L15.1444 71.9673C15.5963 71.4318 16.4034 71.3811 16.9187 71.8559L107.214 155.061C107.687 155.497 108.416 155.495 108.887 155.056L198.068 71.8367C198.57 71.3682 199.359 71.4013 199.82 71.91L214.258 87.8422C214.706 88.3367 214.679 89.0984 214.196 89.5589Z" stroke="#EFEFEF" stroke-width="1.23046"/>
<path d="M3.70662 91.9317L11.6375 83.6816" stroke="#EFEFEF" stroke-width="1.23046"/>
<path d="M7.11431 94.2501L12.1983 88.7229" stroke="#EFEFEF" stroke-width="1.23046"/>
<path d="M10.9844 98.1588L18.0511 90.1827" stroke="#EFEFEF" stroke-width="1.23046"/>
<path d="M13.5284 100.751L18.6124 95.2238" stroke="#EFEFEF" stroke-width="1.23046"/>
<path d="M16.7769 103.979L24.7078 95.7285" stroke="#EFEFEF" stroke-width="1.23046"/>
<path d="M20.1846 106.297L25.2686 100.77" stroke="#EFEFEF" stroke-width="1.23046"/>
<path d="M23.4254 109.524L31.3563 101.274" stroke="#EFEFEF" stroke-width="1.23046"/>
<path d="M26.5049 112.576L31.5889 107.048" stroke="#EFEFEF" stroke-width="1.23046"/>
<path d="M30.9503 116.37L38.0177 109.503" stroke="#EFEFEF" stroke-width="1.23046"/>
<path d="M33.7247 119.143L38.5832 114.545" stroke="#EFEFEF" stroke-width="1.23046"/>
<path d="M39.4651 125.332L46.8849 117.911" stroke="#EFEFEF" stroke-width="1.23046"/>
<path d="M42.3643 128.479L47.4483 122.952" stroke="#EFEFEF" stroke-width="1.23046"/>
<path d="M45.6129 131.707L53.5438 123.456" stroke="#EFEFEF" stroke-width="1.23046"/>
<path d="M49.0206 134.025L54.1046 128.498" stroke="#EFEFEF" stroke-width="1.23046"/>
<path d="M51.1597 137.253L59.0906 129.003" stroke="#EFEFEF" stroke-width="1.23046"/>
<path d="M54.5674 139.571L59.6514 134.044" stroke="#EFEFEF" stroke-width="1.23046"/>
<path d="M57.8082 143.908L65.7391 135.658" stroke="#EFEFEF" stroke-width="1.23046"/>
<path d="M61.2159 146.226L66.2999 140.699" stroke="#EFEFEF" stroke-width="1.23046"/>
<path d="M64.4644 149.453L72.3953 141.203" stroke="#EFEFEF" stroke-width="1.23046"/>
<path d="M67.8721 151.772L72.9561 146.244" stroke="#EFEFEF" stroke-width="1.23046"/>
<path d="M71.1207 156.108L79.0516 147.858" stroke="#EFEFEF" stroke-width="1.23046"/>
<path d="M74.5284 158.426L79.6124 152.899" stroke="#EFEFEF" stroke-width="1.23046"/>
<path d="M77.7769 162.763L85.7078 154.513" stroke="#EFEFEF" stroke-width="1.23046"/>
<path d="M81.1846 165.081L86.2686 159.554" stroke="#EFEFEF" stroke-width="1.23046"/>
<path d="M84.4684 168.045L92.4438 160.069" stroke="#EFEFEF" stroke-width="1.23046"/>
<path d="M87.9268 170.638L93.0108 165.11" stroke="#EFEFEF" stroke-width="1.23046"/>
<path d="M91.1246 174.7L99.1 166.724" stroke="#EFEFEF" stroke-width="1.23046"/>
<path d="M94.5831 177.293L99.6671 171.765" stroke="#EFEFEF" stroke-width="1.23046"/>
<path d="M98.8903 181.355L106.866 173.379" stroke="#EFEFEF" stroke-width="1.23046"/>
<path d="M102.349 183.947L107.433 178.42" stroke="#EFEFEF" stroke-width="1.23046"/>
<path d="M124.093 175.889L115.325 168.535" stroke="#EFEFEF" stroke-width="1.23046"/>
<path d="M120.948 178.559L115.301 173.608" stroke="#EFEFEF" stroke-width="1.23046"/>
<path d="M118.547 181.435L109.778 174.081" stroke="#EFEFEF" stroke-width="1.23046"/>
<path d="M115.401 184.105L109.755 179.153" stroke="#EFEFEF" stroke-width="1.23046"/>
<path d="M130.75 169.234L121.981 161.88" stroke="#EFEFEF" stroke-width="1.23046"/>
<path d="M127.604 171.904L121.958 166.953" stroke="#EFEFEF" stroke-width="1.23046"/>
<path d="M137.406 162.579L128.638 155.225" stroke="#EFEFEF" stroke-width="1.23046"/>
<path d="M134.26 165.249L128.614 160.298" stroke="#EFEFEF" stroke-width="1.23046"/>
<path d="M143.734 156.301L134.966 148.947" stroke="#EFEFEF" stroke-width="1.23046"/>
<path d="M140.588 158.971L134.942 154.019" stroke="#EFEFEF" stroke-width="1.23046"/>
<path d="M150.929 149.471L142.161 142.117" stroke="#EFEFEF" stroke-width="1.23046"/>
<path d="M147.784 152.141L142.137 147.19" stroke="#EFEFEF" stroke-width="1.23046"/>
<path d="M158.125 142.643L149.356 135.289" stroke="#EFEFEF" stroke-width="1.23046"/>
<path d="M154.979 145.313L149.333 140.362" stroke="#EFEFEF" stroke-width="1.23046"/>
<path d="M165.32 135.813L156.552 128.459" stroke="#EFEFEF" stroke-width="1.23046"/>
<path d="M162.174 138.483L156.528 133.532" stroke="#EFEFEF" stroke-width="1.23046"/>
<path d="M172.515 128.984L163.747 121.63" stroke="#EFEFEF" stroke-width="1.23046"/>
<path d="M169.37 131.655L163.723 126.704" stroke="#EFEFEF" stroke-width="1.23046"/>
<path d="M179.547 122.65L170.778 115.296" stroke="#EFEFEF" stroke-width="1.23046"/>
<path d="M195.07 108.231L186.302 100.878" stroke="#EFEFEF" stroke-width="1.23046"/>
<path d="M191.924 110.901L186.278 105.95" stroke="#EFEFEF" stroke-width="1.23046"/>
<path d="M187.312 115.44L178.544 108.087" stroke="#EFEFEF" stroke-width="1.23046"/>
<path d="M184.167 118.11L178.52 113.159" stroke="#EFEFEF" stroke-width="1.23046"/>
<path d="M202.836 100.467L194.067 93.1134" stroke="#EFEFEF" stroke-width="1.23046"/>
<path d="M199.69 103.137L194.044 98.186" stroke="#EFEFEF" stroke-width="1.23046"/>
<path d="M210.601 92.7036L201.833 85.3497" stroke="#EFEFEF" stroke-width="1.23046"/>
<path d="M207.456 95.3737L201.809 90.4223" stroke="#EFEFEF" stroke-width="1.23046"/>
<path d="M111.409 20.5532C111.415 20.6953 111.42 20.8462 111.427 21.0005C111.444 21.3934 111.461 21.8223 111.467 22.2427C111.472 22.6647 111.466 23.0677 111.438 23.4087C111.428 23.5182 111.417 23.6159 111.404 23.7017C109.483 23.4844 107.657 23.543 105.763 23.8911C105.752 22.7792 105.757 21.6673 105.759 20.5464L111.409 20.5532Z" stroke="#EFEFEF" stroke-width="1.1677"/>
<path d="M113.493 18.7598L103.833 18.7656L103.815 16.9521L113.463 16.9375L113.493 18.7598Z" stroke="#EFEFEF" stroke-width="1.1677"/>
<path d="M108.224 0.587891C109.178 0.555385 110.019 0.692828 110.623 1.20996L110.74 1.31836C111.041 1.61716 111.133 1.878 111.234 2.40723V2.4082C111.54 4.00393 111.396 5.77747 111.396 7.54199L111.392 15.2041L109.942 15.2266H105.789C105.761 13.7789 105.695 11.0602 105.687 8.40137C105.682 6.86886 105.697 5.37 105.752 4.16504C105.779 3.56199 105.816 3.0398 105.864 2.62793C105.914 2.1962 105.971 1.94486 106.014 1.8418C106.264 1.23949 106.819 0.927942 107.613 0.62207C107.821 0.608082 108.023 0.594673 108.224 0.587891Z" stroke="#EFEFEF" stroke-width="1.1677"/>
<path d="M107.875 25.3037C111.197 25.0957 114.342 25.9751 116.948 28.041C119.8 30.3019 121.667 33.766 122.073 37.3906C122.457 40.8141 121.428 44.5702 119.324 47.3076L119.117 47.5693C116.638 50.616 113.405 52.2189 109.529 52.6006C106.169 52.6434 103.149 51.7502 100.501 49.7021C97.6121 47.468 95.8266 44.371 95.3652 40.7432C94.8922 37.0246 95.8582 33.4136 98.1631 30.4619C100.651 27.2758 103.867 25.7936 107.875 25.3037Z" stroke="#EFEFEF" stroke-width="1.1677"/>
<path d="M108.227 30.1284C110.154 29.9715 112.147 30.5182 113.75 31.6099C115.653 32.9056 116.889 34.8939 117.287 37.1694C117.715 39.6133 117.256 42.0712 115.819 44.0698C114.322 46.1528 112.161 47.2531 109.611 47.6919C107.355 47.7424 105.418 47.3823 103.646 46.0581C101.722 44.6194 100.462 42.3106 100.155 39.9146C99.8605 37.6146 100.607 35.1349 102.055 33.3081C103.635 31.3128 105.675 30.4417 108.227 30.1284Z" stroke="#EFEFEF" stroke-width="1.1677"/>
<path d="M108.597 30.6572C110.261 30.6193 112.036 31.1606 113.401 32.1133C115.209 33.3752 116.41 35.2908 116.765 37.4658C117.137 39.7485 116.621 41.9913 115.249 43.8496C113.783 45.8358 111.724 46.7894 109.251 47.1553C107.238 47.1909 105.358 46.6826 103.802 45.4531C102.082 44.0939 100.993 41.9786 100.744 39.7832C100.509 37.702 101.099 35.5778 102.34 33.8906L102.597 33.5586C104.147 31.6589 106.117 30.9044 108.597 30.6572Z" stroke="#EFEFEF" stroke-width="1.1677"/>
<path d="M206.346 173.47C206.543 173.707 206.717 173.966 206.902 174.246C206.028 174.906 205.158 175.529 204.236 176.078C204.118 175.957 203.997 175.812 203.871 175.643C203.775 175.513 203.681 175.377 203.585 175.237C204.516 174.661 205.433 174.071 206.346 173.47Z" stroke="#EFEFEF" stroke-width="1.1677"/>
<path d="M207.094 176.222C207.245 176.403 207.435 176.671 207.646 177.037C207.957 177.575 208.282 178.243 208.595 178.946C208.826 179.463 209.045 179.995 209.247 180.496C208.057 179.442 207.002 178.266 205.945 177.03L207.094 176.222Z" stroke="#EFEFEF" stroke-width="1.1677"/>
<path d="M193.266 154.207C194.208 155.531 196.856 159.677 199.404 163.795C200.79 166.035 202.138 168.251 203.148 169.97C203.654 170.83 204.072 171.563 204.369 172.11C204.504 172.36 204.611 172.566 204.689 172.727C204.289 173.058 203.855 173.337 203.385 173.625C202.24 171.654 200.919 169.735 199.721 167.865L199.721 167.864L191.642 155.317C192.176 154.943 192.716 154.579 193.266 154.207Z" fill="black" stroke="#EFEFEF" stroke-width="1.1677"/>
<path d="M123.421 47.3709C123.834 47.9439 124.4 48.7491 125.072 49.7178C126.414 51.6545 128.175 54.2349 129.981 56.8941C133.589 62.2074 137.382 67.8423 138.355 69.2589L138.355 69.2599L177.442 126.039L177.443 126.04L189.755 143.951L189.756 143.952C190.475 145.012 191.331 146.105 192.107 147.167C192.797 148.111 193.44 149.05 193.943 149.998L194.15 150.404C194.491 151.106 194.619 151.683 194.399 152.279C194.182 152.867 193.527 153.534 192.649 154.16C191.795 154.768 190.832 155.267 190.147 155.548C189.635 155.757 189.256 155.685 188.621 155.427C188.271 155.144 187.706 154.508 186.998 153.608C186.27 152.682 185.433 151.534 184.593 150.346C183.753 149.16 182.913 147.94 182.181 146.87C181.816 146.336 181.477 145.838 181.178 145.402L180.414 144.298L166.246 124.142L166.247 124.141L135.474 79.932C129.301 71.0585 123.259 62.026 116.874 53.2728C119.728 51.6781 121.571 49.9014 123.224 47.1041C123.284 47.1864 123.352 47.2743 123.421 47.3709Z" fill="black" stroke="#EFEFEF" stroke-width="1.1677"/>
<path d="M184.937 143.674C185.421 143.419 185.832 143.244 186.283 143.212C187.027 143.159 187.756 143.403 188.28 143.904C188.73 144.334 188.991 144.936 188.999 145.561C189.009 146.439 188.653 147.059 187.995 147.765C187.424 148.04 186.972 148.253 186.492 148.264C185.828 148.279 185.152 148.013 184.667 147.552C184.159 147.069 183.866 146.395 183.882 145.707C183.9 144.899 184.282 144.285 184.937 143.674Z" stroke="#EFEFEF" stroke-width="1.1677"/>
<path d="M185.567 144.014C185.969 143.883 186.26 143.796 186.566 143.809C187.107 143.83 187.61 144.049 187.935 144.428C188.265 144.81 188.414 145.318 188.358 145.837C188.287 146.509 187.961 146.933 187.359 147.434C186.985 147.601 186.618 147.686 186.277 147.651C185.74 147.595 185.24 147.315 184.916 146.886C184.592 146.456 184.456 145.914 184.544 145.391C184.646 144.785 184.966 144.422 185.567 144.014Z" stroke="#EFEFEF" stroke-width="1.1677"/>
<path d="M185.482 144.72C185.75 144.603 185.954 144.509 186.149 144.465L186.246 144.447C186.553 144.404 186.958 144.525 187.239 144.744C187.469 144.923 187.621 145.182 187.653 145.442C187.689 145.735 187.655 145.949 187.58 146.143C187.509 146.324 187.391 146.507 187.216 146.737C186.936 146.878 186.755 146.969 186.57 146.987C186.256 147.018 185.905 146.887 185.615 146.632C185.374 146.421 185.222 146.125 185.17 145.781L185.153 145.631C185.138 145.397 185.169 145.249 185.222 145.124C185.271 145.009 185.349 144.887 185.482 144.72Z" stroke="#EFEFEF" stroke-width="1.1677"/>
<path d="M185.97 145.051C186.006 145.038 186.048 145.024 186.145 144.998C186.425 144.923 186.67 144.969 186.871 145.126C186.978 145.21 187.047 145.308 187.085 145.439L187.112 145.581C187.144 145.868 187.068 146.034 186.821 146.363C186.808 146.368 186.796 146.373 186.783 146.377L186.59 146.434C186.398 146.486 186.23 146.459 186.039 146.332C185.86 146.213 185.762 146.046 185.721 145.753L185.721 145.752C185.686 145.503 185.738 145.366 185.954 145.056C185.959 145.054 185.965 145.053 185.97 145.051Z" stroke="#EFEFEF" stroke-width="1.1677"/>
<path d="M11.4321 174.017C11.8454 174.298 12.2542 174.599 12.668 174.907C13.0855 175.218 13.5117 175.539 13.9432 175.852L13.4845 176.554C12.5578 176.12 11.7187 175.583 10.9073 174.94C11.0688 174.62 11.2405 174.317 11.4321 174.017Z" stroke="#EFEFEF" stroke-width="1.1677"/>
<path d="M10.923 177.172C11.2139 177.367 11.5096 177.55 11.8004 177.729C10.7903 179.007 9.75725 180.188 8.60814 181.322C9.23135 179.861 9.96314 178.527 10.923 177.172Z" stroke="#EFEFEF" stroke-width="1.1677"/>
<path d="M24.714 154.563C25.1996 154.922 25.6899 155.271 26.1775 155.618C22.257 161.655 18.1476 167.668 14.4098 173.866C14.3262 173.801 14.227 173.722 14.0983 173.623L13.7766 173.38C13.5839 173.227 13.5028 173.134 13.4544 173.05C13.4282 173.004 13.4035 172.946 13.3823 172.859C13.6973 172.523 14.0442 172.058 14.3924 171.544C14.8399 170.883 15.3247 170.095 15.7996 169.292C16.2749 168.489 16.7441 167.663 17.1617 166.929C17.5813 166.191 17.9452 165.55 18.2142 165.103C20.3413 161.564 22.4453 157.972 24.714 154.563Z" fill="black" stroke="#EFEFEF" stroke-width="1.1677"/>
<path d="M93.9618 46.8995C95.6334 49.5516 97.5178 51.4109 100.272 52.99C98.4129 55.4317 96.7587 58.1121 95.0619 60.5855L95.0616 60.5864L83.5908 77.3886L83.5896 77.3891L50.2454 126.471L50.2434 126.474L38.0289 144.603L38.0265 144.606L33.3868 151.592C32.534 152.859 31.7568 154.132 30.8274 155.246L30.827 155.247C30.5783 155.545 30.3005 155.755 29.9335 155.988C29.6366 156.055 29.3327 156.087 28.9818 156.124C27.2859 155.358 25.2674 153.987 23.9048 152.714C23.8034 152.456 23.725 152.218 23.6798 151.973C23.5861 151.464 23.6581 151.077 23.8905 150.596L24.0005 150.383C24.7466 149.005 25.7391 147.726 26.6719 146.356C27.9096 144.538 29.1028 142.686 30.3033 140.86L46.0882 117.226L93.9618 46.8995Z" fill="black" stroke="#EFEFEF" stroke-width="1.1677"/>
<path d="M32.0513 143.417C32.5592 143.583 32.9212 143.744 33.2566 144.052C33.8919 144.635 34.268 145.448 34.2578 146.289C34.2496 146.949 33.9989 147.567 33.5387 148.001C32.9061 148.597 32.2348 148.678 31.2274 148.635C30.8878 148.55 30.6019 148.46 30.3403 148.316C29.7482 147.99 29.318 147.449 29.1413 146.802C28.8778 145.835 29.1172 144.979 29.6131 144.014C30.0281 143.741 30.3744 143.582 30.7253 143.495C31.0969 143.403 31.5059 143.382 32.0513 143.417Z" stroke="#EFEFEF" stroke-width="1.1677"/>
<path d="M31.9753 143.951C32.3713 144.089 32.6706 144.23 32.923 144.455L33.0341 144.564C33.4671 145.02 33.7068 145.655 33.685 146.286C33.6652 146.851 33.4461 147.359 33.0496 147.717C32.5828 148.139 32.0914 148.188 31.3011 148.138C30.8244 147.964 30.4588 147.779 30.1861 147.476C29.767 147.009 29.5455 146.365 29.5878 145.74C29.6247 145.199 29.8621 144.695 30.2534 144.366C30.7291 143.965 31.224 143.9 31.9753 143.951Z" stroke="#EFEFEF" stroke-width="1.1677"/>
</svg>
