<svg width="122" height="292" viewBox="0 0 122 292" fill="none" xmlns="http://www.w3.org/2000/svg">
<path d="M56.8714 28.8184C59.8641 28.8407 62.1183 29.3156 64.1646 30.9133C66.0701 32.4049 66.7958 34.3825 66.669 36.3601C66.4383 39.969 64.6199 42.0975 60.9227 44.455C58.6049 44.3656 56.6183 43.9186 54.7865 42.874C52.3787 41.5053 51.2128 39.0249 51.2843 36.8964C51.405 33.3099 53.1826 31.1423 56.8714 28.8184Z" fill="#838383"/>
<path d="M84.5765 12.6846C86.6039 13.232 88.0809 13.8019 89.8251 14.7181C93.6121 19.4051 88.7821 22.8241 89.4122 27.4776C89.8223 30.5055 92.9574 33.9412 92.1423 36.9691C91.7222 38.5277 90.7759 38.8797 89.0983 39.7009C87.0877 39.9523 85.9676 39.7958 84.1039 39.3154C82.7034 38.9523 81.3632 38.606 79.9241 38.321C78.5638 38.0473 76.8258 37.835 75.5577 37.3937C73.2153 36.5836 73.2114 35.9858 72.4734 34.349C75.4649 30.863 80.6654 29.3379 82.4799 25.2877C83.0782 23.9525 83.2112 24.4833 82.495 23.5224C78.1152 23.8464 73.665 27.567 69.6583 27.1536C68.8103 25.4386 69.0416 24.1537 70.0784 22.5336C72.7896 18.3046 78.5789 14.4387 84.5765 12.6846Z" fill="#838383"/>
<path d="M51.81 0.723638C57.039 0.516937 59.6591 1.85769 63.8478 3.79062C64.5685 3.70124 65.2914 3.62864 66.0092 3.53367C67.4589 3.33814 69.341 2.88002 70.8019 2.94706C73.1773 3.05879 73.8628 3.70686 75.4555 4.80181C76.1901 6.43866 76.3219 7.65647 75.5532 9.29331C74.0532 12.4944 66.4517 21.7177 62.2641 23.1311L60.1781 22.1311C60.4267 19.9244 61.3596 16.3547 60.5512 14.2765C60.0842 13.0754 59.3535 12.986 57.9155 12.4609C54.2826 15.4161 57.1004 20.8686 53.9603 23.7847C52.5642 23.0306 52.0938 21.9914 51.6966 20.8071C49.3911 13.9078 46.3448 7.21515 51.81 0.723638Z" fill="#838383"/>
<path d="M70.6333 42.3988C73.6891 42.2871 76.3086 42.315 79.151 43.2256C83.0996 44.4882 86.2314 46.991 87.6436 49.8959C88.995 52.678 88.595 57.9405 85.2113 59.9628C83.3661 61.0634 79.951 61.4879 78.6902 63.0354C76.9991 65.1024 77.0919 68.0521 75.083 69.9124C73.6673 71.2252 72.1841 71.0967 70.0931 71.2364C68.4451 69.633 67.2613 68.0129 66.3228 66.1303C64.3815 62.2477 61.0569 53.3875 63.5452 49.6501C68.2093 48.2423 70.159 52.6613 74.3679 53.1864C76.8678 49.1921 70.8121 46.963 70.6327 43.2704C70.6188 42.9799 70.6333 42.6893 70.6333 42.3988Z" fill="#838383"/>
<path d="M44.7852 44.1643C46.0053 44.2872 46.6897 44.4995 47.7913 44.8626C48.6533 46.8402 48.1902 47.8738 47.0924 49.762C45.5305 52.4491 44.1065 55.3205 45.6478 58.1976L46.9919 58.2256C50.1566 55.8736 50.9483 52.7172 53.5639 50.0636L55.0588 49.8849C55.2672 50.0692 55.504 50.2424 55.6845 50.4435C60.2537 55.5217 59.3956 65.9349 58.1152 71.7002C57.4018 72.6052 56.0459 74.0241 54.7175 74.5046C53.5884 74.918 52.3231 75.2141 51.0751 74.9627C47.0377 74.1527 44.4713 70.6499 42.2411 68.3203C39.3831 67.4935 34.5446 67.0857 32.548 65.2701C31.2139 64.0579 31.115 62.2534 31.3893 60.7842C32.5597 54.5273 37.9082 47.9966 44.7852 44.1643Z" fill="#838383"/>
<path d="M35.8898 12.2822C37.7674 12.2822 39.4708 12.6342 41.2735 12.9638C45.2712 15.137 47.0606 19.3715 47.9712 22.7793C48.7282 25.6061 48.8583 27.9077 46.5628 30.3434C44.1958 31.5054 42.1433 30.835 39.4998 30.9468C37.7105 31.0194 35.8367 31.5948 34.8708 32.7233C33.8597 33.902 33.9066 34.7847 34.2513 36.0305C35.201 36.2874 35.5742 36.4997 36.5965 36.3824C39.3523 36.0696 42.8534 35.226 45.1517 36.4104C45.2411 37.8014 44.6841 38.5109 43.7891 39.7287C41.3104 40.8348 38.9769 42.0192 36.6311 43.2594C34.4546 45.1197 32.8988 47.2985 30.7653 49.1141C29.4089 50.2649 28.2581 50.3375 26.2749 50.4157C24.3811 49.5163 23.7497 48.4102 23.1861 46.8907C20.4144 39.3992 24.7336 35.3545 29.9732 29.3658C30.0089 25.5223 28.7693 21.1536 30.0324 17.4163C30.9206 14.785 32.7256 13.6509 35.8898 12.2822Z" fill="#838383"/>
<path d="M0.53125 93.0349C11.8002 98.9957 18.082 113.839 20.7187 123.146C21.8247 120.738 22.5905 118.258 23.6984 115.839C29.1354 117.426 26.6763 135.342 30.8969 139.274C32.4857 137.95 32.0248 135.61 33.8275 134.71C35.5348 141.313 35.7811 147.861 37.9677 154.453C24.2014 142.14 31.4505 142.833 24.9947 131.688C24.4643 130.772 23.5343 131.788 21.9619 131.302C21.3537 129.939 20.7477 128.766 19.8001 127.492L18.7606 127.487C17.8396 129.565 19.7859 132.47 20.6853 134.498C21.6702 137.688 24.1842 140.671 24.3741 143.934L21.3913 142.587L20.8188 143.269C22.2734 148.269 30.5483 150.57 34.2376 154.565C35.6996 156.151 36.5956 158.229 37.5202 160C31.4415 155.47 23.4205 152.285 18.0039 147.364C13.006 142.822 8.31253 132.431 9.44301 126.621C11.7683 127.174 15.5441 132.146 17.0912 133.777C14.3516 117.554 2.20323 108.247 0.53125 93.0349Z" fill="#838383"/>
<path d="M94.3935 102.722C98.1309 107.632 84.2831 124.783 81.6792 129.749C79.9183 133.113 79.2558 136.626 78.5614 140.157C80.8189 138.084 83.2702 135.185 86.7869 134.157L87.7294 135.068C87.4389 138.448 85.7462 141.861 84.1563 145.04C80.4362 152.486 77.3759 153.777 68.2247 157.81C65.3638 159.073 62.908 160.481 59.8326 161.514L58.9455 161.067C61.3555 156.051 67.3738 155.162 72.5631 152.073C74.1363 151.14 75.1117 150.09 75.2558 148.621L74.3374 147.978C73.09 148.47 72.4671 148.766 71.0213 148.866C72.3594 145.865 73.748 142.874 75.1871 139.895C76.0419 137.99 76.6759 136.319 76.8865 134.325L76.1301 133.883L74.8665 134.47C74.2642 135.833 73.8916 137.241 72.3821 138.247C72.0414 137.28 71.7894 136.9 71.0213 136.001C68.0124 137.051 68.1632 145.369 67.232 147.816C65.775 151.637 60.5298 155.012 56.7578 157.788C58.7421 151.872 58.1734 146.045 59.9527 140.258L60.6913 139.984C61.6225 141.677 62.2035 143.202 63.9806 144.548C67.0705 141.408 66.2074 133.939 66.8007 129.956C67.166 127.498 67.8236 124.364 70.6068 122.744C72.2129 124.051 71.2777 126.208 73.3173 127.694C76.7379 124.828 77.5849 119.878 79.9871 116.426C83.5876 111.247 89.0986 107.035 94.3935 102.722Z" fill="#838383"/>
<path d="M51.592 78.4766C52.9718 78.89 53.5037 78.8397 54.3126 79.795C57.0975 83.0631 57.969 89.3199 58.7187 93.102C66.0661 130.196 46.1854 155.19 40.6374 189.626C38.743 201.385 36.6419 213.86 38.3279 225.664C40.638 241.843 52.0758 258.546 47.0664 274.708L46.5317 274.557C46.0815 274.216 45.7524 274.021 45.5155 273.535C43.81 270.027 43.7932 265.289 42.7173 261.574C40.6324 254.368 37.471 247.368 35.5716 240.116C28.4141 212.793 33.9554 182.598 43.1424 155.872C47.168 144.163 53.2618 131.241 53.8506 119.152C54.0769 114.504 53.8892 109.655 53.1428 105.035C52.1523 98.9008 47.3658 87.9178 48.9797 82.2475C49.3976 80.7838 50.4317 79.6888 51.592 78.4766Z" fill="#838383"/>
<path d="M14 289L19 291.887L19 286.113L14 289ZM110 289L105 286.113L105 291.887L110 289ZM18.5 289L18.5 289.5L105.5 289.5L105.5 289L105.5 288.5L18.5 288.5L18.5 289Z" fill="#5F5F5F"/>
<path d="M119 285L121.887 280L116.113 280L119 285ZM119 1L116.113 6L121.887 6L119 1ZM119 280.5L119.5 280.5L119.5 5.5L119 5.5L118.5 5.5L118.5 280.5L119 280.5Z" fill="#5F5F5F"/>
</svg>
