<svg width="78" height="89" viewBox="0 0 78 89" fill="none" xmlns="http://www.w3.org/2000/svg">
<path d="M27.4363 25.6809C30.1123 25.7703 32.1793 25.7759 34.3636 27.0496C36.1178 28.0775 37.3357 29.6641 37.5144 31.273C37.8775 34.5635 36.1793 36.5969 33.1961 38.9544C30.5872 39.0159 28.1793 38.9544 26.0956 37.6751C24.0677 36.4293 23.1403 34.8594 23.0621 32.988C22.9336 29.7645 24.4699 28.0049 27.4363 25.6809Z" fill="#838383"/>
<path d="M12.2616 10.6643C13.1778 10.938 14.0996 11.1951 14.9208 11.6029C18.5688 13.4297 22.9374 17.8597 23.6581 20.9826C23.9597 22.2786 23.9039 22.2898 22.781 23.396C20.5408 23.7926 18.8258 23.2228 16.7141 22.7312C15.351 22.4184 15.1275 22.5915 13.7868 22.8317L12.9991 24.1558C13.4292 25.3792 13.8426 25.9155 15.1498 26.7255C16.6861 27.6808 18.0213 28.6809 19.3844 29.7591C18.5408 30.4518 17.7029 31.1277 16.6749 31.6864C13.6526 33.3232 10.865 33.3568 7.25611 32.9657C5.53547 32.0886 4.70866 31.6919 4.17794 30.111C2.86511 26.2339 9.14433 14.1726 12.2616 10.6643Z" fill="#838383"/>
<path d="M42.6257 41.6414C44.9833 42.1777 46.8491 43.0548 48.5418 44.3397C51.1116 46.295 54.1675 49.7194 53.525 52.535C52.5641 56.7361 47.7486 54.6523 44.4916 56.1886C41.3464 57.6691 40.8492 60.602 37.4693 62.1048C34.6984 62.4623 33.4862 62.3674 30.8047 61.7417C30.9332 55.8256 32.3521 48.3899 34.5532 42.6917L35.5085 42.4905C38.1789 45.0715 39.0839 49.2112 41.0056 52.1999L41.8045 52.2055C42.9721 48.7307 42.6704 45.1944 42.6257 41.6414Z" fill="#838383"/>
<path d="M28.8559 3C31.8335 3.45251 34.0066 5.17878 36.7831 6.11731C39.649 5.88268 42.5205 5.2234 44.7439 6.88259C47.1908 8.70379 47.0679 12.3575 46.6154 14.6591C45.9506 18.0278 44.2188 21.2456 40.2915 23.3014C37.6043 23.4858 37.6658 23.1784 35.5317 21.9438C35.7329 18.9103 37.0624 15.4076 35.8669 12.4915L34.4592 12.4133C31.9955 14.3798 32.1184 17.6925 30.4648 20.1282L29.0067 20.1897C28.3755 19.7037 27.9677 19.2679 27.6939 18.631C25.8001 14.2233 25.8168 7.0558 28.8559 3Z" fill="#838383"/>
<path d="M16.2453 36.3848C17.8096 37.0663 18.1727 37.4183 19.1894 38.4629C19.7425 41.5634 16.3795 43.0383 15.8655 45.7533C15.5973 47.2058 15.966 47.6248 17.1559 48.6471C20.7928 47.2449 21.4464 43.7478 25.0665 41.9825L26.5357 42.3623C29.9323 46.6862 28.8318 51.0828 27.1949 55.6302C25.5916 57.3397 24.8653 58.0269 22.1726 58.7028C18.3794 58.2503 14.6365 55.9375 12.3237 53.8146C9.37959 51.1163 7.10586 47.6974 7.97736 44.1947C8.89354 40.5076 12.1672 38.4574 16.2453 36.3848Z" fill="#838383"/>
<path d="M52.7805 16.0942C54.2218 16.1613 55.8028 16.1836 57.1994 16.4965C59.2832 16.9657 61.4396 18.2227 62.3167 19.6361C64.5792 23.3009 61.6798 27.7198 59.92 31.189C60.3949 32.5018 60.8977 33.8371 61.1994 35.1778C61.6575 37.2504 61.6519 40.0716 59.5849 41.714C58.7469 42.3788 57.5402 42.5184 56.3112 42.5016C53.6576 42.4681 50.909 40.3397 49.0152 39.1665C48.6241 38.904 48.2387 38.6358 47.842 38.3733C46.4007 37.4348 44.6856 36.5185 43.5069 35.4068C42.1158 34.094 41.9036 32.9488 42.2443 31.4013C46.4733 29.7757 52.099 32.9041 56.3782 31.0661C56.7804 29.6192 56.7581 29.5019 55.948 28.1388C53.3224 26.4349 49.6185 26.0103 46.2722 25.3343C47.9481 21.9601 49.7749 18.9936 52.7805 16.0942Z" fill="#838383"/>
<path d="M0 86L5 88.8867L5 83.1132L0 86ZM74 86L69 83.1133L69 88.8868L74 86ZM4.5 86L4.5 86.5L69.5 86.5L69.5 86L69.5 85.5L4.5 85.5L4.5 86Z" fill="#5F5F5F"/>
<path d="M75 84L77.8868 79L72.1132 79L75 84ZM75 0L72.1132 5L77.8868 5L75 0ZM75 79.5L75.5 79.5L75.5 4.5L75 4.5L74.5 4.5L74.5 79.5L75 79.5Z" fill="#5F5F5F"/>
</svg>
