<svg width="236" height="318" viewBox="0 0 236 318" fill="none" xmlns="http://www.w3.org/2000/svg">
<path d="M32.1869 20.3991L33.3464 20.556C36.6945 23.3239 41.3793 25.5633 42.3848 29.787C43.2235 33.308 40.3388 38.5212 37.8237 41.9572C37.1312 42.502 36.4058 43.1203 35.6363 43.5879C34.7328 44.1368 34.1492 44.0961 33.2329 44.0213C32.8772 43.3829 31.8648 21.7298 32.1869 20.3991Z" fill="#838383"/>
<path d="M35.6031 15.2301C35.8054 15.1693 36.0058 15.1003 36.2081 15.0426C37.8436 14.5948 38.8278 14.8858 40.0662 15.432C43.7011 17.0369 46.6749 20.2751 48.8885 23.0355C54.0704 29.4996 55.1161 31.4776 56.3718 39.5295C56.7551 41.989 57.2612 44.4891 57.2556 47.0367C57.2503 50.0806 56.9088 53.1943 57.101 56.2005C57.3696 60.4062 58.8121 64.3118 58.6974 68.6155C58.605 72.1219 56.1978 75.761 56.5465 79.2785C57.001 83.8634 59.7254 87.6117 61.5779 91.6704C62.9293 94.632 63.6429 97.6078 64.0828 100.878C58.0734 100.089 52.2661 98.3574 45.763 98.9173C42.5664 99.7978 39.4115 100.875 36.2752 101.993C35.0206 103.343 33.7195 104.57 32.3051 105.825C29.9798 100.772 30.8321 95.5802 30.3699 90.0537C30.0279 85.9618 28.6495 82.1115 29.1865 77.8297C29.7964 72.9708 32.2935 67.9293 32.1769 63.1175C32.0634 58.4338 27.3042 53.7784 29.9089 48.6785C30.2811 47.9503 30.6709 47.215 31.5515 46.8138C32.7728 47.1443 34.0895 47.6438 35.5588 47.1398C38.2546 46.2121 40.3061 43.8511 41.6273 41.8636C52.7171 25.1939 39.7281 26.06 35.6031 15.2301Z" fill="#838383"/>
<path d="M43.3729 102.625C46.6888 102.638 50.3794 102.157 53.5129 103.02C60.6888 105.001 64.7563 109.516 70.7985 111.969C73.0649 112.888 75.9006 113.173 77.9979 114.293C81.0287 115.914 83.2556 118.309 86.3367 119.857C89.4419 121.416 93.3211 122.158 96.5954 123.527C103.968 126.607 105.565 130.781 107.405 136.498C104.754 134.573 102.308 132.463 99.2508 130.863C95.393 128.845 90.5649 128.132 86.5226 126.31C81.8004 124.183 78.5269 121.073 73.2936 119.411C72.0088 119.005 70.6757 118.632 69.3121 118.373C65.3515 117.625 61.1912 117.717 57.5166 119.362C46.8145 124.159 48.2069 135.172 45.8922 142.663C44.9096 145.843 43.1913 148.91 42.0104 152.058C40.6567 155.67 39.8576 159.346 38.3942 162.948C34.5443 173.06 38.3362 181.217 37.2068 190.896C36.8878 193.631 32.8096 210.227 31.0689 211.365C30.6145 211.406 30.3536 211.45 29.8753 211.381C26.8448 210.93 22.141 207.381 20.3396 205.605C18.2171 203.508 17.2522 201.653 17.3908 199.008C17.5856 195.295 18.5198 190.551 20.0709 186.971C21.6623 183.297 24.0529 179.806 24.661 175.963C25.7051 169.361 23.8985 161.441 24.5467 154.398C25.323 145.963 29.6578 138.856 31.3561 130.798C32.4321 125.695 31.3042 120.582 32.5144 115.493C33.834 109.944 37.0719 106.021 43.3729 102.625Z" fill="#838383"/>
<path d="M212.016 220.356C212.712 217.34 213.168 214.172 214.222 211.211C214.907 211.774 214.986 212.638 215.214 213.375L214.525 213.067L215.432 213.353L214.959 213.277L215.543 212.683C215.399 212.321 215.451 212.524 215.442 211.994L215.439 211.552C216.983 216.66 218.328 221.89 220.289 226.909C222.218 231.849 225.324 236.443 227.304 241.355C230.823 250.086 237.406 275.913 230.849 283.415C228.009 286.667 223.766 289.246 219.858 291.786C217.034 293.62 214.379 295.686 211.481 297.432C204.226 301.801 194.456 304.132 185.55 305.636C177.627 306.976 168.21 308.038 160.187 307.313C163.779 306.439 166.908 307.16 170.497 306.848C170.859 306.816 171.874 306.659 172.158 306.501C172.613 306.251 179.308 293.916 180.634 292.025C181.43 290.892 182.572 289.874 183.653 288.873C183.373 284.187 189.257 282.053 189.413 277.884C189.504 275.489 191.77 274.594 192.775 272.508C194.94 268.02 194.479 264.872 198.837 260.729C198.498 254.814 203.268 250.325 205.157 244.759C207.191 238.77 208.387 232.717 210.213 226.708L210.27 227.227C210.676 226.642 210.584 225.781 210.64 225.135C211.238 226.687 211.209 229.338 212.643 230.532C213.376 231.141 213.666 231.067 214.73 231.104C214.789 231.019 214.869 230.942 214.907 230.85C216 228.244 213.177 222.817 212.016 220.356Z" fill="#838383"/>
<path d="M62.3291 121.123C62.6586 121.098 62.9883 121.077 63.3181 121.059C73.6458 120.562 78.3762 126.457 86.2007 129.721C89.9237 131.273 94.3773 131.738 97.8609 133.647C102.218 136.03 105.101 139.489 109.112 142.112C111.638 143.767 114.99 144.646 117.44 146.373C122.917 150.232 124.215 155.993 124.121 161.385C115.602 158.431 111.817 157.688 106.105 151.965C102.415 148.268 93.5405 142.394 87.0037 141.94C84.8069 141.785 82.7283 142.307 81.0394 143.402C78.9627 144.749 77.7176 146.626 76.7291 148.473C75.0376 151.634 74.3902 155.142 73.1717 158.404C69.8704 167.247 66.0086 175.473 64.6273 184.603C63.8821 190.283 62.5552 197.641 60.1722 203.091C59.1925 205.334 57.4628 207.503 56.0249 209.616C51.7087 215.956 52.5173 220.278 53.8086 226.948C50.5476 226.364 46.8395 225.91 43.8056 224.903C39.4673 223.466 37.7755 220.459 36.4149 217.279C33.0235 209.355 38.9669 200.904 40.1512 192.845C41.2627 185.28 38.993 177.804 39.7888 170.229C40.066 167.592 41.1481 164.945 42.013 162.369C43.0943 159.149 43.9381 155.858 45.1765 152.665C46.2719 149.844 47.7286 147.081 48.6633 144.229C50.7352 137.91 49.9908 131.144 54.6316 125.216C56.2904 123.097 59.3021 121.843 62.3291 121.123Z" fill="#838383"/>
<path d="M98.4192 29.8826C99.2244 30.0041 100.027 30.1341 100.834 30.2498C101.529 30.3504 102.253 30.4128 102.916 30.5937C111.866 33.0223 106.526 48.4115 107.219 53.6187C107.87 58.5043 111.292 63.1642 112.224 68.1548C113.023 72.4328 113.313 77.1656 113.11 81.4998C112.978 84.3256 112.409 87.1852 112.586 89.9995C112.842 94.0833 116.627 97.0036 118.535 100.646C120.391 104.19 122.336 112.252 124.783 114.772C127.722 117.797 136.702 120.931 137.918 124.234C138.59 126.061 135.263 126.641 134.046 127.86C134.185 128.547 134.226 128.452 134.842 128.893C136.943 129.166 139.025 128.356 141.15 128.356C144.078 128.36 147.153 129.775 149.355 131.028C153.962 133.647 158.389 137.157 160.473 141.235C162.478 145.159 163.097 148.836 167.039 152.085C172.044 156.209 180.107 157.446 185.433 161.326C190.021 164.667 192.781 171.796 192.115 176.607C192.024 177.261 191.538 177.521 190.896 177.926C190.405 178.234 190.069 178.415 189.707 178.824C188.72 179.939 192.966 182.597 194.05 183.386C197.606 185.966 199.714 188.818 202.335 191.908C208.839 199.57 211.871 202.458 215.434 211.553L215.436 211.994C215.446 212.524 215.393 212.321 215.538 212.683L215.13 213.098C215.145 213.158 215.161 213.217 215.178 213.275L215.427 213.353L215.19 213.315C215.196 213.335 215.202 213.355 215.208 213.375L215.008 213.286L214.953 213.277L214.964 213.266L214.52 213.068L215.008 213.221L215.13 213.098C214.952 212.43 214.817 211.705 214.217 211.212C213.163 214.172 212.707 217.34 212.011 220.356C213.171 222.817 215.995 228.244 214.901 230.85C214.863 230.942 214.783 231.02 214.724 231.104C213.661 231.067 213.37 231.141 212.637 230.532C211.204 229.338 211.232 226.687 210.634 225.135C210.578 225.781 210.67 226.642 210.264 227.227L210.207 226.708C208.381 232.717 207.186 238.77 205.152 244.759C203.263 250.326 198.492 254.814 198.831 260.729C194.473 264.872 194.934 268.02 192.769 272.509C191.765 274.594 189.498 275.489 189.408 277.884C189.252 282.054 183.367 284.188 183.648 288.873C182.567 289.874 181.424 290.892 180.628 292.025C179.302 293.916 172.608 306.251 172.152 306.501C171.868 306.659 170.854 306.816 170.492 306.848C166.903 307.16 163.774 306.439 160.182 307.313C153.99 306.935 147.584 305.458 142.331 303.141C126.674 296.23 138.988 282.08 123.469 272.117C117.575 268.335 110.183 266.085 104.11 262.474C98.5786 259.183 95.9321 254.355 91.0713 250.733C78.8485 241.628 60.6781 238.34 56.4781 223.567C55.7653 221.061 55.5877 218.407 56.36 215.85C57.7501 211.249 62.0766 207.429 63.7686 202.851C66.6333 195.098 67.0224 186.805 68.8986 178.94C70.3715 172.768 73.3431 166.702 75.6757 160.652C76.9623 157.31 77.7427 153.844 79.2265 150.548C79.7516 149.383 80.4075 148.222 81.3595 147.194C82.3964 146.076 83.6413 145.474 85.4543 145.259C90.8026 144.621 98.8323 150.013 102.08 152.733C104.6 154.841 106.669 157.656 109.814 159.293C115.386 162.193 122.453 163.443 127.793 166.546C131.786 168.863 134.688 172.885 135.085 176.708C135.474 180.448 133.807 184.762 133.144 188.519C132.207 193.837 133.357 202.567 128.381 206.993C123.584 208.345 119.968 204.427 115.331 203.951C114.421 201.324 113.283 199.002 111.547 196.626C116.183 195.514 117.385 194.12 121.066 192.136C122.228 191.508 123.604 191.14 124.863 190.643C127.015 189.789 128.257 187.872 128.976 186.255C129.615 184.817 130.303 182.83 129.294 181.461L128.754 181.401C126.417 182.761 125.654 185.337 124.793 187.304C124.071 187.541 123.359 187.791 122.638 188.024C118.11 189.49 116.142 192.213 110.974 193.557C110.617 186.031 109.197 184.289 106.281 177.419C105.585 175.779 105.216 173.709 103.811 172.36L103.009 172.414C99.4193 175.603 105.444 182.063 106.794 185.324C107.408 186.808 107.404 188.505 107.56 190.054C107.646 190.904 107.995 192.103 107.567 192.924C106.939 194.127 105.582 194.536 104.113 195.033C99.4763 196.606 98.4616 199.947 94.7205 202.105C92.9894 203.103 90.4644 203.271 88.5531 204.165C88.1222 204.987 88.1851 205.131 88.4064 205.989C88.9205 206.378 89.162 206.703 89.9183 206.842C95.2695 207.825 100.934 199.64 105.265 197.961C106.345 197.542 106.823 197.578 107.947 197.783C110.687 199.54 111.678 202.954 112.352 205.526C109.795 209.014 109.436 212.735 108.199 216.485C106.453 221.771 103.336 227.477 104.259 232.932C104.813 233.528 104.647 233.617 105.679 233.769C106.336 233.316 106.661 232.864 106.896 232.229C107.884 229.563 108.04 226.638 108.82 223.91C109.417 221.826 110.565 219.818 111.182 217.726C112.101 214.612 112.306 210.284 115.085 207.681C118.441 206.688 121.745 210.436 125.321 210.74C128.014 210.969 129.149 209.132 131.56 208.614C133.384 208.223 135.967 208.858 137.932 208.715C147.157 208.04 152.295 202.318 160.199 199.755C163.037 198.834 168.443 198.444 170.481 196.715C170.596 195.779 170.741 195.524 170.118 194.695C162.528 192.567 145.893 205.48 136.117 205.662C135.115 205.682 134.368 205.588 133.641 205.076C133.683 204.452 133.622 204.317 134.066 203.732C135.539 201.801 138.335 200.318 140.046 198.414C148.869 188.603 149.016 186.041 165.627 182.06C166.656 181.812 168.327 181.612 168.712 180.774C169.078 179.979 168.944 179.747 168.45 179.089C167.289 178.702 166.309 178.737 165.05 178.905C157.046 179.971 148.193 184.521 143.454 189.39C140.577 192.345 138.441 195.607 135.457 198.536C135.688 195.117 136.087 191.702 136.657 188.293C137.359 184.257 138.609 180.042 138.059 176.003C137.289 170.359 133.421 165.946 127.421 162.629C127.364 160.206 127.424 157.701 126.932 155.318C125.692 149.307 121.318 144.644 114.716 141.232C118.097 137.657 122.052 135.418 126.566 132.704C127.678 132.038 128.103 131.451 128.262 130.407L127.745 129.985L127.697 129.982C127.195 129.958 126.72 129.934 126.215 130.01C119.768 130.979 114.349 137.066 110.605 140.711C110.397 138.955 110.394 137.164 110.317 135.397C112.384 134.529 114.501 133.364 116.132 132.082C117.092 131.327 117.65 130.71 117.613 129.658C117.098 129.035 116.978 128.959 116.089 128.622C114.232 129.043 111.439 131.305 109.675 132.249C108.105 129.234 106.669 126.033 103.425 123.76C100.815 121.933 97.311 120.87 95.4094 118.513C92.8528 115.343 94.4773 110.358 92.4276 106.779C89.8893 102.347 84.7317 99.1042 82.095 94.746C80.5673 92.2199 80.11 89.3928 79.4722 86.6696C78.7119 83.426 77.7903 80.1202 77.5416 76.8157C77.0053 69.7006 79.4247 58.0463 83.1685 51.237L92.0569 35.4657C93.8464 33.3409 95.8885 31.5576 98.4192 29.8826Z" fill="#838383"/>
<path d="M210.631 225.135C210.197 223.276 209.021 221.334 208.42 219.452C206.068 212.088 204.327 204.788 195.395 200.206C192.338 198.639 187.855 197.882 185.186 196.117C184.212 195.473 183.763 194.814 183.739 193.865L184.4 193.546C186.37 193.391 187.849 193.74 189.565 194.387C208.183 201.415 206.987 206.967 212.008 220.356C213.168 222.817 215.992 228.244 214.898 230.85C214.86 230.942 214.78 231.02 214.721 231.104C213.658 231.067 213.367 231.141 212.634 230.532C211.201 229.338 211.229 226.687 210.631 225.135Z" fill="black"/>
</svg>
