<svg width="124" height="152" viewBox="0 0 124 152" fill="none" xmlns="http://www.w3.org/2000/svg">
<path d="M57.6212 30.6199C60.693 30.939 63.3681 31.3447 65.8254 32.8507C65.9965 32.956 66.165 33.0648 66.3309 33.1773C66.4968 33.2893 66.6601 33.4047 66.8209 33.5234C66.9764 33.6416 67.1268 33.7632 67.272 33.8881C67.4223 34.0131 67.5648 34.1406 67.6996 34.2707C67.8396 34.4014 67.9744 34.5346 68.104 34.6704C68.2336 34.8063 68.3554 34.9444 68.4695 35.0849C68.5887 35.2259 68.7028 35.369 68.8117 35.5142C68.9154 35.6594 69.0165 35.8066 69.115 35.9559C69.2083 36.1052 69.299 36.2563 69.3872 36.4093C69.4701 36.5622 69.5478 36.7167 69.6204 36.8728C69.693 37.0288 69.7604 37.1864 69.8226 37.3456C69.8848 37.5042 69.9393 37.6642 69.986 37.8254C70.0378 37.9861 70.0818 38.1479 70.1181 38.3106C70.1544 38.4734 70.1855 38.6367 70.2114 38.8006C70.2322 38.9644 70.2504 39.1287 70.2659 39.2936C70.2763 39.4585 70.2815 39.6233 70.2815 39.7882C70.2737 44.1827 67.6296 46.6673 63.4225 49.5633C59.4798 49.4482 56.5636 49.3075 53.5152 47.2622C50.8712 45.4876 49.7124 43.0419 49.8835 40.4515C50.179 35.8976 53.1264 33.511 57.6212 30.6199Z" fill="#838383"/>
<path d="M57.6862 84.4312C57.9584 84.6466 58.2695 84.8433 58.5183 85.0782C60.2836 86.747 59.8403 89.0333 59.887 91.0218C60.0114 96.3464 60.2525 101.704 61.2245 106.988C62.3366 112.98 66.4348 121.439 65.3228 127.162C64.9029 129.328 64.0474 129.454 61.7689 130.669C58.0595 125.585 55.0733 120.554 53.3235 114.915C50.2129 104.89 49.9019 93.3571 57.6862 84.4312Z" fill="#838383"/>
<path d="M31.1534 13.9502C35.0261 14.7817 37.3902 15.6865 40.2753 17.7721C43.9847 20.4461 48.0597 22.9421 50.2293 26.4609C49.4672 31.8413 38.3468 28.8568 34.3963 32.5095C36.3482 35.369 40.2987 36.086 43.0671 38.4477C43.526 38.8396 43.9692 39.2401 44.4203 39.636C40.2987 42.9208 35.7105 46.1807 29.3726 46.5897C26.5341 45.5936 25.8187 45.3906 24.52 43.1323C21.3083 37.541 27.0863 19.4856 31.1534 13.9502Z" fill="#838383"/>
<path d="M78.6808 50.4351C80.9671 50.6341 83.0746 51.1155 85.1198 51.8823C89.2491 53.4267 94.8249 57.6392 95.7426 61.0749C98.0755 69.8072 88.6581 66.8303 83.8833 70.7979C81.2938 72.9435 80.5083 76.0642 77.9964 78.2261C75.018 80.7861 71.6275 81.0225 67.366 81.1796C67.0471 80.045 66.7827 79.017 66.6894 77.8583C66.3006 72.8657 65.5385 57.196 69.9867 53.7549C74.6059 56.9324 74.7148 62.1457 79.1007 65.5892C82.0636 61.3339 79.684 54.9991 78.6808 50.4351Z" fill="#838383"/>
<path d="M52.2232 0C54.945 0.174195 56.477 0.826647 58.8566 1.66768C63.7947 3.41499 65.8477 2.4178 70.6458 1.24922C73.6165 1.78114 74.6508 2.00472 76.6727 3.86206C80.141 7.04252 79.3867 13.9606 78.1502 17.5927C77.1159 20.6367 75.0396 24.7544 70.9102 26.1757C68.8961 26.8659 67.1464 25.7946 65.2334 25.2276C64.5257 20.8502 65.4355 16.7462 64.1135 12.3496L62.5738 11.7792C59.1599 14.8453 59.4787 19.5034 57.6979 23.3445L56.1114 23.6232C52.7364 21.1806 52.3477 17.5394 51.1345 14.3151C49.2993 9.46219 49.7891 4.7122 52.2232 0Z" fill="#838383"/>
<path d="M41.9991 48.8113L45.1175 50.0501C48.1193 55.0069 43.0956 57.9495 43.1811 62.7943C43.2044 64.2967 43.3834 64.5354 44.9231 65.5176C49.7601 62.865 49.7446 56.8312 55.7014 55.4773C57.7544 55.01 56.9223 55.087 59.0764 55.9665C62.7858 60.5966 61.4715 66.9493 61.0749 72.109C60.1806 73.6324 59.022 75.0346 57.9021 76.4756C56.0047 77.3489 55.2659 78.0425 52.9407 78.0091C47.1549 77.9243 41.0426 74.7818 37.3099 71.7536C33.6316 68.7721 31.2675 64.7571 31.7808 60.6884C32.4418 55.5217 36.9755 52.0945 41.9991 48.8113Z" fill="#838383"/>
<path d="M89.609 12.3616C91.3043 12.4839 92.9295 12.6371 94.5548 13.044C98.0543 13.9187 101.367 15.3999 102.767 18.0615C105.084 22.4913 102.308 27.4361 100.488 31.6934C102.852 36.6885 104.874 40.7369 103.241 46.0436C101.981 47.2055 101.577 48.0928 99.5085 48.4808C93.5206 49.6006 88.0536 46.2591 83.2477 44.0591C81.218 43.0808 79.6084 42.0659 77.7731 40.9049C76.731 38.6583 76.42 38.5043 77.4698 36.2989C83.1778 33.9465 90.1067 35.354 96.2424 33.5833L96.7945 32.0601C96.1413 31.1606 95.6202 30.3599 94.7493 29.5428C92.4552 27.3879 84.2198 27.4726 80.6659 27.2133C82.6023 21.5125 84.4531 16.9759 89.609 12.3616Z" fill="#838383"/>
<path d="M101.686 89.0527C103.016 89.2495 103.607 89.7044 104.664 90.2962C105.737 94.0398 104.104 98.341 103.264 102.085C109.33 103.214 117.55 104.586 122.27 107.706C122.978 109.699 123.771 110.647 121.99 112.493C117.659 116.976 106.025 117.096 99.5318 118.87C96.5534 119.684 96.4289 119.961 95.0447 121.92C95.3402 124.459 95.9468 126.85 94.5859 129.273C91.3898 130.777 87.9836 131.923 84.2664 132.575C81.1869 133.115 78.9473 132.93 76.1944 131.767C74.7091 129.358 75.2534 128.751 75.9455 126.226C81.2724 120.331 88.5824 115.908 92.8284 109.414L92.1829 108.333C82.8744 110.533 77.392 116.521 70.9219 121.576C71.5181 119.506 72.1687 117.445 72.8738 115.393C77.392 102.446 86.3661 95.6581 101.686 89.0527Z" fill="#838383"/>
<path d="M33.6199 106.325C34.0943 106.586 34.5842 106.835 35.043 107.11C40.9454 110.651 49.3285 124.828 49.4685 130.356C49.5152 132.254 49.7873 131.51 47.9987 132.986C40.7821 131.89 36.3261 126.725 29.1173 125.422L28.013 126.184C27.5308 135.002 42.3141 136.822 48.9552 142.535C49.4063 144.767 49.2819 145.027 48.0143 147.096C42.6718 150.496 37.1426 150.927 30.2526 151.04C28.0363 150.756 25.1357 150.577 23.0827 149.935C20.042 148.986 19.8243 148.291 18.8289 146.215C19.9876 142.124 24.4358 138.531 27.7098 135.169C20.4387 133.624 15.0028 132.029 9.34927 128.24C4.69112 125.117 -0.402503 120.03 0.0252068 115.126C0.24295 112.643 1.16842 111.56 3.48583 109.823C6.30871 108.853 8.26058 108.352 11.4179 108.738C20.1431 109.805 25.7267 114.283 30.867 119.078C31.5824 114.787 32.2513 110.539 33.6199 106.325Z" fill="#838383"/>
</svg>
