<svg width="122" height="88" viewBox="0 0 122 88" fill="none" xmlns="http://www.w3.org/2000/svg">
<path d="M3.84005 71.2432C6.43741 71.5947 7.92278 72.0317 9.92135 73.2394C17.7757 77.9792 26.4699 81.9196 34.2931 86.692L33.4921 87.6672C32.5123 87.3686 31.5324 87.0855 30.5603 86.7822C22.0217 84.1149 5.34875 83.3536 0.0062632 78.2841C-0.125938 75.4153 1.85703 73.5769 3.84005 71.2432Z" fill="#838383"/>
<path d="M102.597 53.1167C102.978 53.1307 103.367 53.119 103.741 53.1587C111.782 54.0009 117.272 58.7998 121.938 63.1702C113.64 69.4716 107.637 73.2089 95.3031 73.9182C91.7181 73.7012 87.511 74.0177 84.8203 72.2594C88.3742 67.1876 96.9517 70.6085 102.706 67.4216C101.944 64.514 95.3497 63.6065 93.0945 60.6133C94.5331 57.5695 99.3468 55.2055 102.597 53.1167Z" fill="#838383"/>
<path d="M84.9975 0C87.9993 1.0024 87.1672 2.77856 86.9962 4.82068C86.4129 11.8126 83.2478 29.3806 86.1173 35.1033C87.1205 37.0957 93.093 38.4947 95.3637 41.6418C95.5737 47.8226 88.6835 55.6419 82.9678 60.0349C80.4715 61.9549 78.0919 63.3897 74.4291 63.504L73.8926 61.6796C75.4712 58.1242 79.1028 55.8877 82.5945 53.2779C82.82 53.0951 83.0612 52.9248 83.2712 52.7312C85.8296 50.3173 86.6773 48.2465 86.2263 45.1926L84.7097 44.6498L78.6364 48.6765C76.1401 47.0116 78.8385 32.6949 77.4388 28.5788C76.8322 26.8057 77.3921 27.4263 75.2846 26.4986C70.4943 27.7957 66.7926 33.3544 64.1875 36.3561C67.0493 22.4478 72.6639 10.9984 84.9975 0Z" fill="#838383"/>
<path d="M17.168 21.0386C18.7156 21.4476 18.8244 21.4328 20.4731 22.1063C27.1453 24.832 34.502 31.5159 35.8317 37.0808C36.4072 39.4954 36.8193 42.2211 34.7974 44.3083C32.8377 44.7819 31.1268 45.1007 29.5171 46.086C26.3676 48.0092 28.4052 60.8397 27.8764 64.3119C24.3614 66.3377 20.5896 64.819 16.6547 66.3813C18.8477 71.5799 26.0567 71.8668 30.2249 75.5879C31.4225 76.6541 30.9869 76.4021 30.5592 77.9178L28.5917 78.606C18.9566 74.0723 10.4568 69.9756 4.65552 62.4603C2.06593 59.1063 -0.0491636 55.561 1.2884 51.6937C7.36966 49.1928 10.9234 56.6116 16.5381 56.708C18.941 51.189 14.2285 30.907 17.168 21.0386Z" fill="#838383"/>
<path d="M50.0736 5.32617C59.2655 11.4992 57.1191 36.9728 60.4319 45.7238C61.1629 47.65 61.5518 47.832 63.807 48.7037C68.2007 47.7076 70.6892 44.4196 73.3488 41.8417C72.3378 60.213 66.9876 71.2425 48.1373 83.9835C50.5636 77.3276 53.3241 70.7238 55.9526 64.1067C56.528 62.4783 57.2281 60.7558 57.4458 59.08C57.6713 57.3263 57.7334 55.2407 56.1625 53.8876C49.257 58.3334 46.1154 71.5621 42.2971 78.0135C37.4679 72.1134 30.6866 62.5996 32.8407 55.5634C33.8672 52.207 36.7679 51.0981 40.4851 49.4036C42.2582 48.5972 41.7993 49.1952 41.9781 47.6624C44.2489 28.169 36.3558 25.7816 50.0736 5.32617Z" fill="#838383"/>
</svg>
