<svg width="110" height="111" viewBox="0 0 110 111" fill="none" xmlns="http://www.w3.org/2000/svg">
<path d="M24.2279 77.7482C36.102 76.2759 42.1574 81.0099 51.3969 85.6431C54.529 90.3447 60.1431 101.482 58.4624 106.535C57.7425 108.7 56.2788 108.994 53.9313 110.12C45.7003 101.976 48.9315 92.0138 37.5578 83.4967C33.1557 83.1098 22.1573 82.9913 19.3203 80.488C20.5035 78.6906 21.8743 78.6056 24.2279 77.7482Z" fill="#838383"/>
<path d="M91.9082 64.4929C95.8135 64.8761 100.959 64.9965 103.642 67.377C103.221 70.6094 96.3819 73.8277 93.0327 75.825C75.5812 86.2195 77.5503 86.9413 71.2041 101.806C70.1376 103.417 69.4354 105.028 67.1429 105.882L65.7703 105.284C64.122 97.4917 74.4255 79.4595 79.6716 72.4068C83.0336 67.8867 85.1012 66.0037 91.9082 64.4929Z" fill="#838383"/>
<path d="M24.8281 9.91306C32.9901 9.64415 39.7789 11.2466 45.9845 15.2619C59.3817 23.9299 59.1434 36.0614 60.0344 48.059C57.5134 44.8138 55.6231 41.4616 53.69 38.0159C52.3082 35.7082 52.3253 33.8606 49.9705 31.8218L48.7452 32.0162C47.8743 35.1654 48.6516 38.0984 49.2328 41.2397C44.0117 36.4556 39.2575 31.5993 35.4788 26.1185C32.6485 22.0133 30.7594 17.4144 27.0301 13.6906C25.6226 12.285 25.0634 11.6549 24.8281 9.91306Z" fill="#838383"/>
<path d="M80.0902 0C81.1188 0.383806 81.6432 0.866617 82.4242 1.47533C83.6795 7.68529 73.8509 48.087 70.775 55.0353C69.7488 48.6102 69.5802 42.3923 70.3838 35.9446C70.7847 32.7293 72.2803 28.2709 71.8366 25.1442C71.8029 24.9101 71.6025 24.706 71.4857 24.4866L71.8323 23.1897L70.5378 23.0638L67.9068 25.2261C64.2294 35.2601 68.3768 45.9828 63.5089 55.4423L62.7486 55.0194C63.4356 44.5057 61.1242 31.9054 62.3489 22.6409C63.636 12.9027 70.2365 6.13724 80.0902 0Z" fill="#838383"/>
<path d="M100.108 25.1117C102.742 24.9571 104.844 25.1123 107.435 25.4026C109.58 26.5962 109.501 26.5125 109.978 28.456C106.726 36.874 94.6866 42.0267 88.7889 49.4559C82.8473 56.9499 72.7827 79.5383 67.2438 84.6213L65.5625 84.617C67.0183 79.0096 69.6414 71.4074 72.6861 66.1515C75.9271 60.5582 86.4537 51.4055 85.3469 45.3404L84.2633 44.7665C81.3682 46.0848 79.2738 49.3679 77.4464 51.4703C78.4604 47.0241 79.11 42.0334 81.4092 37.8396C85.0181 31.2593 91.4719 27.9291 100.108 25.1117Z" fill="#838383"/>
<path d="M22.5778 34.4411C23.0784 34.4167 23.5777 34.38 24.0794 34.3672C30.2503 34.2077 39.84 38.9716 44.1376 41.9046C44.4114 42.0896 44.6818 42.277 44.9486 42.4668C45.2159 42.6571 45.4797 42.8496 45.7401 43.0444C46.0004 43.2396 46.2573 43.437 46.5107 43.6366C46.7642 43.8366 47.0141 44.0389 47.2606 44.2435C47.5071 44.4476 47.75 44.6544 47.9891 44.8638C48.2279 45.0728 48.4632 45.2839 48.695 45.497C48.9269 45.7105 49.1548 45.9262 49.3789 46.1442C49.603 46.3617 49.8232 46.5816 50.0395 46.8036C50.2559 47.0253 50.4684 47.2489 50.677 47.4747C50.8852 47.7008 51.0897 47.9286 51.2906 48.1579C51.4911 48.3877 51.6874 48.6194 51.8798 48.8528C52.0721 49.0863 52.2603 49.3214 52.4445 49.5581C52.6286 49.7948 52.8085 50.0334 52.9841 50.2738C53.1601 50.5141 53.3317 50.756 53.4987 50.9992C53.6662 51.2428 53.8291 51.4879 53.9876 51.7344C54.1465 51.9809 54.3009 52.2289 54.4509 52.4782C54.6008 52.7276 54.7463 52.9783 54.8872 53.2305C55.0286 53.4827 55.1653 53.7362 55.2973 53.9908C55.4298 54.2455 55.5575 54.5015 55.6805 54.759C55.804 55.0161 55.9228 55.2742 56.0368 55.5334C56.1509 55.7929 56.2605 56.0533 56.3656 56.3144C56.4707 56.576 56.5712 56.8384 56.667 57.1016C56.7627 57.3648 56.854 57.6288 56.9408 57.8937C57.0271 58.1589 57.109 58.4248 57.1864 58.6912C57.2634 58.9577 57.336 59.225 57.404 59.4931C57.4716 59.7607 57.5348 60.029 57.5935 60.298C57.6517 60.5673 57.7053 60.837 57.7542 61.1071C57.8031 61.3773 57.8473 61.6476 57.8868 61.9181C57.9263 62.1891 57.9609 62.4604 57.9907 62.7322C58.0208 63.0035 58.0461 63.2753 58.0665 63.5475C58.0869 63.8196 58.1023 64.0918 58.1129 64.364C58.1239 64.6362 58.1301 64.9085 58.1313 65.1811C58.1374 66.8984 58.3763 68.6305 56.7042 69.8766C51.0779 66.2732 51.6756 60.0688 44.4994 57.1267L43.7764 57.8319C44.6113 62.5 48.3931 67.5017 50.5963 72.0047C51.524 72.8591 52.6975 73.7929 53.3991 74.75C54.5248 76.287 54.63 76.4466 53.8532 78.0704C43.8204 76.4197 40.6363 62.8208 34.4001 57.6382C28.9302 53.0924 20.305 50.1485 12.8134 47.7393C11.17 47.9697 9.51987 48.2068 7.86364 48.3798C4.7559 48.7043 2.58382 48.6456 0.0359117 47.2779L-0.00012207 45.8031C4.82741 40.634 15.2305 37.5287 22.5778 34.4411Z" fill="#838383"/>
</svg>
