<svg width="82" height="58" viewBox="0 0 82 58" fill="none" xmlns="http://www.w3.org/2000/svg">
<path d="M3.90687 26.6734C5.61087 26.5738 7.32948 26.4657 9.03884 26.4447C11.7217 26.4121 14.4705 26.8048 16.3738 28.2924C20.8223 31.7693 19.0008 39.1376 18.8037 43.5873C15.649 41.6727 13.0367 40.1182 9.19383 39.0256L7.32715 39.6469C6.97526 43.5166 13.8151 48.9259 16.9821 52.2488C19.225 53.6012 20.89 54.7202 22.6148 56.4622L21.4864 57.3992C18.9682 57.0174 17.3912 56.372 15.3925 55.2389C7.86358 50.9696 1.26884 44.7009 0.218925 37.5901C-0.441615 33.1162 0.283004 30.1324 3.90687 26.6734Z" fill="#838383"/>
<path d="M77.3444 21.3091L79.1237 21.6544C80.186 22.5401 81.284 23.4344 81.7024 24.6118C82.9334 28.0739 79.3974 33.512 76.947 36.3598C71.0205 43.2475 63.4967 48.4407 52.5139 50.1204L50.8031 49.2938C50.5713 47.6109 50.9539 46.4009 51.5302 44.7725C56.4698 42.6915 61.4857 40.9138 65.2566 37.7262C64.0084 36.415 57.9451 36.4531 55.4947 35.7882C53.5879 35.2711 53.8468 34.9032 53.0762 33.6536C53.5202 32.568 53.9277 31.4442 54.6641 30.4364C57.2568 26.8895 61.5059 25.4299 66.556 24.3894C69.9793 23.684 72.9654 22.8535 76.1709 21.729L77.3444 21.3091Z" fill="#838383"/>
<path d="M38.4541 0.854492C38.776 1.00458 39.1244 1.12667 39.4184 1.30398C44.6987 4.49236 48.1701 13.5948 48.7121 18.4575C49.5987 26.4012 47.1786 38.8585 39.3258 44.8682C37.5543 46.2244 38.4658 45.8332 35.765 45.9343C31.7344 40.2225 37.2985 29.9636 38.0754 23.5822L34.8815 24.3054C28.3788 30.4295 27.8088 38.6532 27.5988 46.0712L26.4852 46.565L24.6118 45.5346C20.6676 39.0879 22.3022 25.2798 26.1905 18.7608C29.6487 12.9626 34.8901 8.13333 37.8778 2.05052L38.4541 0.854492Z" fill="#838383"/>
</svg>
