<svg width="503" height="503" viewBox="0 0 503 503" fill="none" xmlns="http://www.w3.org/2000/svg">
<g clip-path="url(#clip0_1_3548)" filter="url(#filter0_d_1_3548)">
<path opacity="0.5" d="M185.953 203.594L455.209 130.016" stroke="#FAFAFA" stroke-miterlimit="10" stroke-linecap="round"/>
<path d="M401.133 61.6882L457.73 162.63" stroke="#FAFAFA" stroke-miterlimit="10" stroke-linecap="round"/>
<path d="M457.728 277.867L286.758 438.626" stroke="#FAFAFA" stroke-miterlimit="10" stroke-linecap="round"/>
<path d="M457.728 271.449L286.758 408.869" stroke="#FAFAFA" stroke-miterlimit="10" stroke-linecap="round"/>
<path d="M46.5703 189.088L175.71 140.85" stroke="#FAFAFA" stroke-miterlimit="10" stroke-linecap="round"/>
<path d="M401.141 207.558L161.32 140.85" stroke="#FAFAFA" stroke-miterlimit="10" stroke-linecap="round"/>
<path d="M46.5703 281.077L184.825 323.973" stroke="#FAFAFA" stroke-miterlimit="10" stroke-linecap="round"/>
<path d="M308.352 408.869L46.5703 293.33" stroke="#FAFAFA" stroke-miterlimit="10" stroke-linecap="round"/>
<path d="M308.352 438.626L46.5703 305.583" stroke="#FAFAFA" stroke-miterlimit="10" stroke-linecap="round"/>
<path d="M298.445 190.647L457.735 223.513" stroke="#FAFAFA" stroke-miterlimit="10" stroke-linecap="round"/>
<path d="M315.555 191.804L46.5703 227.98" stroke="#FAFAFA" stroke-miterlimit="10" stroke-linecap="round"/>
<path d="M46.5703 278.552L323.079 354.022" stroke="#FAFAFA" stroke-miterlimit="10" stroke-linecap="round"/>
<path d="M302.227 354.022L457.724 262.606" stroke="#FAFAFA" stroke-miterlimit="10" stroke-linecap="round"/>
<path d="M427.392 70.4404L46.5703 207.085" stroke="#FAFAFA" stroke-miterlimit="10" stroke-linecap="round"/>
<path d="M184.825 236.471L46.5703 239.267" stroke="#FAFAFA" stroke-miterlimit="10" stroke-linecap="round"/>
<path d="M161.32 236.471L457.738 241.652" stroke="#FAFAFA" stroke-miterlimit="10" stroke-linecap="round"/>
<path d="M168.312 323.973L457.729 250.736" stroke="#FAFAFA" stroke-miterlimit="10" stroke-linecap="round"/>
<g opacity="0.5">
<path d="M401.133 58.5291L457.73 159.481" stroke="#FAFAFA" stroke-miterlimit="10" stroke-linecap="round"/>
<path d="M457.728 274.718L286.758 435.467" stroke="#FAFAFA" stroke-miterlimit="10" stroke-linecap="round"/>
<path d="M457.728 268.3L286.758 405.71" stroke="#FAFAFA" stroke-miterlimit="10" stroke-linecap="round"/>
<path d="M46.5703 185.929L175.71 137.691" stroke="#FAFAFA" stroke-miterlimit="10" stroke-linecap="round"/>
<path d="M401.141 204.409L161.32 137.691" stroke="#FAFAFA" stroke-miterlimit="10" stroke-linecap="round"/>
<path d="M46.5703 277.928L184.825 320.814" stroke="#FAFAFA" stroke-miterlimit="10" stroke-linecap="round"/>
<path d="M308.352 405.71L46.5703 290.181" stroke="#FAFAFA" stroke-miterlimit="10" stroke-linecap="round"/>
<path d="M308.352 435.467L46.5703 302.434" stroke="#FAFAFA" stroke-miterlimit="10" stroke-linecap="round"/>
<path d="M298.445 187.498L457.735 220.364" stroke="#FAFAFA" stroke-miterlimit="10" stroke-linecap="round"/>
<path d="M315.555 188.655L46.5703 224.831" stroke="#FAFAFA" stroke-miterlimit="10" stroke-linecap="round"/>
<path d="M46.5703 275.403L323.079 350.863" stroke="#FAFAFA" stroke-miterlimit="10" stroke-linecap="round"/>
<path d="M302.227 350.862L457.724 259.447" stroke="#FAFAFA" stroke-miterlimit="10" stroke-linecap="round"/>
<path d="M427.392 67.2812L46.5703 203.926" stroke="#FAFAFA" stroke-miterlimit="10" stroke-linecap="round"/>
<path d="M184.825 233.322L46.5703 236.108" stroke="#FAFAFA" stroke-miterlimit="10" stroke-linecap="round"/>
<path d="M161.32 233.322L457.738 238.502" stroke="#FAFAFA" stroke-miterlimit="10" stroke-linecap="round"/>
<path d="M168.312 320.813L457.729 247.586" stroke="#FAFAFA" stroke-miterlimit="10" stroke-linecap="round"/>
</g>
<g opacity="0.5">
<path d="M401.133 64.1025L457.73 165.045" stroke="#FAFAFA" stroke-miterlimit="10" stroke-linecap="round"/>
<path d="M457.728 280.292L286.758 441.041" stroke="#FAFAFA" stroke-miterlimit="10" stroke-linecap="round"/>
<path d="M457.728 273.874L286.758 411.283" stroke="#FAFAFA" stroke-miterlimit="10" stroke-linecap="round"/>
<path d="M46.5703 191.502L175.71 143.265" stroke="#FAFAFA" stroke-miterlimit="10" stroke-linecap="round"/>
<path d="M401.141 209.983L161.32 143.265" stroke="#FAFAFA" stroke-miterlimit="10" stroke-linecap="round"/>
<path d="M46.5703 283.501L184.825 326.387" stroke="#FAFAFA" stroke-miterlimit="10" stroke-linecap="round"/>
<path d="M308.352 411.283L46.5703 295.754" stroke="#FAFAFA" stroke-miterlimit="10" stroke-linecap="round"/>
<path d="M308.352 441.041L46.5703 308.007" stroke="#FAFAFA" stroke-miterlimit="10" stroke-linecap="round"/>
<path d="M298.445 193.072L457.735 225.938" stroke="#FAFAFA" stroke-miterlimit="10" stroke-linecap="round"/>
<path d="M315.555 194.229L46.5703 230.405" stroke="#FAFAFA" stroke-miterlimit="10" stroke-linecap="round"/>
<path d="M46.5703 280.966L323.079 356.436" stroke="#FAFAFA" stroke-miterlimit="10" stroke-linecap="round"/>
<path d="M302.227 356.436L457.724 265.021" stroke="#FAFAFA" stroke-miterlimit="10" stroke-linecap="round"/>
<path d="M427.392 72.8547L46.5703 209.5" stroke="#FAFAFA" stroke-miterlimit="10" stroke-linecap="round"/>
<path d="M184.825 238.895L46.5703 241.682" stroke="#FAFAFA" stroke-miterlimit="10" stroke-linecap="round"/>
<path d="M161.32 238.895L457.738 244.076" stroke="#FAFAFA" stroke-miterlimit="10" stroke-linecap="round"/>
<path d="M168.312 326.387L457.729 253.16" stroke="#FAFAFA" stroke-miterlimit="10" stroke-linecap="round"/>
</g>
<path d="M51.1016 187.679V307.907L54.9042 309.818V186.261L51.1016 187.679Z" stroke="#FAFAFA" stroke-miterlimit="10" stroke-linecap="round"/>
<path d="M54.9062 186.261L59.051 187.136V308.581L54.9062 309.818" stroke="#FAFAFA" stroke-miterlimit="10" stroke-linecap="round"/>
<path d="M177.461 321.659V145.337L185.952 147.701V319.506L177.461 321.659Z" stroke="#FAFAFA" stroke-miterlimit="10" stroke-linecap="round"/>
<path d="M177.458 145.337L169.289 147.852V319.133L177.458 321.659V145.337Z" stroke="#FAFAFA" stroke-miterlimit="10" stroke-linecap="round"/>
<path d="M217.336 205.637V325.16L223.503 326.84V204.832L217.336 205.637Z" stroke="#FAFAFA" stroke-miterlimit="10" stroke-linecap="round"/>
<path d="M223.5 204.832L229.777 205.808V324.576L223.5 326.84" stroke="#FAFAFA" stroke-miterlimit="10" stroke-linecap="round"/>
<path d="M308.844 350.129V192.78L300.102 193.887V347.745L308.844 350.129Z" stroke="#FAFAFA" stroke-miterlimit="10" stroke-linecap="round"/>
<path d="M308.844 192.78L316.781 194.43V345.461L308.844 350.129V192.78Z" stroke="#FAFAFA" stroke-miterlimit="10" stroke-linecap="round"/>
<path d="M409.617 76.8184V323.107L414.355 318.651V85.2688L409.617 76.8184Z" stroke="#FAFAFA" stroke-miterlimit="10" stroke-linecap="round"/>
<path d="M409.607 76.8184L402.203 79.4742V322.091L409.607 323.107V76.8184Z" stroke="#FAFAFA" stroke-miterlimit="10" stroke-linecap="round"/>
<path d="M450.493 149.713V284.678L447.656 287.354V144.643L450.493 149.713Z" stroke="#FAFAFA" stroke-miterlimit="10" stroke-linecap="round"/>
<path d="M447.66 144.643L443.203 146.152V287.354H447.66" stroke="#FAFAFA" stroke-miterlimit="10" stroke-linecap="round"/>
<path d="M273.828 125.539V304.426L280.236 305.583V123.245L273.828 125.539Z" stroke="#FAFAFA" stroke-miterlimit="10" stroke-linecap="round"/>
<path d="M280.242 123.245L286.771 126.746V302.524L280.242 305.583V123.245Z" stroke="#FAFAFA" stroke-miterlimit="10" stroke-linecap="round"/>
<path d="M415.843 323.972L46.5703 273.149" stroke="#FAFAFA" stroke-miterlimit="10" stroke-linecap="round"/>
<path d="M443.199 313.46L381.984 307.142V207.8" stroke="#FAFAFA" stroke-miterlimit="10" stroke-linecap="round"/>
<path d="M374.313 104.232L305.805 126.978" stroke="#FAFAFA" stroke-miterlimit="10" stroke-linecap="round"/>
<path d="M310.125 122.32V192.78" stroke="#FAFAFA" stroke-miterlimit="10" stroke-linecap="round"/>
<path d="M310.125 125.549L324.129 131.656L370.998 117.069" stroke="#FAFAFA" stroke-miterlimit="10" stroke-linecap="round"/>
<path d="M324.14 131.656V195.134" stroke="#FAFAFA" stroke-miterlimit="10" stroke-linecap="round"/>
<path d="M329.094 196.955V135.156L371.004 122.32" stroke="#FAFAFA" stroke-miterlimit="10" stroke-linecap="round"/>
<path d="M329.094 135.156L332.595 137.198L371.004 125.529" stroke="#FAFAFA" stroke-miterlimit="10" stroke-linecap="round"/>
<path d="M332.594 137.199V197.7" stroke="#FAFAFA" stroke-miterlimit="10" stroke-linecap="round"/>
<path d="M354.688 127.32V202.246" stroke="#FAFAFA" stroke-miterlimit="10" stroke-linecap="round"/>
<path d="M357.891 202.91V126.334L360.496 128.718V203.444" stroke="#FAFAFA" stroke-miterlimit="10" stroke-linecap="round" stroke-linejoin="round"/>
<path d="M420.781 127.622V192.78L438.96 202.015V151.544L420.781 127.622Z" stroke="#FAFAFA" stroke-miterlimit="10" stroke-linecap="round"/>
<path d="M438.96 151.544H433.809L420.781 137.933" stroke="#FAFAFA" stroke-miterlimit="10" stroke-linecap="round"/>
<path d="M433.805 151.544V199.239" stroke="#FAFAFA" stroke-miterlimit="10" stroke-linecap="round"/>
<path d="M432.059 198.504V152.711L420.781 140.85" stroke="#FAFAFA" stroke-miterlimit="10" stroke-linecap="round"/>
<path d="M432.059 152.711H430.65L420.781 143.234" stroke="#FAFAFA" stroke-miterlimit="10" stroke-linecap="round"/>
<path d="M430.656 152.711V197.79" stroke="#FAFAFA" stroke-miterlimit="10" stroke-linecap="round"/>
<path d="M291.925 345.853V214.419L234.633 220.395V329.878L249.32 323.973V218.866" stroke="#FAFAFA" stroke-miterlimit="10" stroke-linecap="round"/>
<path d="M249.32 323.972L291.924 334.958" stroke="#FAFAFA" stroke-miterlimit="10" stroke-linecap="round"/>
<path d="M268.48 229.348L254.094 230.515V257.204H268.48V229.348Z" stroke="#FAFAFA" stroke-miterlimit="10" stroke-linecap="round"/>
<path d="M271.609 229.348V257.204H289.305V227.98L271.609 229.348Z" stroke="#FAFAFA" stroke-miterlimit="10" stroke-linecap="round"/>
<path d="M254.094 260.655H268.48V286.328L254.094 285.362V260.655Z" stroke="#FAFAFA" stroke-miterlimit="10" stroke-linecap="round"/>
<path d="M271.609 260.655V286.328L289.305 287.354V261.047L271.609 260.655Z" stroke="#FAFAFA" stroke-miterlimit="10" stroke-linecap="round"/>
<path d="M325.773 214.419V239.348L375.772 240.223V220.687L325.773 214.419Z" stroke="#FAFAFA" stroke-miterlimit="10" stroke-linecap="round"/>
<path d="M370.156 240.122V219.982" stroke="#FAFAFA" stroke-miterlimit="10" stroke-linecap="round"/>
<path d="M349.023 217.336V239.76" stroke="#FAFAFA" stroke-miterlimit="10" stroke-linecap="round"/>
<path d="M353.117 217.85V239.76" stroke="#FAFAFA" stroke-miterlimit="10" stroke-linecap="round"/>
<path d="M346.086 217.336V239.72" stroke="#FAFAFA" stroke-miterlimit="10" stroke-linecap="round"/>
<path d="M420.781 226.229V241.008L438.96 241.33V228.805L420.781 226.229Z" stroke="#FAFAFA" stroke-miterlimit="10" stroke-linecap="round"/>
<path d="M436.172 228.402V241.279" stroke="#FAFAFA" stroke-miterlimit="10" stroke-linecap="round"/>
<path d="M429.867 227.517V241.169" stroke="#FAFAFA" stroke-miterlimit="10" stroke-linecap="round"/>
<path d="M427.398 227.316V241.128" stroke="#FAFAFA" stroke-miterlimit="10" stroke-linecap="round"/>
<path d="M425.836 226.944V241.098" stroke="#FAFAFA" stroke-miterlimit="10" stroke-linecap="round"/>
<path d="M51.1016 184.802V295.342L294.413 402.712L409.61 309.999L381.975 307.142L308.839 350.128V192.78L191.489 208.494V318.107" stroke="#FAFAFA" stroke-miterlimit="10" stroke-linecap="round"/>
<path d="M409.617 70.4404V213.594" stroke="#FAFAFA" stroke-miterlimit="10" stroke-linecap="round"/>
<path d="M169.562 143.144V236.793H177.46V321.659L191.493 318.108L234.631 329.878" stroke="#FAFAFA" stroke-miterlimit="10" stroke-linecap="round"/>
<path d="M89.2324 294.305L59.0625 298.561V239.267L88.659 238.412L89.2324 294.305ZM89.2324 294.305L177.469 321.659" stroke="#FAFAFA" stroke-miterlimit="10" stroke-linecap="round"/>
<path d="M51.1016 295.342V307.907L294.332 431.504V402.712" stroke="#FAFAFA" stroke-miterlimit="10" stroke-linecap="round"/>
<path d="M294.332 431.504L450.484 284.678V149.713L409.61 76.8184L273.82 125.539V172.147L169.558 143.144L51.1016 187.68" stroke="#FAFAFA" stroke-miterlimit="10" stroke-linecap="round"/>
<path d="M273.828 172.147V197.438" stroke="#FAFAFA" stroke-miterlimit="10" stroke-linecap="round"/>
<path d="M409.617 309.999V213.594" stroke="#FAFAFA" stroke-miterlimit="10" stroke-linecap="round"/>
<path d="M308.844 192.78L381.557 207.8L381.98 307.142" stroke="#FAFAFA" stroke-miterlimit="10" stroke-linecap="round"/>
<path d="M192.438 165.477V192.78L265.564 207.085V184.289L192.438 165.477Z" stroke="#FAFAFA" stroke-miterlimit="10" stroke-linecap="round"/>
<path d="M265.567 184.289L259.672 185.768L259.974 205.989" stroke="#FAFAFA" stroke-miterlimit="10" stroke-linecap="round"/>
<path d="M259.668 185.768L192.438 169.048" stroke="#FAFAFA" stroke-miterlimit="10" stroke-linecap="round"/>
<path d="M257.646 205.536V187.046L192.438 171" stroke="#FAFAFA" stroke-miterlimit="10" stroke-linecap="round"/>
<path d="M257.649 187.045H256.039V205.224" stroke="#FAFAFA" stroke-miterlimit="10" stroke-linecap="round"/>
<path d="M242.461 183.303V202.558" stroke="#FAFAFA" stroke-miterlimit="10" stroke-linecap="round"/>
<path d="M240.195 182.75V201.945" stroke="#FAFAFA" stroke-miterlimit="10" stroke-linecap="round"/>
<path d="M238.633 182.75V201.885" stroke="#FAFAFA" stroke-miterlimit="10" stroke-linecap="round"/>
<path d="M217.336 177.408V197.649" stroke="#FAFAFA" stroke-miterlimit="10" stroke-linecap="round"/>
<path d="M214.227 197.035V176.352" stroke="#FAFAFA" stroke-miterlimit="10" stroke-linecap="round"/>
<path d="M212.391 175.899V196.603" stroke="#FAFAFA" stroke-miterlimit="10" stroke-linecap="round"/>
<path d="M169.561 236.792L88.6484 238.412" stroke="#FAFAFA" stroke-miterlimit="10" stroke-linecap="round"/>
<path d="M148.102 170.658V214.329" stroke="#FAFAFA" stroke-miterlimit="10" stroke-linecap="round"/>
<path d="M115.695 182.277V218.684" stroke="#FAFAFA" stroke-miterlimit="10" stroke-linecap="round"/>
<path d="M96.0234 189.339V221.33" stroke="#FAFAFA" stroke-miterlimit="10" stroke-linecap="round"/>
<path d="M69.9062 198.705V225.646" stroke="#FAFAFA" stroke-miterlimit="10" stroke-linecap="round"/>
<path d="M69.9062 198.705L73.7894 199.248V224.318" stroke="#FAFAFA" stroke-miterlimit="10" stroke-linecap="round"/>
<path d="M73.7891 199.248L96.0217 192.096" stroke="#FAFAFA" stroke-miterlimit="10" stroke-linecap="round"/>
<path d="M115.695 182.277L120.967 182.911V217.87" stroke="#FAFAFA" stroke-miterlimit="10" stroke-linecap="round"/>
<path d="M120.969 182.911L148.101 173.575" stroke="#FAFAFA" stroke-miterlimit="10" stroke-linecap="round"/>
<path d="M122.617 217.759V183.927L148.099 175.376" stroke="#FAFAFA" stroke-miterlimit="10" stroke-linecap="round"/>
<path d="M137.094 179.058V215.807" stroke="#FAFAFA" stroke-miterlimit="10" stroke-linecap="round"/>
<path d="M139.203 215.526V178.354L140.702 179.058V215.325" stroke="#FAFAFA" stroke-miterlimit="10" stroke-linecap="round"/>
<path d="M122.617 183.927L123.784 184.42V217.598" stroke="#FAFAFA" stroke-miterlimit="10" stroke-linecap="round"/>
<path d="M123.781 184.42L137.101 180.135" stroke="#FAFAFA" stroke-miterlimit="10" stroke-linecap="round"/>
<path d="M140.703 179.058L148.097 176.543" stroke="#FAFAFA" stroke-miterlimit="10" stroke-linecap="round"/>
<path d="M75.1719 224.137V200.073L96.0263 193.846" stroke="#FAFAFA" stroke-miterlimit="10" stroke-linecap="round"/>
<path d="M85.5859 196.965V222.729" stroke="#FAFAFA" stroke-miterlimit="10" stroke-linecap="round"/>
<path d="M86.9766 222.548V196.542L87.9926 196.965V222.407" stroke="#FAFAFA" stroke-miterlimit="10" stroke-linecap="round"/>
<path d="M75.1719 200.074L76.1075 200.416V224.006" stroke="#FAFAFA" stroke-miterlimit="10" stroke-linecap="round"/>
<path d="M76.1094 200.415L85.596 197.639" stroke="#FAFAFA" stroke-miterlimit="10" stroke-linecap="round"/>
<path d="M87.9922 196.965L96.0201 194.581" stroke="#FAFAFA" stroke-miterlimit="10" stroke-linecap="round"/>
<path d="M54.9062 152.711V347.945" stroke="#FAFAFA" stroke-miterlimit="10" stroke-linecap="round"/>
<path d="M169.289 116.203V407.41" stroke="#FAFAFA" stroke-miterlimit="10" stroke-linecap="round"/>
<path d="M177.461 119.412V415.87" stroke="#FAFAFA" stroke-miterlimit="10" stroke-linecap="round"/>
<path d="M273.484 113.286V443.817" stroke="#FAFAFA" stroke-miterlimit="10" stroke-linecap="round"/>
<path d="M409.617 55.0986V353.518" stroke="#FAFAFA" stroke-miterlimit="10" stroke-linecap="round"/>
<path d="M223.5 93.1157V341.306" stroke="#FAFAFA" stroke-miterlimit="10" stroke-linecap="round"/>
<path d="M450.484 121.787V314.255" stroke="#FAFAFA" stroke-miterlimit="10" stroke-linecap="round"/>
<path d="M309.133 169.602V362.07" stroke="#FAFAFA" stroke-miterlimit="10" stroke-linecap="round"/>
<path d="M46.5705 175.396L425.832 24.6875" stroke="#FAFAFA" stroke-miterlimit="10" stroke-linecap="round"/>
<path d="M457.733 144.643L388.781 24.6875" stroke="#FAFAFA" stroke-miterlimit="10" stroke-linecap="round"/>
<path d="M371.008 102.34V205.375" stroke="#FAFAFA" stroke-miterlimit="10" stroke-linecap="round"/>
<path d="M96.7422 244.076H169.285V290.181L96.7422 280.05V244.076Z" stroke="#FAFAFA" stroke-miterlimit="10" stroke-linecap="round"/>
<path d="M101.34 244.076V279.326L96.7422 280.05" stroke="#FAFAFA" stroke-miterlimit="10" stroke-linecap="round"/>
<path d="M101.344 279.326L169.289 288.28" stroke="#FAFAFA" stroke-miterlimit="10" stroke-linecap="round"/>
<path d="M103.547 244.076V277.928L169.289 285.604" stroke="#FAFAFA" stroke-miterlimit="10" stroke-linecap="round"/>
<path d="M133.016 244.076V281.368" stroke="#FAFAFA" stroke-miterlimit="10" stroke-linecap="round"/>
<path d="M138.469 281.761V244.076" stroke="#FAFAFA" stroke-miterlimit="10" stroke-linecap="round"/>
<path d="M136.43 244.076V281.761" stroke="#FAFAFA" stroke-miterlimit="10" stroke-linecap="round"/>
<path d="M103.547 277.928H105.207V244.076" stroke="#FAFAFA" stroke-miterlimit="10" stroke-linecap="round"/>
</g>
<defs>
<filter id="filter0_d_1_3548" x="-4" y="0" width="511" height="511" filterUnits="userSpaceOnUse" color-interpolation-filters="sRGB">
<feFlood flood-opacity="0" result="BackgroundImageFix"/>
<feColorMatrix in="SourceAlpha" type="matrix" values="0 0 0 0 0 0 0 0 0 0 0 0 0 0 0 0 0 0 127 0" result="hardAlpha"/>
<feOffset dy="4"/>
<feGaussianBlur stdDeviation="2"/>
<feComposite in2="hardAlpha" operator="out"/>
<feColorMatrix type="matrix" values="0 0 0 0 1 0 0 0 0 1 0 0 0 0 1 0 0 0 0.25 0"/>
<feBlend mode="normal" in2="BackgroundImageFix" result="effect1_dropShadow_1_3548"/>
<feBlend mode="normal" in="SourceGraphic" in2="effect1_dropShadow_1_3548" result="shape"/>
</filter>
<clipPath id="clip0_1_3548">
<rect width="503" height="503" fill="white"/>
</clipPath>
</defs>
</svg>
