<svg width="87" height="62" viewBox="0 0 87 62" fill="none" xmlns="http://www.w3.org/2000/svg">
<mask id="path-1-outside-1_1_3387" maskUnits="userSpaceOnUse" x="0" y="0" width="87" height="62" fill="black">
<rect fill="white" width="87" height="62"/>
<path d="M34.4641 22.0862V41.2024C34.4641 45.5448 34.2281 48.7073 33.7561 50.6897C33.2841 52.6721 32.3047 54.5247 30.8179 56.2476C29.3311 57.9704 27.5374 59.2094 25.437 59.9646C23.3366 60.7198 20.9884 61.0974 18.3923 61.0974C14.9703 61.0974 12.1265 60.708 9.86084 59.9292C7.59521 59.1268 5.78979 57.8878 4.44458 56.2122C3.09937 54.5365 2.14355 52.7783 1.57715 50.9375C1.01074 49.0731 0.727539 46.123 0.727539 42.0874V22.0862C0.727539 16.8233 1.17594 12.8821 2.07275 10.2625C2.99316 7.64282 4.79858 5.5424 7.48901 3.96118C10.203 2.37996 13.4835 1.58936 17.3303 1.58936C20.4692 1.58936 23.2776 2.14396 25.7556 3.25317C28.2336 4.33879 30.0863 5.6722 31.3135 7.25342C32.5407 8.83464 33.3667 10.6165 33.7915 12.5989C34.2399 14.5813 34.4641 17.7437 34.4641 22.0862ZM20.1624 17.2717C20.1624 14.2273 20.009 12.3275 19.7021 11.5723C19.4189 10.7935 18.7345 10.4041 17.6489 10.4041C16.5869 10.4041 15.8789 10.8171 15.5249 11.6431C15.1945 12.4455 15.0293 14.3217 15.0293 17.2717V45.238C15.0293 48.5657 15.1827 50.5717 15.4895 51.2561C15.8199 51.9405 16.5161 52.2827 17.5781 52.2827C18.6401 52.2827 19.3363 51.8815 19.6667 51.0791C19.9972 50.2767 20.1624 48.4713 20.1624 45.6628V17.2717ZM70.4309 50.2295V60H38.96V51.8225C48.2821 36.5767 53.8163 27.1484 55.5627 23.5376C57.3328 19.9032 58.2178 17.0711 58.2178 15.0415C58.2178 13.4839 57.9464 12.3275 57.4036 11.5723C56.8844 10.7935 56.0819 10.4041 54.9963 10.4041C53.9107 10.4041 53.0965 10.8289 52.5537 11.6785C52.0345 12.5281 51.7749 14.2155 51.7749 16.7407V22.1924H38.96V20.1038C38.96 16.8941 39.1252 14.3689 39.4556 12.5281C39.786 10.6637 40.6002 8.83464 41.8982 7.04102C43.1962 5.2474 44.8836 3.89038 46.9604 2.96997C49.0373 2.04956 51.5271 1.58936 54.4299 1.58936C60.1176 1.58936 64.4128 3.00537 67.3157 5.8374C70.2421 8.64583 71.7053 12.2095 71.7053 16.5283C71.7053 19.8088 70.8793 23.278 69.2273 26.936C67.5989 30.5941 62.7726 38.3586 54.7485 50.2295H70.4309ZM85.5115 48.3179V60H74.7144V48.3179H85.5115Z"/>
</mask>
<path d="M30.8179 56.2476L30.3447 55.8392L30.8179 56.2476ZM9.86084 59.9292L9.65218 60.5184L9.65767 60.5203L9.86084 59.9292ZM4.44458 56.2122L3.95721 56.6034L4.44458 56.2122ZM1.57715 50.9375L0.979132 51.1192L0.979787 51.1213L1.57715 50.9375ZM2.07275 10.2625L1.48307 10.0553L1.48144 10.06L2.07275 10.2625ZM7.48901 3.96118L7.17438 3.42115L7.17233 3.42235L7.48901 3.96118ZM25.7556 3.25317L25.5003 3.82365L25.5048 3.82565L25.7556 3.25317ZM33.7915 12.5989L33.1803 12.7298L33.1819 12.7368L33.7915 12.5989ZM19.7021 11.5723L19.1148 11.7859L19.1187 11.7968L19.1231 11.8075L19.7021 11.5723ZM15.5249 11.6431L14.9504 11.3968L14.947 11.4051L15.5249 11.6431ZM15.4895 51.2561L14.9192 51.5118L14.9228 51.5198L14.9267 51.5278L15.4895 51.2561ZM19.6667 51.0791L20.2447 51.3171L19.6667 51.0791ZM34.4641 22.0862H33.8391V41.2024H34.4641H35.0891V22.0862H34.4641ZM34.4641 41.2024H33.8391C33.8391 45.5381 33.6021 48.6383 33.1481 50.5449L33.7561 50.6897L34.3641 50.8345C34.8542 48.7763 35.0891 45.5516 35.0891 41.2024H34.4641ZM33.7561 50.6897L33.1481 50.5449C32.7019 52.4191 31.7739 54.1832 30.3447 55.8392L30.8179 56.2476L31.291 56.6559C32.8355 54.8663 33.8663 52.9252 34.3641 50.8345L33.7561 50.6897ZM30.8179 56.2476L30.3447 55.8392C28.9268 57.4822 27.2227 58.6584 25.2255 59.3765L25.437 59.9646L25.6485 60.5527C27.8522 59.7604 29.7354 58.4585 31.291 56.6559L30.8179 56.2476ZM25.437 59.9646L25.2255 59.3765C23.203 60.1037 20.9278 60.4724 18.3923 60.4724V61.0974V61.7224C21.0489 61.7224 23.4702 61.336 25.6485 60.5527L25.437 59.9646ZM18.3923 61.0974V60.4724C15.0123 60.4724 12.2428 60.0871 10.064 59.3381L9.86084 59.9292L9.65767 60.5203C12.0101 61.3289 14.9282 61.7224 18.3923 61.7224V61.0974ZM9.86084 59.9292L10.0695 59.3401C7.9 58.5717 6.19607 57.3955 4.93195 55.8209L4.44458 56.2122L3.95721 56.6034C5.38352 58.3801 7.29043 59.6819 9.65219 60.5183L9.86084 59.9292ZM4.44458 56.2122L4.93195 55.8209C3.63047 54.1997 2.71515 52.5108 2.17451 50.7537L1.57715 50.9375L0.979787 51.1213C1.57196 53.0459 2.56826 54.8733 3.95721 56.6034L4.44458 56.2122ZM1.57715 50.9375L2.17516 50.7558C1.63711 48.9847 1.35254 46.1127 1.35254 42.0874H0.727539H0.102539C0.102539 46.1334 0.384374 49.1614 0.979136 51.1192L1.57715 50.9375ZM0.727539 42.0874H1.35254V22.0862H0.727539H0.102539V42.0874H0.727539ZM0.727539 22.0862H1.35254C1.35254 16.8418 1.80149 12.9845 2.66406 10.4649L2.07275 10.2625L1.48144 10.06C0.550397 12.7797 0.102539 16.8048 0.102539 22.0862H0.727539ZM2.07275 10.2625L2.66242 10.4696C3.52778 8.00668 5.22578 6.01628 7.80569 4.50001L7.48901 3.96118L7.17233 3.42235C4.37139 5.06852 2.45855 7.27896 1.48309 10.0553L2.07275 10.2625ZM7.48901 3.96118L7.80364 4.50121C10.4028 2.98689 13.5693 2.21436 17.3303 2.21436V1.58936V0.964355C13.3977 0.964355 10.0032 1.77303 7.17439 3.42115L7.48901 3.96118ZM17.3303 1.58936V2.21436C20.3948 2.21436 23.1142 2.75556 25.5003 3.82363L25.7556 3.25317L26.011 2.68272C23.441 1.53236 20.5435 0.964355 17.3303 0.964355V1.58936ZM25.7556 3.25317L25.5048 3.82565C27.9195 4.8835 29.675 6.16164 30.8197 7.63662L31.3135 7.25342L31.8072 6.87022C30.4976 5.18276 28.5478 3.79407 26.0064 2.6807L25.7556 3.25317ZM31.3135 7.25342L30.8197 7.63662C31.9886 9.14266 32.775 10.838 33.1804 12.7298L33.7915 12.5989L34.4026 12.4679C33.9584 10.3949 33.0928 8.52661 31.8072 6.87022L31.3135 7.25342ZM33.7915 12.5989L33.1819 12.7368C33.6139 14.6469 33.8391 17.7501 33.8391 22.0862H34.4641H35.0891C35.0891 17.7374 34.8659 14.5157 34.4011 12.461L33.7915 12.5989ZM20.1624 17.2717H20.7874C20.7874 15.7413 20.7489 14.4867 20.6703 13.5132C20.5935 12.5619 20.4742 11.8121 20.2812 11.337L19.7021 11.5723L19.1231 11.8075C19.2369 12.0876 19.3477 12.6654 19.4243 13.6138C19.4991 14.5402 19.5374 15.7577 19.5374 17.2717H20.1624ZM19.7021 11.5723L20.2895 11.3587C20.1001 10.8378 19.7638 10.425 19.2855 10.1529C18.8201 9.88807 18.2609 9.77905 17.6489 9.77905V10.4041V11.0291C18.1225 11.0291 18.4484 11.1147 18.6674 11.2393C18.8735 11.3566 19.021 11.5279 19.1148 11.7859L19.7021 11.5723ZM17.6489 10.4041V9.77905C17.0392 9.77905 16.4804 9.89752 16.0065 10.1739C15.5255 10.4545 15.1749 10.8732 14.9504 11.3969L15.5249 11.6431L16.0994 11.8893C16.2289 11.5869 16.4093 11.3861 16.6363 11.2537C16.8705 11.1171 17.1966 11.0291 17.6489 11.0291V10.4041ZM15.5249 11.6431L14.947 11.4051C14.743 11.9005 14.6138 12.6521 14.5306 13.5972C14.4458 14.5607 14.4043 15.7874 14.4043 17.2717H15.0293H15.6543C15.6543 15.806 15.6954 14.6196 15.7758 13.7069C15.8578 12.7758 15.9764 12.1881 16.1028 11.881L15.5249 11.6431ZM15.0293 17.2717H14.4043V45.238H15.0293H15.6543V17.2717H15.0293ZM15.0293 45.238H14.4043C14.4043 46.9089 14.4427 48.2602 14.5212 49.2859C14.5971 50.2786 14.7151 51.0565 14.9192 51.5118L15.4895 51.2561L16.0598 51.0004C15.9571 50.7713 15.845 50.204 15.7675 49.1906C15.6926 48.2103 15.6543 46.8948 15.6543 45.238H15.0293ZM15.4895 51.2561L14.9267 51.5278C15.4019 52.5124 16.3865 52.9077 17.5781 52.9077V52.2827V51.6577C16.6457 51.6577 16.2379 51.3687 16.0523 50.9844L15.4895 51.2561ZM17.5781 52.2827V52.9077C18.1845 52.9077 18.7401 52.7935 19.2089 52.5233C19.6865 52.2481 20.0313 51.8352 20.2447 51.3171L19.6667 51.0791L19.0888 50.8411C18.9718 51.1254 18.8033 51.3143 18.5847 51.4403C18.3573 51.5714 18.0338 51.6577 17.5781 51.6577V52.2827ZM19.6667 51.0791L20.2447 51.3171C20.4477 50.824 20.5774 50.0927 20.6609 49.1802C20.7459 48.2512 20.7874 47.077 20.7874 45.6628H20.1624H19.5374C19.5374 47.0571 19.4963 48.1898 19.4161 49.0663C19.3343 49.9592 19.2162 50.5318 19.0888 50.8411L19.6667 51.0791ZM20.1624 45.6628H20.7874V17.2717H20.1624H19.5374V45.6628H20.1624ZM70.4309 50.2295H71.0559V49.6045H70.4309V50.2295ZM70.4309 60V60.625H71.0559V60H70.4309ZM38.96 60H38.335V60.625H38.96V60ZM38.96 51.8225L38.4267 51.4965L38.335 51.6466V51.8225H38.96ZM55.5627 23.5376L55.0008 23.2639L55.0001 23.2655L55.5627 23.5376ZM57.4036 11.5723L56.8835 11.919L56.8896 11.9281L56.8961 11.937L57.4036 11.5723ZM52.5537 11.6785L52.0269 11.3419L52.0204 11.3526L52.5537 11.6785ZM51.7749 22.1924V22.8174H52.3999V22.1924H51.7749ZM38.96 22.1924H38.335V22.8174H38.96V22.1924ZM39.4556 12.5281L40.0707 12.6385L40.071 12.6371L39.4556 12.5281ZM46.9604 2.96997L46.7072 2.39857L46.9604 2.96997ZM67.3157 5.8374L66.8792 6.28478L66.8829 6.28834L67.3157 5.8374ZM69.2273 26.936L68.6577 26.6788L68.6563 26.6819L69.2273 26.936ZM54.7485 50.2295L54.2307 49.8795L53.5717 50.8545H54.7485V50.2295ZM70.4309 50.2295H69.8059V60H70.4309H71.0559V50.2295H70.4309ZM70.4309 60V59.375H38.96V60V60.625H70.4309V60ZM38.96 60H39.585V51.8225H38.96H38.335V60H38.96ZM38.96 51.8225L39.4932 52.1486C48.8081 36.9145 54.3623 27.455 56.1254 23.8097L55.5627 23.5376L55.0001 23.2655C53.2703 26.8419 47.756 36.239 38.4267 51.4965L38.96 51.8225ZM55.5627 23.5376L56.1246 23.8113C57.9029 20.1599 58.8428 17.2203 58.8428 15.0415H58.2178H57.5928C57.5928 16.9219 56.7626 19.6465 55.0008 23.2639L55.5627 23.5376ZM58.2178 15.0415H58.8428C58.8428 13.4328 58.5664 12.1193 57.9111 11.2075L57.4036 11.5723L56.8961 11.937C57.3263 12.5356 57.5928 13.5349 57.5928 15.0415H58.2178ZM57.4036 11.5723L57.9236 11.2256C57.2685 10.2429 56.2521 9.77905 54.9963 9.77905V10.4041V11.0291C55.9118 11.0291 56.5002 11.344 56.8835 11.919L57.4036 11.5723ZM54.9963 10.4041V9.77905C53.717 9.77905 52.6948 10.2967 52.027 11.342L52.5537 11.6785L53.0804 12.015C53.4982 11.361 54.1044 11.0291 54.9963 11.0291V10.4041ZM52.5537 11.6785L52.0204 11.3526C51.6974 11.8812 51.4865 12.6108 51.3519 13.4862C51.2155 14.3724 51.1499 15.4598 51.1499 16.7407H51.7749H52.3999C52.3999 15.4964 52.4641 14.4775 52.5873 13.6763C52.7123 12.8642 52.8909 12.3254 53.087 12.0044L52.5537 11.6785ZM51.7749 16.7407H51.1499V22.1924H51.7749H52.3999V16.7407H51.7749ZM51.7749 22.1924V21.5674H38.96V22.1924V22.8174H51.7749V22.1924ZM38.96 22.1924H39.585V20.1038H38.96H38.335V22.1924H38.96ZM38.96 20.1038H39.585C39.585 16.9089 39.7499 14.4261 40.0707 12.6385L39.4556 12.5281L38.8404 12.4177C38.5004 14.3117 38.335 16.8793 38.335 20.1038H38.96ZM39.4556 12.5281L40.071 12.6371C40.3823 10.8801 41.1525 9.13749 42.4045 7.40743L41.8982 7.04102L41.3919 6.6746C40.0479 8.53178 39.1896 10.4472 38.8402 12.419L39.4556 12.5281ZM41.8982 7.04102L42.4045 7.40743C43.636 5.70572 45.2351 4.41824 47.2137 3.54137L46.9604 2.96997L46.7072 2.39857C44.5322 3.36252 42.7564 4.78908 41.3919 6.6746L41.8982 7.04102ZM46.9604 2.96997L47.2137 3.54137C49.1919 2.66467 51.591 2.21436 54.4299 2.21436V1.58936V0.964355C51.4632 0.964355 48.8827 1.43445 46.7072 2.39857L46.9604 2.96997ZM54.4299 1.58936V2.21436C60.0208 2.21436 64.1333 3.60579 66.8792 6.28477L67.3157 5.8374L67.7521 5.39004C64.6924 2.40496 60.2144 0.964355 54.4299 0.964355V1.58936ZM67.3157 5.8374L66.8829 6.28834C69.6779 8.97065 71.0803 12.3674 71.0803 16.5283H71.7053H72.3303C72.3303 12.0516 70.8063 8.32102 67.7484 5.38646L67.3157 5.8374ZM71.7053 16.5283H71.0803C71.0803 19.7025 70.2812 23.0839 68.6577 26.6788L69.2273 26.936L69.7969 27.1933C71.4775 23.4721 72.3303 19.915 72.3303 16.5283H71.7053ZM69.2273 26.936L68.6563 26.6819C67.0549 30.2793 62.264 37.9949 54.2307 49.8795L54.7485 50.2295L55.2663 50.5795C63.2812 38.7222 68.1429 30.9089 69.7983 27.1902L69.2273 26.936ZM54.7485 50.2295V50.8545H70.4309V50.2295V49.6045H54.7485V50.2295ZM85.5115 48.3179H86.1365V47.6929H85.5115V48.3179ZM85.5115 60V60.625H86.1365V60H85.5115ZM74.7144 60H74.0894V60.625H74.7144V60ZM74.7144 48.3179V47.6929H74.0894V48.3179H74.7144ZM85.5115 48.3179H84.8865V60H85.5115H86.1365V48.3179H85.5115ZM85.5115 60V59.375H74.7144V60V60.625H85.5115V60ZM74.7144 60H75.3394V48.3179H74.7144H74.0894V60H74.7144ZM74.7144 48.3179V48.9429H85.5115V48.3179V47.6929H74.7144V48.3179Z" fill="#FCFCFC" mask="url(#path-1-outside-1_1_3387)"/>
</svg>
