<svg width="1922" height="3359" viewBox="0 0 1922 3359" fill="none" xmlns="http://www.w3.org/2000/svg">
<g clip-path="url(#clip0_3481_3636)">
<rect width="1922" height="3359" fill="#0021FF"/>
<path d="M1786.72 2886.23C1802.76 2885.49 1817.62 2877.86 1831.22 2868.98C1831.9 2888.72 1837 2926.64 1828.75 2943.49C1832.12 2952.25 1832.66 2957.29 1829.48 2966.49C1834.9 2981.71 1835.69 3032.38 1829.79 3048C1832.19 3057.38 1833.02 3063.74 1829.71 3073.15C1834.06 3087.91 1835.86 3130.58 1829.37 3144.65C1829.2 3145.02 1829 3145.37 1828.81 3145.73C1831.82 3153.34 1833.65 3159.49 1830.97 3167.81C1830.39 3169.63 1829.64 3171.36 1828.87 3173.08C1834.67 3186.22 1835.03 3226.55 1830.59 3240.75C1830.35 3241.53 1830.07 3242.31 1829.8 3243.08C1832.42 3252.78 1833.1 3260.85 1829.91 3270.59C1834.7 3287.15 1835.19 3326.41 1829.9 3343.06C1832.28 3352.7 1833.9 3362.02 1829.31 3371.3C1829.15 3371.62 1828.98 3371.91 1828.81 3372.22C1834.55 3385.78 1835.59 3430.79 1830.75 3445.38C1830.19 3447.06 1829.52 3448.64 1828.73 3450.19C1831.89 3458.1 1833.28 3463.41 1830.49 3472.02C1830.21 3472.86 1829.89 3473.68 1829.58 3474.5C1834.57 3489.47 1835.75 3593.58 1830.09 3607.42C1829.84 3608.01 1829.56 3608.59 1829.29 3609.17C1835.03 3624.09 1836.16 3673.19 1830.53 3688.83C1829.89 3690.59 1829.82 3690.67 1829.13 3692.16C1833.46 3703.08 1833.51 3710.9 1829.59 3722.02C1825.09 3725.89 1621.12 3719.88 1599.89 3719.57C1600.88 3717.56 1601.86 3715.4 1602.3 3713.14C1605.87 3695.07 1601.01 3572.99 1600.87 3544.26L1600 3111.81C1600.01 3087.62 1600 2995.81 1600 2976.31C1622.11 2969.15 1782.2 2894.61 1786.72 2886.23Z" fill="#DF7C9A"/>
<path d="M1935.46 2887.08L1831.12 2870.05L1832.18 3698.42H1943.98L1935.46 2887.08Z" fill="#FF6601"/>
<path d="M1732.49 2984.81L1737.79 2986.28C1738.25 2987.33 1738.97 2988.85 1739.29 2990.04C1743.22 3004.78 1742.82 3056.58 1736.71 3070.54C1730.4 3076.78 1678.77 3094.65 1667.1 3099.54C1659.15 3084.37 1672.7 3036.01 1662.5 3013.86C1685.59 3008.44 1710.6 2994.72 1732.49 2984.81Z" fill="#0021FE"/>
<path d="M1733.03 3166.88L1737.91 3168.27C1738.36 3169.33 1739.09 3170.89 1739.39 3172.1C1743.27 3187.23 1742.63 3238.75 1736.61 3253.11C1724.82 3263.91 1684.21 3276.07 1668.2 3281.79C1662.74 3278.55 1669.73 3211.52 1662.3 3197.96C1684.96 3192.66 1711.34 3176.55 1733.03 3166.88Z" fill="#0021FE"/>
<path d="M1831.12 2871.12L1935.46 2886.02L1831.12 2787V2871.12Z" fill="white"/>
<path d="M1831.12 2871.12V2787L1599 2978.66L1831.12 2871.12Z" fill="#A6AEE3"/>
<path d="M345.46 1381.72C315.427 1298.07 49.3086 729.324 -83 549V952.639C-83 971.322 131.23 1416.93 131.23 1533H383C383 1523.24 375.492 1465.38 345.46 1381.72Z" fill="#FF303B"/>
<path d="M852.265 -19H-8V247.071C-8 247.071 31.8608 234.33 57.2333 225.663C252.981 158.796 478.192 -103.103 540.368 8.52444C569.231 60.3447 559.224 108.938 515.905 146.657C365.101 277.966 207.796 399.041 296.252 578.385C483.798 958.632 1062.13 323.018 1153.97 434.646C1227.36 523.846 1067.84 578.385 955.721 616.614C798.597 670.187 698.044 847.076 852.265 1028.97C1034.2 1243.56 1501.03 553.919 1623.34 689.503C1717.98 794.403 1490.33 914.796 1433.25 1015.21C1363.52 1137.87 1395.54 1303.4 1522.94 1365.38C1712.24 1457.47 1949 1015.21 1949 1015.21V578.385C1949 578.385 1839.79 616.614 1734.44 524.355C1541.8 355.64 1949 146.657 1949 146.657V-19H1465.87C1465.87 -19 1169.64 346.156 955.721 266.44C743.712 187.434 852.265 -19 852.265 -19Z" fill="#007F55"/>
<path d="M-39.4676 2819.67L81.75 2174L281.448 2211.49C281.448 2211.49 266.269 2239.61 256.189 2257.44C178.42 2394.93 -49.881 2527.06 25.1393 2589.45C59.9657 2618.42 97.8474 2617.75 132.261 2590.56C252.064 2495.87 365.101 2394.87 487.243 2486.53C746.209 2680.87 187.661 3025.37 258.501 3110.03C315.109 3177.68 378.52 3065.64 423.011 2986.88C485.36 2876.5 632.292 2825.95 747.083 2967.33C882.505 3134.13 299.118 3387.32 383.645 3498.23C449.043 3584.04 571.481 3430.14 654.889 3401.45C756.776 3366.4 876.502 3413.75 905.071 3518.11C947.516 3673.16 582.215 3788.54 582.215 3788.54L254.359 3726.99C254.359 3726.99 298.44 3650.41 244.039 3558.34C144.556 3389.98 -69.6725 3666.16 -69.6725 3666.16L-194.006 3642.82L-125.928 3280.2C-125.928 3280.2 189.879 3109.32 160.19 2937.54C130.766 2767.28 -39.4676 2819.67 -39.4676 2819.67Z" fill="#203C99"/>
<path d="M311 3362.98H581.28L581.41 3361.2C575.78 3349.68 564.55 3338.45 556.89 3328C529.45 3290.6 501.56 3243.26 459.59 3220.8C436.12 3208.25 401.82 3204.1 376.57 3212.09C319.9 3230.03 312.24 3283.19 312.6 3334.74C312.65 3341.54 314.65 3356.6 311.32 3362.47C311.22 3362.64 311.1 3362.81 311 3362.98Z" fill="#367D57"/>
<path fill-rule="evenodd" clip-rule="evenodd" d="M369.147 1395.27C500.432 1443.42 483.783 1639.24 547.196 1763.93C590.783 1849.64 660.786 1917.07 682.195 2010.82C706.38 2116.74 707.274 2224.63 676.17 2328.74C636.747 2460.68 602.041 2614.82 481.741 2681.74C359.391 2749.8 202.062 2717.46 72.4683 2664.58C-45.2026 2616.56 -109.788 2500.32 -194.687 2405.71C-281.702 2308.75 -392.717 2230.29 -429.457 2105.25C-471.273 1962.95 -504.707 1786.04 -410.42 1671.54C-315.712 1556.52 -127.426 1617.74 12.958 1567.99C140.443 1522.81 242.188 1348.71 369.147 1395.27Z" fill="#E07C9B"/>
<path d="M1699.62 3419.78L1646.67 3406.76C1646.58 3405.97 1646.51 3405.5 1646.75 3404.72C1647.98 3400.66 1651.82 3395.7 1653.89 3391.86C1657.89 3384.38 1661.61 3376.77 1665.04 3369.02C1672.68 3351.97 1678.91 3334.3 1686.35 3317.17C1692.94 3302.03 1700.91 3287.29 1708.06 3272.4C1713.1 3261.9 1717.6 3250.14 1723.9 3240.41C1729.29 3232.06 1736.53 3224.23 1742.96 3216.64C1747.01 3211.86 1751.32 3205.64 1756.96 3202.76C1756.58 3203.2 1756.23 3203.65 1755.86 3204.1C1753.48 3207.04 1735.81 3282.47 1734.14 3291.11C1729.3 3315.99 1727.01 3340.99 1720.15 3365.53C1717.97 3373.31 1715.21 3381.11 1712.32 3388.64C1710.27 3393.99 1699.62 3415.99 1699.62 3419.78Z" fill="#303289"/>
<path d="M1749.68 3390.41L1719.11 3371.44C1719.22 3370.92 1719.27 3370.61 1719.57 3370.17C1721.18 3367.87 1724.6 3365.55 1726.69 3363.56C1730.72 3359.68 1734.6 3355.67 1738.34 3351.51C1746.61 3342.36 1754.12 3332.55 1762.29 3323.32C1769.51 3315.16 1777.52 3307.54 1785.04 3299.65C1790.35 3294.1 1795.57 3287.63 1801.51 3282.81C1806.59 3278.68 1812.73 3275.24 1818.31 3271.79C1821.83 3269.61 1825.81 3266.59 1829.93 3265.93C1829.6 3266.13 1829.29 3266.34 1828.97 3266.55C1826.88 3267.91 1800.4 3311.63 1797.59 3316.72C1789.48 3331.34 1782.94 3346.56 1773.63 3360.56C1770.68 3364.99 1767.35 3369.32 1764 3373.46C1761.63 3376.4 1750.45 3388.03 1749.68 3390.41Z" fill="#303289"/>
<path d="M1760.26 3403.31L1747.29 3369.75C1747.69 3369.4 1747.91 3369.19 1748.42 3369.02C1751.09 3368.15 1755.22 3368.36 1758.08 3368.03C1763.63 3367.36 1769.16 3366.5 1774.64 3365.43C1786.75 3363.11 1798.66 3359.81 1810.74 3357.36C1821.42 3355.2 1832.4 3353.94 1843.16 3352.18C1850.74 3350.94 1858.8 3348.93 1866.45 3348.66C1873 3348.42 1879.97 3349.38 1886.5 3349.99C1890.62 3350.37 1895.62 3350.35 1899.31 3352.32C1898.92 3352.28 1898.55 3352.25 1898.16 3352.23C1895.67 3352.05 1848.2 3371 1842.89 3373.36C1827.61 3380.14 1813.22 3388.35 1797.36 3393.91C1792.33 3395.67 1787.07 3397.13 1781.9 3398.41C1778.23 3399.32 1762.31 3401.87 1760.26 3403.31Z" fill="#303289"/>
<path d="M1676.59 3491.37L1769.28 3493.23C1769.77 3491.96 1770.1 3491.23 1770.05 3489.84C1769.81 3482.62 1765.68 3472.8 1763.96 3465.57C1760.67 3451.54 1757.91 3437.41 1755.67 3423.17C1750.61 3391.81 1748.14 3360.05 1743.43 3328.63C1739.26 3300.87 1732.64 3273.17 1727.44 3245.55C1723.76 3226.11 1721.54 3204.81 1715.47 3186.05C1710.27 3169.98 1701.82 3153.93 1694.59 3138.65C1690.04 3129.01 1685.68 3116.9 1677.68 3109.69C1678.12 3110.58 1678.5 3111.48 1678.9 3112.38C1681.52 3118.25 1677.43 3249.91 1676.38 3264.85C1673.41 3307.84 1666.2 3349.92 1666.69 3393.24C1666.84 3406.97 1667.95 3420.99 1669.4 3434.64C1670.41 3444.32 1678.26 3485.13 1676.59 3491.37Z" fill="#367D57"/>
<path d="M1607.26 3421.12L1665.8 3403.38C1665.85 3402.48 1665.9 3401.96 1665.59 3401.1C1663.97 3396.62 1659.37 3391.3 1656.82 3387.11C1651.89 3378.98 1647.27 3370.67 1642.96 3362.2C1633.39 3343.55 1625.36 3324.13 1616 3305.37C1607.72 3288.81 1597.92 3272.78 1589.01 3256.51C1582.74 3245.06 1577 3232.15 1569.36 3221.62C1562.82 3212.6 1554.25 3204.25 1546.59 3196.13C1541.77 3191.02 1536.57 3184.3 1530.08 3181.41C1530.53 3181.89 1530.95 3182.37 1531.39 3182.85C1534.24 3186 1558.52 3269.45 1560.92 3279.04C1567.82 3306.62 1571.88 3334.49 1581.02 3361.57C1583.92 3370.15 1587.48 3378.72 1591.17 3387C1593.78 3392.86 1607.03 3416.87 1607.26 3421.12Z" fill="#367D57"/>
<path d="M1584.22 3437.67L1620.25 3388.24C1619.75 3387.5 1619.48 3387.04 1618.72 3386.55C1614.72 3383.95 1607.84 3382.47 1603.28 3380.67C1594.45 3377.15 1585.76 3373.3 1577.22 3369.13C1558.34 3360.01 1540.23 3349.35 1521.46 3340.03C1504.87 3331.79 1487.39 3324.9 1470.48 3317.29C1458.58 3311.93 1446.22 3305.08 1433.78 3301.28C1423.12 3298.02 1411.25 3296.52 1400.25 3294.65C1393.32 3293.48 1385.12 3291.25 1378.2 3292.86C1378.85 3292.96 1379.47 3293.09 1380.11 3293.21C1384.28 3294.01 1453.94 3345.98 1461.63 3352.19C1483.76 3370.05 1503.79 3389.84 1527.4 3405.95C1534.89 3411.05 1542.89 3415.75 1550.82 3420.13C1556.44 3423.24 1581.48 3434.42 1584.22 3437.67Z" fill="#367D57"/>
</g>
<defs>
<clipPath id="clip0_3481_3636">
<rect width="1922" height="3359" fill="white"/>
</clipPath>
</defs>
</svg>
