<svg width="1920" height="783" viewBox="0 0 1920 783" fill="none" xmlns="http://www.w3.org/2000/svg">
<g clip-path="url(#clip0_3481_3778)">
<rect width="1920" height="783" fill="black" fill-opacity="0.2"/>
<rect width="1920" height="676" fill="#151762"/>
<path d="M1191.22 320.172C1210.12 320.85 1417.36 362.542 1427.79 368.278L1435.09 369.804C1475.92 371.98 1520.51 382.138 1560.8 390.269C1568.31 395.362 1572.08 399.205 1574.28 409.137C1576.4 418.737 1576.32 438.792 1571.99 447.467C1579.62 461.906 1582.68 549.169 1578.6 565.734C1578.01 568.108 1577.04 569.676 1575.63 571.541L1574.93 572.247L1569.13 569.033C1569.4 567.267 1569.54 566.956 1569.32 564.908C1567.86 551.486 1552.52 502.164 1543.51 495.863C1543.03 506.643 1522.9 544.309 1515.63 551.973C1514.6 553.054 1513.52 553.986 1512.32 554.82C1512.09 561.792 1511.25 566.313 1506.24 571.378C1505.06 572.572 1503.73 573.632 1502.43 574.663C1504.34 585.485 1480.85 632.906 1474.41 643.029C1472.87 645.438 1470.74 647.24 1468.52 648.808C1468.19 654.841 1465.9 659.595 1461.81 663.579C1459.34 665.988 1456.22 667.909 1453.32 669.59C1453.33 683.598 1429.58 725.121 1419.62 735.449C1418.3 736.819 1416.65 737.837 1415.03 738.713C1413.67 747.161 1410.87 752.572 1404.39 757.616C1403.88 758.012 1403.36 758.372 1402.84 758.746C1402.43 772.924 1376.75 808.704 1367.13 818.551C1365.34 820.381 1363.19 821.815 1361.09 823.143L1360.16 823.736C1359.69 830.765 1355.34 836.367 1350.61 840.852C1348.16 843.19 1345.48 845.091 1342.66 846.829C1341.74 856.21 1302 907.177 1293.25 915.901C1291.96 917.187 1290.55 917.865 1288.98 918.635C1287.52 927.112 1284.33 934.798 1277.81 939.94C1276.97 940.59 1276.1 941.184 1275.23 941.77C1276.73 954.062 1264.37 972.767 1260.07 984.663C1251.92 1007.24 1253.63 1053.52 1245.34 1070.57C1247.01 1073.32 1248.51 1075.56 1249.45 1078.75C1252.2 1085.72 1271.13 1146.78 1270.8 1150.41C1277.6 1155.26 1286.59 1163.7 1288.73 1172.6L1288.14 1175.6C1287.63 1175.94 1287.14 1176.29 1286.63 1176.61C1281.79 1179.54 1197.87 1175.76 1189.6 1173.2C1193.52 1162.09 1193.46 1154.27 1189.13 1143.34C1189.82 1141.85 1189.89 1141.78 1190.53 1140.02C1196.17 1124.38 1195.03 1075.28 1189.29 1060.36C1189.56 1059.78 1189.84 1059.2 1190.09 1058.6C1195.75 1044.77 1194.57 940.661 1189.58 925.685C1189.9 924.866 1190.21 924.046 1190.49 923.206C1193.29 914.594 1191.89 909.289 1188.73 901.378C1189.52 899.823 1190.2 898.248 1190.75 896.567C1195.59 881.98 1194.56 836.967 1188.82 823.411C1188.98 823.1 1189.15 822.804 1189.31 822.486C1193.9 813.211 1192.28 803.886 1189.9 794.25C1195.19 777.6 1194.7 738.338 1189.91 721.78C1193.1 712.038 1192.42 703.964 1189.81 694.272C1190.07 693.495 1190.35 692.718 1190.59 691.934C1195.03 677.742 1194.67 637.406 1188.87 624.267C1189.65 622.544 1190.39 620.813 1190.97 618.997C1193.65 610.676 1191.82 604.53 1188.82 596.922C1189 596.562 1189.2 596.209 1189.37 595.841C1195.87 581.77 1194.06 539.102 1189.72 524.338C1193.02 514.929 1192.19 508.571 1189.79 499.183C1195.69 483.572 1194.9 432.894 1189.48 417.678C1192.67 408.48 1192.12 403.436 1188.75 394.677C1197 377.829 1191.9 339.909 1191.22 320.172Z" fill="#FF6602"/>
<path d="M1295.46 338.27L1191.12 321.234L1192.18 1149.61H1303.98L1295.46 338.27Z" fill="#FF6601"/>
<path d="M1146.72 337.422C1162.76 336.681 1177.62 329.044 1191.22 320.172C1191.9 339.909 1197 377.829 1188.75 394.677C1192.12 403.436 1192.66 408.48 1189.48 417.678C1194.9 432.894 1195.69 483.572 1189.79 499.183C1192.19 508.571 1193.02 514.929 1189.71 524.338C1194.06 539.102 1195.86 581.77 1189.37 595.841C1189.2 596.209 1189 596.562 1188.81 596.922C1191.82 604.53 1193.65 610.676 1190.97 618.997C1190.39 620.813 1189.64 622.543 1188.87 624.267C1194.67 637.406 1195.03 677.742 1190.59 691.934C1190.35 692.718 1190.07 693.495 1189.8 694.272C1192.42 703.964 1193.1 712.038 1189.91 721.78C1194.7 738.338 1195.19 777.6 1189.9 794.25C1192.28 803.886 1193.9 813.211 1189.31 822.486C1189.15 822.804 1188.98 823.1 1188.81 823.411C1194.55 836.967 1195.59 881.98 1190.75 896.567C1190.19 898.248 1189.52 899.823 1188.73 901.378C1191.89 909.289 1193.28 914.594 1190.49 923.206C1190.21 924.046 1189.89 924.866 1189.58 925.685C1194.57 940.661 1195.75 1044.77 1190.09 1058.6C1189.84 1059.2 1189.56 1059.78 1189.29 1060.36C1195.03 1075.28 1196.16 1124.38 1190.53 1140.02C1189.89 1141.78 1189.82 1141.85 1189.13 1143.34C1193.46 1154.27 1193.51 1162.09 1189.59 1173.2C1185.09 1177.08 981.122 1171.06 959.891 1170.76C960.88 1168.75 961.864 1166.59 962.304 1164.33C965.867 1146.26 961.008 1024.17 960.867 995.45L960 562.997C960.006 538.803 960 446.997 960 427.497C982.106 420.334 1142.2 345.8 1146.72 337.422Z" fill="#DF7C9A"/>
<path d="M1092.49 435.992L1097.79 437.462C1098.25 438.514 1098.97 440.033 1099.29 441.22C1103.22 455.962 1102.82 507.763 1096.71 521.715C1090.4 527.96 1038.77 545.832 1027.1 550.72C1019.15 535.546 1032.7 487.186 1022.5 465.04C1045.59 459.622 1070.6 445.896 1092.49 435.992Z" fill="#0021FE"/>
<path d="M1093.03 618.055L1097.91 619.446C1098.36 620.506 1099.09 622.074 1099.39 623.282C1103.27 638.406 1102.63 689.925 1096.61 704.286C1084.82 715.094 1044.21 727.252 1028.2 732.973C1022.74 729.731 1029.73 662.7 1022.3 649.144C1044.96 643.839 1071.34 627.725 1093.03 618.055Z" fill="#0021FE"/>
<path d="M1969.16 -2.96288C1969.34 -54.2009 1974.71 -102.652 1936.48 -142.413C1935.22 -143.728 1933.94 -145.01 1932.62 -146.259C1931.3 -147.509 1929.96 -148.725 1928.58 -149.907C1927.2 -151.089 1925.8 -152.235 1924.37 -153.345C1922.94 -154.456 1921.48 -155.53 1920 -156.567C1918.52 -157.603 1917.01 -158.602 1915.48 -159.562C1913.95 -160.524 1912.39 -161.445 1910.82 -162.327C1909.24 -163.208 1907.64 -164.05 1906.03 -164.851C1904.41 -165.652 1902.77 -166.412 1901.12 -167.13C1899.47 -167.848 1897.8 -168.524 1896.11 -169.158C1894.42 -169.792 1892.72 -170.383 1891.01 -170.931C1889.29 -171.479 1887.57 -171.983 1885.83 -172.443C1884.09 -172.904 1882.34 -173.32 1880.58 -173.692C1878.82 -174.063 1877.05 -174.39 1875.28 -174.673C1873.5 -174.955 1871.72 -175.192 1869.94 -175.385C1868.15 -175.577 1866.36 -175.723 1864.56 -175.824C1862.77 -175.926 1860.97 -175.982 1859.18 -175.993C1857.36 -176.014 1855.54 -175.988 1853.72 -175.916C1851.9 -175.842 1850.08 -175.723 1848.27 -175.557C1846.46 -175.392 1844.65 -175.18 1842.85 -174.922C1841.04 -174.664 1839.25 -174.36 1837.46 -174.01C1835.67 -173.66 1833.89 -173.265 1832.13 -172.825C1830.36 -172.384 1828.6 -171.898 1826.86 -171.368C1825.11 -170.836 1823.38 -170.26 1821.66 -169.642C1819.95 -169.023 1818.25 -168.36 1816.56 -167.654C1814.88 -166.948 1813.21 -166.199 1811.57 -165.408C1809.92 -164.617 1808.29 -163.785 1806.68 -162.91C1805.08 -162.036 1803.49 -161.12 1801.93 -160.164C1800.37 -159.209 1798.83 -158.215 1797.32 -157.181C1795.8 -156.146 1794.31 -155.073 1792.85 -153.963C1791.39 -152.853 1789.96 -151.707 1788.56 -150.523C1787.15 -149.34 1785.78 -148.121 1784.43 -146.867C1783.08 -145.613 1781.77 -144.325 1780.49 -143.004C1741.98 -103.49 1749.74 -52.5258 1749.89 -1.61217C1741.16 -1.16941 1732.44 -0.624606 1723.7 -0.734787L1297.06 -0.993923C1296.22 0.546563 1295.42 2.17478 1294.9 3.85809C1293.79 7.48997 1292.77 547.336 1292.77 547.336C1292.77 547.336 1290.91 921.807 1294.32 933.961C1294.32 933.961 1293.97 1106.72 1300.31 1158.29C1302.11 1160.59 1303.3 1162.03 1306.02 1163.29C1324.84 1163.45 1343.66 1163.2 1362.47 1162.56C1394.92 1164.32 1427.9 1162.98 1460.39 1162.83L1551.81 1162.89L1649.98 1162.58L1718.44 1162.66L1730.17 1162.85L1751.35 1162.75C1784.05 1163.24 1816.83 1162.78 1849.53 1162.79L1867.39 1162.8L1933.8 1162.72L1933.92 591.412L1968.8 591.432L1982.28 591.335L1982.29 449.255C1982.27 426.757 1985.49 397.684 1980.35 376.027L1982.33 365.671C1986.78 361.771 1989.75 362.638 1995.49 362.375C1999.42 322.786 1995.09 280.009 1994.82 240.032C1994.23 158.961 1994.57 77.894 1995.82 -3.16897L1969.16 -2.96288Z" fill="#303289"/>
<path d="M1650.02 67.4407L1549.94 66.7656L1550.52 1163.46L1649.85 1163.15L1650.02 67.4407Z" fill="#FF6601"/>
<path d="M1459.6 66.939L1362.92 66.7656C1360.37 70.8521 1359.85 74.1555 1359.69 78.8782C1356.76 166.682 1359.45 255.685 1359.45 343.613L1359.43 862.076V1075.3C1359.45 1095.87 1356.24 1139.75 1360.45 1157.24C1360.93 1159.22 1361.74 1160.82 1362.76 1162.56C1395.14 1164.32 1428.07 1162.98 1460.5 1162.83L1459.6 66.939Z" fill="#FF6601"/>
<path d="M1191.12 322.303L1295.46 337.209L1191.12 238.188V322.303Z" fill="white"/>
<path d="M1191.12 322.303V238.188L959 429.843L1191.12 322.303Z" fill="#A6AEE3"/>
<path fill-rule="evenodd" clip-rule="evenodd" d="M525.66 520.375C513.579 485.62 556.194 456.386 570.997 422.699C581.171 399.545 583.226 374.055 598.733 354.076C616.252 331.506 638.056 313.348 664.42 302.337C697.836 288.382 734.979 269.77 768.642 283.117C802.879 296.691 822.517 334.116 833.353 369.315C843.193 401.276 830.305 433.794 825.203 466.844C819.975 500.718 822.512 536.395 803.195 564.708C781.21 596.931 750.787 633.213 711.779 633.09C672.596 632.966 653.674 584.427 620.158 564.129C589.722 545.697 537.343 553.986 525.66 520.375Z" fill="#E84845"/>
<path fill-rule="evenodd" clip-rule="evenodd" d="M506.048 21.9455C484.573 -39.8352 560.325 -91.8004 586.638 -151.681C604.723 -192.84 608.376 -238.15 635.942 -273.664C667.083 -313.784 705.84 -346.062 752.705 -365.634C812.104 -390.441 878.129 -423.525 937.968 -399.8C998.827 -375.671 1033.73 -309.145 1053 -246.575C1070.49 -189.762 1047.58 -131.959 1038.51 -73.2104C1029.22 -12.9976 1033.73 50.4214 999.388 100.749C960.308 158.029 906.229 222.523 836.888 222.304C767.237 222.084 733.603 135.802 674.026 99.7217C619.923 66.9565 526.815 81.6901 506.048 21.9455Z" fill="#0021FE"/>
<path fill-rule="evenodd" clip-rule="evenodd" d="M1816.89 -34.3243C1858.14 -26.7305 1882.48 13.1235 1913.75 41.0789C1941.14 65.5644 1978.18 83.3774 1988.1 118.743C1997.9 153.687 1981.08 189.989 1964.59 222.322C1950.17 250.588 1918.59 263.554 1900.84 289.851C1867.77 338.827 1874.71 428.78 1816.89 441.054C1764 452.28 1748.29 360.406 1702.3 331.996C1649.76 299.537 1545.27 326.943 1533.93 266.251C1521.88 201.761 1630.34 181.142 1663.53 124.541C1685.56 86.9775 1659.86 31.2464 1690.1 -0.0862046C1721.26 -32.366 1772.75 -42.4474 1816.89 -34.3243Z" fill="#367D57"/>
<path d="M648.383 -24.3214L960.002 -40.0391V929.67H648.383V-24.3214Z" fill="#0021FE"/>
<path d="M692.084 481.383L774.832 481.401C774.661 530.601 774.881 579.798 775.492 628.992L690.754 628.667C690.858 579.57 691.301 530.475 692.084 481.383Z" fill="#E84845"/>
<path d="M690.754 679.673L774.522 679.555C776.018 727.413 775.301 775.497 775.436 823.391C747.71 825.068 719.393 824.152 691.578 824.388L690.754 679.673Z" fill="#E84845"/>
<path d="M826.055 679.708L916.26 679.555C915.196 727.841 914.846 776.132 915.211 824.43L826.647 823.797C825.75 775.801 826.853 727.732 826.055 679.708Z" fill="#E84845"/>
<path d="M734.917 282.098L778.226 281.836L776.625 434.207L736.482 434.912L691.163 433.972C691.824 383.393 691.688 332.813 690.754 282.233L734.917 282.098Z" fill="#E84845"/>
<path d="M689.383 82.6055L777.846 82.2891C776.562 132.732 778.011 183.519 778.222 233.998L690.144 233.357L689.383 82.6055Z" fill="#E84845"/>
<path d="M826.055 481.41L917.627 481.383C915.453 531.446 915.888 581.617 915.824 631.725C886.17 631.184 856.461 631.481 826.806 631.382C828.79 581.644 826.58 531.202 826.055 481.41Z" fill="#E84845"/>
<path d="M824.691 82.2891L916.264 82.5511C914.034 133.263 915.357 184.581 915.13 235.365C885.404 234.524 855.478 235.193 825.725 235.157L824.691 82.2891Z" fill="#E84845"/>
<path d="M826.055 280.93C855.889 282.325 886.363 280.758 916.26 280.469C913.828 332.236 915.188 384.447 915.332 436.278C885.66 435.125 855.979 434.875 826.289 435.527L826.055 280.93Z" fill="#E84845"/>
<path d="M149.52 -52.3359L652.484 -24.3176V929.674H149.52V-52.3359Z" fill="#0021FE"/>
<path d="M142 -141.602V932.607H278.139V17.1558H344.499V932.607H450.537V17.1558H509.371V932.607H639.353V-141.602H142Z" fill="#E07C9B"/>
<path fill-rule="evenodd" clip-rule="evenodd" d="M1188.28 -266.045C1245.68 -274.697 1294.01 -222.768 1336.77 -183.508C1375.37 -148.068 1400.89 -103.262 1419.08 -54.1223C1438.02 -2.97976 1454.15 50.263 1443.09 103.664C1431.19 161.086 1409.33 227.528 1355.78 251.415C1302.44 275.206 1246.66 215.395 1188.28 217.31C1126.31 219.343 1070.72 284.24 1012.6 262.674C953.626 240.794 928.965 171.148 906.015 112.584C881.78 50.7444 842.667 -23.8203 878.379 -79.8215C915.3 -137.72 1010.24 -107.792 1069.1 -143.162C1119.24 -173.289 1130.44 -257.326 1188.28 -266.045Z" fill="#ECA760"/>
<path fill-rule="evenodd" clip-rule="evenodd" d="M1761.67 195.463C1826.59 203.413 1839.85 294.313 1882.01 344.322C1910.98 378.695 1950.05 401.942 1969.78 442.338C1992.07 487.972 2003.96 536.988 2000.88 587.682C1996.97 651.934 1997.57 725.781 1949.9 769.041C1901.42 813.037 1826.32 815.055 1761.67 804.771C1702.96 795.434 1661.17 749.395 1612.43 715.365C1562.47 680.487 1503.56 656.586 1473.51 603.584C1439.32 543.26 1405.26 466.293 1436.01 404.146C1466.91 341.72 1559.18 349.553 1617.82 311.973C1671.08 277.847 1698.88 187.776 1761.67 195.463Z" fill="#E07C9B"/>
<path fill-rule="evenodd" clip-rule="evenodd" d="M835.984 565.289C902.889 570.24 916.557 626.858 960.002 658.007C989.863 679.416 1030.12 693.896 1050.45 719.057C1073.43 747.481 1085.68 778.01 1082.5 809.586C1078.48 849.606 1079.09 895.602 1029.97 922.547C980.009 949.951 902.614 951.207 835.984 944.802C775.483 938.986 732.415 910.311 682.186 889.115C630.705 867.39 569.989 852.503 539.027 819.49C503.787 781.917 468.685 733.978 500.38 695.269C532.216 656.386 627.31 661.265 687.745 637.858C742.627 616.602 771.283 560.5 835.984 565.289Z" fill="#EBA661"/>
<path d="M265.305 394C274.975 400.953 320.677 485.789 329.109 500.56C342.809 524.56 357.637 547.742 369.941 572.521C384.863 602.568 398.923 633.535 410.125 665.16C411.451 668.761 412.81 672.352 414 676H378.842H336.328C326.707 666.702 316.55 653.28 308.192 642.632L272.363 595.702C261.267 581.055 249.946 566.581 238.403 552.28C232.174 544.815 226.079 537.242 220.118 529.56L215 522.84C219.863 507.596 226.545 492.52 232.327 477.571C243.021 449.596 254.014 421.739 265.305 394Z" fill="#16175C"/>
<path d="M378 676C385.42 670.713 400.954 667.326 410.032 665C411.39 668.654 412.782 672.298 414 676H378Z" fill="#071FF5"/>
<path d="M225 517.34C228.555 511.234 234.818 494.963 241.271 493.133C242.368 492.822 242.896 493.106 243.942 493.465C246.21 495.623 246.76 498.675 246.976 501.82C247.298 506.492 244.241 539.512 243.049 542C236.9 533.898 230.884 525.678 225 517.34Z" fill="#071FF5"/>
<path d="M275 589.09C286.855 577.796 326.775 541.834 340.997 543.029C342.849 543.186 344.688 543.905 345.923 545.471C348.272 548.446 348.16 553.621 347.807 557.281C346.059 575.411 320.537 622.072 310.698 640L275 589.09Z" fill="#071FF5"/>
<path d="M1786 54.0898C1774.15 42.7963 1734.22 6.83354 1720 8.02911C1718.15 8.18628 1716.31 8.90473 1715.08 10.4708C1712.73 13.4457 1712.84 18.6209 1713.19 22.2806C1714.94 40.4108 1740.46 87.072 1750.3 105L1786 54.0898Z" fill="#071FF5"/>
<path d="M94.1654 132C113.453 152.936 128.202 178.462 145.631 201.17C161.52 221.874 178.414 241.627 194.338 262.32C199.583 269.137 205.22 275.914 210 283.127L193.916 470.167C193.679 470.605 193.412 470.731 193.03 471C190.342 468.609 186.015 461.055 183.586 457.622C177.239 448.686 170.788 439.843 164.234 431.091C151.859 414.414 139.177 397.997 126.924 381.216C119.694 371.312 112.94 360.978 105.593 351.179C98.2945 341.443 90.3747 332.285 83.0839 322.541C71.4459 306.988 60.9163 290.654 50.2234 274.317C44.128 265.004 37.6833 255.963 32 246.33C40.9056 230.426 48.9832 213.858 57.6375 197.771C69.656 175.74 81.832 153.817 94.1654 132Z" fill="#16175C"/>
<path d="M32.8421 246C38.53 255.656 44.9798 264.719 51.0801 274.054C61.7815 290.43 72.3194 306.803 83.9667 322.393C91.2633 332.16 99.1894 341.341 106.494 351.1C113.846 360.923 120.605 371.281 127.842 381.209C140.105 398.03 152.797 414.486 165.182 431.203C171.741 439.975 178.196 448.84 184.548 457.797C186.98 461.239 191.31 468.811 194 471.207C194.383 470.938 194.65 470.811 194.887 470.372C192.515 506.549 191.371 536.16 199.559 571.709L213.086 531.108C215.424 524.105 217.519 516.855 220.218 510.027L225.229 517.309C231.065 525.634 237.032 533.841 243.13 541.93C254.431 557.428 265.514 573.112 276.378 588.984L311.455 639.84C319.637 651.379 329.582 665.924 339 676H150.42H0V667.186V509.447V473.594V304.216L0.95022 304.18L1.17381 303.307C12.7105 284.939 22.5878 265.262 32.8421 246Z" fill="#367D57"/>
<path d="M0 473L0.936422 473.116L1.2872 474.172C5.89674 480.699 40.0142 526.839 40 530C27.5709 524.158 15.5137 517.044 3.07987 511.073L1.32927 510.429L0 509.16V473Z" fill="#16175C"/>
<path d="M0 510L1.30856 511.254L3.03188 511.891C15.272 517.791 27.1414 524.822 39.3768 530.595C43.3083 533.277 52.4696 548.019 56.028 552.803L115.579 632.924C126.582 647.588 138.334 661.984 150 676H0V667.215V510Z" fill="#D2809B"/>
<path d="M-68.3817 -90.4471C28.5533 -98.4794 127.894 -110.081 225.048 -112C236.297 -107.508 247.933 -103.379 258.584 -97.6072L410.913 -22.5606C437.45 -9.43982 464.352 5.91988 491.816 16.8599C491.583 303.94 488.324 591.426 492.144 878.455C461.517 880.927 431.472 886.015 400.969 889.054C372.134 891.925 343.096 892.528 314.299 895.938C286.164 899.267 258.213 904.85 229.933 906.791C157.151 911.545 82.5397 924.433 10.2978 935.329C-15.6857 939.247 -45.2051 947.563 -71.1375 947.999L-71.3489 789.99L-71.4145 678.082L-71.4219 638.712L-71.3489 518.139L-71.4073 479.155L-71.3052 357.724L-71.3489 319.205L-71.3125 196.08L-71.101 116.156C-69.7596 47.3975 -70.4668 -21.492 -70.3575 -90.2653L-68.3817 -90.4471Z" fill="#EBA661"/>
<path d="M-68.3711 -90.4471C28.5639 -98.4794 127.905 -110.081 225.059 -112C231.11 -37.2661 227.267 39.3361 228.274 114.383C129.757 113.299 30.926 116.243 -67.5182 113.881C-66.9592 71.0949 -66.8329 28.3063 -67.1391 -14.4847C-67.1974 -39.585 -65.9579 -65.4703 -68.3711 -90.4471Z" fill="#FE6501"/>
<path d="M-71.101 116.154C28.8522 118.124 128.922 114.512 228.839 117.143L229.933 906.789C157.151 911.543 82.5397 924.431 10.2978 935.327C-15.6857 939.245 -45.2051 947.561 -71.1375 947.997L-71.3489 789.988L-71.4145 678.08L-71.4219 638.71L-71.3489 518.137L-71.4073 479.153L-71.3052 357.722L-71.3489 319.203L-71.3125 196.079L-71.101 116.154Z" fill="#FDBECD"/>
<path d="M5.26799 517L71.0214 517.015C70.8854 556.719 71.0603 596.42 71.5463 636.119L4.21094 635.858C4.29356 596.236 4.64586 556.617 5.26799 517Z" fill="#DF7C9A"/>
<path d="M3.34375 676.657L71.5177 676.562C72.7352 714.951 72.1519 753.521 72.2612 791.938C49.697 793.283 26.6517 792.549 4.01456 792.738L3.34375 676.657Z" fill="#DF7C9A"/>
<path d="M112.062 676.35L185.369 676.227C184.504 715.044 184.219 753.866 184.516 792.692L112.544 792.184C111.815 753.599 112.711 714.956 112.062 676.35Z" fill="#DF7C9A"/>
<path d="M39.1651 356.789L73.8753 356.578L72.5922 479.194L40.419 479.761L4.09759 479.005C4.62737 438.303 4.51803 397.6 3.76953 356.898L39.1651 356.789Z" fill="#DF7C9A"/>
<path d="M3.00781 196.614L73.3688 196.359C72.3481 236.921 73.5 277.759 73.6677 318.35L3.61298 317.834L3.00781 196.614Z" fill="#DF7C9A"/>
<path d="M112.164 517.037L185.871 517.016C184.122 557.345 184.472 597.761 184.421 638.127C160.551 637.691 136.638 637.93 112.769 637.85C114.366 597.783 112.587 557.149 112.164 517.037Z" fill="#DF7C9A"/>
<path d="M111.598 196.203L185.239 196.414C183.446 237.194 184.51 278.461 184.328 319.299C160.422 318.622 136.356 319.16 112.429 319.131L111.598 196.203Z" fill="#DF7C9A"/>
<path d="M112.02 356.386C136.166 357.506 160.83 356.248 185.027 356.016C183.059 397.581 184.159 439.502 184.276 481.117C160.261 480.192 136.239 479.991 112.209 480.514L112.02 356.386Z" fill="#DF7C9A"/>
<path d="M197.21 696L480 -23H323.405C317.932 -15.0251 300.547 19.3089 274.784 92.8459C242.581 184.767 198.476 489.492 189.636 570.71C182.564 635.685 191.316 682.359 197.21 696Z" fill="#FF6602"/>
<path d="M-68.0739 530L150.426 -48H59.5C55.1667 -41.6667 41.4 -14.4 21 44C-4.5 117 -68.0739 368.5 -75.0739 433C-80.6739 484.6 -72.7406 519.167 -68.0739 530Z" fill="#E84845"/>
<path d="M1897.42 279.559L1927.97 246.699V672H1919.51V640.548C1907.29 634.915 1878.43 622.616 1860.76 618.485C1838.66 613.322 1812.34 642.896 1793.07 640.548C1773.8 638.201 1793.07 594.075 1803.88 576.237C1812.53 561.966 1884.57 553.078 1919.51 550.418V511.456H1874.39C1851.36 511.456 1833.02 541.03 1793.07 567.318C1753.11 593.606 1723.5 578.584 1711.28 567.318C1699.06 556.052 1698.12 508.17 1711.28 481.413C1724.44 454.655 1744.18 425.551 1793.07 411.938C1832.18 401.047 1893.66 428.367 1919.51 443.389C1918.26 439.79 1914.25 428.461 1908.23 411.938C1900.71 391.283 1869.69 375.792 1843.83 370.628C1817.98 365.464 1771.51 414.793 1744.18 411.938C1711.28 408.5 1701.04 399.808 1686.47 381.5C1671.9 363.192 1677.86 298.915 1711.28 279.559C1744.18 260.5 1808.11 269.858 1843.83 279.559C1838.97 271.423 1824.18 250.83 1803.88 233.555C1778.5 211.962 1744.18 151.875 1744.18 116.668C1744.18 81.4614 1763.45 52.3567 1803.88 42.4988C1844.3 32.6408 1865.92 73.0115 1888.96 116.668C1907.38 151.594 1902.27 239.815 1897.42 279.559Z" fill="#C7ECC4"/>
<path d="M229 0H300C291.531 19.9584 278.517 40.8153 272.078 61.5329L263.07 90.6986C261.663 95.3342 260.634 100.668 258.575 105C254.549 98.5766 252.69 87.6331 250.562 80.1581C242.987 53.5403 236.611 26.5866 229 0Z" fill="#071FF5"/>
<path d="M221.614 1H229.067C235.767 23.8545 248.277 56.0245 254.945 78.9058C256.818 85.3314 258.454 94.7387 261.998 100.26C260.38 108.986 256.957 117.641 254.638 126.231L240.19 195C237.737 192.476 231.585 187.796 230.05 184.613C225.875 166.665 222.755 148.75 221.613 130.346C219.149 90.6692 217.738 40.5337 221.614 1Z" fill="#DAA671"/>
<path d="M142 -23H149.085C152.827 18.7004 158.022 60.1619 162.109 101.814C162.336 107.556 162.525 113.296 163.045 119.021C163.392 129.77 165.922 151.241 160.983 160.421C159.376 163.408 156.548 165.855 153.214 166.684C150.029 167.477 146.769 166.714 143.978 165.108C125.385 154.415 110.919 96.7834 105 75.5C116.5 47 127.869 6.04175 142 -23Z" fill="#071FF5"/>
<path d="M1280.17 -85H1366.12C1366.55 -83.8143 1366.84 -83.1325 1366.77 -81.8517C1366.41 -75.1614 1362.4 -66.1371 1360.67 -59.466C1357.37 -46.5231 1354.54 -33.475 1352.2 -20.3218C1346.93 8.653 1344.05 38.04 1339.1 67.074C1334.72 92.728 1328.07 118.278 1322.73 143.773C1318.96 161.731 1316.51 181.427 1310.53 198.701C1305.41 213.498 1297.28 228.214 1290.3 242.25C1285.9 251.096 1281.64 262.241 1274.09 268.773C1274.51 267.952 1274.88 267.132 1275.27 266.303C1277.81 260.911 1276.46 138.804 1275.77 124.94C1273.81 85.04 1267.91 45.908 1269.17 5.7662C1269.57 -6.9568 1270.86 -19.9289 1272.45 -32.5572C1273.57 -41.5093 1281.6 -79.1928 1280.17 -85Z" fill="#367D57"/>
<path d="M1214.61 -21.189L1268.54 -3.65465C1268.57 -2.82298 1268.61 -2.33598 1268.31 -1.54665C1266.72 2.5778 1262.36 7.42206 1259.91 11.2549C1255.2 18.7015 1250.77 26.3126 1246.61 34.0882C1237.4 51.1935 1229.59 69.045 1220.57 86.2527C1212.58 101.456 1203.2 116.131 1194.65 131.038C1188.62 141.537 1183.06 153.396 1175.79 163.014C1169.55 171.254 1161.45 178.829 1154.21 186.212C1149.64 190.865 1144.7 196.989 1138.63 199.547C1139.06 199.118 1139.46 198.679 1139.87 198.238C1142.56 195.373 1166.63 118.481 1169.02 109.641C1175.93 84.206 1180.21 58.4488 1189.19 33.5186C1192.04 25.6171 1195.5 17.7409 1199.07 10.1416C1201.6 4.75301 1214.33 -17.2535 1214.61 -21.189Z" fill="#367D57"/>
<path d="M1193.57 -36.956L1226.04 9.53105C1225.57 10.2117 1225.31 10.6261 1224.59 11.0722C1220.83 13.4056 1214.44 14.6468 1210.17 16.2319C1201.92 19.3343 1193.8 22.7378 1185.8 26.4424C1168.14 34.5408 1151.16 44.0877 1133.58 52.3816C1118.05 59.7066 1101.72 65.7645 1085.91 72.5102C1074.78 77.257 1063.2 83.3744 1051.6 86.6674C1041.66 89.4896 1030.63 90.6532 1020.4 92.1818C1013.95 93.1447 1006.31 95.052 999.927 93.4368C1000.53 93.3537 1001.11 93.244 1001.71 93.1416C1005.58 92.4779 1071.12 45.6068 1078.36 39.9948C1099.2 23.8576 1118.13 5.87961 1140.32 -8.6074C1147.35 -13.1987 1154.85 -17.4028 1162.28 -21.3147C1167.55 -24.0917 1190.97 -33.9882 1193.57 -36.956Z" fill="#367D57"/>
<path d="M432.983 -69.5383L365.519 -52.9475C365.411 -51.9339 365.315 -51.3427 365.617 -50.3509C367.191 -45.1691 372.08 -38.8599 374.726 -33.9576C379.82 -24.4368 384.555 -14.7402 388.93 -4.8678C398.66 16.8576 406.593 39.3679 416.082 61.2015C424.472 80.4922 434.624 99.263 443.736 118.244C450.162 131.611 455.887 146.598 463.915 159.002C470.79 169.628 480.012 179.61 488.2 189.279C493.361 195.373 498.856 203.299 506.043 206.969C505.555 206.405 505.106 205.833 504.64 205.258C501.606 201.516 479.095 105.412 476.961 94.3967C470.797 62.7004 467.875 30.8464 459.137 -0.418138C456.367 -10.3274 452.851 -20.2603 449.165 -29.8655C446.558 -36.6759 432.981 -64.7041 432.983 -69.5383Z" fill="#303289"/>
<path d="M496.761 -32.1072L457.815 -7.93427C457.954 -7.2761 458.014 -6.88559 458.406 -6.32494C460.451 -3.39468 464.806 -0.433402 467.466 2.10284C472.604 7.03754 477.553 12.1558 482.313 17.4577C492.85 29.1045 502.42 41.6103 512.828 53.374C522.028 63.7664 532.227 73.4733 541.817 83.5237C548.576 90.6005 555.225 98.8361 562.793 104.981C569.275 110.246 577.097 114.628 584.208 119.025C588.689 121.795 593.754 125.647 599.012 126.484C598.591 126.23 598.193 125.962 597.783 125.696C595.115 123.968 561.385 68.259 557.799 61.7829C547.465 43.1523 539.133 23.7615 527.272 5.92695C523.513 0.274423 519.28 -5.24066 515.008 -10.5156C511.983 -14.257 497.746 -29.0737 496.761 -32.1072Z" fill="#303289"/>
<path d="M510.235 -48.5425L493.716 -5.78504C494.223 -5.34325 494.507 -5.06798 495.157 -4.85665C498.555 -3.74988 503.815 -4.0103 507.466 -3.58876C514.54 -2.74615 521.574 -1.64288 528.567 -0.278965C543.994 2.6682 559.166 6.88355 574.561 10.0013C588.165 12.753 602.153 14.3554 615.863 16.5989C625.521 18.1749 635.79 20.7416 645.532 21.0867C653.877 21.3836 662.761 20.1675 671.085 19.3928C676.331 18.9041 682.694 18.927 687.394 16.4265C686.905 16.4777 686.426 16.5041 685.939 16.5388C682.768 16.766 622.284 -7.37398 615.519 -10.3818C596.047 -19.0255 577.714 -29.4815 557.503 -36.5698C551.096 -38.8161 544.395 -40.6675 537.807 -42.3036C533.139 -43.467 512.849 -46.715 510.235 -48.5425Z" fill="#303289"/>
<path d="M889.358 822.784L836.407 809.762C836.322 808.966 836.246 808.502 836.483 807.724C837.719 803.656 841.556 798.704 843.633 794.857C847.631 787.384 851.347 779.773 854.782 772.025C862.418 754.973 868.645 737.305 876.093 720.168C882.678 705.027 890.646 690.294 897.798 675.396C902.842 664.904 907.335 653.141 913.636 643.405C919.032 635.065 926.27 627.231 932.697 619.641C936.748 614.858 941.061 608.637 946.702 605.757C946.319 606.199 945.967 606.648 945.601 607.1C943.219 610.037 925.551 685.467 923.875 694.113C919.038 718.991 916.744 743.993 909.886 768.532C907.712 776.31 904.952 784.106 902.059 791.645C900.013 796.99 889.357 818.989 889.358 822.784Z" fill="#303289"/>
<path d="M939.416 793.408L908.849 774.435C908.957 773.919 909.005 773.612 909.312 773.172C910.917 770.872 914.335 768.548 916.423 766.557C920.456 762.684 924.341 758.667 928.076 754.505C936.347 745.364 943.858 735.548 952.028 726.315C959.248 718.158 967.253 710.539 974.78 702.651C980.085 697.097 985.304 690.633 991.244 685.809C996.332 681.677 1002.47 678.238 1008.05 674.787C1011.57 672.612 1015.55 669.589 1019.67 668.932C1019.34 669.132 1019.03 669.342 1018.71 669.55C1016.61 670.907 990.139 714.632 987.324 719.715C979.214 734.338 972.674 749.558 963.365 763.556C960.414 767.992 957.091 772.321 953.738 776.461C951.364 779.398 940.19 791.027 939.416 793.408Z" fill="#303289"/>
<path d="M949.994 806.309L937.028 772.749C937.426 772.402 937.649 772.186 938.159 772.02C940.826 771.152 944.955 771.356 947.82 771.025C953.373 770.364 958.893 769.498 964.382 768.427C976.491 766.114 988.399 762.805 1000.48 760.358C1011.16 758.199 1022.14 756.941 1032.9 755.18C1040.48 753.943 1048.54 751.928 1056.19 751.658C1062.74 751.425 1069.71 752.379 1076.24 752.987C1080.36 753.371 1085.35 753.353 1089.04 755.315C1088.66 755.275 1088.28 755.254 1087.9 755.227C1085.41 755.049 1037.94 773.996 1032.63 776.357C1017.35 783.141 1002.96 791.348 987.094 796.911C982.065 798.675 976.806 800.128 971.635 801.412C967.971 802.325 952.046 804.874 949.994 806.309Z" fill="#303289"/>
<path d="M866.322 894.367L959.019 896.226C959.509 894.956 959.836 894.227 959.788 892.844C959.545 885.621 955.415 875.802 953.694 868.569C950.407 854.539 947.644 840.405 945.405 826.169C940.348 794.805 937.878 763.049 933.167 731.629C928.998 703.866 922.379 676.166 917.171 648.554C913.494 629.105 911.277 607.81 905.201 589.05C899.999 572.981 891.55 556.934 884.325 541.645C879.771 532.009 875.418 519.897 867.416 512.689C867.852 513.584 868.233 514.476 868.635 515.379C871.258 521.249 867.161 652.913 866.117 667.85C863.14 710.84 855.931 752.917 856.421 796.237C856.577 809.967 857.688 823.986 859.13 837.64C860.144 847.319 867.989 888.135 866.322 894.367Z" fill="#367D57"/>
<path d="M796.99 824.123L855.533 806.378C855.581 805.482 855.638 804.958 855.326 804.1C853.699 799.617 849.105 794.298 846.549 790.112C841.625 781.978 837.008 773.674 832.699 765.198C823.128 746.55 815.099 727.129 805.733 708.375C797.454 691.806 787.649 675.776 778.749 659.513C772.474 648.059 766.738 635.15 759.099 624.619C752.557 615.597 743.981 607.252 736.329 599.133C731.506 594.016 726.304 587.304 719.813 584.414C720.268 584.886 720.689 585.368 721.126 585.853C723.969 589.001 748.259 672.45 750.651 682.035C757.554 709.617 761.614 737.489 770.759 764.57C773.658 773.154 777.215 781.723 780.905 789.996C783.516 795.863 796.765 819.872 796.99 824.123Z" fill="#367D57"/>
<path d="M773.954 840.674L809.988 791.24C809.486 790.496 809.215 790.043 808.45 789.547C804.451 786.949 797.579 785.472 793.017 783.67C784.187 780.146 775.499 776.299 766.952 772.131C748.078 763.015 729.969 752.351 711.195 743.026C694.604 734.79 677.121 727.903 660.219 720.286C648.31 714.926 635.954 708.078 623.512 704.275C612.855 701.016 600.983 699.523 589.984 697.653C583.052 696.475 574.856 694.253 567.934 695.857C568.582 695.959 569.209 696.09 569.849 696.214C574.015 697.013 643.679 748.981 651.363 755.191C673.49 773.045 693.523 792.844 717.139 808.949C724.624 814.052 732.626 818.749 740.556 823.129C746.174 826.237 771.214 837.417 773.954 840.674Z" fill="#367D57"/>
<path d="M1424 -23H1694.28L1694.41 -21.225C1688.78 -9.703 1677.55 1.5281 1669.89 11.9784C1642.45 49.3743 1614.56 96.714 1572.59 119.173C1549.12 131.73 1514.82 135.876 1489.57 127.886C1432.9 109.949 1425.24 56.7876 1425.6 5.2319C1425.65 -1.5595 1427.65 -16.6239 1424.32 -22.4926C1424.22 -22.6667 1424.1 -22.8309 1424 -23Z" fill="#E84845"/>
<path d="M1928 -23H1762.08L1762 -21.9119C1765.46 -14.8489 1772.35 -7.96426 1777.05 -1.55822C1793.9 21.3655 1811.02 50.3847 1836.78 64.1521C1851.19 71.8496 1872.25 74.3911 1887.75 69.4932C1922.54 58.4978 1927.24 25.9098 1927.02 -5.69383C1926.99 -9.85696 1925.76 -19.0914 1927.8 -22.689C1927.86 -22.7957 1927.94 -22.8963 1928 -23Z" fill="#E84845"/>
<path d="M1658.18 -134.72L1712.11 -117.186C1712.14 -116.354 1712.18 -115.867 1711.88 -115.078C1710.29 -110.953 1705.93 -106.109 1703.48 -102.276C1698.77 -94.8298 1694.34 -87.2187 1690.18 -79.443C1680.97 -62.3377 1673.16 -44.4862 1664.14 -27.2785C1656.15 -12.0753 1646.77 2.5995 1638.22 17.5071C1632.19 28.0058 1626.63 39.8643 1619.36 49.483C1613.12 57.723 1605.02 65.2981 1597.78 72.6811C1593.21 77.3339 1588.27 83.4578 1582.2 86.0161C1582.63 85.5867 1583.03 85.1476 1583.44 84.707C1586.13 81.842 1610.2 4.94986 1612.59 -3.88995C1619.5 -29.3253 1623.78 -55.0825 1632.76 -80.0126C1635.61 -87.9141 1639.07 -95.7904 1642.64 -103.39C1645.17 -108.778 1657.9 -130.785 1658.18 -134.72Z" fill="#367D57"/>
<path d="M290.032 439.494C311.349 385.499 336.17 333.328 358.956 280C383.278 317.083 404.668 355.919 425.571 394.999C455.418 451.217 483.966 508.087 511.213 565.61C521.443 587.087 530.638 609.102 541.151 630.429C554.501 657.52 571.155 682.452 585.679 708.849C599.938 734.757 611.8 762.343 623 789.704H474.269H430.707H378.031C366.111 778.156 353.526 761.488 343.171 748.264L298.777 689.983C285.029 671.794 271.003 653.819 256.7 636.058C248.982 626.788 241.43 617.383 234.045 607.843L227.703 599.497C233.729 580.567 242.007 561.843 249.171 543.278C262.422 508.537 276.042 473.942 290.032 439.494Z" fill="#367D57"/>
<path d="M290.032 439.492C302.013 448.126 358.64 553.483 369.087 571.827C386.061 601.632 404.434 630.421 419.679 661.194C438.168 698.508 455.589 736.966 469.468 776.24C471.111 780.713 472.795 785.172 474.269 789.702H430.707H378.031C366.111 778.155 353.526 761.487 343.171 748.263L298.777 689.981C285.029 671.792 271.003 653.817 256.7 636.057C248.982 626.786 241.43 617.381 234.045 607.841L227.703 599.496C233.729 580.565 242.007 561.842 249.171 543.277C262.422 508.536 276.042 473.941 290.032 439.492Z" fill="#16175C"/>
<path d="M234.047 607.84C238.509 600.855 246.371 582.238 254.47 580.145C255.847 579.789 256.511 580.113 257.823 580.525C260.67 582.993 261.36 586.486 261.632 590.084C262.035 595.429 258.199 633.209 256.702 636.056C248.984 626.786 241.433 617.38 234.047 607.84Z" fill="#071FF5"/>
<path d="M298.777 689.982C313.52 677.053 363.165 635.883 380.851 637.252C383.154 637.432 385.442 638.254 386.977 640.047C389.899 643.453 389.759 649.377 389.32 653.567C387.147 674.322 355.407 727.739 343.171 748.263L298.777 689.982Z" fill="#071FF5"/>
<path d="M-9.43556 296.922C-2.23714 307.988 5.92565 318.374 13.646 329.072C27.1895 347.839 40.5261 366.603 55.2668 384.469C64.5012 395.662 74.5324 406.183 83.7771 417.368C93.0815 428.624 101.636 440.494 110.795 451.872C126.314 471.15 142.377 490.008 158.051 509.166C166.352 519.219 174.522 529.378 182.561 539.643C185.638 543.587 191.119 552.265 194.523 555.011C195.008 554.702 195.346 554.557 195.645 554.054C192.643 595.513 191.195 629.447 201.558 670.187L218.678 623.658C221.637 615.632 224.288 607.324 227.704 599.499L234.046 607.844C241.432 617.384 248.983 626.789 256.701 636.06C271.004 653.82 285.03 671.795 298.779 689.984L343.172 748.266C353.527 761.49 366.113 778.158 378.032 789.705H139.369H-51V779.604V598.834V557.747V363.638L-49.7974 363.596L-49.5144 362.597C-34.9138 341.547 -22.4132 318.997 -9.43556 296.922Z" fill="#367D57"/>
<path d="M-51 485.836L-49.3393 487.278L-47.1522 488.01C-31.6179 494.795 -16.5542 502.878 -1.02596 509.516C3.96362 512.6 15.5905 529.551 20.1065 535.052L95.6846 627.178C109.648 644.039 124.563 660.591 139.369 676.707H-51V666.606V485.836Z" fill="#D2809B"/>
<path d="M1506.97 787.58C1507.02 787.4 1507.1 787.22 1507.13 787.03C1505.55 783.23 1502.55 778.45 1500.38 775.47C1495.55 768.81 1491.24 761.5 1485.83 755.31C1475.2 743.17 1462.43 732.91 1451.71 720.78C1443.24 711.2 1435.54 700.92 1428.14 690.5C1409.84 664.71 1394.54 637.69 1380.16 609.56C1373.66 596.87 1366.16 576.87 1358 566C1376.2 571.61 1394.09 582.77 1411.1 591.45C1439.2 605.997 1467.54 620.05 1496.13 633.61L1650.46 704.66L1702.69 728.15C1711.58 732.16 1721.39 735.82 1729.79 740.74C1741.96 745.9 1817.83 782.05 1821.94 786.85L1822.05 787.58H1506.97Z" fill="#071FF5"/>
<path d="M24.2302 525.593L3 502.783V798H8.87796V776.168C17.37 772.258 37.4244 763.721 49.7052 760.854C65.0563 757.269 83.3469 777.798 96.7383 776.168C110.13 774.539 96.7383 743.909 89.2272 731.527C83.2184 721.622 33.1574 715.452 8.87796 713.606V686.561H40.2333C56.2364 686.561 68.9757 707.089 96.7383 725.336C124.501 743.584 145.078 733.157 153.571 725.336C162.064 717.516 162.715 684.28 153.571 665.706C144.427 647.133 130.708 626.931 96.7383 617.481C69.5627 609.922 26.8416 628.886 8.87796 639.313C9.74893 636.815 12.5361 628.951 16.7168 617.481C21.9427 603.144 43.4995 592.391 61.4647 588.807C79.4299 585.222 111.716 619.463 130.708 617.481C153.571 615.095 160.683 609.061 170.809 596.353C180.934 583.645 176.791 539.028 153.571 525.593C130.707 512.363 86.2877 518.859 61.4647 525.593C64.8397 519.945 75.1173 505.651 89.2272 493.66C106.865 478.671 130.708 436.962 130.708 412.524C130.708 388.086 117.316 367.883 89.2272 361.04C61.138 354.198 46.1136 382.22 30.1093 412.524C17.3059 436.767 20.8551 498.004 24.2302 525.593Z" fill="#FF6601"/>
<path d="M970.66 234.433L960.521 223.459L959.999 365.008L962.817 365.018L962.856 354.551C966.934 352.691 976.565 348.633 982.458 347.28C989.825 345.588 998.559 355.464 1004.98 354.706C1011.41 353.949 1005.04 339.239 1001.46 333.289C998.597 328.528 974.605 325.482 962.966 324.554L963.014 311.586L978.048 311.642C985.721 311.67 991.793 321.535 1005.07 330.333C1018.35 339.132 1028.24 334.169 1032.32 330.434C1036.41 326.699 1036.78 310.765 1032.43 301.843C1028.08 292.922 1021.53 283.211 1005.26 278.62C992.247 274.947 971.729 283.964 963.098 288.932C963.52 287.736 964.87 283.97 966.895 278.478C969.426 271.613 979.781 266.496 988.401 264.809C997.021 263.122 1012.44 279.597 1021.55 278.68C1032.52 277.576 1035.94 274.696 1040.82 268.621C1045.69 262.545 1043.79 241.145 1032.68 234.662C1021.74 228.279 1000.43 231.314 988.513 234.499C990.141 231.797 995.094 224.962 1001.88 219.237C1010.36 212.082 1021.87 192.126 1021.91 180.408C1021.96 168.691 1015.57 158.981 1002.12 155.65C988.66 152.319 981.406 165.729 973.679 180.23C967.497 191.832 969.091 221.2 970.66 234.433Z" fill="#367D57"/>
<path d="M486.712 301.836L487.463 302.667C494.358 302.773 500.707 303.372 505.721 308.642C506.54 309.502 508.07 310.872 508.174 312.098C505.617 311.864 503.247 308.511 500.9 307.343C496.906 305.356 487.674 305.1 485.465 303.403C486.071 302.921 486.328 302.499 486.712 301.836Z" fill="#131762" fill-opacity="0.984314"/>
<path d="M318.085 483.816C318.026 479 318.768 474.236 318.837 469.421L319.154 469.344C320.522 473.141 321.049 479.504 319.68 483.337C319.631 483.475 319.592 483.616 319.547 483.755L319.464 484.004L318.085 483.816Z" fill="#131762"/>
<path d="M616.713 408.635C618.178 408.473 619.552 408.243 620.815 409.058C619.727 410.876 615.534 411.572 613.839 413.396C609.619 417.943 610.137 423.466 604.129 427.487C602.943 427.957 602.168 428.123 601.001 427.628L600.969 426.621C602.667 424.892 604.51 423.742 605.962 421.709C609.563 416.667 610.427 411.059 616.713 408.635Z" fill="#131762"/>
<path d="M388.504 209.5C419.365 208.485 454.739 215.604 478.501 236.936C490.381 247.6 499.72 260.45 509.646 272.898C516.614 281.639 525.83 288.536 530.828 298.795C537.959 313.433 534.198 328.248 548.491 339.798C555.55 345.502 564.091 348.814 572.08 352.881C578.486 356.143 584.733 359.874 591.505 362.31C603.468 366.612 624.658 368.767 633.751 377.525C634.81 378.546 635.433 379.289 635.502 380.772C631.37 378.737 627.897 375.604 623.565 373.831C614.899 370.286 605.442 368.849 596.502 366.13C585.736 362.856 555.78 348.669 547.047 341.922C529.928 328.701 536.026 313.443 527.206 297.621C523.158 290.363 516.729 285.242 511.43 279.033C497.392 262.583 487.015 245.604 468.845 232.806C456.894 224.389 443.353 219.133 429.222 215.956C419.3 213.726 408.921 212.917 398.805 212.202C395.922 211.998 392.982 212.117 390.115 211.765C389.112 211.642 388.794 211.684 388.004 210.992C388.504 209.992 388.372 209.992 388.504 209.5Z" fill="#131762"/>
<path d="M388.504 209.5C419.365 208.485 454.739 215.604 478.501 236.936C490.381 247.6 499.72 260.45 509.646 272.898C516.614 281.639 525.83 288.536 530.828 298.795C537.959 313.433 534.198 328.248 548.491 339.798C555.55 345.502 564.091 348.814 572.08 352.881C578.486 356.143 584.733 359.874 591.505 362.31C603.468 366.612 624.658 368.767 633.751 377.525C634.81 378.546 635.433 379.289 635.502 380.772C631.37 378.737 627.897 375.604 623.565 373.831C614.899 370.286 605.442 368.849 596.502 366.13C585.736 362.856 555.78 348.669 547.047 341.922C529.928 328.701 536.026 313.443 527.206 297.621C523.158 290.363 516.729 285.242 511.43 279.033C497.392 262.583 487.015 245.604 468.845 232.806C456.894 224.389 443.353 219.133 429.222 215.956C419.3 213.726 408.921 212.917 398.805 212.202C395.922 211.998 392.982 212.117 390.115 211.765C389.112 211.642 388.794 211.684 388.004 210.992C388.504 209.992 388.372 209.992 388.504 209.5Z" stroke="#131762"/>
<path d="M486.71 301.829C488.661 299.544 490.87 299.091 493.759 298.897C497.786 298.628 510.707 299.833 514.565 301.09C516.631 301.763 518.53 302.818 520.15 304.298C521.892 305.888 523.104 307.842 523.173 310.281C523.313 315.307 521.004 320.173 520.905 325.369C511.781 319.59 510.202 312.337 497.823 315.323C485.31 318.341 472.673 324.638 462.37 332.483C459.663 334.546 456.173 341.231 454.07 341.257C453.382 340.47 452.889 340.086 452.995 338.928C453.423 334.299 459.631 330.629 462.001 326.982C464.742 322.764 465.161 317.812 469.565 314.662C476.705 309.553 487.602 313.422 493.101 310.856L493.203 310.198C489.489 306.574 480.434 308.409 479.588 306.492C480.977 304.92 483.568 304.187 485.464 303.396C486.07 302.914 486.327 302.493 486.71 301.829ZM486.71 301.829C486.327 302.493 486.07 302.914 485.464 303.396C487.673 305.093 496.905 305.349 500.899 307.337C503.246 308.505 505.616 311.857 508.173 312.092C508.069 310.866 506.539 309.496 505.72 308.635C500.706 303.365 494.356 302.767 487.462 302.66L486.71 301.829Z" fill="#131762"/>
<path d="M508.437 339.437C509.054 339.353 509.696 339.274 510.319 339.332C513.584 339.636 525.54 358.409 528.497 361.742C532.17 359.454 535.142 354.832 539.264 353.529C540.168 353.243 541.344 353.127 542.19 353.644C542.791 354.012 542.68 354.236 542.844 354.887C541.921 357.137 540.865 359.309 539.569 361.362C536.199 366.707 532.054 369.696 526.019 371.038C526.207 374.139 526.116 377.169 525.982 380.269C527.761 379.945 529.657 379.866 531.353 380.614C533.52 381.57 537.496 384.071 538.217 386.571C538.555 387.742 538.23 388.293 537.736 389.303C536.665 389.558 536.33 389.063 535.416 388.492C534.694 389.002 535.354 392.589 535.099 393.843C534.949 394.582 534.908 394.53 534.289 394.928C533.203 394.409 532.871 393.56 532.33 392.528C532.025 391.949 532.096 392.065 531.581 391.814C531.394 391.94 531.284 395.994 530.717 396.738C530.326 397.252 530.26 397.114 529.68 397.163C528.292 395.126 529.399 392.591 528.097 390.65C526.985 390.756 526.067 391.494 525.103 392.034C521.269 394.183 517.699 393.664 513.545 393.021C499.917 388.803 485.653 385.77 472.312 380.659C467.976 378.998 451.06 371.865 449.347 367.411C449.021 366.57 449.274 366.311 449.603 365.57C454.207 364.118 461.476 372.381 469.576 369.211C473.405 367.713 476.575 363.969 479.438 361.084C487.76 352.701 496.934 342.847 508.437 339.437ZM521.383 371.59C521.279 374.319 521.343 377.601 519.227 379.645C518.281 380.562 517.758 380.547 516.543 380.551C515.135 379.839 514.33 378.751 513.824 377.253C513.338 375.807 513.202 374.272 513.055 372.76C511.223 373.862 508.26 375.095 507.013 376.851C507.114 377.695 507.335 377.965 507.848 378.594C511.189 381.001 515.241 381.738 518.058 384.769L518.833 384.755C520.554 381.904 523.847 376.779 522.929 373.238C522.673 372.245 522.438 372.061 521.541 371.645C521.491 371.621 521.437 371.609 521.383 371.59Z" fill="#131762"/>
<path d="M523.353 507.581L524.458 508.481L524.622 508.614L524.641 508.825C524.784 510.47 525.176 513.137 525.31 515.676C525.377 516.958 525.382 518.242 525.259 519.4C525.136 520.551 524.883 521.62 524.403 522.442L524.021 523.099L523.569 522.487C522.201 520.635 522.308 518.412 522.562 516.328C522.693 515.257 522.86 514.242 522.935 513.23C523.008 512.23 522.983 511.297 522.746 510.445L522.747 510.444C522.491 509.529 522.476 508.838 522.538 507.935L522.604 506.972L523.353 507.581Z" fill="#131762" fill-opacity="0.980392" stroke="#131762"/>
<path d="M468.029 498.609L468.388 498.902C468.502 499.002 468.609 499.105 468.705 499.22C468.858 499.403 468.975 499.606 469.076 499.855L469.173 500.122L469.247 500.371C469.603 501.674 469.758 503.854 469.726 505.97C469.708 507.109 469.635 508.251 469.504 509.257C469.374 510.253 469.182 511.151 468.911 511.784L468.686 512.312L468.193 512.016L467.325 511.494L467.212 511.426L467.146 511.31C466.767 510.632 466.598 509.665 466.533 508.623C466.467 507.564 466.507 506.356 466.592 505.151C466.677 503.945 466.809 502.727 466.932 501.647C467.055 500.561 467.168 499.626 467.219 498.962L467.29 498.021L468.029 498.609Z" fill="#131762" fill-opacity="0.980392" stroke="#131762"/>
<path d="M486.025 501.39C486.051 501.413 486.071 501.429 486.119 501.47L486.269 501.612L486.271 501.615L486.376 501.74C486.885 502.387 487.187 503.361 487.374 504.42C487.578 505.572 487.661 506.917 487.675 508.268C487.703 510.97 487.457 513.757 487.324 515.184L487.25 515.978L486.567 515.564L485.357 514.833L485.236 514.76L485.172 514.634C484.781 513.876 484.558 512.861 484.442 511.759C484.325 510.647 484.312 509.405 484.365 508.164C484.471 505.685 484.841 503.169 485.2 501.644L485.396 500.812L486.025 501.39Z" fill="#131762" fill-opacity="0.980392" stroke="#131762"/>
<path d="M632.047 481.689C633.363 476.097 634.751 470.513 635.821 464.865L635.452 464.29L635.993 464.186L636.294 462.832C638.954 464.657 637.461 469.078 640.793 470.681L641.419 470.227C641.623 467.381 638.955 462.537 637.176 460.408C631.324 453.407 619.647 451.652 620.413 440.304C620.85 433.818 624.629 421.937 627.212 415.74C628.934 411.603 631.283 407.848 632.486 403.487C633.16 401.044 632.169 393.195 633.842 392C635.719 395.763 634.896 403.333 633.626 407.264C630.982 415.456 620.708 436.99 624.422 444.848C629.017 454.575 641.467 451.654 644.824 468.675C645.659 472.907 645.745 476.744 644.422 480.872C642.834 485.826 640.892 491.168 638.773 495.912C648.849 504.451 655.17 514.774 656.401 528.302C656.994 534.801 656.032 541.86 653.525 547.894C657.33 552.147 660.957 558.653 660.628 564.619C660.467 567.557 659.261 569.948 657.07 571.846C654.642 573.948 650.213 575.605 649.27 578.883C649.5 589.154 665.779 596.764 661.362 619.809C660.181 625.972 657.631 631.563 653.403 636.165C652.096 637.589 650.326 638.682 648.589 639.477L648.03 639.21C648.124 632.01 662.095 625.934 657.892 605.925C655.926 596.557 646.819 587.392 645.602 580.047C645.277 578.086 645.896 576.366 647.273 574.976C650.814 571.405 656.969 570.848 657.089 564.696C657.188 559.62 654.534 554.776 652.013 550.583C648.853 556.166 644.346 560.129 638.186 561.828C628.589 564.474 616.607 561.801 608.165 556.706C605.236 554.937 602.638 552.819 600.155 550.446C588.579 553.307 577.168 556.625 565.53 559.287C538.06 565.569 510.334 570.995 483.205 578.744C450.906 587.972 419.062 598.734 386.688 607.72C370.537 612.204 350.898 617.674 334.291 619.377C339.466 623.479 343.45 628.731 348.923 632.563C360.504 640.674 374.025 645.423 386.994 650.644C398.735 655.372 410.42 661.157 422.694 664.24C448.276 670.665 492.979 665.27 519.713 662.908C527.915 662.184 536.103 661.443 544.329 661.063C555.092 660.564 565.986 660.465 576.687 659.088C588.606 657.552 599.89 653.57 611.623 651.25C616.156 650.353 620.799 651.033 625.229 649.565C631.432 647.51 636.785 643.077 643.029 641.187C640.446 644.904 637.62 647.276 633.69 649.414C626.325 653.424 617.567 655.887 609.695 658.73C597.508 663.27 585.232 667.543 572.868 671.551C560.926 675.429 548.979 678.872 537.239 683.386C525.088 688.166 513.424 693.967 502.245 700.788C486.18 710.423 471.129 723.02 457.103 735.477C451.071 740.837 445.689 746.915 439.884 752.521C432.871 759.293 434.485 759.804 427.651 766.791C421.593 772.984 420.553 776.947 414.146 782.767C411.139 785.498 408.949 796.034 405.165 796.773L404.444 796.358C404.359 795.313 404.347 795.02 405.022 794.194C408.467 789.991 409.929 782.713 413.907 778.578C420.334 771.898 421.83 767.606 428.341 761.01C433.926 755.349 431.071 756.022 436.84 750.557C462.08 726.647 487.563 703.543 518.813 688.096C527.135 683.983 535.905 680.448 544.641 677.363C551.733 674.86 582.279 667.004 586.434 663.011C566.636 666.337 547.088 666.049 527.227 668.008C494.195 671.269 448.671 679.486 416.586 671.357C405.188 668.469 394.752 663.253 383.809 659.075C369.464 653.597 355.217 648.92 342.623 639.692C335.677 634.605 329.772 628.666 324.209 622.064C321.753 622.106 319.241 622.261 316.789 622.12C312.174 619.221 309.676 614.826 308.409 609.5C308.199 608.615 308.06 607.718 307.941 606.816C305.633 606.26 303.197 605.551 300.815 605.559C293.587 605.582 280.815 611.785 272.441 613.603C243.547 619.872 219.387 615.139 196.37 595.667C189.416 589.785 182.701 582.834 177.943 574.947C175.893 571.55 172.96 566.249 173.938 562.134C174.197 561.048 174.797 560.296 175.755 559.804C176.997 559.168 178.567 559.645 179.794 560.126C184.814 562.096 188.856 567.787 192.531 571.649C204.568 584.294 219.237 595.799 236.682 598.707C248.581 600.69 262.294 598.132 273.764 594.887C289.163 590.528 302.383 582.261 317.722 593.542C320.718 595.745 323.136 598.433 325.584 601.221C385.243 590.956 441.074 569.993 499.625 555.687C520.071 550.794 540.62 546.41 561.273 542.534C571.719 540.494 588.381 538.565 597.879 534.607C591.529 533.649 585.088 533.284 578.705 532.598C569.444 531.534 560.213 530.246 551.011 528.734C526.408 524.519 501.954 519.35 477.425 514.724C464.109 512.212 450.777 510.128 437.434 507.835C429.198 506.419 421.032 504.762 412.758 503.553C403.873 502.252 394.952 501.227 386.057 499.991C379.379 499.064 372.713 497.846 366.009 497.143L329.51 493.048C324.439 492.44 318.288 492.381 313.457 490.785C313.457 490.785 312.617 490.67 312.078 490.597C301.033 488.831 289.864 487.599 278.789 485.95C250.035 481.921 221.456 476.865 193.051 470.78C185.6 469.159 177.583 468.753 170.387 466.177C167.456 465.129 164.651 463.535 162.77 460.943C161.388 459.039 160.711 456.731 161.117 454.369C161.505 452.106 162.828 450.201 164.675 448.921C169.479 445.589 176.353 447.046 181.668 448.173C210.884 454.376 240.057 460.434 269.543 465.183C307.44 471.29 345.606 475.853 383.613 481.21C408.386 484.757 433.122 488.556 457.822 492.607C464.668 493.789 471.431 495.383 478.278 496.586C490.911 498.809 503.659 500.638 516.252 503.053C543.494 508.53 570.557 514.809 597.442 521.891C602.574 512.783 611.182 506.257 618.519 499.093C621.299 496.378 623.726 493.221 626.654 490.68L624.223 498.52C628.536 497.065 632.309 494.56 636.531 493.029C637.565 490.469 638.428 487.89 639.254 485.255C635.805 487.881 632.079 490.273 627.702 490.794L627.311 490.299C628.793 487.752 630.848 486.67 633.303 485.258L632.047 481.689ZM313.457 490.785C313.457 490.785 313.389 490.922 313.434 490.783C313.478 490.644 313.457 490.785 313.457 490.785ZM485.641 501.5C484.938 504.484 484.174 511.44 485.57 514.147L486.779 514.879C487.045 512.027 487.752 503.822 485.851 501.69C485.787 501.619 485.709 501.563 485.641 501.5ZM467.668 498.74C467.462 501.448 466.246 508.509 467.533 510.806L468.402 511.328C469.376 509.054 469.41 502.371 468.647 500.016C468.428 499.34 468.189 499.156 467.668 498.74ZM522.987 507.71C522.927 508.581 522.943 509.21 523.178 510.052C524.216 513.779 521.44 518.573 523.921 521.931C525.633 518.994 524.39 512.008 524.093 508.61L522.987 507.71Z" fill="#131762"/>
<path d="M387.5 212L388.5 209.5H393V212H387.5Z" fill="#131762"/>
</g>
<defs>
<clipPath id="clip0_3481_3778">
<rect width="1920" height="783" fill="white"/>
</clipPath>
</defs>
</svg>
