<svg width="1920" height="676" viewBox="0 0 1920 676" fill="none" xmlns="http://www.w3.org/2000/svg">
<g clip-path="url(#clip0_3545_3842)">
<rect width="1920" height="676" fill="black" fill-opacity="0.2"/>
<rect width="1920" height="676" fill="#151762"/>
<path d="M1191.22 320.172C1210.12 320.85 1417.36 362.542 1427.79 368.278L1435.09 369.804C1475.92 371.98 1520.51 382.138 1560.8 390.269C1568.31 395.362 1572.09 399.205 1574.28 409.137C1576.4 418.737 1576.33 438.792 1571.99 447.467C1579.62 461.906 1582.69 549.169 1578.6 565.734C1578.01 568.108 1577.04 569.676 1575.64 571.541L1574.93 572.247L1569.14 569.033C1569.4 567.267 1569.54 566.956 1569.32 564.908C1567.86 551.486 1552.52 502.164 1543.51 495.863C1543.03 506.643 1522.91 544.309 1515.63 551.973C1514.61 553.054 1513.52 553.986 1512.32 554.82C1512.09 561.792 1511.25 566.313 1506.24 571.378C1505.06 572.572 1503.73 573.632 1502.43 574.663C1504.34 585.485 1480.85 632.906 1474.41 643.029C1472.87 645.438 1470.74 647.24 1468.52 648.808C1468.19 654.841 1465.9 659.595 1461.81 663.579C1459.34 665.988 1456.22 667.909 1453.33 669.59C1453.33 683.598 1429.58 725.121 1419.63 735.449C1418.3 736.819 1416.65 737.837 1415.03 738.713C1413.67 747.161 1410.87 752.572 1404.39 757.616C1403.89 758.012 1403.36 758.372 1402.84 758.746C1402.44 772.924 1376.75 808.704 1367.13 818.551C1365.34 820.381 1363.19 821.815 1361.09 823.143L1360.17 823.736C1359.69 830.765 1355.34 836.367 1350.61 840.852C1348.16 843.19 1345.48 845.091 1342.66 846.829C1341.74 856.21 1302 907.177 1293.25 915.901C1291.96 917.187 1290.55 917.865 1288.98 918.635C1287.52 927.112 1284.33 934.798 1277.81 939.94C1276.97 940.59 1276.1 941.184 1275.23 941.77C1276.73 954.062 1264.37 972.767 1260.07 984.663C1251.92 1007.24 1253.63 1053.52 1245.34 1070.57C1247.01 1073.32 1248.51 1075.56 1249.45 1078.75C1252.2 1085.72 1271.13 1146.78 1270.8 1150.41C1277.6 1155.26 1286.59 1163.7 1288.73 1172.6L1288.14 1175.6C1287.64 1175.94 1287.14 1176.29 1286.63 1176.61C1281.79 1179.54 1197.87 1175.76 1189.6 1173.2C1193.52 1162.09 1193.46 1154.27 1189.13 1143.34C1189.82 1141.85 1189.89 1141.78 1190.53 1140.02C1196.17 1124.38 1195.03 1075.28 1189.3 1060.36C1189.56 1059.78 1189.85 1059.2 1190.09 1058.6C1195.75 1044.77 1194.57 940.661 1189.58 925.685C1189.9 924.866 1190.22 924.046 1190.49 923.206C1193.29 914.594 1191.9 909.289 1188.73 901.378C1189.52 899.823 1190.2 898.248 1190.75 896.567C1195.59 881.98 1194.56 836.967 1188.82 823.411C1188.98 823.1 1189.16 822.804 1189.31 822.486C1193.9 813.211 1192.28 803.886 1189.9 794.25C1195.19 777.6 1194.7 738.338 1189.91 721.78C1193.1 712.038 1192.43 703.964 1189.81 694.272C1190.07 693.495 1190.35 692.718 1190.59 691.934C1195.03 677.742 1194.67 637.406 1188.87 624.267C1189.65 622.544 1190.39 620.813 1190.98 618.997C1193.65 610.676 1191.82 604.53 1188.82 596.922C1189 596.562 1189.2 596.209 1189.37 595.841C1195.87 581.77 1194.07 539.102 1189.72 524.338C1193.02 514.929 1192.2 508.571 1189.79 499.183C1195.69 483.572 1194.9 432.894 1189.48 417.678C1192.67 408.48 1192.12 403.436 1188.75 394.677C1197 377.829 1191.9 339.909 1191.22 320.172Z" fill="#FF6602"/>
<path d="M1146.72 337.422C1162.76 336.681 1177.62 329.044 1191.22 320.172C1191.9 339.909 1197 377.829 1188.75 394.677C1192.12 403.436 1192.67 408.48 1189.48 417.678C1194.9 432.894 1195.69 483.572 1189.79 499.183C1192.19 508.571 1193.02 514.929 1189.72 524.338C1194.07 539.102 1195.87 581.77 1189.37 595.841C1189.2 596.209 1189 596.562 1188.82 596.922C1191.82 604.53 1193.65 610.676 1190.97 618.997C1190.39 620.813 1189.65 622.543 1188.87 624.267C1194.67 637.406 1195.03 677.742 1190.59 691.934C1190.35 692.718 1190.07 693.495 1189.81 694.272C1192.42 703.964 1193.1 712.038 1189.91 721.78C1194.7 738.338 1195.19 777.6 1189.9 794.25C1192.28 803.886 1193.9 813.211 1189.31 822.486C1189.15 822.804 1188.98 823.1 1188.82 823.411C1194.56 836.967 1195.59 881.98 1190.75 896.567C1190.2 898.248 1189.52 899.823 1188.73 901.378C1191.89 909.289 1193.29 914.594 1190.49 923.206C1190.21 924.046 1189.9 924.866 1189.58 925.685C1194.57 940.661 1195.75 1044.77 1190.09 1058.6C1189.84 1059.2 1189.56 1059.78 1189.3 1060.36C1195.03 1075.28 1196.17 1124.38 1190.53 1140.02C1189.89 1141.78 1189.82 1141.85 1189.13 1143.34C1193.46 1154.27 1193.52 1162.09 1189.6 1173.2C1185.09 1177.08 981.124 1171.06 959.893 1170.76C960.882 1168.75 961.866 1166.59 962.306 1164.33C965.869 1146.26 961.01 1024.17 960.869 995.45L960.002 562.997C960.008 538.803 960.002 446.997 960.002 427.497C982.108 420.334 1142.2 345.8 1146.72 337.422Z" fill="#DF7C9A"/>
<path d="M1969.16 -2.96288C1969.34 -54.2009 1974.71 -102.652 1936.48 -142.413C1935.22 -143.728 1933.94 -145.01 1932.62 -146.259C1931.3 -147.509 1929.96 -148.725 1928.58 -149.907C1927.21 -151.089 1925.8 -152.235 1924.37 -153.345C1922.94 -154.456 1921.48 -155.53 1920 -156.567C1918.52 -157.603 1917.01 -158.602 1915.48 -159.562C1913.95 -160.524 1912.39 -161.445 1910.82 -162.327C1909.24 -163.208 1907.64 -164.05 1906.03 -164.851C1904.41 -165.652 1902.78 -166.412 1901.12 -167.13C1899.47 -167.848 1897.8 -168.524 1896.11 -169.158C1894.43 -169.792 1892.73 -170.383 1891.01 -170.931C1889.3 -171.479 1887.57 -171.983 1885.83 -172.443C1884.09 -172.904 1882.34 -173.32 1880.58 -173.692C1878.82 -174.063 1877.05 -174.39 1875.28 -174.673C1873.5 -174.955 1871.72 -175.192 1869.94 -175.385C1868.15 -175.577 1866.36 -175.723 1864.56 -175.824C1862.77 -175.926 1860.98 -175.982 1859.18 -175.993C1857.36 -176.014 1855.54 -175.988 1853.72 -175.916C1851.9 -175.842 1850.08 -175.723 1848.27 -175.557C1846.46 -175.392 1844.65 -175.18 1842.85 -174.922C1841.05 -174.664 1839.25 -174.36 1837.46 -174.01C1835.67 -173.66 1833.9 -173.265 1832.13 -172.825C1830.36 -172.384 1828.6 -171.898 1826.86 -171.368C1825.11 -170.836 1823.38 -170.26 1821.67 -169.642C1819.95 -169.023 1818.25 -168.36 1816.56 -167.654C1814.88 -166.948 1813.21 -166.199 1811.57 -165.408C1809.92 -164.617 1808.29 -163.785 1806.68 -162.91C1805.08 -162.036 1803.49 -161.12 1801.93 -160.164C1800.37 -159.209 1798.83 -158.215 1797.32 -157.181C1795.8 -156.146 1794.32 -155.073 1792.86 -153.963C1791.39 -152.853 1789.96 -151.707 1788.56 -150.523C1787.15 -149.34 1785.78 -148.121 1784.43 -146.867C1783.09 -145.613 1781.77 -144.325 1780.49 -143.004C1741.98 -103.49 1749.74 -52.5258 1749.89 -1.61217C1741.16 -1.16941 1732.44 -0.624606 1723.71 -0.734787L1297.06 -0.993923C1296.22 0.546563 1295.42 2.17478 1294.9 3.85809C1293.79 7.48997 1292.77 547.336 1292.77 547.336C1292.77 547.336 1290.91 921.807 1294.33 933.961C1294.33 933.961 1293.97 1106.72 1300.31 1158.29C1302.11 1160.59 1303.31 1162.03 1306.02 1163.29C1324.84 1163.45 1343.66 1163.2 1362.47 1162.56C1394.92 1164.32 1427.9 1162.98 1460.4 1162.83L1551.82 1162.89L1649.98 1162.58L1718.45 1162.66L1730.17 1162.85L1751.35 1162.75C1784.05 1163.24 1816.83 1162.78 1849.53 1162.79L1867.39 1162.8L1933.8 1162.72L1933.92 591.412L1968.8 591.432L1982.28 591.335L1982.29 449.255C1982.27 426.757 1985.49 397.684 1980.36 376.027L1982.33 365.671C1986.78 361.771 1989.75 362.638 1995.5 362.375C1999.42 322.786 1995.09 280.009 1994.82 240.032C1994.23 158.961 1994.57 77.894 1995.82 -3.16897L1969.16 -2.96288Z" fill="#303289"/>
<path d="M1650.02 67.4407L1549.94 66.7656L1550.52 1163.46L1649.85 1163.15L1650.02 67.4407Z" fill="#FF6601"/>
<path d="M1459.6 66.939L1362.92 66.7656C1360.37 70.8521 1359.85 74.1555 1359.69 78.8782C1356.76 166.682 1359.45 255.685 1359.45 343.613L1359.43 862.076V1075.3C1359.45 1095.87 1356.25 1139.75 1360.45 1157.24C1360.93 1159.22 1361.74 1160.82 1362.76 1162.56C1395.14 1164.32 1428.07 1162.98 1460.5 1162.83L1459.6 66.939Z" fill="#FF6601"/>
<path d="M1295.46 338.27L1191.12 321.234L1192.18 1149.61H1303.98L1295.46 338.27Z" fill="#FF6601"/>
<path d="M1092.49 436L1097.79 437.469C1098.25 438.522 1098.97 440.041 1099.29 441.227C1103.22 455.97 1102.82 507.771 1096.71 521.723C1090.4 527.967 1038.77 545.84 1027.1 550.728C1019.15 535.554 1032.7 487.194 1022.5 465.048C1045.59 459.629 1070.6 445.904 1092.49 436Z" fill="#0021FE"/>
<path d="M1093.03 618.062L1097.91 619.454C1098.36 620.514 1099.09 622.082 1099.39 623.29C1103.27 638.414 1102.63 689.933 1096.61 704.294C1084.82 715.102 1044.21 727.259 1028.2 732.981C1022.74 729.739 1029.73 662.708 1022.3 649.152C1044.96 643.846 1071.34 627.733 1093.03 618.062Z" fill="#0021FE"/>
<path d="M1191.12 322.303L1295.46 337.209L1191.12 238.188V322.303Z" fill="white"/>
<path d="M1191.12 322.303V238.188L959 429.843L1191.12 322.303Z" fill="#A6AEE3"/>
<path fill-rule="evenodd" clip-rule="evenodd" d="M525.659 520.375C513.577 485.62 556.193 456.386 570.995 422.699C581.17 399.545 583.225 374.055 598.732 354.076C616.251 331.506 638.054 313.348 664.419 302.337C697.834 288.382 734.978 269.77 768.641 283.117C802.878 296.691 822.515 334.116 833.352 369.315C843.191 401.276 830.303 433.794 825.202 466.844C819.974 500.718 822.51 536.395 803.193 564.708C781.208 596.931 750.786 633.213 711.777 633.09C672.594 632.966 653.673 584.427 620.157 564.129C589.72 545.697 537.341 553.986 525.659 520.375Z" fill="#E84845"/>
<path fill-rule="evenodd" clip-rule="evenodd" d="M506.048 21.9455C484.573 -39.8352 560.325 -91.8004 586.638 -151.681C604.723 -192.84 608.376 -238.15 635.942 -273.664C667.083 -313.784 705.84 -346.062 752.705 -365.634C812.104 -390.441 878.129 -423.525 937.968 -399.8C998.827 -375.671 1033.73 -309.145 1053 -246.575C1070.49 -189.762 1047.58 -131.959 1038.51 -73.2104C1029.22 -12.9976 1033.73 50.4214 999.388 100.749C960.308 158.029 906.229 222.523 836.888 222.304C767.237 222.084 733.603 135.802 674.026 99.7217C619.923 66.9565 526.815 81.6901 506.048 21.9455Z" fill="#0021FE"/>
<path fill-rule="evenodd" clip-rule="evenodd" d="M1816.89 -34.3243C1858.14 -26.7305 1882.48 13.1235 1913.75 41.0789C1941.14 65.5644 1978.18 83.3774 1988.1 118.743C1997.9 153.687 1981.08 189.989 1964.59 222.322C1950.17 250.588 1918.59 263.554 1900.84 289.851C1867.77 338.827 1874.71 428.78 1816.89 441.054C1764 452.28 1748.29 360.406 1702.3 331.996C1649.76 299.537 1545.27 326.943 1533.93 266.251C1521.88 201.761 1630.34 181.142 1663.53 124.541C1685.56 86.9775 1659.86 31.2464 1690.1 -0.0862046C1721.26 -32.366 1772.75 -42.4474 1816.89 -34.3243Z" fill="#367D57"/>
<path d="M648.381 -24.3214L960 -40.0391V929.67H648.381V-24.3214Z" fill="#0021FE"/>
<path d="M692.084 481.383L774.832 481.401C774.661 530.601 774.881 579.798 775.492 628.992L690.754 628.667C690.858 579.57 691.301 530.475 692.084 481.383Z" fill="#E84845"/>
<path d="M734.917 282.098L778.226 281.836L776.625 434.207L736.482 434.912L691.163 433.972C691.824 383.393 691.688 332.813 690.754 282.233L734.917 282.098Z" fill="#E84845"/>
<path d="M689.382 82.6055L777.845 82.2891C776.562 132.732 778.01 183.519 778.221 233.998L690.143 233.357L689.382 82.6055Z" fill="#E84845"/>
<path d="M826.056 481.41L917.628 481.383C915.454 531.446 915.889 581.617 915.825 631.725C886.171 631.184 856.462 631.481 826.807 631.382C828.791 581.644 826.581 531.202 826.056 481.41Z" fill="#E84845"/>
<path d="M824.69 82.2891L916.263 82.5511C914.033 133.263 915.356 184.581 915.129 235.365C885.403 234.524 855.478 235.193 825.724 235.157L824.69 82.2891Z" fill="#E84845"/>
<path d="M826.056 280.93C855.89 282.325 886.364 280.758 916.261 280.469C913.829 332.236 915.189 384.447 915.333 436.278C885.661 435.125 855.98 434.875 826.29 435.527L826.056 280.93Z" fill="#E84845"/>
<path d="M149.519 -52.3359L652.483 -24.3176V929.674H149.519V-52.3359Z" fill="#0021FE"/>
<path d="M142 -141.602V932.607H278.139V17.1558H344.499V932.607H450.537V17.1558H509.371V932.607H639.353V-141.602H142Z" fill="#E07C9B"/>
<path fill-rule="evenodd" clip-rule="evenodd" d="M1188.28 -266.045C1245.68 -274.697 1294.01 -222.768 1336.77 -183.508C1375.37 -148.068 1400.89 -103.262 1419.08 -54.1223C1438.02 -2.97976 1454.15 50.263 1443.09 103.664C1431.19 161.086 1409.33 227.528 1355.78 251.415C1302.44 275.206 1246.66 215.395 1188.28 217.31C1126.31 219.343 1070.72 284.24 1012.6 262.674C953.626 240.794 928.965 171.148 906.015 112.584C881.78 50.7444 842.667 -23.8203 878.379 -79.8215C915.3 -137.72 1010.24 -107.792 1069.1 -143.162C1119.24 -173.289 1130.44 -257.326 1188.28 -266.045Z" fill="#ECA760"/>
<path fill-rule="evenodd" clip-rule="evenodd" d="M1761.67 195.463C1826.59 203.413 1839.85 294.313 1882.01 344.322C1910.98 378.695 1950.05 401.942 1969.78 442.338C1992.07 487.972 2003.96 536.988 2000.88 587.682C1996.97 651.934 1997.57 725.781 1949.9 769.041C1901.42 813.037 1826.32 815.055 1761.67 804.771C1702.96 795.434 1661.17 749.395 1612.43 715.365C1562.47 680.487 1503.56 656.586 1473.51 603.584C1439.32 543.26 1405.26 466.293 1436.01 404.146C1466.91 341.72 1559.18 349.553 1617.82 311.973C1671.08 277.847 1698.88 187.776 1761.67 195.463Z" fill="#E07C9B"/>
<path fill-rule="evenodd" clip-rule="evenodd" d="M835.984 565.289C902.889 570.24 916.557 626.858 960.002 658.007C989.863 679.416 1030.12 693.896 1050.45 719.057C1073.43 747.481 1085.68 778.01 1082.5 809.586C1078.48 849.606 1079.09 895.602 1029.97 922.547C980.009 949.951 902.614 951.207 835.984 944.802C775.483 938.986 732.415 910.311 682.186 889.115C630.705 867.39 569.989 852.503 539.027 819.49C503.787 781.917 468.685 733.978 500.38 695.269C532.216 656.386 627.31 661.265 687.745 637.858C742.627 616.602 771.283 560.5 835.984 565.289Z" fill="#EBA661"/>
<path d="M265.305 394C274.975 400.953 320.677 485.789 329.109 500.56C342.809 524.56 357.637 547.742 369.941 572.521C384.863 602.568 398.923 633.535 410.125 665.16C411.451 668.761 412.81 672.352 414 676H378.842H336.328C326.707 666.702 316.55 653.28 308.192 642.632L272.363 595.702C261.267 581.055 249.946 566.581 238.403 552.28C232.174 544.815 226.079 537.242 220.118 529.56L215 522.84C219.863 507.596 226.545 492.52 232.327 477.571C243.021 449.596 254.014 421.739 265.305 394Z" fill="#16175C"/>
<path d="M378 676C385.42 670.713 400.954 667.326 410.032 665C411.39 668.654 412.782 672.298 414 676H378Z" fill="#071FF5"/>
<path d="M225 517.34C228.555 511.234 234.818 494.963 241.271 493.133C242.368 492.822 242.896 493.106 243.942 493.465C246.21 495.623 246.76 498.675 246.976 501.82C247.298 506.492 244.241 539.512 243.049 542C236.9 533.898 230.884 525.678 225 517.34Z" fill="#071FF5"/>
<path d="M275 589.09C286.855 577.796 326.775 541.834 340.997 543.029C342.849 543.186 344.688 543.905 345.923 545.471C348.272 548.446 348.16 553.621 347.807 557.281C346.059 575.411 320.537 622.072 310.698 640L275 589.09Z" fill="#071FF5"/>
<path d="M1786 54.0898C1774.15 42.7963 1734.22 6.83354 1720 8.02911C1718.15 8.18628 1716.31 8.90473 1715.08 10.4708C1712.73 13.4457 1712.84 18.6209 1713.19 22.2806C1714.94 40.4108 1740.46 87.072 1750.3 105L1786 54.0898Z" fill="#071FF5"/>
<path d="M94.1654 132C113.453 152.936 128.202 178.462 145.631 201.17C161.52 221.874 178.414 241.627 194.338 262.32C199.583 269.137 205.22 275.914 210 283.127L193.916 470.167C193.679 470.605 193.412 470.731 193.03 471C190.342 468.609 186.015 461.055 183.586 457.622C177.239 448.686 170.788 439.843 164.234 431.091C151.859 414.414 139.177 397.997 126.924 381.216C119.694 371.312 112.94 360.978 105.593 351.179C98.2945 341.443 90.3747 332.285 83.0839 322.541C71.4459 306.988 60.9163 290.654 50.2234 274.317C44.128 265.004 37.6833 255.963 32 246.33C40.9056 230.426 48.9832 213.858 57.6375 197.771C69.656 175.74 81.832 153.817 94.1654 132Z" fill="#16175C"/>
<path d="M32.8421 246C38.53 255.656 44.9798 264.719 51.0801 274.054C61.7815 290.43 72.3194 306.803 83.9667 322.393C91.2633 332.16 99.1894 341.341 106.494 351.1C113.846 360.923 120.605 371.281 127.842 381.209C140.105 398.03 152.797 414.486 165.182 431.203C171.741 439.975 178.196 448.84 184.548 457.797C186.98 461.239 191.31 468.811 194 471.207C194.383 470.938 194.65 470.811 194.887 470.372C192.515 506.549 191.371 536.16 199.559 571.709L213.086 531.108C215.424 524.105 217.519 516.855 220.218 510.027L225.229 517.309C231.065 525.634 237.032 533.841 243.13 541.93C254.431 557.428 265.514 573.112 276.378 588.984L311.455 639.84C319.637 651.379 329.582 665.924 339 676H150.42H0V667.186V509.447V473.594V304.216L0.95022 304.18L1.17381 303.307C12.7105 284.939 22.5878 265.262 32.8421 246Z" fill="#367D57"/>
<path d="M0 473L0.936422 473.116L1.2872 474.172C5.89674 480.699 40.0142 526.839 40 530C27.5709 524.158 15.5137 517.044 3.07987 511.073L1.32927 510.429L0 509.16V473Z" fill="#16175C"/>
<path d="M0 510L1.30856 511.254L3.03188 511.891C15.272 517.791 27.1414 524.822 39.3768 530.595C43.3083 533.277 52.4696 548.019 56.028 552.803L115.579 632.924C126.582 647.588 138.334 661.984 150 676H0V667.215V510Z" fill="#D2809B"/>
<path d="M-68.3812 -90.4471C28.5538 -98.4794 127.895 -110.081 225.048 -112C236.298 -107.508 247.933 -103.379 258.585 -97.6072L410.913 -22.5606C437.451 -9.43982 464.353 5.91988 491.816 16.8599C491.583 303.94 488.324 591.426 492.145 878.455C461.517 880.927 431.473 886.015 400.969 889.054C372.135 891.925 343.097 892.528 314.299 895.938C286.165 899.267 258.213 904.85 229.933 906.791C157.152 911.545 82.5402 924.433 10.2983 935.329C-15.6852 939.247 -45.2046 947.563 -71.137 947.999L-71.3484 789.99L-71.414 678.082L-71.4214 638.712L-71.3484 518.139L-71.4068 479.155L-71.3047 357.724L-71.3484 319.205L-71.312 196.08L-71.1006 116.156C-69.7591 47.3975 -70.4664 -21.492 -70.357 -90.2653L-68.3812 -90.4471Z" fill="#EBA661"/>
<path d="M-68.3711 -90.4471C28.5639 -98.4794 127.905 -110.081 225.059 -112C231.11 -37.2661 227.267 39.3361 228.274 114.383C129.757 113.299 30.926 116.243 -67.5182 113.881C-66.9592 71.0949 -66.8329 28.3063 -67.1391 -14.4847C-67.1974 -39.585 -65.9579 -65.4703 -68.3711 -90.4471Z" fill="#FE6501"/>
<path d="M-71.1006 116.154C28.8527 118.124 128.923 114.512 228.839 117.143L229.933 906.789C157.152 911.543 82.5402 924.431 10.2982 935.327C-15.6852 939.245 -45.2046 947.561 -71.137 947.997L-71.3484 789.988L-71.414 678.08L-71.4214 638.71L-71.3484 518.137L-71.4068 479.153L-71.3047 357.722L-71.3484 319.203L-71.312 196.079L-71.1006 116.154Z" fill="#FDBECD"/>
<path d="M5.26945 517L71.0229 517.015C70.8868 556.719 71.0617 596.42 71.5478 636.119L4.2124 635.858C4.29503 596.236 4.64732 556.617 5.26945 517Z" fill="#DF7C9A"/>
<path d="M39.1641 356.789L73.8743 356.578L72.5912 479.194L40.418 479.761L4.09662 479.005C4.62639 438.303 4.51705 397.6 3.76855 356.898L39.1641 356.789Z" fill="#DF7C9A"/>
<path d="M3.00977 196.614L73.3708 196.359C72.3501 236.921 73.502 277.759 73.6697 318.35L3.61494 317.834L3.00977 196.614Z" fill="#DF7C9A"/>
<path d="M112.163 517.037L185.87 517.016C184.121 557.345 184.471 597.761 184.42 638.127C160.55 637.691 136.637 637.93 112.768 637.85C114.365 597.783 112.586 557.149 112.163 517.037Z" fill="#DF7C9A"/>
<path d="M111.596 196.203L185.238 196.414C183.445 237.194 184.509 278.461 184.327 319.299C160.421 318.622 136.355 319.16 112.427 319.131L111.596 196.203Z" fill="#DF7C9A"/>
<path d="M112.02 356.386C136.166 357.506 160.83 356.248 185.028 356.016C183.059 397.581 184.16 439.502 184.277 481.117C160.261 480.192 136.239 479.991 112.21 480.514L112.02 356.386Z" fill="#DF7C9A"/>
<path d="M199.499 571L423.426 0H299.426C295.093 6.33333 281.326 33.6 260.926 92C235.426 165 200.502 407 193.502 471.5C187.902 523.1 194.832 560.167 199.499 571Z" fill="#FF6602"/>
<path d="M-68.0739 530L150.426 -48H59.5C55.1667 -41.6667 41.4 -14.4 21 44C-4.5 117 -68.0739 368.5 -75.0739 433C-80.6739 484.6 -72.7406 519.167 -68.0739 530Z" fill="#E84845"/>
<path d="M1903.45 279.559L1934 246.699V672H1925.54V640.548C1913.32 634.915 1884.46 622.616 1866.79 618.485C1844.69 613.322 1818.37 642.896 1799.1 640.548C1779.83 638.201 1799.1 594.075 1809.91 576.237C1818.56 561.966 1890.6 553.078 1925.54 550.418V511.456H1880.42C1857.39 511.456 1839.05 541.03 1799.1 567.318C1759.15 593.606 1729.53 578.584 1717.31 567.318C1705.09 556.052 1704.15 508.17 1717.31 481.413C1730.47 454.655 1750.21 425.551 1799.1 411.938C1838.21 401.047 1899.69 428.367 1925.54 443.389C1924.29 439.79 1920.28 428.461 1914.26 411.938C1906.74 391.283 1875.72 375.792 1849.86 370.628C1824.01 365.464 1777.54 414.793 1750.21 411.938C1717.31 408.5 1707.07 399.808 1692.5 381.5C1677.93 363.192 1683.89 298.915 1717.31 279.559C1750.21 260.5 1814.14 269.858 1849.86 279.559C1845.01 271.423 1830.21 250.83 1809.91 233.555C1784.53 211.962 1750.21 151.875 1750.21 116.668C1750.21 81.4614 1769.48 52.3567 1809.91 42.4988C1850.33 32.6408 1871.96 73.0115 1894.99 116.668C1913.41 151.594 1908.31 239.815 1903.45 279.559Z" fill="#C7ECC4"/>
<path d="M229 0H300C291.531 19.9584 278.517 40.8153 272.078 61.5329L263.07 90.6986C261.663 95.3342 260.634 100.668 258.575 105C254.549 98.5766 252.69 87.6331 250.562 80.1581C242.987 53.5403 236.611 26.5866 229 0Z" fill="#071FF5"/>
<path d="M221.614 1H229.067C235.767 23.8545 248.277 56.0245 254.945 78.9058C256.818 85.3314 258.454 94.7387 261.998 100.26C260.38 108.986 256.957 117.641 254.638 126.231L240.19 195C237.737 192.476 231.585 187.796 230.05 184.613C225.875 166.665 222.755 148.75 221.613 130.346C219.149 90.6692 217.738 40.5337 221.614 1Z" fill="#DAA671"/>
<path d="M142 -23H149.085C152.827 18.7004 158.022 60.1619 162.109 101.814C162.336 107.556 162.525 113.296 163.045 119.021C163.392 129.77 165.922 151.241 160.983 160.421C159.376 163.408 156.548 165.855 153.214 166.684C150.029 167.477 146.769 166.714 143.978 165.108C125.385 154.415 110.919 96.7834 105 75.5C116.5 47 127.869 6.04175 142 -23Z" fill="#071FF5"/>
<path d="M1280.17 -85H1366.12C1366.55 -83.8143 1366.84 -83.1325 1366.77 -81.8517C1366.41 -75.1614 1362.4 -66.1371 1360.67 -59.466C1357.37 -46.5231 1354.54 -33.475 1352.2 -20.3218C1346.93 8.653 1344.05 38.04 1339.1 67.074C1334.72 92.728 1328.07 118.278 1322.73 143.773C1318.96 161.731 1316.51 181.427 1310.53 198.701C1305.41 213.498 1297.28 228.214 1290.3 242.25C1285.9 251.096 1281.64 262.241 1274.09 268.773C1274.51 267.952 1274.88 267.132 1275.27 266.303C1277.81 260.911 1276.46 138.804 1275.77 124.94C1273.81 85.04 1267.91 45.908 1269.17 5.7662C1269.57 -6.9568 1270.86 -19.9289 1272.45 -32.5572C1273.57 -41.5093 1281.6 -79.1928 1280.17 -85Z" fill="#367D57"/>
<path d="M1214.61 -21.189L1268.54 -3.65465C1268.57 -2.82298 1268.61 -2.33598 1268.31 -1.54665C1266.72 2.5778 1262.36 7.42206 1259.91 11.2549C1255.2 18.7015 1250.76 26.3126 1246.61 34.0882C1237.39 51.1935 1229.59 69.045 1220.56 86.2527C1212.58 101.456 1203.2 116.131 1194.65 131.038C1188.62 141.537 1183.06 153.396 1175.78 163.014C1169.55 171.254 1161.45 178.829 1154.21 186.212C1149.64 190.865 1144.69 196.989 1138.62 199.547C1139.06 199.118 1139.46 198.679 1139.87 198.238C1142.56 195.373 1166.63 118.481 1169.02 109.641C1175.93 84.206 1180.21 58.4488 1189.19 33.5186C1192.04 25.6171 1195.5 17.7409 1199.07 10.1416C1201.6 4.75301 1214.32 -17.2535 1214.61 -21.189Z" fill="#367D57"/>
<path d="M1193.56 -36.956L1226.04 9.53105C1225.56 10.2117 1225.31 10.6261 1224.59 11.0722C1220.83 13.4056 1214.44 14.6468 1210.17 16.2319C1201.92 19.3343 1193.8 22.7378 1185.8 26.4424C1168.14 34.5408 1151.16 44.0877 1133.58 52.3816C1118.05 59.7066 1101.72 65.7645 1085.91 72.5102C1074.78 77.257 1063.2 83.3744 1051.59 86.6674C1041.66 89.4896 1030.63 90.6532 1020.4 92.1818C1013.95 93.1447 1006.31 95.052 999.925 93.4368C1000.53 93.3537 1001.11 93.244 1001.71 93.1416C1005.58 92.4779 1071.12 45.6068 1078.35 39.9948C1099.19 23.8576 1118.13 5.87961 1140.32 -8.6074C1147.35 -13.1987 1154.85 -17.4028 1162.28 -21.3147C1167.55 -24.0917 1190.96 -33.9882 1193.56 -36.956Z" fill="#367D57"/>
<path d="M432.982 -69.5383L365.519 -52.9475C365.41 -51.9339 365.314 -51.3427 365.616 -50.3509C367.19 -45.1691 372.08 -38.8599 374.725 -33.9576C379.819 -24.4368 384.554 -14.7402 388.929 -4.8678C398.659 16.8576 406.592 39.3679 416.081 61.2015C424.471 80.4922 434.623 99.263 443.735 118.244C450.161 131.611 455.886 146.598 463.914 159.002C470.789 169.628 480.011 179.61 488.199 189.279C493.36 195.373 498.855 203.299 506.042 206.969C505.554 206.405 505.105 205.833 504.639 205.258C501.605 201.516 479.094 105.412 476.96 94.3967C470.796 62.7004 467.874 30.8464 459.136 -0.418138C456.366 -10.3274 452.85 -20.2603 449.164 -29.8655C446.557 -36.6759 432.98 -64.7041 432.982 -69.5383Z" fill="#303289"/>
<path d="M496.76 -32.1072L457.815 -7.93427C457.953 -7.2761 458.014 -6.88559 458.406 -6.32494C460.45 -3.39468 464.805 -0.433402 467.466 2.10284C472.604 7.03754 477.553 12.1558 482.312 17.4577C492.849 29.1045 502.419 41.6103 512.828 53.374C522.027 63.7664 532.226 73.4733 541.816 83.5237C548.575 90.6005 555.225 98.8361 562.793 104.981C569.274 110.246 577.097 114.628 584.207 119.025C588.689 121.795 593.753 125.647 599.012 126.484C598.59 126.23 598.192 125.962 597.782 125.696C595.115 123.968 561.385 68.259 557.798 61.7829C547.465 43.1523 539.132 23.7615 527.272 5.92695C523.512 0.274423 519.28 -5.24066 515.008 -10.5156C511.982 -14.257 497.746 -29.0737 496.76 -32.1072Z" fill="#303289"/>
<path d="M510.234 -48.5425L493.714 -5.78504C494.222 -5.34325 494.505 -5.06798 495.156 -4.85665C498.553 -3.74988 503.813 -4.0103 507.464 -3.58876C514.538 -2.74615 521.572 -1.64288 528.565 -0.278965C543.992 2.6682 559.165 6.88355 574.56 10.0013C588.163 12.753 602.152 14.3554 615.861 16.5989C625.519 18.1749 635.788 20.7416 645.531 21.0867C653.876 21.3836 662.759 20.1675 671.083 19.3928C676.329 18.9041 682.692 18.927 687.393 16.4265C686.904 16.4777 686.425 16.5041 685.937 16.5388C682.767 16.766 622.282 -7.37398 615.518 -10.3818C596.045 -19.0255 577.713 -29.4815 557.501 -36.5698C551.095 -38.8161 544.394 -40.6675 537.806 -42.3036C533.137 -43.467 512.848 -46.715 510.234 -48.5425Z" fill="#303289"/>
<path d="M889.358 712.065L836.407 699.043C836.322 698.247 836.247 697.783 836.484 697.005C837.719 692.938 841.557 687.986 843.633 684.138C847.631 676.665 851.348 669.054 854.782 661.306C862.419 644.254 868.645 626.586 876.093 609.449C882.678 594.308 890.646 579.575 897.799 564.677C902.842 554.185 907.335 542.422 913.637 532.686C919.033 524.346 926.271 516.512 932.698 508.922C936.748 504.139 941.061 497.918 946.702 495.038C946.319 495.48 945.967 495.929 945.601 496.381C943.219 499.318 925.551 574.749 923.876 583.394C919.038 608.272 916.744 633.274 909.887 657.813C907.713 665.591 904.952 673.387 902.06 680.926C900.013 686.272 889.357 708.271 889.358 712.065Z" fill="#303289"/>
<path d="M939.42 682.689L908.852 663.716C908.961 663.2 909.009 662.893 909.316 662.453C910.921 660.153 914.339 657.829 916.427 655.838C920.46 651.965 924.345 647.948 928.08 643.787C936.351 634.645 943.862 624.83 952.031 615.596C959.252 607.44 967.257 599.821 974.784 591.932C980.089 586.378 985.308 579.914 991.248 575.09C996.335 570.958 1002.48 567.519 1008.06 564.068C1011.57 561.893 1015.55 558.87 1019.68 558.214C1019.35 558.413 1019.03 558.623 1018.71 558.832C1016.62 560.188 990.143 603.913 987.328 608.996C979.218 623.619 972.678 638.839 963.369 652.837C960.418 657.274 957.095 661.602 953.742 665.743C951.368 668.679 940.194 680.309 939.42 682.689Z" fill="#303289"/>
<path d="M949.996 695.59L937.03 662.03C937.428 661.683 937.651 661.467 938.161 661.301C940.828 660.433 944.957 660.637 947.822 660.306C953.375 659.645 958.895 658.779 964.384 657.708C976.492 655.395 988.401 652.087 1000.48 649.64C1011.16 647.48 1022.14 646.222 1032.9 644.461C1040.48 643.224 1048.54 641.21 1056.19 640.939C1062.74 640.706 1069.71 641.66 1076.24 642.268C1080.36 642.652 1085.36 642.634 1089.05 644.597C1088.66 644.556 1088.29 644.536 1087.9 644.508C1085.42 644.33 1037.94 663.277 1032.63 665.638C1017.35 672.422 1002.96 680.629 987.096 686.193C982.067 687.956 976.808 689.409 971.637 690.693C967.973 691.606 952.048 694.155 949.996 695.59Z" fill="#303289"/>
<path d="M866.319 783.648L959.016 785.507C959.506 784.238 959.833 783.508 959.785 782.126C959.542 774.902 955.412 765.083 953.691 757.851C950.404 743.82 947.642 729.687 945.402 715.45C940.345 684.087 937.875 652.33 933.164 620.91C928.995 593.147 922.376 565.448 917.168 537.836C913.491 518.386 911.274 497.091 905.198 478.332C899.997 462.262 891.547 446.215 884.322 430.926C879.768 421.291 875.415 409.179 867.413 401.97C867.849 402.865 868.23 403.757 868.633 404.66C871.255 410.53 867.158 542.194 866.114 557.131C863.137 600.121 855.928 642.198 856.418 685.518C856.575 699.249 857.685 713.267 859.127 726.921C860.141 736.6 867.987 777.416 866.319 783.648Z" fill="#367D57"/>
<path d="M796.987 713.404L855.53 695.659C855.578 694.763 855.635 694.239 855.322 693.381C853.696 688.898 849.102 683.579 846.546 679.393C841.622 671.26 837.005 662.955 832.696 654.479C823.124 635.832 815.096 616.41 805.73 597.656C797.45 581.087 787.646 565.057 778.745 548.794C772.47 537.341 766.735 524.431 759.096 513.9C752.554 504.878 743.978 496.533 736.326 488.414C731.503 483.297 726.3 476.585 719.809 473.695C720.265 474.167 720.686 474.65 721.123 475.134C723.966 478.282 748.255 561.731 750.648 571.317C757.55 598.898 761.61 626.77 770.756 653.852C773.655 662.435 777.212 671.004 780.902 679.278C783.513 685.144 796.762 709.153 796.987 713.404Z" fill="#367D57"/>
<path d="M773.951 729.956L809.985 680.522C809.483 679.777 809.213 679.325 808.447 678.828C804.448 676.23 797.576 674.753 793.014 672.951C784.184 669.427 775.496 665.581 766.95 661.412C748.075 652.296 729.966 641.632 711.192 632.307C694.601 624.071 677.118 617.184 660.216 609.567C648.307 604.207 635.951 597.359 623.509 593.556C612.852 590.298 600.98 588.804 589.981 586.934C583.049 585.756 574.853 583.534 567.931 585.138C568.579 585.241 569.206 585.372 569.846 585.495C574.012 586.295 643.676 638.263 651.36 644.472C673.487 662.327 693.52 682.126 717.136 698.23C724.621 703.334 732.623 708.03 740.553 712.41C746.171 715.519 771.211 726.699 773.951 729.956Z" fill="#367D57"/>
<path d="M1424 -23H1694.28L1694.41 -21.225C1688.78 -9.703 1677.55 1.5281 1669.89 11.9784C1642.45 49.3743 1614.56 96.714 1572.59 119.173C1549.12 131.73 1514.82 135.876 1489.57 127.886C1432.9 109.949 1425.24 56.7876 1425.6 5.2319C1425.65 -1.5595 1427.65 -16.6239 1424.32 -22.4926C1424.22 -22.6667 1424.1 -22.8309 1424 -23Z" fill="#E84845"/>
<path d="M1928 -23H1762.08L1762 -21.9119C1765.46 -14.8489 1772.35 -7.96426 1777.05 -1.55822C1793.9 21.3655 1811.02 50.3847 1836.78 64.1521C1851.19 71.8496 1872.25 74.3911 1887.75 69.4932C1922.54 58.4978 1927.24 25.9098 1927.02 -5.69383C1926.99 -9.85696 1925.76 -19.0914 1927.8 -22.689C1927.86 -22.7957 1927.94 -22.8963 1928 -23Z" fill="#E84845"/>
<path d="M1658.18 -134.72L1712.11 -117.186C1712.14 -116.354 1712.18 -115.867 1711.88 -115.078C1710.29 -110.953 1705.93 -106.109 1703.48 -102.276C1698.77 -94.8298 1694.34 -87.2187 1690.18 -79.443C1680.97 -62.3377 1673.16 -44.4862 1664.14 -27.2785C1656.15 -12.0753 1646.77 2.5995 1638.22 17.5071C1632.19 28.0058 1626.63 39.8643 1619.36 49.483C1613.12 57.723 1605.02 65.2981 1597.78 72.6811C1593.21 77.3339 1588.27 83.4578 1582.2 86.0161C1582.63 85.5867 1583.03 85.1476 1583.44 84.707C1586.13 81.842 1610.2 4.94986 1612.59 -3.88995C1619.5 -29.3253 1623.78 -55.0825 1632.76 -80.0126C1635.61 -87.9141 1639.07 -95.7904 1642.64 -103.39C1645.17 -108.778 1657.9 -130.785 1658.18 -134.72Z" fill="#367D57"/>
<path d="M290.033 326.494C311.35 272.499 336.171 220.328 358.956 167C383.278 204.083 404.668 242.919 425.571 281.999C455.419 338.217 483.966 395.087 511.213 452.61C521.444 474.087 530.639 496.102 541.152 517.429C554.501 544.52 571.156 569.452 585.68 595.849C599.938 621.757 611.8 649.343 623 676.704H474.27H430.708H378.032C366.112 665.156 353.526 648.488 343.171 635.264L298.778 576.983C285.029 558.794 271.003 540.819 256.7 523.058C248.983 513.788 241.431 504.383 234.045 494.843L227.704 486.497C233.729 467.567 242.008 448.843 249.172 430.278C262.423 395.537 276.043 360.942 290.033 326.494Z" fill="#367D57"/>
<path d="M290.033 326.492C302.014 335.126 358.641 440.483 369.088 458.827C386.062 488.632 404.434 517.421 419.68 548.194C438.169 585.508 455.589 623.966 469.468 663.24C471.111 667.713 472.796 672.172 474.27 676.702H430.708H378.032C366.112 665.155 353.526 648.487 343.171 635.263L298.778 576.981C285.029 558.792 271.003 540.817 256.7 523.057C248.983 513.786 241.431 504.381 234.045 494.841L227.704 486.496C233.729 467.565 242.008 448.842 249.172 430.277C262.423 395.536 276.043 360.941 290.033 326.492Z" fill="#16175C"/>
<path d="M430.708 676.704C439.687 670.233 458.484 666.089 469.469 663.242C471.112 667.714 472.796 672.174 474.27 676.704H430.708Z" fill="#071FF5"/>
<path d="M234.046 494.84C238.508 487.855 246.37 469.238 254.469 467.145C255.846 466.789 256.51 467.113 257.823 467.525C260.669 469.993 261.36 473.486 261.631 477.084C262.035 482.429 258.198 520.209 256.702 523.056C248.984 513.786 241.432 504.38 234.046 494.84Z" fill="#071FF5"/>
<path d="M298.778 576.982C313.52 564.053 363.166 522.883 380.851 524.252C383.155 524.432 385.442 525.254 386.977 527.047C389.899 530.453 389.76 536.377 389.321 540.567C387.147 561.322 355.407 614.739 343.171 635.263L298.778 576.982Z" fill="#071FF5"/>
<path d="M-9.43556 183.922C-2.23714 194.988 5.92565 205.374 13.646 216.072C27.1895 234.839 40.5261 253.603 55.2668 271.469C64.5012 282.662 74.5324 293.183 83.7771 304.368C93.0815 315.624 101.636 327.494 110.795 338.872C126.314 358.15 142.377 377.008 158.051 396.166C166.352 406.219 174.522 416.378 182.561 426.643C185.638 430.587 191.119 439.265 194.523 442.011C195.008 441.702 195.346 441.557 195.645 441.054C192.643 482.513 191.195 516.447 201.558 557.187L218.678 510.658C221.637 502.632 224.288 494.324 227.704 486.499L234.046 494.844C241.432 504.384 248.983 513.789 256.701 523.06C271.004 540.82 285.03 558.795 298.779 576.984L343.172 635.266C353.527 648.49 366.113 665.158 378.032 676.705H139.369H-51V666.604V485.834V444.747V250.638L-49.7974 250.596L-49.5144 249.597C-34.9138 228.547 -22.4132 205.997 -9.43556 183.922Z" fill="#367D57"/>
<path d="M-51 485.836L-49.3393 487.278L-47.1522 488.01C-31.6179 494.795 -16.5542 502.878 -1.02596 509.516C3.96362 512.6 15.5905 529.551 20.1065 535.052L95.6846 627.178C109.648 644.039 124.563 660.591 139.369 676.707H-51V666.606V485.836Z" fill="#D2809B"/>
<path d="M1515.97 681.58C1516.02 681.4 1516.1 681.22 1516.13 681.03C1514.55 677.23 1511.55 672.45 1509.38 669.47C1504.55 662.81 1500.24 655.5 1494.83 649.31C1484.2 637.17 1471.43 626.91 1460.71 614.78C1452.24 605.2 1444.54 594.92 1437.14 584.5C1418.84 558.71 1403.54 531.69 1389.16 503.56C1382.66 490.87 1375.16 470.87 1367 460C1385.2 465.61 1403.09 476.77 1420.1 485.45C1448.2 499.997 1476.54 514.05 1505.13 527.61L1659.46 598.66L1711.69 622.15C1720.58 626.16 1730.39 629.82 1738.79 634.74C1750.96 639.9 1826.83 676.05 1830.94 680.85L1831.05 681.58H1515.97Z" fill="#071FF5"/>
<path d="M24.2302 474.593L3 451.783V747H8.87796V725.168C17.37 721.258 37.4244 712.721 49.7052 709.854C65.0563 706.269 83.3469 726.798 96.7383 725.168C110.13 723.539 96.7383 692.909 89.2272 680.527C83.2184 670.622 33.1574 664.452 8.87796 662.606V635.561H40.2333C56.2364 635.561 68.9757 656.089 96.7383 674.336C124.501 692.584 145.078 682.157 153.571 674.336C162.064 666.516 162.715 633.28 153.571 614.706C144.427 596.133 130.708 575.931 96.7383 566.481C69.5627 558.922 26.8416 577.886 8.87796 588.313C9.74893 585.815 12.5361 577.951 16.7168 566.481C21.9427 552.144 43.4995 541.391 61.4647 537.807C79.4299 534.222 111.716 568.463 130.708 566.481C153.571 564.095 160.683 558.061 170.809 545.353C180.934 532.645 176.791 488.028 153.571 474.593C130.707 461.363 86.2877 467.859 61.4647 474.593C64.8397 468.945 75.1173 454.651 89.2272 442.66C106.865 427.671 130.708 385.962 130.708 361.524C130.708 337.086 117.316 316.883 89.2272 310.04C61.138 303.198 46.1136 331.22 30.1093 361.524C17.3059 385.767 20.8551 447.004 24.2302 474.593Z" fill="#FF6601"/>
<path d="M970.66 234.433L960.521 223.459L959.999 365.008L962.817 365.018L962.856 354.551C966.934 352.691 976.565 348.633 982.458 347.28C989.825 345.588 998.559 355.464 1004.98 354.706C1011.41 353.949 1005.04 339.239 1001.46 333.289C998.597 328.528 974.605 325.482 962.966 324.554L963.014 311.586L978.048 311.642C985.721 311.67 991.793 321.535 1005.07 330.333C1018.35 339.132 1028.24 334.169 1032.32 330.434C1036.41 326.699 1036.78 310.765 1032.43 301.843C1028.08 292.922 1021.53 283.211 1005.26 278.62C992.247 274.947 971.729 283.964 963.098 288.932C963.52 287.736 964.87 283.97 966.895 278.478C969.426 271.613 979.781 266.496 988.401 264.809C997.021 263.122 1012.44 279.597 1021.55 278.68C1032.52 277.576 1035.94 274.696 1040.82 268.621C1045.69 262.545 1043.79 241.145 1032.68 234.662C1021.74 228.279 1000.43 231.314 988.513 234.499C990.141 231.797 995.094 224.962 1001.88 219.237C1010.36 212.082 1021.87 192.126 1021.91 180.408C1021.96 168.691 1015.57 158.981 1002.12 155.65C988.66 152.319 981.406 165.729 973.679 180.23C967.497 191.832 969.091 221.2 970.66 234.433Z" fill="#367D57"/>
</g>
<defs>
<clipPath id="clip0_3545_3842">
<rect width="1920" height="676" fill="white"/>
</clipPath>
</defs>
</svg>
