<svg width="360" height="860" viewBox="0 0 360 860" fill="none" xmlns="http://www.w3.org/2000/svg">
<g clip-path="url(#clip0_3598_5154)">
<g clip-path="url(#clip1_3598_5154)">
<rect width="2442.6" height="860" fill="black" fill-opacity="0.2"/>
<rect width="2442.6" height="860" fill="#151762"/>
<path d="M190.215 -66.5781L830.08 -30.9334V1182.72H190.215V-66.5781Z" fill="#0021FE"/>
<path d="M180.65 -180.141V1186.46H353.845V21.8288H438.267V1186.46H573.168V21.8288H648.016V1186.46H813.378V-180.141H180.65Z" fill="#E07C9B"/>
<path d="M337.519 501.242C349.821 510.087 407.963 618.015 418.69 636.807C436.118 667.339 454.983 696.831 470.636 728.355C489.62 766.58 507.507 805.977 521.757 846.209C523.444 850.791 525.174 855.359 526.687 860H481.959H427.873C415.634 848.171 402.712 831.096 392.08 817.549L346.498 757.845C332.381 739.212 317.98 720.798 303.294 702.604C295.37 693.108 287.616 683.473 280.033 673.7L273.521 665.151C279.708 645.758 288.209 626.578 295.564 607.56C309.17 571.971 323.155 536.532 337.519 501.242Z" fill="#16175C"/>
<path d="M286.242 658.152C290.765 650.385 298.733 629.684 306.941 627.357C308.337 626.961 309.01 627.322 310.34 627.779C313.225 630.525 313.925 634.408 314.2 638.409C314.609 644.352 310.721 686.36 309.204 689.525C301.382 679.217 293.728 668.76 286.242 658.152Z" fill="#071FF5"/>
<path d="M349.852 749.432C364.933 735.064 415.72 689.313 433.812 690.834C436.168 691.034 438.509 691.948 440.079 693.94C443.068 697.725 442.925 704.309 442.476 708.965C440.252 732.029 407.783 791.391 395.266 814.199L349.852 749.432Z" fill="#071FF5"/>
<path d="M119.797 167.93C144.335 194.564 163.099 227.038 185.271 255.927C205.486 282.266 226.977 307.396 247.235 333.722C253.908 342.394 261.08 351.015 267.161 360.192L246.698 598.142C246.398 598.699 246.058 598.86 245.572 599.202C242.152 596.16 236.647 586.55 233.556 582.182C225.482 570.815 217.276 559.564 208.938 548.43C193.195 527.213 177.061 506.329 161.473 484.979C152.274 472.379 143.681 459.234 134.336 446.767C125.05 434.381 114.975 422.73 105.699 410.334C90.8936 390.548 77.498 369.768 63.8946 348.983C56.1401 337.136 47.9412 325.634 40.7109 313.379C52.0405 293.146 62.3168 272.069 73.3267 251.602C88.6165 223.576 104.107 195.685 119.797 167.93Z" fill="#16175C"/>
<path d="M41.7814 312.961C49.0174 325.245 57.2228 336.775 64.9835 348.651C78.5977 369.485 92.004 390.314 106.822 410.148C116.104 422.573 126.188 434.252 135.481 446.668C144.834 459.164 153.433 472.342 162.639 484.972C178.24 506.372 194.387 527.307 210.142 548.574C218.487 559.735 226.699 571.012 234.78 582.407C237.874 586.785 243.383 596.419 246.805 599.467C247.292 599.124 247.632 598.963 247.933 598.404C244.915 644.429 243.46 682.099 253.877 727.324L271.085 675.672C274.06 666.763 276.726 657.54 280.159 648.854L286.534 658.118C293.958 668.708 301.549 679.149 309.308 689.44C323.685 709.156 337.784 729.11 351.605 749.302L396.23 814C406.639 828.68 419.29 847.184 431.272 860.002H191.362H0V848.789V648.115V602.504V387.023L1.20886 386.977L1.49331 385.867C16.1701 362.499 28.736 337.466 41.7814 312.961Z" fill="#367D57"/>
<path d="M0 601.742L1.19131 601.89L1.63756 603.233C7.50177 611.537 50.9057 670.235 50.8876 674.257C35.0754 666.825 19.7364 657.775 3.91817 650.179L1.69108 649.359L0 647.744V601.742Z" fill="#16175C"/>
<path d="M0 648.82L1.66473 650.416L3.85713 651.226C19.4289 658.732 34.5289 667.676 50.0947 675.02C55.0964 678.433 66.7513 697.188 71.2782 703.274L147.039 805.203C161.036 823.859 175.987 842.173 190.828 860.004H0V848.828V648.82Z" fill="#D2809B"/>
<path d="M-86.9936 -115.065C36.3261 -125.284 162.706 -140.043 286.304 -142.484C300.616 -136.769 315.418 -131.517 328.969 -124.174L522.76 -28.7005C556.521 -12.0084 590.745 7.53204 625.684 21.4498C625.387 386.67 621.241 752.407 626.101 1117.56C587.137 1120.71 548.915 1127.18 510.109 1131.05C473.426 1134.7 436.484 1135.47 399.848 1139.8C364.056 1144.04 328.496 1151.14 292.519 1153.61C199.927 1159.66 105.007 1176.05 13.1015 1189.92C-19.9544 1194.9 -57.5086 1205.48 -90.4996 1206.04L-90.7685 1005.02L-90.852 862.649L-90.8613 812.564L-90.7685 659.172L-90.8428 609.577L-90.7129 455.094L-90.7685 406.09L-90.7222 249.452L-90.4532 147.773C-88.7466 60.2994 -89.6463 -27.3411 -89.5072 -114.834L-86.9936 -115.065Z" fill="#EBA661"/>
<path d="M-86.9805 -115.065C36.3392 -125.284 162.72 -140.043 286.318 -142.484C294.016 -47.4087 289.128 50.0438 290.408 145.517C165.075 144.139 39.3442 147.885 -85.8954 144.879C-85.1843 90.447 -85.0235 36.0118 -85.4131 -18.4264C-85.4873 -50.3587 -83.9105 -83.2898 -86.9805 -115.065Z" fill="#FE6501"/>
<path d="M-90.4532 147.768C36.7063 150.274 164.014 145.678 291.127 149.025L292.519 1153.6C199.927 1159.65 105.007 1176.05 13.1015 1189.91C-19.9544 1194.9 -57.5086 1205.47 -90.4996 1206.03L-90.7685 1005.01L-90.852 862.643L-90.8613 812.558L-90.7685 659.166L-90.8428 609.571L-90.7129 455.088L-90.7685 406.084L-90.7222 249.446L-90.4532 147.768Z" fill="#FDBECD"/>
<path d="M6.70219 657.719L90.353 657.737C90.1799 708.248 90.4024 758.756 91.0208 809.261L5.35742 808.928C5.46254 758.522 5.91073 708.119 6.70219 657.719Z" fill="#DF7C9A"/>
<path d="M49.8228 453.901L93.9808 453.633L92.3485 609.623L51.418 610.345L5.21032 609.383C5.8843 557.602 5.7452 505.821 4.79297 454.04L49.8228 453.901Z" fill="#DF7C9A"/>
<path d="M3.82812 250.128L93.3406 249.805C92.0421 301.407 93.5076 353.361 93.7209 405L4.59802 404.343L3.82812 250.128Z" fill="#DF7C9A"/>
<path d="M142.691 657.77L236.461 657.742C234.235 709.048 234.68 760.466 234.615 811.818C204.249 811.264 173.827 811.568 143.461 811.467C145.492 760.493 143.229 708.799 142.691 657.77Z" fill="#DF7C9A"/>
<path d="M141.971 249.609L235.657 249.877C233.375 301.757 234.73 354.256 234.498 406.21C204.085 405.35 173.469 406.034 143.028 405.997L141.971 249.609Z" fill="#DF7C9A"/>
<path d="M142.51 453.393C173.228 454.818 204.606 453.218 235.389 452.922C232.885 505.8 234.285 559.132 234.434 612.075C203.882 610.897 173.321 610.642 142.751 611.307L142.51 453.393Z" fill="#DF7C9A"/>
<path d="M253.801 726.42L538.679 0H380.927C375.415 8.0572 357.901 42.7456 331.948 117.041C299.507 209.911 255.077 517.781 246.171 599.837C239.047 665.482 247.864 712.638 253.801 726.42Z" fill="#FF6602"/>
<path d="M-86.6033 674.263L191.37 -61.0625H75.6949C70.182 -53.0053 52.6682 -18.3169 26.7156 55.9789C-5.72526 148.849 -86.6033 468.804 -95.5086 550.861C-102.633 616.506 -92.5402 660.481 -86.6033 674.263Z" fill="#E84845"/>
<path d="M291.332 0H381.657C370.884 25.3909 354.327 51.9247 346.136 78.2814L334.675 115.386C332.886 121.283 331.576 128.068 328.957 133.58C323.835 125.408 321.47 111.486 318.764 101.976C309.127 68.1135 301.015 33.8232 291.332 0Z" fill="#071FF5"/>
<path d="M281.936 1.27344H291.417C299.94 30.3487 315.855 71.275 324.338 100.384C326.721 108.559 328.803 120.527 333.311 127.551C331.253 138.652 326.898 149.663 323.948 160.591L305.567 248.078C302.446 244.867 294.62 238.913 292.668 234.864C287.356 212.031 283.387 189.239 281.933 165.827C278.799 115.35 277.004 51.5678 281.936 1.27344Z" fill="#DAA671"/>
<path d="M180.651 -29.2578H189.664C194.425 23.793 201.035 76.5399 206.234 129.529C206.522 136.834 206.763 144.136 207.424 151.42C207.866 165.095 211.084 192.41 204.802 204.088C202.757 207.889 199.159 211.002 194.918 212.056C190.866 213.065 186.718 212.094 183.167 210.051C159.514 196.448 141.11 123.129 133.58 96.0528C148.21 59.7954 162.674 7.6888 180.651 -29.2578Z" fill="#071FF5"/>
<path d="M368.976 415.359C396.096 346.668 427.672 280.297 456.66 212.453C487.602 259.63 514.814 309.037 541.406 358.754C579.379 430.273 615.696 502.623 650.359 575.803C663.374 603.126 675.073 631.133 688.447 658.265C705.43 692.73 726.618 724.448 745.095 758.03C763.235 790.99 778.325 826.084 792.574 860.893H603.36H547.941H480.927C465.763 846.203 449.752 824.997 436.578 808.174L380.102 734.029C362.61 710.889 344.767 688.021 326.571 665.426C316.753 653.633 307.145 641.668 297.749 629.531L289.682 618.914C297.347 594.831 307.879 571.011 316.993 547.393C333.851 503.196 351.178 459.185 368.976 415.359Z" fill="#367D57"/>
<path d="M368.976 415.359C384.218 426.344 456.258 560.378 469.549 583.714C491.143 621.632 514.517 658.257 533.912 697.406C557.433 744.877 579.596 793.803 597.252 843.767C599.343 849.456 601.485 855.129 603.36 860.893H547.941H480.927C465.763 846.203 449.752 824.997 436.578 808.174L380.102 734.029C362.61 710.889 344.767 688.021 326.571 665.426C316.753 653.633 307.145 641.668 297.749 629.531L289.682 618.915C297.347 594.831 307.879 571.011 316.993 547.393C333.851 503.196 351.178 459.185 368.976 415.359Z" fill="#16175C"/>
<path d="M297.752 629.53C303.428 620.643 313.43 596.958 323.734 594.296C325.486 593.843 326.33 594.256 328 594.779C331.622 597.92 332.5 602.363 332.845 606.94C333.359 613.74 328.478 661.804 326.574 665.425C316.755 653.632 307.148 641.667 297.752 629.53Z" fill="#071FF5"/>
<path d="M-12.003 233.984C-2.84527 248.062 7.53936 261.275 17.3611 274.885C34.5911 298.761 51.5577 322.632 70.3106 345.361C82.0585 359.601 94.8201 372.985 106.581 387.214C118.418 401.535 129.301 416.636 140.953 431.11C160.696 455.635 181.132 479.626 201.071 503.999C211.632 516.789 222.026 529.713 232.253 542.771C236.168 547.789 243.14 558.829 247.471 562.323C248.088 561.93 248.518 561.745 248.898 561.105C245.079 613.849 243.237 657.02 256.421 708.848L278.2 649.654C281.964 639.444 285.338 628.874 289.684 618.92L297.752 629.536C307.148 641.673 316.755 653.638 326.573 665.432C344.769 688.027 362.613 710.894 380.104 734.034L436.581 808.179C449.754 825.003 465.765 846.208 480.93 860.898H177.304H-64.8809V848.047V618.074V565.803V318.86L-63.3509 318.807L-62.9909 317.535C-44.4162 290.756 -28.5131 262.068 -12.003 233.984Z" fill="#367D57"/>
<path d="M-64.8809 618.078L-62.7681 619.913L-59.9857 620.844C-40.2231 629.475 -21.0593 639.759 -1.30442 648.204C5.04327 652.128 19.8348 673.693 25.58 680.69L121.73 797.891C139.494 819.342 158.469 840.4 177.304 860.902H-64.8809V848.052V618.078Z" fill="#D2809B"/>
<path d="M30.8263 603.775L3.81749 574.757V950.328H11.2954V922.554C22.0989 917.58 47.6118 906.719 63.2354 903.071C82.7649 898.511 106.034 924.627 123.07 922.554C140.107 920.482 123.07 881.515 113.515 865.763C105.87 853.161 42.1834 845.312 11.2954 842.963V808.556H51.1853C71.5443 808.556 87.7511 834.672 123.07 857.886C158.39 881.1 184.567 867.835 195.372 857.886C206.177 847.937 207.005 805.655 195.372 782.026C183.739 758.397 166.286 732.696 123.07 720.674C88.4978 711.057 34.1485 735.183 11.2954 748.448C12.4034 745.27 15.9492 735.266 21.2679 720.674C27.9162 702.435 55.3405 688.755 78.1956 684.195C101.051 679.635 142.125 723.196 166.286 720.674C195.372 717.639 204.421 709.963 217.302 693.796C230.183 677.629 224.913 620.867 195.372 603.775C166.284 586.944 109.775 595.208 78.1956 603.775C82.4893 596.589 95.5644 578.405 113.515 563.15C135.953 544.081 166.286 491.02 166.286 459.93C166.286 428.84 149.25 403.138 113.515 394.433C77.7801 385.728 58.6662 421.378 38.3057 459.93C22.0173 490.772 26.5326 568.677 30.8263 603.775Z" fill="#FF6601"/>
</g>
</g>
<defs>
<clipPath id="clip0_3598_5154">
<rect width="360" height="860" fill="white"/>
</clipPath>
<clipPath id="clip1_3598_5154">
<rect width="2442.6" height="860" fill="white"/>
</clipPath>
</defs>
</svg>
