<svg width="360" height="400" viewBox="0 0 360 400" fill="none" xmlns="http://www.w3.org/2000/svg">
<g clip-path="url(#clip0_3570_5122)">
<g clip-path="url(#clip1_3570_5122)">
<rect width="3590" height="401" transform="translate(-1255 -1)" fill="#151762"/>
<path fill-rule="evenodd" clip-rule="evenodd" d="M184.654 134.676C222.672 90.8752 296.134 126.192 353.821 119.987C393.473 115.722 429.935 98.5221 469.437 104.041C514.062 110.276 556.024 125.833 591.799 153.236C637.143 187.968 691.782 224.141 699.995 280.644C708.349 338.11 672.621 394.337 633.017 436.784C597.058 475.326 542.472 483.231 493.281 502.2C442.863 521.642 396.083 553.117 342.193 548.931C280.86 544.167 207.347 531.054 176.854 477.623C146.225 423.954 197.71 359.981 199.115 298.223C200.39 242.14 147.889 177.033 184.654 134.676Z" fill="#ECA761"/>
<path fill-rule="evenodd" clip-rule="evenodd" d="M587.909 608.965C549.89 652.765 476.429 617.448 418.741 623.654C379.09 627.919 342.628 645.119 303.125 639.6C258.5 633.365 216.538 617.808 180.763 590.405C135.42 555.673 80.7807 519.499 72.5671 462.996C64.2136 405.531 99.9415 349.304 139.545 306.857C175.505 268.315 230.09 260.41 279.282 241.44C329.7 221.998 376.48 190.524 430.369 194.709C491.702 199.473 565.216 212.587 595.709 266.018C626.338 319.687 574.853 383.66 573.448 445.418C572.172 501.501 624.674 566.608 587.909 608.965Z" fill="#FF303B"/>
<path d="M-475.892 538.138C-622.916 481.999 -588.37 259 -588.37 259H-1632V563H205.4C205.4 563 251.194 314.38 80.8713 270.272C-157.422 208.562 -249.359 624.638 -475.892 538.138Z" fill="#007F55"/>
<path d="M646.694 146.692L665.976 95.7224L861.662 572.764L852.138 576.671L837.666 541.393C821.314 540.719 783.159 540.254 761.358 543.784C734.107 548.196 718.076 593.526 695.297 599.794C672.517 606.063 673.914 547.667 677.877 522.666C681.048 502.665 758.078 459.421 796.196 440.298L778.269 396.596L727.461 417.438C701.529 428.075 694.494 469.715 661.602 517.655C628.711 565.595 588.456 562.423 569.51 555.432C550.564 548.44 527.478 495.166 529.984 459.076C532.49 422.985 541.329 381.221 590.11 343.371C629.134 313.092 710.931 315.339 746.951 320.248C743.884 316.79 734.155 305.936 719.777 290.181C701.806 270.487 659.747 267.44 628.26 273.59C596.774 279.739 567.154 356.53 535.065 365.951C496.436 377.293 480.911 372.27 456.081 358.466C431.25 344.661 408.388 269.811 437.108 232.665C465.389 196.089 541.671 177.06 586.358 171.442C577.146 164.558 551.017 148.292 520.205 138.295C481.689 125.798 415.407 74.25 399.208 34.76C383.009 -4.73002 391.317 -46.2768 432.297 -76.0051C473.277 -105.733 516.198 -70.4381 562.219 -32.1084C599.035 -1.44462 633.875 99.8683 646.694 146.692Z" fill="#C7ECC4"/>
</g>
</g>
<defs>
<clipPath id="clip0_3570_5122">
<rect width="360" height="400" fill="white"/>
</clipPath>
<clipPath id="clip1_3570_5122">
<rect width="3590" height="401" fill="white" transform="translate(-1255 -1)"/>
</clipPath>
</defs>
</svg>
