<svg width="103" height="133" viewBox="0 0 103 133" fill="none" xmlns="http://www.w3.org/2000/svg">
<path d="M43.9142 22.9912C46.5069 23.0588 48.1549 23.127 50.3627 24.2688C52.1688 25.2035 53.3901 26.8403 53.6224 28.3973C54.1325 31.819 52.4258 33.8324 49.4354 36.3603C46.3583 36.381 44.0857 36.3318 41.7645 34.6866C39.9813 33.4223 39.2093 31.8313 39.2109 30.0598C39.2143 26.8398 40.8556 25.2359 43.9142 22.9912Z" fill="#838383"/>
<path d="M44.1838 62.0342L45.3218 62.4979C47.3094 65.4358 46.3402 71.543 46.7234 74.9206C47.3374 80.3283 50.7016 86.8924 50.2306 92.1404C50.0781 93.8376 49.4982 94.0192 47.8301 95.094C46.0145 92.8996 44.405 90.5326 43.243 88.1209C39.2096 79.7456 38.6733 70.1089 44.1838 62.0342Z" fill="#838383"/>
<path d="M27.7042 8.28931C28.7991 8.45243 29.9656 8.58707 30.9488 9.00047C34.1192 10.3323 38.9202 14.5462 39.718 17.1339C40.2045 18.7115 39.9554 19.5478 38.9191 20.945C35.5493 21.6679 33.3784 19.493 29.9963 20.2137L29.165 21.5282C30.0148 23.7717 32.6097 24.6287 34.484 26.4125L35.4566 27.3532C34.4845 28.0281 33.5488 28.6873 32.4047 29.2169C29.9494 30.3543 26.6908 31.4638 23.7501 30.9884C22.5104 30.2102 21.8981 29.9996 21.2786 28.8666C18.8809 24.4824 25.15 12.6803 27.7042 8.28931Z" fill="#838383"/>
<path d="M59.1373 38.9307C61.2284 39.5379 63.0362 40.4184 64.5808 41.596C67.1221 43.5323 70.3673 47.1317 69.7316 49.9221C69.3997 51.378 68.3026 52.0383 66.7009 52.8321C55.767 53.1131 58.5625 58.755 52.7145 59.6605C50.357 60.0253 48.9425 59.6281 46.9062 58.8449C47.3632 53.207 49.018 47.4725 49.8481 41.8262C51.0559 40.7357 50.6291 40.6597 52.7185 40.4832C55.6324 43.177 54.2078 46.9696 56.8742 49.6919L57.8787 49.1696C59.7278 46.8132 58.8524 41.696 59.1373 38.9307Z" fill="#838383"/>
<path d="M44.5147 0.470947C50.7219 0.95809 49.3739 3.86363 57.824 3.07203C59.6234 3.60945 60.4189 3.75861 61.5536 4.95244C63.8317 7.35184 63.2898 11.3266 62.301 13.9707C61.3943 16.3936 59.4508 19.703 56.0436 20.8159C54.6324 21.2762 53.6101 20.7438 52.2168 20.4337C51.9113 18.6656 52.1543 17.1567 52.3029 15.3886C52.4425 13.7271 52.3811 11.902 50.7928 10.6434C47.8577 12.6752 46.9717 16.8668 45.9583 19.6539C42.8499 13.1679 41.2394 7.11665 44.5147 0.470947Z" fill="#838383"/>
<path d="M31.3583 34.2046C32.3136 34.2666 33.3141 34.4811 34.2516 34.6303C37.5884 38.4101 31.1371 41.9402 32.0259 45.8547L33.4845 46.115C36.2186 45.286 37.3856 41.8626 40.0006 40.3727C42.1458 40.2352 42.3012 40.1201 44.076 40.9458C46.5458 44.0676 44.6989 48.7446 43.9749 52.14L41.5112 54.9551C40.3855 55.392 39.4146 56.026 38.0744 55.9059C34.856 55.6177 31.5052 53.63 29.4181 51.9523C26.1031 49.287 23.416 45.691 24.0344 42.0201C24.6232 38.5257 27.7042 36.318 31.3583 34.2046Z" fill="#838383"/>
<path d="M69.0639 13.4243C69.9164 13.4455 70.7723 13.4528 71.6192 13.5232C74.1415 13.7333 76.6376 14.8031 78.0303 16.3338C81.1822 19.7985 77.7493 25.2755 76.1772 28.7218C77.1493 31.4441 78.7532 35.3977 76.7476 38.0943C75.6566 39.5613 74.5644 39.5401 72.517 39.7965C69.0489 39.272 66.9729 37.6949 64.4316 36.0664C61.5719 34.3 58.3473 32.133 57.6172 29.3816C60.0942 27.2844 68.5483 29.3084 72.6549 28.6219L73.3767 27.5436L72.0131 25.4783C69.4075 23.8085 65.8372 23.3795 62.5333 22.7057C64.0568 19.274 65.9819 16.2969 69.0639 13.4243Z" fill="#838383"/>
<path d="M75.9805 65.3128C77.6045 65.1614 76.7582 65.0648 78.4163 65.8977C79.1933 68.6558 78.0409 71.6418 77.399 74.3881C82.8866 75.5445 88.0859 76.5992 92.2401 79.5707C92.3121 80.1886 92.7859 80.8506 92.4563 81.4249C90.677 84.5226 74.8331 84.8958 71.5192 88.6834C71.5929 89.5376 71.6979 90.408 71.6957 91.2649C71.6912 92.8582 71.7181 93.6202 69.8494 94.7006C66.8282 96.4481 62.4299 96.7308 58.7998 96.1699C56.9088 94.8766 57.2596 94.7632 57.2066 92.8643C60.2685 88.608 66.4388 85.4499 68.9913 81.1316C69.6767 79.9712 69.6371 80.4679 69.0164 79.3489C63.2405 79.6629 57.8708 85.6265 54.0938 88.5935C54.5969 86.9302 55.1412 85.2736 55.7267 83.6237C58.897 74.8657 65.1913 69.7826 75.9805 65.3128Z" fill="#838383"/>
<path d="M23.4858 76.033C28.1175 78.0642 37.0828 85.1781 38.6447 88.8719C39.2783 90.3702 39.2425 90.6344 38.2224 91.8836C34.3264 92.6277 29.9985 90.197 25.9639 90.0914C24.3936 90.0501 24.5768 90.226 23.488 90.9199L23.6472 92.7539C26.6455 95.86 31.9767 95.9355 36.8023 96.8259C39.4498 97.3142 40.7743 97.7276 42.1782 99.4024C42.0631 99.9968 42.0318 100.425 41.6492 101.001C39.6296 104.038 34.9772 106.089 30.8689 107.401C28.6164 107.959 25.3522 108.827 22.9618 108.322C21.8232 108.081 21.6707 107.459 21.1188 106.782C21.1299 103.646 23.2545 100.469 24.712 97.5354C23.7925 97.5533 22.8713 97.5572 21.9523 97.579C17.7775 97.6762 14.6976 97.6282 10.8228 96.4075C6.95028 95.1874 3.28553 93.2444 1.95874 90.2568C1.21573 88.5847 1.32076 86.816 2.67716 85.311C4.15479 83.6725 6.66257 82.7753 9.29214 82.4714C15.1412 81.7966 19.3266 83.5977 23.9383 85.8524C23.3941 82.7519 21.9344 79.0111 23.4858 76.033Z" fill="#838383"/>
<path d="M100 116L102.887 111L97.1132 111L100 116ZM100 0L97.1132 5L102.887 5L100 0ZM100 111.5L100.5 111.5L100.5 4.5L100 4.5L99.5 4.5L99.5 111.5L100 111.5Z" fill="#5F5F5F"/>
<path d="M0 130L4.97088 127.063L5.02862 132.837L0 130ZM100 129L95.0291 131.937L94.9714 126.163L100 129ZM4.49977 129.955L4.49478 129.455L95.4952 128.545L95.5002 129.045L95.5052 129.545L4.50478 130.455L4.49977 129.955Z" fill="#5F5F5F"/>
</svg>
