<svg width="67" height="43" viewBox="0 0 67 43" fill="none" xmlns="http://www.w3.org/2000/svg">
<path d="M0.806447 15.2661C4.77286 15.6756 9.31467 17.6214 13.0018 18.7895C13.3034 21.9113 17.1693 30.2273 16.4151 31.9267C15.2922 31.9167 15.8173 31.9994 14.5995 31.5564C14.2755 31.4402 13.9627 31.315 13.6498 31.1943L13.0576 31.4351L13.0632 32.8999L13.9347 35.4211L12.9627 35.8809C12.175 35.3781 11.4767 34.9395 10.918 34.2898C8.52698 31.5139 0.0410957 17.4834 0.806447 15.2661Z" fill="#838383"/>
<path d="M54.2132 22.1275C56.8333 22.0582 60.7327 21.7806 63.2075 22.4878C65.3583 23.1035 65.4812 23.5057 66.2913 24.9236C64.9784 30.4804 55.5261 35.9111 49.8334 39.573C49.0178 39.1747 48.6044 38.73 48.0122 38.1764C47.8335 33.6424 53.1183 33.1385 56.1461 29.9771C57.1014 28.9844 57.0345 28.9481 56.6155 27.7475C54.2244 28.0704 52.0345 28.6486 49.7552 29.2374L48.6602 28.8391C49.2468 25.8822 51.3529 24.194 54.2132 22.1275Z" fill="#838383"/>
<path d="M18.0301 0.168457C21.3597 1.20196 23.7004 2.98238 25.7898 5.06111C32.9964 12.2197 30.6165 20.7368 28.6947 28.7512C27.8121 25.6703 26.8903 20.2787 23.0803 18.3073L24.125 19.4251L22.7675 20.3715C22.8904 22.1664 23.801 24.1686 24.3652 25.9362C26.5849 30.3313 28.6892 34.7541 30.678 39.2047C13.6894 26.496 17.9016 16.0034 18.0301 0.168457Z" fill="#838383"/>
<path d="M50.752 3.36304L52.305 4.21833C56.1988 10.3758 47.9867 19.6589 45.7186 25.8062C44.3666 29.4626 44.1878 33.2927 42.6571 36.8966C40.6459 32.8559 42.8526 27.2152 40.0259 23.6013C38.4784 24.6102 38.5901 25.3889 38.1432 26.7967C38.1376 32.081 38.4616 37.3832 38.6795 42.6657C35.2326 37.1742 33.5008 31.6335 33.6852 25.6163C33.9925 15.4969 40.9924 9.92438 50.752 3.36304Z" fill="#838383"/>
</svg>
