<svg width="101" height="81" viewBox="0 0 101 81" fill="none" xmlns="http://www.w3.org/2000/svg">
<path d="M15.0525 53.0552C15.615 53.1166 16.529 53.2004 17.0602 53.3456C17.6954 53.5244 35.5219 63.5578 35.7057 63.7868L34.6231 64.0717C29.3299 62.3734 25.0361 61.5913 19.3809 60.6751C16.196 60.1611 13.7838 59.6696 12 57.6473C12.1335 55.692 13.5067 54.5803 15.0525 53.0552Z" fill="#838383"/>
<path d="M82.7658 40.7201C85.6059 40.6754 88.6718 41.7257 91.1092 42.748C93.0734 43.5692 93.5885 44.748 94.036 46.2676C93.5494 48.234 92.8963 49.5803 90.9098 51.0496C87.421 53.6305 82.6305 54.6026 77.7602 54.7646C75.1552 54.6864 72.6435 54.9043 70.4922 53.8205L70.9469 52.5356C74.3368 50.8373 78.7725 52.2171 82.3853 50.7032L82.7808 49.558C80.5216 47.9268 77.7178 48.4295 75.6413 46.7592C76.405 44.1056 79.9395 42.2955 82.7658 40.7201Z" fill="#838383"/>
<path d="M71.2337 3.70947C74.3146 9.69262 67.3773 25.1561 72.1845 29.3125C73.7085 29.4354 75.2074 29.4632 76.6017 29.9604C77.3699 30.2286 77.3051 30.2174 77.4559 30.8766C78.3883 34.9548 74.499 40.6921 71.0493 43.815C68.9555 45.7088 66.5617 47.4127 63.1204 47.6641L62.6964 46.6083C63.8249 44.234 66.1701 42.72 68.5505 40.9491C68.8823 40.6251 69.2225 40.3067 69.546 39.9771C71.2521 38.2453 71.6571 36.547 71.137 34.48C69.3801 34.899 68.1186 36.2676 66.8807 37.2341L65.7321 37.2117C64.2344 32.6252 68.4158 26.251 64.1293 22.374L62.65 22.5919C61.2925 23.6645 59.992 24.603 58.4249 25.5304L57.6719 24.8265C58.4847 17.8545 64.1768 8.63677 71.2337 3.70947Z" fill="#838383"/>
<path d="M23.708 18.4746C23.98 18.5361 24.2599 18.5807 24.5242 18.6533C29.1934 19.9997 33.5966 23.7315 35.5335 26.9549C37.0932 29.5526 37.6234 32.3123 36.1597 34.9827C25.6666 36.6084 34.7771 44.2563 30.5794 48.7926C28.3235 48.9155 26.1129 49.0663 23.8733 49.2898C22.8929 51.8037 31.9894 54.1891 33.1062 57.1723L32.4274 57.9489L30.3576 57.2896C28.4056 56.3287 26.4101 55.4182 24.4845 54.4349C19.4002 51.826 12.9048 45.6864 12.2104 41.1222C12.0171 39.8541 11.8959 40.3625 13.0612 39.3011C18.2025 39.4799 21.4913 42.3066 24.9605 44.6697C22.9572 36.1168 22.3158 27.1113 23.708 18.4746Z" fill="#838383"/>
<path d="M46.3214 7.75439C53.466 11.3242 50.5957 31.039 54.185 36.1953C54.8565 37.1618 55.0587 36.9719 56.3838 37.2791C59.2682 36.497 60.9949 34.2233 62.7446 32.4803C61.4407 45.6141 59.2978 52.2118 45.3695 61.5915C46.6281 57.681 48.2996 53.8095 49.8091 49.9437C50.9862 47.0834 52.4833 44.3404 50.7085 41.441L49.4963 41.765C45.6192 46.5527 43.9449 52.8766 41.2215 58.1167C40.1338 56.5804 39.0378 55.033 38.1344 53.4352C29.2161 37.6813 39.9472 40.6142 40.9763 37.0947C41.5237 35.2177 40.7567 32.1842 40.659 30.2178C40.2388 21.7877 41.6595 15.5699 46.3214 7.75439Z" fill="#838383"/>
<path d="M0 78L5 80.8867L5 75.1132L0 78ZM96 78L91 75.1133L91 80.8868L96 78ZM4.5 78L4.5 78.5L91.5 78.5L91.5 78L91.5 77.5L4.5 77.5L4.5 78Z" fill="#5F5F5F"/>
<path d="M98 77L100.887 72L95.1132 72L98 77ZM98 0L95.1132 5L100.887 5L98 0ZM98 72.5L98.5 72.5L98.5 4.5L98 4.5L97.5 4.5L97.5 72.5L98 72.5Z" fill="#5F5F5F"/>
</svg>
