<svg width="64" height="37" viewBox="0 0 64 37" fill="none" xmlns="http://www.w3.org/2000/svg">
<path d="M56.723 25.2756C59.1755 25.37 60.5832 25.4645 62.829 26.279C63.3821 26.9577 64.0357 27.3181 63.7452 28.1415C62.829 30.7431 58.2872 32.6711 55.3878 34.1738C54.0191 34.5922 53.142 34.666 51.6616 34.6492L50.8516 33.8001C51.1644 30.7242 53.8627 27.5114 56.723 25.2756Z" fill="#838383"/>
<path d="M0.734375 21.5999L4.72874 21.8177C8.05829 23.2859 14.0023 33.2226 15.3486 36.2918C12.6448 35.898 10.6392 35.3063 8.51074 34.0103C3.43261 30.9187 0.996941 26.2489 0.734375 21.5999Z" fill="#838383"/>
<path d="M11.0925 8.18701C12.5618 8.54064 14.154 9.00767 15.316 9.78196C20.869 13.4841 20.8913 22.7086 21.8075 27.9225C19.9304 25.9789 18.3941 24.4705 15.707 23.065L14.4612 23.3175C14.5729 26.8197 17.3104 29.4492 20.0142 32.2079C21.6399 32.8548 23.1482 33.4637 24.584 34.3246C25.8353 35.0743 25.4554 34.6816 25.6174 35.9257C25.3605 35.9167 25.0924 35.9346 24.8354 35.8989C21.5952 35.4441 18.1818 32.2531 16.4053 30.447C10.0367 23.9611 9.43335 15.7573 11.0925 8.18701Z" fill="#838383"/>
<path d="M49.518 11.4766C51.2219 11.6257 51.0152 11.5067 52.5571 12.3414C53.3895 14.8 52.4789 17.4301 51.9091 19.8904C50.5962 25.5266 48.3561 32.4321 41.5238 35.9164C39.116 36.1058 39.1774 36.1683 37.2109 35.1762C40.2556 32.2142 45.0265 29.3992 46.5125 25.8143C47.2555 24.0322 42.9092 22.3887 41.6243 20.577C40.6187 19.1563 40.3506 17.6731 41.2947 16.1826C43.0098 13.4804 45.8756 12.6062 49.518 11.4766Z" fill="#838383"/>
<path d="M28.663 0.109863C28.9758 0.3431 29.3948 0.524155 29.6015 0.80957C30.0987 1.48269 30.3557 2.91239 30.7579 3.68779C34.2998 10.5039 39.3109 16.2256 38.1489 23.9109C37.931 25.3612 37.6796 25.9902 36.0316 26.9198C34.3835 26.1729 35.0763 19.5658 33.445 17.6239C32.1936 16.1328 31.7523 16.2099 29.501 15.8993C28.9088 20.5775 31.0596 24.6908 29.3948 29.5405L28.3501 29.5254C26.8697 27.7299 25.7636 25.9992 24.8977 24.0026C21.6855 16.5524 23.7022 7.02908 28.663 0.109863Z" fill="#838383"/>
</svg>
