<svg width="79" height="78" viewBox="0 0 79 78" fill="none" xmlns="http://www.w3.org/2000/svg">
<path d="M16.8512 53.9913C18.7267 53.8461 20.7711 53.6059 22.6529 53.7567C27.1815 54.1198 32.978 57.7807 35.5919 60.2454C39.247 63.6917 42.8065 69.6101 41.4483 74.0245C40.8238 76.0547 40.1131 76.0776 37.728 77.1323C32.6428 70.7391 33.865 64.347 26.6073 58.1393C22.6344 57.7762 17.4999 57.7427 14.0102 56.3164L14.0078 55.3388L16.8512 53.9913Z" fill="#838383"/>
<path d="M62.5517 44.9143C66.0355 44.7708 70.3561 44.6048 73.2488 46.1786C73.4175 50.7947 59.9791 54.9075 56.4769 58.7784C53.3278 62.2593 52.3083 66.8246 50.9178 70.786C49.9301 72.1513 49.4799 73.0279 47.5357 73.8144L46.5816 73.0407C46.5419 72.191 46.5229 71.4145 46.6955 70.5698C48.1369 63.5235 54.3982 49.1444 62.5517 44.9143Z" fill="#838383"/>
<path d="M18.9297 4.32129C20.6032 4.38609 22.3245 4.45592 23.932 4.82798C30.42 6.33019 35.778 11.2927 38.3351 15.5848C41.025 20.0998 42.2222 27.4561 39.5564 32.1281C38.2723 31.5326 38.3866 30.8779 37.9583 29.865C37.0014 27.2159 36.3582 24.5534 35.2392 21.9283L33.4091 22.0892C33.0668 23.8282 33.4204 25.5332 32.9471 27.3176C26.3058 23.9344 24.4688 12.7625 21.1133 7.6838L18.9297 4.32129Z" fill="#838383"/>
<path d="M58.4598 0C59.5407 0.130166 59.9754 0.388822 60.8664 0.819542C61.8077 5.04741 50.5789 32.7324 47.2141 37.3106C47.2929 32.9078 51.49 16.7478 50.8995 15.2713L49.2007 15.2662C46.8404 19.1064 45.2421 22.8851 45.1125 27.0957C45.0063 30.5476 44.3823 33.6285 42.5668 36.8564C41.6504 34.7799 43.6307 20.0947 44.1739 16.7651C45.4393 9.00824 50.1258 4.68205 58.4598 0Z" fill="#838383"/>
<path d="M71.794 16.4182C74.2884 16.5746 76.0023 16.6925 78.2129 17.6428L78.428 18.9271C75.7996 23.6058 70.1985 26.6337 66.2595 30.6995C61.5059 35.6062 57.0552 42.4508 53.982 47.9803C52.5943 50.4769 50.3703 57.5695 47.3067 58.9013L46.4844 58.0829C48.1994 54.0796 49.6966 49.8272 52.0284 45.9831C54.4859 41.9323 57.7943 37.8458 59.5585 33.6263C59.8652 32.8928 59.835 32.433 59.5372 31.7074C57.1563 32.028 56.1926 33.804 54.8094 35.1788C55.6177 31.8912 56.2362 28.2482 58.0339 25.1711C60.7545 20.5142 65.5466 18.4031 71.794 16.4182Z" fill="#838383"/>
<path d="M17.3853 22.8846C18.3336 23.0595 19.1944 23.2154 20.0809 23.5226C29.0489 26.6321 36.6725 31.2845 39.9128 38.1822C41.2608 41.0514 42.1786 45.1748 40.225 47.987C36.8135 46.3608 36.0416 42.548 33.2887 40.295C32.1225 39.3403 32.7974 39.6302 30.8809 39.5285C30.2095 42.0575 35.6765 49.4407 37.4628 51.8233C38.4589 52.8311 38.7525 52.7054 38.5271 53.9987C36.6069 53.9182 36.4231 53.7763 35.0785 52.8467C27.3482 47.5016 27.5676 39.4391 16.7393 35.3403C11.3692 33.3079 5.58043 34.5627 0.586883 32.7918C0.203593 32.0717 -0.301986 31.7543 0.230519 31.0074C2.5273 27.7851 12.7584 24.307 17.3853 22.8846Z" fill="#838383"/>
</svg>
