<svg width="61" height="54" viewBox="0 0 61 54" fill="none" xmlns="http://www.w3.org/2000/svg">
<path d="M0.257812 6.66156C4.92701 6.40341 8.5465 7.18804 12.4392 9.08817C20.5944 13.0687 29.2149 21.4474 30.7227 28.5349C31.3863 31.6542 31.8383 44.2928 29.4797 46.4396C27.6786 44.8883 27.0205 42.7648 26.1233 40.8632C25.4803 38.064 25.1691 33.7162 22.2418 31.6674L21.1524 32.3282C19.9854 35.519 20.5128 38.5403 20.8659 41.7827C16.938 36.6818 12.6487 31.4146 9.8856 25.9336C7.39793 20.9996 6.14711 15.217 2.60862 10.6415C1.5578 9.28247 0.886294 8.14986 0.257812 6.66156Z" fill="#838383"/>
<path d="M57.329 0.0717773L59.7072 0.575512L60.5742 1.81745C59.7033 9.58743 54.8894 18.4281 52.099 26.0462C49.7024 32.5903 48.0269 39.4021 45.137 45.8357C43.922 48.5401 42.2511 51.1758 40.6366 53.7708C40.4651 48.6675 40.6611 43.7698 41.9466 38.7341C43.2974 33.4421 46.5845 27.1064 46.2231 21.7893L45.0175 21.4236L42.5929 22.959C35.9713 32.8011 39.736 43.3318 33.6964 52.9797L32.9127 53.0713C32.6468 50.4831 32.7658 48.277 33.7071 45.7564C36.8255 37.4027 34.607 28.6282 36.7953 20.1127C39.1846 10.8171 46.8471 5.1884 57.329 0.0717773Z" fill="#838383"/>
</svg>
