<svg width="87" height="64" viewBox="0 0 87 64" fill="none" xmlns="http://www.w3.org/2000/svg">
<path d="M3.7624 51.2725C7.77351 52.0473 22.0191 60.1908 25.2872 62.6237L23.9409 63.0589C18.0639 60.955 12.7902 60.4293 6.60598 59.2142C3.74569 58.6522 2.06413 58.074 0.578125 56.2864C0.606058 54.2685 2.25964 52.8903 3.7624 51.2725Z" fill="#838383"/>
<path d="M74.5934 38.3696C77.1464 38.5099 80.0514 39.6199 82.2413 40.531C84.2468 41.3662 86.0737 42.5472 86.3306 44.2991C86.5764 45.9656 85.3921 47.4885 83.934 48.7108C79.9173 52.0789 74.4817 53.1124 68.5209 53.3783C65.7444 53.1996 63.9065 53.3956 61.6719 52.1661L62.0573 51.1471C65.3031 49.5454 69.532 50.4845 73.0459 49.384C74.4425 48.9466 74.1744 48.8371 74.7051 47.9008L73.5934 46.9455C71.3644 46.5673 69.1578 46.3684 67.398 45.2528L67.5097 43.7857C69.3254 41.5154 71.8728 40.0635 74.5934 38.3696Z" fill="#838383"/>
<path d="M61.7931 0.18811L62.7036 0.508384C65.2343 4.43486 60.4243 17.7407 62.6756 23.8487C63.4689 26.009 64.7651 26.7704 67.3684 27.8C67.603 27.8928 67.8377 27.9805 68.0779 28.0704C68.5862 28.7022 68.67 28.7078 68.8991 29.5402C69.7873 32.7435 65.2958 39.0937 62.5975 41.5434C60.4634 43.483 57.3349 45.8467 53.7428 46.1835L53.1004 45.283C54.0278 43.1947 55.6646 41.9534 57.6813 40.3602L58.5417 39.6892C61.1394 37.7082 62.3573 36.1999 62.7651 33.5055L61.7595 32.8055C58.888 33.4033 57.43 35.1826 55.6535 36.7775C56.3127 32.834 56.8602 28.8682 56.8937 24.8945C56.916 22.7247 56.983 20.74 54.754 19.1277C51.5138 20.1662 51.4804 22.8111 48.4022 23.7381C48.0112 23.2936 47.7709 23.1039 47.6536 22.5196C46.4469 16.5369 56.5808 4.79837 61.7931 0.18811Z" fill="#838383"/>
<path d="M12.4029 15.5605C13.6766 15.7564 14.9615 15.9567 16.0788 16.4581C21.2016 18.7588 25.6318 23.5086 26.6206 27.7491C27.0284 29.4949 27.0116 31.3546 25.5982 32.8607C24.2854 32.9685 23.2743 33.016 22.1011 33.4853C18.3079 34.9981 21.8943 43.4488 20.6318 46.2845C20.196 47.2694 19.9559 47.1331 18.7772 47.6063C16.9113 47.2957 15.2297 46.9191 13.3024 47.1845L12.671 48.4186C14.2967 51.9274 20.6821 52.1487 22.8999 55.362L22.3469 56.2944L20.6095 56.3587C15.0566 53.7319 10.5873 51.4805 6.30245 47.7957C3.6712 45.532 -0.0550116 42.0449 0.559504 38.912C0.822069 37.5567 1.00092 37.4199 2.459 36.6702C5.4366 37.0707 7.4086 38.5316 9.67672 39.8517C10.9225 40.5762 10.9895 40.5807 12.7101 40.8617C13.347 39.1215 12.3805 19.4759 12.4029 15.5605Z" fill="#838383"/>
<path d="M37.0363 3.84521C42.8127 8.7443 41.7401 29.617 44.7066 34.1113C45.2987 35.0057 45.7009 34.8437 46.902 35.085C49.9131 34.2616 51.5947 31.989 53.3992 30.1879C53.3768 30.6732 53.347 31.1583 53.3097 31.6432C52.3544 44.0771 48.5053 51.901 35.1536 60.4696L40.8407 46.3849C41.4441 44.4028 42.4775 41.9514 41.9915 39.9369C41.7233 38.8269 42.0139 39.2213 40.6675 38.5906C35.8855 42.4581 34.4721 50.7273 31.4386 55.6546L30.9917 56.3618C28.4833 53.1445 26.5839 50.0032 25.1482 46.4625C20.9025 36.0174 28.5895 38.404 30.7738 35.461C32.1537 33.6035 26.9638 16.8768 37.0363 3.84521Z" fill="#838383"/>
</svg>
