<svg width="59" height="56" viewBox="0 0 59 56" fill="none" xmlns="http://www.w3.org/2000/svg">
<path d="M37.4489 12.3745C39.6388 13.4974 39.9908 14.1454 40.4154 16.0113C42.2701 24.0615 46.7728 32.1898 42.3427 40.2791C41.4153 41.9662 40.3763 43.0053 38.0243 43.6868L37.2366 43.0611L37.6388 41.0165C39.0522 37.4579 42.0299 30.782 39.7227 27.391C37.421 27.1564 36.7562 28.7541 34.6668 29.5474C31.801 27.2569 30.5887 23.8492 29.0859 21C31.5887 17.8493 34.1305 15.1175 37.4489 12.3745Z" fill="#838383"/>
<path d="M10.6989 11C11.9 11.6313 11.5369 11.3352 12.3023 12.0782C14.5592 14.2681 17.1067 15.7486 19.805 17.5921C28.6317 23.6311 30.3858 29.9551 30.7098 38.2957C28.8942 35.1002 27.1791 31.0109 24.3133 28.2232C23.0619 26.9998 22.358 26.6199 20.2798 26.4299L18.3916 27.8377C20.2016 31.6812 24.5032 35.8879 24.7099 39.9828C24.7658 41.2006 24.8719 40.7594 23.6429 41.7091C20.3133 40.8767 18.0006 38.5806 16.1235 36.5527C10.0398 29.9773 8.41407 18.6479 10.6989 11Z" fill="#838383"/>
<path d="M0 53L5 55.8867L5 50.1132L0 53ZM55 53L50 50.1133L50 55.8868L55 53ZM4.5 53L4.5 53.5L50.5 53.5L50.5 53L50.5 52.5L4.5 52.5L4.5 53Z" fill="#5F5F5F"/>
<path d="M56 52L58.8868 47L53.1132 47L56 52ZM56 3.8147e-06L53.1132 5L58.8868 5L56 3.8147e-06ZM56 47.5L56.5 47.5L56.5 4.5L56 4.5L55.5 4.5L55.5 47.5L56 47.5Z" fill="#5F5F5F"/>
</svg>
