<svg width="66" height="40" viewBox="0 0 66 40" fill="none" xmlns="http://www.w3.org/2000/svg">
<path d="M63.9792 15.083L65.4651 15.6858L65.7724 16.8523C62.7334 22.5768 59.4206 30.9995 53.8453 35.6391L52.4319 35.6726L53.1525 34.8911C53.8285 33.3509 53.9737 32.4447 53.6665 30.8453L52.633 30.5928L50.2028 31.8129L49.4375 31.352C51.1861 27.3409 53.1302 23.384 53.5603 19.1723C53.5883 18.9304 53.5994 18.6885 53.6162 18.4466C57.1078 17.4053 60.5323 16.2065 63.9792 15.083Z" fill="#838383"/>
<path d="M4.87701 21.7371C5.09488 21.7315 5.31278 21.7226 5.53065 21.7203C5.89377 21.7175 6.25687 21.722 6.61999 21.7209C7.93841 21.7175 9.335 21.6795 10.6367 21.8773C10.9272 21.9224 11.2121 21.9773 11.4914 22.0421C11.7745 22.1069 12.0519 22.1812 12.3238 22.265C12.5957 22.3492 12.8601 22.4425 13.1171 22.5449C13.3778 22.6473 13.6292 22.7585 13.8713 22.8784C14.1171 22.9983 14.3517 23.1264 14.5752 23.2628C14.8024 23.3991 15.0184 23.5428 15.2232 23.694C15.4318 23.8452 15.6273 24.0033 15.8098 24.1683C15.996 24.3329 16.1692 24.5037 16.3293 24.6806C17.3573 25.8376 17.5583 27.2258 17.2176 28.5392C15.3126 29.0962 12.4132 27.7113 10.24 27.4286L9.94953 28.3414C10.335 29.1811 10.7317 29.8431 11.6423 30.4694C14.9495 32.7369 17.5528 34.0145 19.1058 37.2771L18.0388 38.4167C16.4578 38.5726 16.3293 38.543 15.0388 37.9301C9.4188 35.2598 1.12289 28.8185 0 24.065C1.34076 22.5181 2.56978 22.436 4.87701 21.7371Z" fill="#838383"/>
<path d="M46.8267 0L48.2065 0.821779C49.0669 6.45521 49.0334 12.4356 48.9216 18.1075C48.7429 27.3258 45.162 32.1079 35.9051 38.4402C37.8008 34.8 39.5977 31.1354 41.296 27.4465C42.4301 24.8454 44.4022 21.3673 43.2905 18.6472L42.0503 19.0801C39.4805 22.0013 38.905 25.1594 38.0168 28.4889C37.0894 24.8862 35.8828 21.0796 35.7599 17.4154C35.5141 10.1429 39.8771 5.02618 46.8267 0Z" fill="#838383"/>
<path d="M14.6296 2.90967C15.7134 3.25268 15.7302 3.22697 16.8866 3.78507C24.3111 7.36825 30.1937 13.5285 31.9646 19.744C33.5735 25.4032 33.4897 35.0058 28.9534 39.9197C27.0317 38.2275 28.311 29.3193 28.378 26.8707C28.2328 25.0523 28.0484 24.3339 26.2216 23.1032C23.4843 26.4551 26.434 31.9433 23.948 35.7192C21.7413 32.2086 22.2385 28.0411 20.8195 24.3467C17.9816 16.9692 10.3225 10.9872 14.6296 2.90967Z" fill="#838383"/>
</svg>
