<svg width="70" height="50" viewBox="0 0 70 50" fill="none" xmlns="http://www.w3.org/2000/svg">
<path d="M64.329 18.8601L66.463 19.1338C66.53 19.5137 66.7088 19.888 66.6586 20.2623C66.2508 23.3181 58.871 35.0665 55.8878 37.0385L55.1839 36.6922C55.7146 35.2732 56.6252 34.0721 55.8878 32.6699L52.5303 33.3459C52.3571 29.7873 55.5246 25.67 55.9939 21.8545C56.0274 21.5919 56.0498 21.3237 56.0777 21.0612C59.0721 20.5751 61.5637 19.7931 64.329 18.8601Z" fill="#838383"/>
<path d="M12.8064 24.4017C15.6443 24.357 18.6275 24.29 20.9459 25.6922C23.0129 26.9436 23.6274 28.7648 23.7057 30.6139L22.8062 30.8988C21.0074 30.3569 19.3761 29.9268 17.4711 29.5972L17.0074 30.4798C18.27 33.1055 23.119 34.787 25.0073 37.6976L24.5045 38.9378L23.214 39.407C22.3034 39.1277 21.5716 38.9043 20.7672 38.4797C15.6778 35.787 9.15837 31.0497 8.24219 26.4632C9.54943 25.0162 10.583 24.9995 12.8064 24.4017Z" fill="#838383"/>
<path d="M50.1313 5C53.1703 7.87146 52.2989 19.0444 51.7514 23.2008C50.8967 29.6923 47.2152 34.8599 40.1762 39.0106C42.1426 35.5638 43.7851 32.0666 45.4275 28.5415C46.2487 26.4131 47.6285 23.6589 46.7012 21.497L45.5728 22.0388C43.2208 24.9047 42.8242 27.7706 42.2153 30.9828C41.3214 27.536 40.0365 23.8656 40.0085 20.3517C39.9471 13.8881 43.7403 9.37982 50.1313 5Z" fill="#838383"/>
<path d="M20.6986 7.68726C21.5533 7.86044 21.6148 7.84363 22.5309 8.19558C29.5644 10.8883 34.9051 17.201 36.5028 22.5808C37.972 27.5416 38.134 36.3795 34.3073 40.7481L33.2291 40.1727C32.4861 37.0387 33.4358 32.7371 33.5084 29.4634C33.4358 28.1506 33.1341 26.5081 31.9386 25.5137C27.2627 28.9606 33.1397 34.4466 30.0392 37.994L29.1453 37.737C27.2068 34.4298 28.0783 30.7148 26.961 27.2511C24.5476 19.7708 18.6986 16.0279 20.6986 7.68726Z" fill="#838383"/>
<path d="M70 47L65 49.8867L65 44.1132L70 47ZM4 47L9 44.1133L9 49.8868L4 47ZM65.5 47L65.5 47.5L8.5 47.5L8.5 47L8.5 46.5L65.5 46.5L65.5 47Z" fill="#5F5F5F"/>
<path d="M3 46L0.113249 41L5.88675 41L3 46ZM3 0L5.88675 5L0.113248 5L3 0ZM3 41.5L2.5 41.5L2.5 4.5L3 4.5L3.5 4.5L3.5 41.5L3 41.5Z" fill="#5F5F5F"/>
</svg>
