<svg width="105" height="65" viewBox="0 0 105 65" fill="none" xmlns="http://www.w3.org/2000/svg">
<path d="M19.4156 40.3084C20.7447 40.2581 22.0944 40.2301 23.4256 40.2636C25.6563 40.3195 27.4317 40.705 28.792 42.0793C31.5339 44.839 30.0518 50.5763 29.816 53.8053C27.1831 52.1517 24.9356 50.3082 21.2731 50.3585L20.5821 51.3082C22.386 54.8612 26.2306 58.174 29.2585 61.2745C30.5512 62.0566 31.7808 62.8778 33.0238 63.6991L32.9813 64.6767L31.2221 64.8387C27.8172 63.7884 25.1697 62.4253 22.7105 60.4253C17.8268 56.4533 13.8023 48.6043 15.5743 43.2916C16.152 41.5542 17.4671 41.2525 19.4156 40.3084Z" fill="#838383"/>
<path d="M76.2737 36.1296L78.3049 36.3643L79.4719 37.6436C79.9736 41.1631 79.2814 44.4759 77.0077 47.649C74.2106 51.5596 67.5933 57.2131 61.2074 58.1517C59.0773 58.4701 57.8622 58.3472 55.969 57.6433C55.2656 56.1573 55.5852 56.2857 56.3438 54.9171C60.3002 52.8724 64.7196 51.9953 66.9889 48.7887L66.4548 47.6881C63.9241 47.2021 60.594 48.0848 58.0527 48.5149L57.1857 47.9843C57.179 47.2357 57.1259 47.0792 57.4198 46.2413C60.0812 38.6604 67.7095 39.5374 75.5245 36.4369C75.7759 36.3364 76.0239 36.2302 76.2737 36.1296Z" fill="#838383"/>
<path d="M46.0204 19.3533C47.7282 20.3644 48.5673 21.9063 49.5064 23.3085C55.2069 31.8168 55.3572 40.7552 50.7176 49.5204C49.4992 51.8221 47.907 55.1069 44.5328 56.1963L43.2428 55.565C40.8479 49.3696 46.3422 44.1909 45.1188 38.4927C45.0456 38.1519 44.9411 37.8167 44.8529 37.4759L42.4646 38.5541C37.3647 45.2132 36.8854 51.7159 37.0681 59.1404C26.4884 40.8278 37.3731 36.1966 45.5199 20.3421L46.0204 19.3533Z" fill="#838383"/>
<path d="M-8.19735e-08 3.9945L5.02712 6.83376L4.97244 1.06052L-8.19735e-08 3.9945ZM105 3.00001L99.9729 0.160742L100.028 5.93399L105 3.00001ZM4.4998 3.95188L4.50453 4.45185L100.505 3.54261L100.5 3.04263L100.495 2.54265L4.49506 3.4519L4.4998 3.95188Z" fill="#5F5F5F"/>
</svg>
