<svg width="23" height="26" viewBox="0 0 23 26" fill="none" xmlns="http://www.w3.org/2000/svg">
<path d="M8.33989 0.0532532C8.51413 0.0366161 8.69623 0.00889127 8.87047 0.00255333C11.3811 -0.0948925 13.8839 2.61932 15.6105 4.29729C17.5826 4.0818 21.1784 3.16677 23 3.70233C22.7862 6.60035 19.6894 9.16405 19.7211 11.9821C19.7527 14.9569 22.8494 16.5493 22.4297 19.9243C19.4834 19.0069 16.3154 17.5301 13.385 18.892C13.3375 19.0544 13.3137 19.2263 13.2503 19.38C12.0385 22.0507 9.38536 24.5866 6.87469 26C7.51622 24.2309 7.40532 21.1642 6.95387 19.3428C6.04306 15.6644 2.97796 14.1108 0 12.3156C2.46315 11.2437 5.01344 10.2518 7.34195 8.9137C7.41323 8.83368 7.50037 8.76238 7.56373 8.67286C8.76759 6.97112 8.56165 2.11308 8.33989 0.0532532Z" fill="#838383"/>
</svg>
